<svg id="Qualmark" xmlns="http://www.w3.org/2000/svg" viewBox="0 0 236.69 289.48"><defs><style>.cls-1{fill:#1d1d1b;}.cls-2{fill:#bb7224;}.cls-3{fill:#fff;}</style></defs><title>bronze_1plus</title><path d="M189.09,47.81C186,43.18,181.56,40.7,176.94,42c1.36-1.35,2.51-2.33,3.66-3.6-.45,1.16,7.5,5.35,14.5-.07a13.52,13.52,0,0,0-11-3.81c.81-1.15,1-1.06,2.1-2.48a9.31,9.31,0,0,0,12.15-1.13c-4.81-3.59-10.38-1.3-10.4-1.3l2.29-3.51c1,1.34,7.74,2.62,10.1-1.91-2-1.88-8-1.24-8.63-.79a23.74,23.74,0,0,0,1.1-2.16c12.48,1.53,8.2-13,5.4-21.19-47,71.56-109.54,20.93-186,65.92A64,64,0,0,0,8.3,95a35.76,35.76,0,0,0,.5,4c-.16.69.85,6.23,2.88,12.37,1.51,4.39,3.21,7.34,5.09,11.86,1.11-.84,2.38-1.81,3.24-2.56-3.41-4.84-14.91-34.32-.63-51.51C32.92,69,34.46,107.79,32.19,111.9c.1,0,6.31-4.19,8.7-5.67-2.9-1.15-13.14-34.86,4-48.87,0,0,15.26,5.85,8.92,41.41,2.59-1.7,6.23-3.25,9.82-5.09-2-3.39-12.38-28.84,4.32-42.13,9,3.69,8.52,31.5,5,37.58,2.87-1.34,6-3,8.86-4.28-5.27-2.43-4.86-28.6,4-35.73,9.89,9.31,7.48,24.95,5,31.81,0,0,7.48-3.11,7.43-3.1-5.9-11.12-3.15-24.58,3.14-29.9q7.26,4.66,4,26.92c2.11-.85,3.32-1.47,5.36-2.24-1.27-2.44-4.67-17.61,4-25.77,7.78,3.71,5,20.57,4.44,22.28.08-.12,4.57-1.78,4.5-1.91-1.53-3.28-2.6-15.75,4.57-21.77,2.85,2.05,5.86,7.72,3.16,18.47,1.65-.81,3.45-1.52,5.16-2.31-2.44-2.72-.68-13.67,3-18,4.37,1.94,6.26,11.41,4.68,14.56,1.09-.55,2.5-1.24,4.29-2.26-1.4-2.22-1.85-12.42,2.44-15.2,4.21,2.9,3.78,10.36,3.62,12,1.21-.77,4.73-2.58,4.65-2.64-2.34-2.08-3.44-8.93,1.56-13,4.33,1,4.42,9.09,4,9.62,1.69-1.11,4.37-3.06,5.74-4.07-4-.86-3.5-7.27-1.35-10.11,2.63.54,4.49,2.14,5.36,6.86,1-.94,3.44-2.9,4.18-3.78-2.4-.19-5.4-5.43-1.7-8.88,1.11.47,4.55,1.93,4.88,5.63a26.27,26.27,0,0,0,2.6-3.05c-1.67-.61-3.51-5.63-1.8-7.82,2.28-.21,4.31,2.87,4.65,4.18l2.21-3.24c-1.28-1.05-3.92-4.07-1.58-6.71,2.55.12,3.46,2.06,4,3.9C166.2,70.33,61.66,79.05,7.11,140.18c0,0-5.67,5.94-5.67,8.79l0,20.63H2.55c2.75-7.75,11.57-27.49,29.33-41.88.35-.43,7.7,29.19,48.56,24.12-8-19.3-33-31.92-38.76-32.27,1.11-.85,8.3-6.22,9.45-6.87-1.56,5.22,21.9,27,40,21-4.84-14.75-24.76-27.23-29.91-27.43,2.15-1.11,4.32-2.82,6.56-3.89-1.17,2.82,16.06,19.68,34.49,18.32.18-8.74-19.78-25.45-23.63-24.13,1.84-1,4.65-2.63,5.51-3,2.62,6,19.63,18.9,31.33,16.8C106,90,93.75,88.79,93.62,88.78c3.26-1.53,5.17-2.53,5.74-2.77,0,5.44,16.8,17.72,28.49,14.84-2.37-9-11.57-17.83-20.62-18.67l6.18-2.94C112.46,81,126.62,92.76,140,92c-6.49-15.71-15.36-16-18.54-16.65,1.8-.8,3.75-1.9,5.66-2.89.76,2,8.07,12.38,25.73,9.76a23.13,23.13,0,0,0-18.67-13.11c2.52-1.49,4.39-2.12,6.22-3.13,1.25,1.46,5.65,10.8,23.58,7.39-3.79-9.09-12-11.24-15.24-11.87,1.51-.93,3.32-1.9,4.51-2.61,1.2,2.08,10.34,8.63,20.19,5.89-1.9-5.48-8.88-8.76-15.14-9,2.74-1.75,5.28-3.61,5.23-3.6.9,2.12,6.27,7.24,18.71,3.82-4-7.83-14.21-6.86-14.32-6.82,2.46-1.82,3.18-2.47,5.09-4C173.23,45.37,179,53.41,189.09,47.81Z"/><path d="M228,0a8.5,8.5,0,1,0,8.71,8.29A8.52,8.52,0,0,0,228,0Zm.39,16a7.49,7.49,0,1,1,7.31-7.68A7.5,7.5,0,0,1,228.37,16Z"/><polygon points="222.64 6.78 224.31 6.78 224.31 11.99 225.41 11.99 225.41 6.78 227.09 6.78 227.09 5.76 222.64 5.76 222.64 6.78"/><polygon points="230.33 9.3 228.51 5.76 227.39 5.76 227.39 11.99 228.51 11.99 228.51 7.92 229.83 10.53 230.86 10.53 232.16 7.92 232.16 11.99 233.29 11.99 233.29 5.76 232.16 5.76 230.33 9.3"/><path d="M19.53,191.51c0-6.57-3.58-10.09-9.76-10.09S0,184.94,0,191.51c0,5.5,2.53,8.88,7,9.81.69,4.21,3.39,6.31,9,6.38l1.22-5.76a6.81,6.81,0,0,1-2,.26,4,4,0,0,1-3.09-1C16.67,200.43,19.53,197.07,19.53,191.51ZM9.77,196c-2,0-2.73-1.61-2.73-4.44S7.73,187,9.77,187s2.73,1.61,2.73,4.47S11.81,196,9.77,196Z"/><path d="M40.46,193c0,1.55-.32,3.1-2.17,3.1s-2.17-1.55-2.17-3.1V181.81H29.38v11.87c0,6,3.81,7.9,8.91,7.9s8.92-1.91,8.92-7.9V181.81H40.46Z"/><path d="M61.53,181.81l-6.34,19.37h6.7l.79-2.63h6.38l.86,2.63h7l-6.38-19.37Zm2.67,11.71.69-2.66c.55-2.11.85-3.79.85-3.79h.13s.4,1.68,1,3.79l.69,2.66Z"/><polygon points="92.7 181.81 85.95 181.81 85.95 201.18 99.44 201.18 99.44 195.4 92.7 195.4 92.7 181.81"/><path d="M119.55,190a13,13,0,0,0-1.12,2.5h-.13a14.89,14.89,0,0,0-1.12-2.5l-4.3-8.16H109v19.37h3.52V190.79a22.3,22.3,0,0,0-.2-3.42h.13a19.14,19.14,0,0,0,1.48,3.22l3.32,6h2l3.32-6a16.46,16.46,0,0,0,1.45-3.22h.13a27.78,27.78,0,0,0-.16,3.42v10.39h3.52V181.81h-3.75Z"/><path d="M142.43,181.81l-7,19.37H139l1.71-4.86h7.73l1.71,4.86H154l-7-19.37Zm-.7,11.58,1.29-3.65a50.46,50.46,0,0,0,1.51-5.2h.13a42,42,0,0,0,1.51,5.23l1.25,3.62Z"/><path d="M175,195.39a3.55,3.55,0,0,0-3.32-3v-.07a4.51,4.51,0,0,0,4.41-4.83c0-3.88-2.37-5.66-6.78-5.66h-7v19.37h3.52v-7.53h2.36c1.75,0,2.77.4,3.29,2.47l.76,3.19a3.2,3.2,0,0,0,.92,1.87H177a4.91,4.91,0,0,1-1-2Zm-5.85-4.63h-3.32v-6h3.32c2.23,0,3.29,1.09,3.29,3C172.43,189.84,171.34,190.76,169.14,190.76Z"/><polygon points="200.74 181.81 196.66 181.81 191.26 189.84 189.82 189.84 189.82 181.81 186.3 181.81 186.3 201.18 189.82 201.18 189.82 192.86 191.2 192.86 196.99 201.18 201.26 201.18 194.19 191.22 200.74 181.81"/><polygon class="cls-1" points="15.51 267.89 13.03 275.51 5.04 275.51 11.51 280.2 9.03 287.82 15.51 283.12 21.98 287.82 19.51 280.2 25.98 275.51 17.99 275.51 15.51 267.89"/><path class="cls-1" d="M36.82,287.78V277.17h4c2.76,0,3.89,1.26,3.89,3.69a3.34,3.34,0,0,1-3.63,3.66H39.52v3.26Zm2.7-5.48h1.17c.91,0,1.33-.43,1.33-1.35s-.4-1.51-1.32-1.51H39.52Z"/><path class="cls-1" d="M49.18,277.17v8.26h4v2.35H46.48V277.17Z"/><path class="cls-1" d="M63.26,277.17v7c0,2.88-2,3.78-4.47,3.78s-4.48-.9-4.48-3.78v-7H57v6.27c0,1.36.24,2.3,1.78,2.3s1.77-.94,1.77-2.34v-6.23Z"/><path class="cls-1" d="M66.88,284.28a2,2,0,0,0,1.9,1.64c.71,0,1.25-.27,1.25-.88s-.36-.88-1.62-1.26c-2.7-.83-3.57-1.84-3.57-3.58,0-2.47,1.93-3.26,3.85-3.26,2.25,0,3.93.72,4.16,2.73l-2.7.72a1.3,1.3,0,0,0-1.4-1.2c-.56,0-1,.21-1,.81s.49.9,1.66,1.22c2.41.74,3.48,1.51,3.48,3.57,0,2.37-1.93,3.2-4.27,3.2-2.07,0-3.53-.65-4.14-2.54Z"/><rect class="cls-2" x="1.42" y="216.85" width="201.27" height="31.18"/><path class="cls-3" d="M22.58,232.25a3.87,3.87,0,0,1,3.81,4c0,3-1.91,4.84-6.13,4.84h-5.6V223.8h5.66c3.49,0,5.37,1.47,5.37,4.4a3.7,3.7,0,0,1-3.11,4ZM20,231.37c1.78,0,2.93-.82,2.93-2.67s-1.15-2.64-3.11-2.64H17.36v5.31Zm-2.67,7.45h3.11c2,0,3.19-.85,3.19-2.81,0-1.5-.91-2.5-3.22-2.5H17.36Z"/><path class="cls-3" d="M48.66,241.08a3.28,3.28,0,0,1-.77-1.61l-.7-3c-.5-2-1.53-2.4-3.23-2.4H41.64v7h-2.7V223.8h6c4,0,5.9,1.67,5.9,4.93a4,4,0,0,1-4,4.28v.09a3.13,3.13,0,0,1,3,2.76l.88,3.4a4.73,4.73,0,0,0,.91,1.82Zm-7-9.27h3.17c2.17,0,3.2-.91,3.2-2.87,0-1.79-1-2.88-3.17-2.88h-3.2Z"/><path class="cls-3" d="M62.44,232.46c0-5.78,3-9,7.8-9s7.78,3.23,7.78,9-3,9-7.78,9S62.44,238.21,62.44,232.46Zm2.85,0c0,4.13,1.7,6.63,4.95,6.63s4.93-2.5,4.93-6.63-1.7-6.63-4.93-6.63S65.29,228.35,65.29,232.46Z"/><path class="cls-3" d="M100.11,233.69c1,1.52,2,3.28,2,3.28h.12s-.15-1.84-.15-4V223.8h2.7v17.28h-2.67l-6.89-9.86a31.59,31.59,0,0,1-2-3.34h-.12s.18,1.85.18,4.08v9.12h-2.7V223.8H93.3Z"/><path class="cls-3" d="M121.86,236.56a15.13,15.13,0,0,1-1.68,2.14v.12a24.16,24.16,0,0,1,2.53-.09h6.69v2.35H116.75v-1.61l7.42-11.15a12.84,12.84,0,0,1,1.68-2.14v-.12a24.89,24.89,0,0,1-2.53.09H117.1V223.8h12.15v1.82Z"/><path class="cls-3" d="M151.92,241.08H141.27V223.8h10.65v2.35H144v5.1h7v2.35h-7v5.13h7.95Z"/></svg>