<svg xmlns="http://www.w3.org/2000/svg" width="120" height="135" viewBox="0 0 120 135">
  <g fill="none" fill-rule="evenodd">
    <path fill="#1D1D1B" d="M0 119.933392L59.966696 119.933392C93.0851101 119.933392 119.933392 93.0851101 119.933392 59.966696 119.933392 26.8482819 93.0851101 0 59.966696 0 26.8477533 0 0 26.8482819 0 59.966696L0 119.933392zM41.8795771 129.302643C43.2022203 129.302643 43.9692687 130.055419 43.9692687 131.462643 43.9692687 132.651542 43.3571101 133.369427 42.3860088 133.524317 42.4917357 133.671806 42.7729692 133.749515 43.047859 133.749515 43.2376388 133.749515 43.3782555 133.721498 43.4697093 133.692952L43.2096211 134.924141C42.0064493 134.910396 41.4297093 134.46 41.2816916 133.559207 40.3322643 133.362026 39.7898855 132.637797 39.7898855 131.462643 39.7898855 130.055419 40.5569339 129.302643 41.8795771 129.302643zM34.9448987 130.399454L35.9281586 132.710643 36.9167048 130.399454 37.6187313 130.399454 36.156 133.775313C36.0196123 134.114696 35.8536211 134.353639 35.6585551 134.492141 35.463489 134.630115 35.2277181 134.699894 34.9512423 134.699894 34.7947665 134.699894 34.6409339 134.67452 34.4886872 134.623771 34.3364405 134.573022 34.2116828 134.502714 34.1144141 134.413374L34.4067489 133.874696C34.4770573 133.940775 34.5600529 133.993639 34.655207 134.032758 34.7508899 134.071877 34.84763 134.091436 34.9448987 134.091436 35.0738855 134.091436 35.180141 134.058132 35.2636652 133.991524 35.3477181 133.925445 35.4248987 133.813903 35.4946784 133.658485L35.5475419 133.535841 34.1841938 130.399454 34.9448987 130.399454zM47.5179912 129.38696L47.5179912 131.779559C47.5179912 132.109956 47.5882996 132.440881 47.9816035 132.440881 48.3764934 132.440881 48.4462731 132.109956 48.4462731 131.779559L48.4462731 129.38696 49.8883877 129.38696 49.8883877 131.927048C49.8883877 133.207401 49.0727048 133.615507 47.9816035 133.615507 46.8910308 133.615507 46.075348 133.207401 46.075348 131.927048L46.075348 129.38696 47.5179912 129.38696zM13.6728634 130.3643C13.9932159 130.3643 14.2797357 130.433022 14.5329515 130.56941 14.786696 130.705797 14.9844053 130.895577 15.1271366 131.136634 15.2693392 131.379278 15.3407048 131.653639 15.3407048 131.961833 15.3407048 132.270026 15.2693392 132.545974 15.1271366 132.789674 14.9844053 133.033374 14.786696 133.223154 14.5329515 133.36007 14.2797357 133.496458 13.9932159 133.564652 13.6728634 133.564652 13.3572687 133.564652 13.0723348 133.496458 12.8191189 133.36007 12.5653744 133.223154 12.3676652 133.033374 12.2254626 132.789674 12.0827313 132.545974 12.0118943 132.270026 12.0118943 131.961833 12.0118943 131.653639 12.0827313 131.379278 12.2254626 131.136634 12.3676652 130.895577 12.5653744 130.705797 12.8191189 130.56941 13.0723348 130.433022 13.3572687 130.3643 13.6728634 130.3643zM19.5939912 130.364194C19.8080881 130.364194 20.0227137 130.38904 20.2368106 130.437674 20.4514361 130.486837 20.6269427 130.551859 20.763859 130.633797L20.4826256 131.189392C20.2177797 131.033445 19.9191013 130.955736 19.5876476 130.955736 19.3735507 130.955736 19.2107313 130.987454 19.0991894 131.051947 18.9881762 131.115912 18.9326696 131.201551 18.9326696 131.306749 18.9326696 131.423577 18.9918767 131.506573 19.1108194 131.555207 19.2297621 131.603841 19.4142555 131.649833 19.6637709 131.692652 19.9132863 131.731771 20.1178678 131.776705 20.2780441 131.826925 20.4382203 131.878203 20.5756652 131.963841 20.6903789 132.08437 20.8056211 132.205427 20.8632423 132.377233 20.8632423 132.59926 20.8632423 132.892123 20.73637 133.12578 20.4826256 133.301286 20.2294097 133.476793 19.8842115 133.564546 19.4470308 133.564546 19.193815 133.564546 18.9464141 133.531242 18.7042996 133.465163 18.462185 133.399084 18.2692335 133.315031 18.1249163 133.213533L18.4061498 132.657938C18.5467665 132.751507 18.7154009 132.826573 18.9120529 132.882608 19.1092335 132.9397 19.3027137 132.968247 19.4940793 132.968247 19.9307313 132.968247 20.1490573 132.853004 20.1490573 132.623048 20.1490573 132.513621 20.0935507 132.438026 19.9825374 132.394678 19.8715242 132.351859 19.6928458 132.310626 19.4470308 132.271507 19.1895859 132.232916 18.9802467 132.187454 18.8184846 132.137233 18.6567225 132.086485 18.5161057 131.997674 18.397163 131.87133 18.2782203 131.744458 18.2190132 131.567894 18.2190132 131.341639 18.2190132 131.045075 18.342185 130.808247 18.5901145 130.631154 18.8375154 130.453533 19.172141 130.364194 19.5939912 130.364194zM28.1936035 129.182643L28.1936035 133.523789 27.4915771 133.523789 27.4915771 133.119912C27.3705198 133.268458 27.2214449 133.379471 27.0438238 133.454009 26.8667313 133.527489 26.6706079 133.565022 26.4559824 133.565022 26.1557181 133.565022 25.8855859 133.498414 25.6461145 133.365727 25.4061145 133.233568 25.2179207 133.044846 25.0810044 132.801145 24.9446167 132.557974 24.8764229 132.277797 24.8764229 131.961674 24.8764229 131.646079 24.9446167 131.36696 25.0810044 131.124846 25.2179207 130.88326 25.4061145 130.696123 25.6461145 130.563436 25.8855859 130.430749 26.1557181 130.364141 26.4559824 130.364141 26.663207 130.364141 26.8519295 130.399559 27.0237357 130.469868 27.1950132 130.540176 27.3414449 130.645374 27.4625022 130.785463L27.4625022 129.182643 28.1936035 129.182643zM11.3092863 129.182643L11.3092863 133.523789 10.6072599 133.523789 10.6072599 133.119912C10.4862026 133.268458 10.3376564 133.379471 10.1600352 133.454009 9.9824141 133.527489 9.78629075 133.565022 9.57219383 133.565022 9.27192952 133.565022 9.00126872 133.498414 8.76179736 133.365727 8.52179736 133.233568 8.33360352 133.044846 8.19721586 132.801145 8.06029956 132.557974 7.99263436 132.277797 7.99263436 131.961674 7.99263436 131.646079 8.06029956 131.36696 8.19721586 131.124846 8.33360352 130.88326 8.52179736 130.696123 8.76179736 130.563436 9.00126872 130.430749 9.27192952 130.364141 9.57219383 130.364141 9.77888987 130.364141 9.96761233 130.399559 10.1394185 130.469868 10.310696 130.540176 10.4571278 130.645374 10.578185 130.785463L10.578185 129.182643 11.3092863 129.182643zM31.4989956 129.182802L31.4989956 130.779806C31.6237533 130.643419 31.7712423 130.540335 31.9409339 130.470026 32.1106256 130.399718 32.2972335 130.3643 32.4997004 130.3643 32.8041938 130.3643 33.0759119 130.430907 33.3159119 130.563595 33.5553833 130.696282 33.7435771 130.883419 33.8804934 131.125004 34.0168811 131.367119 34.0850749 131.645709 34.0850749 131.961833 34.0850749 132.277956 34.0168811 132.558132 33.8804934 132.801304 33.7435771 133.044476 33.5553833 133.233198 33.3159119 133.365885 33.0759119 133.498573 32.8041938 133.564652 32.4997004 133.564652 32.2850749 133.564652 32.0894802 133.527648 31.911859 133.453639 31.7342379 133.37963 31.5846344 133.268617 31.4641057 133.12007L31.4641057 133.523947 30.7678943 133.523947 30.7678943 129.182802 31.4989956 129.182802zM22.8525991 130.364617C23.1565639 130.364617 23.4288106 130.431753 23.6682819 130.566026 23.9082819 130.700828 24.0954185 130.890079 24.2302203 131.13378 24.3644934 131.37748 24.43163 131.659242 24.43163 131.979595 24.43163 132.030344 24.4279295 132.102238 24.42 132.195806L21.9692511 132.195806C22.0120705 132.425762 22.124141 132.608141 22.3054626 132.742943 22.4867841 132.877216 22.7119824 132.944352 22.9810573 132.944352 23.324141 132.944352 23.6069604 132.831753 23.8295154 132.605498L24.2212335 133.055894C24.0811454 133.223471 23.9035242 133.350344 23.6888987 133.436511 23.4742731 133.52215 23.2326872 133.564969 22.9636123 133.564969 22.6205286 133.564969 22.3181498 133.496775 22.0570044 133.360388 21.7953304 133.223471 21.5933921 133.033163 21.4511894 132.789463 21.3089868 132.545762 21.2376211 132.269815 21.2376211 131.961621 21.2376211 131.657656 21.3068722 131.383824 21.4453744 131.140123 21.5838767 130.895894 21.7757709 130.705586 22.0215859 130.569727 22.2674009 130.432811 22.5444053 130.364617 22.8525991 130.364617zM76.0086872 129.387172C76.9517709 129.387172 77.457674 129.76726 77.457674 130.597216 77.457674 131.244793 77.042696 131.589463 76.5156476 131.631225L76.5156476 131.645498C76.9020793 131.701533 77.1130044 131.870696 77.2261322 132.292546L77.4370573 133.095013C77.479348 133.256775 77.5422555 133.397392 77.6548546 133.531137L76.8317709 133.531137C76.7191718 133.425938 76.6700088 133.299066 76.6351189 133.129903L76.4733568 132.447436C76.3607577 132.004441 76.1424317 131.919859 75.7692159 131.919859L75.2627841 131.919859 75.2627841 133.531137 74.5105374 133.531137 74.5105374 129.387172 76.0086872 129.387172zM80.3977797 129.387278L80.3977797 131.103753 80.7070308 131.103753 81.8610396 129.387278 82.733815 129.387278 81.3334626 131.39926 82.8458855 133.531242 81.931348 133.531242 80.6927577 131.750802 80.3977797 131.750802 80.3977797 133.531242 79.6444758 133.531242 79.6444758 129.387278 80.3977797 129.387278zM54.8746256 129.386907L56.2395595 133.531401 54.7477533 133.531401 54.5648458 132.968405 53.1999119 132.968405 53.0312775 133.531401 51.5960352 133.531401 52.9535683 129.386907 54.8746256 129.386907zM63.9377445 129.38733L64.8591542 131.131824C65.0425903 131.476493 65.0986256 131.666802 65.0986256 131.666802L65.1266432 131.666802 65.1349911 131.639002C65.1556202 131.574597 65.2183906 131.3999 65.3655859 131.131824L66.280652 129.38733 67.0825903 129.38733 67.0825903 133.531295 66.329815 133.531295 66.329815 131.307859C66.329815 130.984335 66.3455565 130.767007 66.3560509 130.65807L66.3640189 130.585343C66.3647962 130.57927 66.3652335 130.576229 66.3652335 130.576229L66.3366872 130.576229C66.3366872 130.576229 66.2595066 130.85059 66.0269075 131.265568L65.3169515 132.539048 64.8802996 132.539048 64.169815 131.265568C63.9377445 130.85059 63.8536916 130.576229 63.8536916 130.576229L63.8246167 130.576229C63.8246167 130.576229 63.8674361 130.822573 63.8674361 131.307859L63.8674361 133.531295 63.1146608 133.531295 63.1146608 129.38733 63.9377445 129.38733zM71.2231718 129.387119L72.7287225 133.531084 71.9193833 133.531084 71.5535683 132.490203 69.9 132.490203 69.534185 133.531084 68.7533921 133.531084 70.2589427 129.387119 71.2231718 129.387119zM59.6208106 129.387119L59.6208106 132.293022 61.0629251 132.293022 61.0629251 133.531084 58.1781674 133.531084 58.1781674 129.387119 59.6208106 129.387119zM3.35312775 129.428405L3.35312775 130.066467 1.12387665 130.066467 1.12387665 131.131137 3.1014978 131.131137 3.1014978 131.75704 1.12387665 131.75704 1.12387665 132.886203 3.43506608 132.886203 3.43506608 133.523736.363171806 133.523736.363171806 129.428405 3.35312775 129.428405zM5.98609692 130.364247C6.37940088 130.364247 6.69552423 130.479489 6.93340969 130.709445 7.17129515 130.93993 7.29023789 131.281427 7.29023789 131.73341L7.29023789 133.523894 6.55913656 133.523894 6.55913656 131.826978C6.55913656 131.554203 6.49464317 131.348564 6.36618502 131.210062 6.23772687 131.071559 6.05376211 131.002308 5.81587665 131.002308 5.54680176 131.002308 5.33429075 131.083189 5.17834361 131.244952 5.02239648 131.406714 4.94415859 131.639841 4.94415859 131.943806L4.94415859 133.523894 4.21305727 133.523894 4.21305727 130.399665 4.90926872 130.399665 4.90926872 130.803542C5.02979736 130.659225 5.18204405 130.549797 5.36548018 130.475789 5.5489163 130.401251 5.75561233 130.364247 5.98609692 130.364247zM17.850185 130.364352L17.850185 131.060564C17.7878062 131.048934 17.7312423 131.043119 17.6804934 131.043119 17.3955595 131.043119 17.173533 131.126115 17.0133568 131.291577 16.8537093 131.457568 16.7738855 131.696511 16.7738855 132.008405L16.7738855 133.524 16.0422555 133.524 16.0422555 130.399242 16.738467 130.399242 16.738467 130.855982C16.9493921 130.528758 17.3199648 130.364352 17.850185 130.364352zM26.5442643 130.984758C26.3682291 130.984758 26.210696 131.024405 26.0700793 131.104758 25.9294626 131.184581 25.8184493 131.298767 25.736511 131.446784 25.6545727 131.59533 25.6133392 131.767137 25.6133392 131.961674 25.6133392 132.157269 25.6545727 132.328546 25.736511 132.476564 25.8184493 132.62511 25.9294626 132.738767 26.0700793 132.81859 26.210696 132.898414 26.3682291 132.93859 26.5442643 132.93859 26.7192423 132.93859 26.877304 132.898414 27.0179207 132.81859 27.1585374 132.738767 27.2695507 132.62511 27.351489 132.476564 27.4334273 132.328546 27.4741322 132.157269 27.4741322 131.961674 27.4741322 131.767137 27.4334273 131.59533 27.351489 131.446784 27.2695507 131.298767 27.1585374 131.184581 27.0179207 131.104758 26.877304 131.024405 26.7192423 130.984758 26.5442643 130.984758zM9.65994714 130.984758C9.48391189 130.984758 9.32637885 131.024405 9.18576211 131.104758 9.04567401 131.184581 8.93413216 131.298767 8.85272247 131.446784 8.77025551 131.59533 8.72955066 131.767137 8.72955066 131.961674 8.72955066 132.157269 8.77025551 132.328546 8.85272247 132.476564 8.93413216 132.62511 9.04567401 132.738767 9.18576211 132.81859 9.32637885 132.898414 9.48391189 132.93859 9.65994714 132.93859 9.83545374 132.93859 9.99298678 132.898414 10.1336035 132.81859 10.2742203 132.738767 10.3852335 132.62511 10.4671718 132.476564 10.5491101 132.328546 10.589815 132.157269 10.589815 131.961674 10.589815 131.767137 10.5491101 131.59533 10.4671718 131.446784 10.3852335 131.298767 10.2742203 131.184581 10.1336035 131.104758 9.99298678 131.024405 9.83545374 130.984758 9.65994714 130.984758zM13.6728634 130.984388C13.4037885 130.984388 13.1828194 131.074784 13.0088987 131.253463 12.8355066 131.433198 12.7488106 131.669498 12.7488106 131.961833 12.7488106 132.254696 12.8355066 132.490467 13.0088987 132.669674 13.1828194 132.848881 13.4037885 132.938749 13.6728634 132.938749 13.942467 132.938749 14.1644934 132.848881 14.34 132.669674 14.5155066 132.490467 14.6032599 132.254696 14.6032599 131.961833 14.6032599 131.669498 14.5155066 131.433198 14.34 131.253463 14.1644934 131.074784 13.942467 130.984388 13.6728634 130.984388zM32.4177621 130.984388C32.2422555 130.984388 32.0841938 131.024564 31.9441057 131.104916 31.803489 131.18474 31.6924758 131.298925 31.6105374 131.446943 31.5285991 131.59496 31.4873656 131.766767 31.4873656 131.961833 31.4873656 132.156899 31.5285991 132.328176 31.6105374 132.476194 31.6924758 132.625269 31.803489 132.738396 31.9441057 132.818749 32.0841938 132.898573 32.2422555 132.938749 32.4177621 132.938749 32.686837 132.938749 32.9083348 132.848881 33.0817269 132.669674 33.2556476 132.490467 33.3423436 132.254696 33.3423436 131.961833 33.3423436 131.669498 33.2556476 131.433198 33.0817269 131.253463 32.9083348 131.074784 32.686837 130.984388 32.4177621 130.984388zM41.8795771 130.505815C41.4434537 130.505815 41.2959648 130.850485 41.2959648 131.462643 41.2959648 132.06793 41.4434537 132.41207 41.8795771 132.41207 42.3162291 132.41207 42.4637181 132.06793 42.4637181 131.462643 42.4637181 130.850485 42.3162291 130.505815 41.8795771 130.505815zM53.8823789 130.512899L53.8543612 130.512899C53.8543612 130.512899 53.7903965 130.871313 53.6709251 131.321709L53.5234361 131.891577 54.2344493 131.891577 54.0864317 131.321709C53.9669604 130.871313 53.8823789 130.512899 53.8823789 130.512899zM70.7373568 129.970731L70.7093392 129.970731C70.7093392 129.970731 70.6104846 130.428529 70.3852863 131.082449L70.1109251 131.863771 71.32837 131.863771 71.0608811 131.08985C70.8288106 130.435401 70.7373568 129.970731 70.7373568 129.970731zM22.8525991 130.949286C22.6184141 130.949286 22.4201762 131.019066 22.2584141 131.157568 22.096652 131.295542 21.998326 131.480035 21.9629075 131.709991L23.7359471 131.709991C23.7047577 131.484264 23.6090749 131.300828 23.4488987 131.160211 23.2892511 131.020123 23.0904846 130.949286 22.8525991 130.949286zM75.9737974 130.020476L75.2627841 130.020476 75.2627841 131.300828 75.9737974 131.300828C76.4453392 131.300828 76.6768811 131.103648 76.6768811 130.660652 76.6768811 130.252546 76.4522115 130.020476 75.9737974 130.020476zM84.5405286 127.791542C85.2018502 127.774097 85.7553304 128.300088 85.7711894 128.961938 85.7881057 129.623789 85.2621145 130.175154 84.600793 130.190485 83.9368282 130.208987 83.3865198 129.682996 83.3701322 129.021674 83.3537445 128.359295 83.879207 127.805815 84.5405286 127.791542zM84.5442291 127.933744C83.9611454 127.948018 83.4991189 128.433833 83.5128634 129.018502 83.5266079 129.600529 84.0134802 130.063612 84.5965639 130.049339 85.1791189 130.035066 85.6427313 129.548722 85.6284581 128.964053 85.614185 128.381498 85.12837 127.919471 84.5442291 127.933744zM84.4157709 128.60474L84.4157709 128.748 84.1784141 128.748 84.1784141 129.484388 84.022467 129.484388 84.022467 128.748 83.7872247 128.748 83.7872247 128.60474 84.4157709 128.60474zM84.6152247 128.604L84.8731982 129.104088 85.1317004 128.604 85.291348 128.604 85.291348 129.484176 85.1317004 129.484176 85.1317004 128.909551 84.9477357 129.278537 84.8023612 129.278537 84.6152247 128.909551 84.6152247 129.484176 84.457163 129.484176 84.457163 128.604 84.6152247 128.604z"/>
    <path fill="#FFF" d="M62.8648811,92.9863612 C63.3491101,92.9863612 63.7836476,93.0889163 64.1700793,93.2940264 C64.5559824,93.4991366 64.8594185,93.7824846 65.0793304,94.1445991 C65.2997709,94.5067137 65.4097269,94.9148194 65.4097269,95.3683877 C65.4097269,95.8219559 65.2997709,96.2300617 65.0793304,96.5916476 C64.8594185,96.9542907 64.5559824,97.2376388 64.1700793,97.4427489 C63.7836476,97.647859 63.3491101,97.7498855 62.8648811,97.7498855 C62.380652,97.7498855 61.9455859,97.647859 61.5591542,97.4427489 C61.1732511,97.2376388 60.869815,96.9542907 60.6499031,96.5916476 C60.4294626,96.2300617 60.3195066,95.8219559 60.3195066,95.3683877 C60.3195066,94.9148194 60.4294626,94.5067137 60.6499031,94.1445991 C60.869815,93.7824846 61.1732511,93.4991366 61.5591542,93.2940264 C61.9455859,93.0889163 62.380652,92.9863612 62.8648811,92.9863612 Z M90.3680352,93.0796123 C90.8691806,93.0796123 91.3148194,93.1731806 91.702837,93.3608458 C92.0913833,93.548511 92.3921762,93.8144141 92.6062731,94.1590837 C92.8193128,94.5037533 92.9266256,94.9071013 92.9266256,95.3696564 C92.9266256,95.8322115 92.8193128,96.2360881 92.6062731,96.5807577 C92.3921762,96.9248987 92.0913833,97.1908018 91.702837,97.378467 C91.3148194,97.5661322 90.8691806,97.6602291 90.3680352,97.6602291 L88.2016916,97.6602291 L88.2016916,93.0796123 L90.3680352,93.0796123 Z M83.0782731,93.0791366 L83.0782731,94.08037 L80.7686696,94.08037 L80.7686696,94.8521762 L82.8033833,94.8521762 L82.8033833,95.8206344 L80.7686696,95.8206344 L80.7686696,96.6585198 L83.1633833,96.6585198 L83.1633833,97.6597533 L79.485674,97.6592247 L79.485674,93.0791366 L83.0782731,93.0791366 Z M71.103489,93.0788722 L72.346837,96.0624846 L73.6160881,93.0788722 L74.8985551,93.0788722 L72.9357357,97.659489 L71.6596123,97.6589604 L69.7031366,93.0788722 L71.103489,93.0788722 Z M53.4877004,93.0779207 C53.9016211,93.0779207 54.2616211,93.1461145 54.5671718,93.2840881 C54.8721938,93.4210044 55.1079648,93.6176564 55.2739559,93.8729868 C55.4394185,94.1277885 55.5224141,94.4280529 55.5224141,94.7721938 C55.5224141,95.1041762 55.4447048,95.3933392 55.289815,95.6396828 C55.1349251,95.8860264 54.9139559,96.078978 54.6258502,96.2185374 L55.6138678,97.6580088 L54.2267313,97.6580088 L53.3957181,96.4410925 L52.6894626,96.4410925 L52.6894626,97.6580088 L51.3932511,97.6580088 L51.3932511,93.0773921 L53.4877004,93.0779207 Z M44.4113656,93.0771278 C44.8252863,93.0771278 45.185815,93.1458502 45.490837,93.2832952 C45.795859,93.4207401 46.03163,93.6173921 46.1976211,93.8721938 C46.3636123,94.1275242 46.4460793,94.4277885 46.4460793,94.7719295 C46.4460793,95.1171278 46.3636123,95.4158062 46.1976211,95.6684934 C46.03163,95.9217093 45.795859,96.1167753 45.490837,96.2542203 C45.185815,96.3911366 44.8252863,96.4603877 44.4113656,96.4603877 L43.6131278,96.4603877 L43.6131278,97.6577445 L42.3169163,97.6577445 L42.3169163,93.0771278 L44.4113656,93.0771278 Z M25.2511718,93.0759119 L26.5267665,93.0764405 L28.5551366,97.6570573 L27.2071189,97.6570573 L26.8471189,96.7673656 L24.9102026,96.766837 L24.5507313,97.6565286 L23.2286167,97.6565286 L25.2511718,93.0759119 Z M35.3347137,93.0768634 C35.749163,93.0768634 36.109163,93.1450573 36.4147137,93.2830308 C36.7197357,93.4199471 36.9555066,93.6165991 37.1214978,93.8719295 C37.2869604,94.1267313 37.3699559,94.4269956 37.3699559,94.7711366 C37.3699559,95.1163348 37.2869604,95.4150132 37.1214978,95.6677004 C36.9555066,95.9209163 36.7197357,96.1159824 36.4147137,96.2539559 C36.109163,96.3908722 35.749163,96.4595947 35.3347137,96.4595947 L34.5370044,96.4595947 L34.5370044,97.6569515 L33.240793,97.6569515 L33.240793,93.0768634 L35.3347137,93.0768634 Z M62.8648811,94.059489 C62.6333392,94.059489 62.424,94.114467 62.2363348,94.222837 C62.0486696,94.3322643 61.9001233,94.4860969 61.7917533,94.6848634 C61.682326,94.8831013 61.6278767,95.1109427 61.6278767,95.3683877 C61.6278767,95.6258326 61.682326,95.853674 61.7917533,96.0519119 C61.9001233,96.2506784 62.0486696,96.404511 62.2363348,96.5134097 C62.424,96.6223084 62.6333392,96.6772863 62.8648811,96.6772863 C63.0958943,96.6772863 63.3052335,96.6223084 63.4928987,96.5134097 C63.6800352,96.404511 63.8285815,96.2506784 63.9374802,96.0519119 C64.0469075,95.853674 64.1013568,95.6258326 64.1013568,95.3683877 C64.1013568,95.1109427 64.0469075,94.8831013 63.9374802,94.6848634 C63.8285815,94.4860969 63.6800352,94.3322643 63.4928987,94.222837 C63.3052335,94.114467 63.0958943,94.059489 62.8648811,94.059489 Z M90.3157004,94.1136211 L89.4979031,94.1136211 L89.4979031,96.6262203 L90.3157004,96.6262203 C90.7079471,96.6262203 91.0230132,96.5146784 91.2614273,96.292652 C91.4987841,96.0695683 91.6177269,95.7624317 91.6177269,95.3696564 C91.6177269,94.9768811 91.4987841,94.6692159 91.2614273,94.4471894 C91.0230132,94.2246344 90.7079471,94.1136211 90.3157004,94.1136211 Z M25.8791894,94.3456916 L25.2902907,95.8115947 L26.4680881,95.8115947 L25.8791894,94.3456916 Z M53.4089339,94.0987137 L52.6894626,94.0987137 L52.6894626,95.439859 L53.4089339,95.439859 C53.674837,95.439859 53.8757181,95.3822379 54.0110485,95.266467 C54.1463789,95.150696 54.2135154,94.9862907 54.2135154,94.7721938 C54.2135154,94.5591542 54.1463789,94.393163 54.0110485,94.2752775 C53.8757181,94.1573921 53.674837,94.0987137 53.4089339,94.0987137 Z M35.2564758,94.0976564 L34.5370044,94.0976564 L34.5370044,95.4388018 L35.2564758,95.4388018 C35.5223789,95.4388018 35.7227313,95.3811806 35.8585903,95.2654097 C35.9933921,95.1496388 36.0610573,94.9852335 36.0610573,94.7711366 C36.0610573,94.5580969 35.9933921,94.3921057 35.8585903,94.2742203 C35.7227313,94.1563348 35.5223789,94.0976564 35.2564758,94.0976564 Z M44.3325991,94.0979207 L43.6131278,94.0979207 L43.6131278,95.4390661 L44.3325991,95.4390661 C44.5985022,95.4390661 44.7993833,95.3814449 44.9347137,95.265674 C45.0700441,95.1504317 45.1371806,94.9854978 45.1371806,94.7714009 C45.1371806,94.5583612 45.0700441,94.39237 44.9347137,94.2744846 C44.7993833,94.1565991 44.5985022,94.0979207 44.3325991,94.0979207 Z M30.8762643,74.0110837 C32.2073656,74.0110837 33.3957357,74.246326 34.4403172,74.7162819 C35.48437,75.1862379 36.3460441,75.865533 37.0253392,76.7531101 L34.1072775,79.3576916 C33.2582907,78.287207 32.2597004,77.7522291 31.110978,77.7522291 C30.1446344,77.7522291 29.3680705,78.0620088 28.7802291,78.6820969 C28.1929163,79.302185 27.8989956,80.1342555 27.8989956,81.178837 C27.8989956,82.2239471 28.1929163,83.0560176 28.7802291,83.6761057 C29.3680705,84.2961938 30.1446344,84.6059736 31.110978,84.6059736 C32.2597004,84.6059736 33.2582907,84.0709956 34.1072775,83.000511 L37.0253392,85.6050925 C36.3460441,86.4931982 35.48437,87.1719648 34.4403172,87.6419207 C33.3957357,88.1118767 32.2073656,88.3465903 30.8762643,88.3465903 C29.4267489,88.3465903 28.121022,88.0431542 26.9590837,87.4362819 C25.7971454,86.8294097 24.8863084,85.9809515 24.2271013,84.8903789 C23.5673656,83.8003348 23.2380264,82.5633304 23.2380264,81.178837 C23.2380264,79.7954009 23.5673656,78.5583965 24.2271013,77.4678238 C24.8863084,76.3777797 25.7971454,75.5293216 26.9590837,74.9219207 C28.121022,74.3150485 29.4267489,74.0110837 30.8762643,74.0110837 Z M72.667348,74.3246167 L78.6599471,88.0336916 L73.8810925,88.0336916 L72.9607401,85.6442643 L67.7515771,85.6442643 L66.830696,88.0336916 L62.1306079,88.0336916 L68.1237357,74.3246167 L72.667348,74.3246167 Z M83.2034009,74.3247225 L88.4125639,80.5525639 L88.4125639,74.3247225 L92.9170573,74.3247225 L92.9170573,88.0337974 L89.1177621,88.0337974 L83.9085991,81.8054273 L83.9085991,88.0337974 L79.4041057,88.0337974 L79.4041057,74.3247225 L83.2034009,74.3247225 Z M61.5830485,74.3249339 L61.5830485,77.8107489 L54.9830485,77.8107489 L54.9830485,79.4167401 L60.7800529,79.4167401 L60.7800529,82.7455507 L54.9830485,82.7455507 L54.9830485,84.5476652 L61.8373216,84.5476652 L61.8373216,88.0334802 L50.4394361,88.0334802 L50.4394361,74.3249339 L61.5830485,74.3249339 Z M42.9782907,74.3247225 L42.9782907,84.4496564 L49.1670132,84.4496564 L49.1670132,88.0337974 L38.3569692,88.0337974 L38.3569692,74.3247225 L42.9782907,74.3247225 Z M70.3561586,78.8682291 L69.0245286,82.3149251 L71.6877885,82.3149251 L70.3561586,78.8682291 Z M30.8762643,54.9562467 C32.2073656,54.9562467 33.3957357,55.191489 34.4403172,55.6614449 C35.48437,56.1319295 36.3460441,56.810696 37.0253392,57.6982731 L34.1072775,60.3028546 C33.2582907,59.2328987 32.2597004,58.6973921 31.110978,58.6973921 C30.1446344,58.6973921 29.3680705,59.0077004 28.7802291,59.6272599 C28.1929163,60.2478767 27.8989956,61.0799471 27.8989956,62.1245286 C27.8989956,63.1691101 28.1929163,64.0011806 28.7802291,64.6212687 C29.3680705,65.2418855 30.1446344,65.5516652 31.110978,65.5516652 C32.2597004,65.5516652 33.2582907,65.0161586 34.1072775,63.945674 L37.0253392,66.5502555 C36.3460441,67.4383612 35.48437,68.1171278 34.4403172,68.5870837 C33.3957357,69.0570396 32.2073656,69.2922819 30.8762643,69.2922819 C29.4267489,69.2922819 28.121022,68.9883172 26.9590837,68.3814449 C25.7971454,67.7745727 24.8863084,66.9261145 24.2271013,65.8355419 C23.5673656,64.7460264 23.2380264,63.5084934 23.2380264,62.1245286 C23.2380264,60.7405639 23.5673656,59.5035595 24.2271013,58.4135154 C24.8863084,57.3234714 25.7971454,56.4744846 26.9590837,55.8676123 C28.121022,55.2602115 29.4267489,54.9562467 30.8762643,54.9562467 Z M46.2905022,54.9562996 C47.7659207,54.9562996 49.0906784,55.2634361 50.2658326,55.8771806 C51.4409868,56.4909251 52.3613392,57.3430837 53.0268899,58.4331278 C53.6929692,59.5231718 54.0260088,60.753304 54.0260088,62.1240529 C54.0260088,63.4953304 53.6929692,64.7259912 53.0268899,65.8160352 C52.3613392,66.9060793 51.4409868,67.7582379 50.2658326,68.3714537 C49.0906784,68.9851982 47.7659207,69.2923348 46.2905022,69.2923348 C44.8145551,69.2923348 43.4897974,68.9851982 42.3146432,68.3714537 C41.1400176,67.7582379 40.2191366,66.9060793 39.5535859,65.8160352 C38.8875066,64.7259912 38.554467,63.4953304 38.554467,62.1240529 C38.554467,60.753304 38.8875066,59.5231718 39.5535859,58.4331278 C40.2191366,57.3430837 41.1400176,56.4909251 42.3146432,55.8771806 C43.4897974,55.2634361 44.8145551,54.9562996 46.2905022,54.9562996 Z M85.1622026,55.2699912 C86.6894273,55.2699912 88.0374449,55.5475242 89.2062555,56.1020617 C90.3740088,56.6571278 91.2822026,57.4506079 91.9281938,58.4814449 C92.5747137,59.5133392 92.8977093,60.7276123 92.8977093,62.1242643 C92.8977093,63.5219736 92.5747137,64.7362467 91.9281938,65.7670837 C91.2822026,66.7984493 90.3740088,67.5914009 89.2062555,68.146467 C88.0374449,68.701533 86.6894273,68.9785374 85.1622026,68.9785374 L78.4057269,68.9785374 L78.4057269,55.2699912 L85.1622026,55.2699912 Z M75.6054449,52.0159824 L75.6054449,68.9788018 L70.9835947,68.9788018 L70.9835947,62.865674 L75.6054449,52.0159824 Z M46.2905022,58.6974449 C45.7158767,58.6974449 45.1967577,58.837533 44.7331454,59.1182379 C44.2700617,59.3994714 43.9010749,59.797533 43.6272423,60.3129515 C43.3523524,60.8288987 43.2154361,61.4325991 43.2154361,62.1240529 C43.2154361,62.8165639 43.3523524,63.4202643 43.6272423,63.9362115 C43.9010749,64.45163 44.2700617,64.8496916 44.7331454,65.1303965 C45.1967577,65.41163 45.7158767,65.5517181 46.2905022,65.5517181 C46.8645991,65.5517181 47.3837181,65.41163 47.8473304,65.1303965 C48.3104141,64.8496916 48.6794009,64.45163 48.9537621,63.9362115 C49.2281233,63.4202643 49.3650396,62.8165639 49.3650396,62.1240529 C49.3650396,61.4325991 49.2281233,60.8288987 48.9537621,60.3129515 C48.6794009,59.797533 48.3104141,59.3994714 47.8473304,59.1182379 C47.3837181,58.837533 46.8645991,58.6974449 46.2905022,58.6974449 Z M84.9660793,58.8736916 L83.0275771,58.8736916 L83.0275771,65.3753656 L84.9660793,65.3753656 C85.9577974,65.3753656 86.7512775,65.0909604 87.3449339,64.5237357 C87.9396476,63.9554537 88.2367401,63.1561586 88.2367401,62.1242643 C88.2367401,61.0928987 87.9396476,60.2930749 87.3449339,59.7253216 C86.7512775,59.1575683 85.9577974,58.8736916 84.9660793,58.8736916 Z M82.4415859,13.4785374 C83.061674,15.2780088 83.9619383,18.4117533 81.2933921,18.0702555 C81.2008811,18.225674 81.1073128,18.5042643 81.0454626,18.5359824 C81.169163,18.4736035 82.5034361,18.318185 82.9067841,18.7220617 C82.4103965,19.714837 80.9524229,19.4045286 80.7351542,19.1248811 L80.7351542,19.1248811 L80.2387665,19.8697269 C80.2387665,19.8697269 81.4488106,19.3733392 82.4727753,20.1488458 C81.2008811,21.3900793 79.8666079,20.397304 79.8666079,20.397304 C79.6493392,20.6764229 79.6181498,20.6764229 79.4320705,20.9248811 C80.2699559,20.8625022 81.0454626,21.0173921 81.7897797,21.7310485 C80.3006167,22.9099031 78.594185,22.010696 78.6877533,21.7622379 C78.4699559,22.0413568 78.190837,22.2586256 77.9117181,22.5377445 C78.9044934,22.2274361 79.8666079,22.7862026 80.5178855,23.778978 C78.3774449,24.989022 77.105022,23.2514009 77.1362115,23.1583612 C76.7328634,23.499859 76.5774449,23.6240881 76.0503965,24.0269075 C76.0810573,23.9962467 78.2838767,23.8101674 79.1529515,25.4854097 C76.4849339,26.2609163 75.3055507,25.1444405 75.1194714,24.6787137 C75.1194714,24.6787137 74.5924229,25.0820617 74.002467,25.4542203 C75.3367401,25.4854097 76.8570925,26.1990661 77.2604405,27.3779207 C75.1506608,27.967348 73.1645815,26.5400352 72.916652,26.1060264 C72.6681938,26.2609163 72.2653744,26.4469956 71.9550661,26.6642643 C72.637533,26.8191542 74.405815,27.2848811 75.212511,29.2397709 C71.3344493,29.9840881 70.3728634,27.967348 70.1244053,27.6570396 C69.7210573,27.9054978 69.3488987,28.0297269 68.7901322,28.3395066 C69.8452863,28.4018855 71.830837,29.0843524 72.7924229,31.1629427 C69.0074009,31.75237 67.4251982,29.5183612 67.2697797,29.0843524 C66.8664317,29.3016211 66.4636123,29.5183612 66.0597357,29.7049692 C66.7427313,29.859859 68.6352423,29.8910485 70.0313656,33.3039119 C67.1148899,33.4588018 64.0747137,30.9150132 64.2914537,30.542326 C63.9192952,30.6977445 63.4229075,30.945674 62.9577093,31.1629427 C64.8808811,31.349022 66.8664317,33.2727225 67.363348,35.1964229 C64.8502203,35.816511 61.2200881,33.1796828 61.2200881,32.0008282 C61.0651982,32.031489 60.692511,32.2487577 59.9788546,32.5902555 C60.0100441,32.5902555 62.6162115,32.838185 64.6948018,37.213163 C62.181674,37.7095507 58.5520705,34.917304 57.9626432,33.6136916 C57.7760352,33.6760705 57.1866079,34.0482291 56.7832599,34.2654978 C57.6211454,33.9863789 61.9025551,37.5853216 61.8718943,39.4778326 C57.9314537,39.788141 54.2082819,36.1268194 54.4874009,35.5379207 C53.9598238,35.7858502 53.525815,36.1268194 53.0606167,36.3752775 C54.1770925,36.4371278 58.4585022,39.105674 59.5136564,42.3012687 C55.6044053,43.573163 50.547489,38.8884053 50.8884581,37.7714009 C50.6093392,37.9268194 49.0889868,39.0744846 48.8410573,39.2605639 C50.0511013,39.3229427 55.418326,42.0528106 57.1559471,46.2105198 C48.3753304,47.2963348 46.8243172,40.9051454 46.7307489,40.998185 C42.9150661,44.1007401 41.0225551,48.3509604 40.4325991,50.0267313 L40.4325991,50.0267313 L40.1846696,50.0267313 L40.1846696,45.5899031 C40.1846696,44.9692863 41.4259031,43.6973921 41.4259031,43.6973921 C53.1531278,30.5116652 75.615859,28.6191542 81.1073128,17.7287577 C80.9830837,17.3254097 80.7970044,16.9220617 80.2387665,16.8914009 C79.7423789,17.4496388 80.3318062,18.0702555 80.5802643,18.318185 L80.5802643,18.318185 L80.1145374,19.03237 C80.0214978,18.7527225 79.6181498,18.0702555 79.1217621,18.1321057 C78.7802643,18.5978326 79.1529515,19.6836476 79.5251101,19.8078767 C79.4627313,19.8697269 79.0599119,20.3661145 78.9663436,20.4591542 C78.8738326,19.6524581 78.1601762,19.3421498 77.9117181,19.2491101 C77.1362115,19.9939559 77.7568282,21.1109604 78.2838767,21.1728106 C78.1289868,21.3588899 77.6014097,21.7622379 77.384141,21.9795066 C77.1980617,20.9555419 76.8259031,20.5833833 76.2364758,20.4903436 C75.7712775,21.0797709 75.6470485,22.4758943 76.5155947,22.6619736 C76.2052863,22.9099031 75.6470485,23.3137797 75.2748899,23.5617093 C75.3367401,23.4374802 75.3367401,21.7003877 74.405815,21.4831189 C73.32,22.3828546 73.5684581,23.8720176 74.0643172,24.3065551 C74.0955066,24.3372159 73.32,24.7405639 73.0720705,24.8959824 C73.1027313,24.5544846 73.1957709,22.9416211 72.2960352,22.3210044 C71.3656388,22.9099031 71.4586784,25.1127225 71.7689868,25.5784493 C71.3962996,25.8269075 71.1171806,25.9506079 70.8692511,26.074837 C71.2102203,25.39237 70.8068722,23.3444405 69.8764758,22.9416211 C69.0692511,23.903207 68.6970925,26.2609163 69.2246696,26.8503436 C68.8831718,27.0057621 68.5110132,27.160652 68.1388546,27.3472599 C68.6970925,25.0508722 68.045815,23.8101674 67.4563877,23.37563 C65.9360352,24.6475242 66.153304,27.3472599 66.4942731,28.0603877 C66.4942731,28.0603877 65.563348,28.4325463 65.5326872,28.4637357 C65.6875771,28.0915771 66.277533,24.4614449 64.6017621,23.6547489 C62.7404405,25.4230308 63.4847577,28.6810044 63.7332159,29.2085815 C63.2986784,29.3634714 63.0195595,29.4877004 62.585022,29.6737797 C63.0814097,26.4469956 62.8022907,24.5544846 61.7476652,23.8720176 C60.3822026,24.989022 59.8239648,27.8743084 61.0651982,30.2943965 L61.0651982,30.2943965 L59.482467,30.9768634 C59.9788546,29.5183612 60.5064317,26.1366872 58.396652,24.1204758 C56.4729515,25.6402996 56.4111013,31.2871718 57.5281057,31.8147489 C56.8762996,32.0938678 56.225022,32.4353656 55.6044053,32.7144846 C56.3492511,31.3802115 56.4422907,25.39237 54.5185903,24.6163348 C50.9503084,27.4709604 53.2155066,32.9624141 53.6188546,33.7072599 C52.8428194,34.0794185 52.0673128,34.4209163 51.5090749,34.7930749 C52.8428194,27.0988018 49.5853744,25.8575683 49.5853744,25.8575683 C45.8933921,28.8982731 48.0962115,36.1580088 48.7168282,36.406467 C48.2204405,36.7474361 46.8861674,37.6471718 46.854978,37.6471718 C47.3513656,36.7474361 47.0103965,28.370696 44.1251101,28.4325463 C41.0532159,32.1250573 43.5044934,38.4850573 44.1557709,39.5708722 C43.9696916,39.7262907 43.6905727,39.9435595 43.4426432,40.1296388 C43.0392952,39.1363348 42.6666079,38.4850573 42.3568282,37.5541322 C41.9222907,36.2203877 41.705022,35.0410044 41.7362115,34.8861145 C41.6738326,34.4209163 41.6738326,34.2343084 41.6426432,34.0175683 C41.4259031,31.8454097 41.7362115,29.7668194 42.4805286,27.7500793 C58.8930396,18.0390661 72.3272247,28.9294626 82.4415859,13.4785374 Z M88.6838062,12.0930925 C89.3393128,12.0930925 89.8986079,12.325163 90.3622203,12.7882467 C90.825304,13.2513304 91.0568458,13.808511 91.0568458,14.4597885 C91.0568458,15.1110661 90.825304,15.6708899 90.3622203,16.1382026 C89.8986079,16.6060441 89.3371982,16.8397004 88.6769339,16.8397004 C88.0171982,16.8397004 87.4579031,16.6081586 86.9990485,16.1445463 C86.5401938,15.6814626 86.3107665,15.1242819 86.3107665,14.4730044 C86.3107665,13.8217269 86.5417797,13.2624317 87.0053921,12.7951189 C87.4684758,12.3272775 88.0282996,12.0930925 88.6838062,12.0930925 Z M88.697022,12.3885991 C88.1155242,12.3885991 87.6238943,12.592652 87.2216035,13.0012863 C86.8198414,13.4104493 86.6184317,13.9020793 86.6184317,14.4767048 C86.6184317,15.0513304 86.8177269,15.5419031 87.2152599,15.9478943 C87.612793,16.3544141 88.1023084,16.5579383 88.6838062,16.5579383 C89.2647753,16.5579383 89.7574626,16.3522996 90.1618678,15.9415507 C90.5662731,15.5308018 90.7682115,15.0391718 90.7682115,14.4666608 C90.7682115,13.8941498 90.5683877,13.4046344 90.1682115,12.9981145 C89.7685639,12.5915947 89.2779912,12.3885991 88.697022,12.3885991 Z M88.7424846,13.1683348 C89.1315595,13.1683348 89.4101498,13.2349427 89.5782555,13.3686872 C89.7468899,13.5019031 89.8309427,13.7149427 89.8309427,14.0072775 C89.8309427,14.4317709 89.6448634,14.6982026 89.2737621,14.80763 L89.9557004,15.7316828 L89.4043348,15.7316828 L88.7884758,14.8731806 L88.2249515,14.8731806 L88.2249515,15.7316828 L87.7787841,15.7316828 L87.7787841,13.1683348 L88.7424846,13.1683348 Z M88.7689163,13.5552952 L88.2249515,13.5552952 L88.2249515,14.479348 L88.7557004,14.479348 C89.0004581,14.479348 89.1680352,14.4423436 89.2573744,14.3683348 C89.3467137,14.2937974 89.3916476,14.1727401 89.3916476,14.0046344 C89.3916476,13.8365286 89.3456564,13.7191718 89.253674,13.6530925 C89.1622203,13.5880705 89.0004581,13.5552952 88.7689163,13.5552952 Z"/>
    <polygon fill="#FFF" points="77.042 40.222 65.112 68.979 60.569 68.979 54.772 55.27 59.747 55.27 63.017 63.28 72.498 40.222"/>
  </g>
</svg>
