<?xml version="1.0" encoding="utf-8"?>
<!-- Generator: Adobe Illustrator 16.0.0, SVG Export Plug-In . SVG Version: 6.00 Build 0)  -->
<!DOCTYPE svg PUBLIC "-//W3C//DTD SVG 1.1//EN" "http://www.w3.org/Graphics/SVG/1.1/DTD/svg11.dtd">
<svg version="1.1" id="Qualmark" xmlns="http://www.w3.org/2000/svg" xmlns:xlink="http://www.w3.org/1999/xlink" x="0px" y="0px"
	 width="612px" height="792px" viewBox="0 0 612 792" enable-background="new 0 0 612 792" xml:space="preserve">
<title>gold_4</title>
<rect x="3.672" y="582.452" fill="#CD9C00" width="520.39" height="80.621"/>
<path fill="#FFFFFF" d="M71.52,621.935v22.961h-4.965l-0.827-4.938c-1.655,4.111-6.619,6.594-12.411,6.594
	c-11.584,0-19.031-8.223-19.031-23.039c0-14.815,9.102-23.865,20.686-23.865c9.102,0,14.066,3.284,16.548,10.705l-5.792,3.283
	c-1.177-4.948-5.673-8.385-10.756-8.222c-8.274,0-13.239,5.766-13.239,17.271c0,9.878,4.137,17.272,13.239,17.272
	c5.792,0,11.583-2.586,11.583-9.05v-3.284H55.798v-6.516H71.52V621.935z"/>
<path fill="#FFFFFF" d="M102.134,622.763c0-14.816,8.274-23.866,19.857-23.866c12.412,0,19.858,8.248,19.858,23.866
	c0,15.617-8.274,23.865-19.858,23.865C109.58,645.801,102.134,637.578,102.134,622.763z M109.58,622.763
	c0,10.704,4.137,16.444,13.239,16.444s12.411-5.74,12.411-16.444c0-10.705-4.137-16.445-12.411-16.445
	C113.769,605.49,109.58,612.058,109.58,622.763z"/>
<path fill="#FFFFFF" d="M182.393,600.552v38.785h19.858v5.559h-27.305v-44.344H182.393z"/>
<path fill="#FFFFFF" d="M232.011,644.896v-44.344h14.066c12.411,0,20.686,5.766,20.686,22.211c0,16.444-9.929,23.038-22.34,23.038
	h-12.411V644.896z M245.25,638.328c9.102,0,14.894-4.111,14.894-16.471s-5.792-16.444-14.066-16.444h-6.619v32.915H245.25z"/>
<path fill="#FFFFFF" d="M488.923,145.372c-7.99-11.972-19.471-18.384-31.416-15.023c3.517-3.491,6.49-6.024,9.464-9.308
	c-1.164,2.999,19.392,13.833,37.492-0.181c-7.51-7.406-17.961-11.026-28.442-9.852c2.094-2.973,2.585-2.741,5.43-6.412
	c9.739,6.981,23.131,5.735,31.416-2.922c-12.438-9.283-26.84-3.361-26.892-3.361l5.922-9.076c2.585,3.465,20.013,6.774,26.115-4.938
	c-5.172-4.861-20.686-3.207-22.314-2.043c1.042-1.812,1.991-3.676,2.844-5.585c32.27,3.956,21.203-33.614,13.963-54.79
	C390.978,206.911,229.271,75.999,31.571,192.328c-9.127,23.902-12.588,49.596-10.11,75.062c0.236,3.469,0.668,6.922,1.293,10.343
	c-0.414,1.784,2.198,16.108,7.447,31.984c3.904,11.351,8.3,18.979,13.161,30.666c2.87-2.172,6.154-4.68,8.378-6.619
	c-8.817-12.515-38.552-88.74-1.629-133.188c35.01-0.414,38.992,99.884,33.123,110.511c0.259,0,16.315-10.834,22.495-14.661
	c-7.499-2.974-33.976-90.136,10.343-126.361c0,0,39.457,15.126,23.064,107.072c6.697-4.396,16.109-8.403,25.391-13.161
	c-5.171-8.765-32.01-74.57,11.17-108.934c23.271,9.541,22.03,81.448,12.928,97.169c7.421-3.465,15.514-7.757,22.909-11.067
	c-13.626-6.283-12.566-73.95,10.343-92.385c25.572,24.072,19.341,64.512,12.928,82.25c0,0,19.341-8.041,19.211-8.016
	c-15.255-28.752-8.145-63.555,8.119-77.311c12.515,8.033,15.962,31.235,10.343,69.606c5.456-2.198,8.584-3.801,13.859-5.792
	c-3.284-6.309-12.075-45.533,10.343-66.632c20.116,9.593,12.929,53.187,11.48,57.608c0.207-0.31,11.816-4.602,11.636-4.938
	c-3.956-8.481-6.723-40.724,11.816-56.29c7.369,5.3,15.151,19.961,8.17,47.757c4.267-2.094,8.921-3.93,13.343-5.973
	c-6.31-7.033-1.759-35.346,7.757-46.542c11.299,5.016,16.186,29.502,12.101,37.647c2.818-1.422,6.464-3.206,11.093-5.843
	c-3.62-5.74-4.784-32.114,6.309-39.302c10.886,7.499,9.774,26.788,9.36,31.028c3.129-1.991,12.23-6.671,12.023-6.826
	c-6.051-5.378-8.895-23.09,4.033-33.613c11.196,2.585,11.429,23.503,10.343,24.874c4.37-2.87,11.3-7.912,14.842-10.524
	c-10.343-2.224-9.05-18.797-3.49-26.141c6.8,1.396,11.609,5.533,13.858,17.737c2.586-2.43,8.895-7.499,10.809-9.774
	c-6.206-0.491-13.963-14.04-4.396-22.96c2.87,1.215,11.765,4.99,12.617,14.557c2.439-2.454,4.687-5.09,6.724-7.886
	c-4.318-1.577-9.076-14.557-4.654-20.22c5.895-0.543,11.144,7.421,12.023,10.808l5.714-8.377c-3.31-2.715-10.136-10.524-4.085-17.35
	c6.593,0.311,8.946,5.327,10.343,10.084C429.736,203.601,159.432,226.148,18.384,384.209c0,0-14.661,15.359-14.661,22.728v53.342
	h2.87c7.111-20.039,29.917-71.08,75.837-108.287c0.905-1.112,19.91,75.476,125.56,62.365
	c-20.686-49.902-85.327-82.534-100.22-83.438c2.87-2.198,21.461-16.083,24.435-17.764c-4.034,13.497,56.625,69.813,103.426,54.299
	c-12.515-38.138-64.021-70.407-77.337-70.925c5.56-2.87,11.17-7.291,16.962-10.058c-3.025,7.292,41.526,50.886,89.18,47.37
	c0.465-22.599-51.145-65.805-61.099-62.392c4.757-2.586,12.023-6.8,14.247-7.757c6.774,15.514,50.756,48.869,81.008,43.439
	c-24.512-52.67-56.186-55.799-56.522-55.824c8.43-3.956,13.368-6.542,14.842-7.163c0,14.066,43.439,45.818,73.666,38.372
	c-6.129-23.271-29.917-46.103-53.317-48.274l15.979-7.602c-2.457,4.551,34.157,34.958,68.752,32.993
	c-16.78-40.621-39.716-41.371-47.938-43.051c4.654-2.068,9.696-4.913,14.635-7.473c1.965,5.171,20.866,32.011,66.528,25.236
	c-9.012-19.001-27.342-31.872-48.273-33.898c6.516-3.853,11.351-5.481,16.082-8.093c3.232,3.775,14.609,27.925,60.97,19.108
	c-9.799-23.504-31.027-29.063-39.405-30.692c3.904-2.405,8.585-4.913,11.661-6.749c3.104,5.378,26.736,22.314,52.205,15.229
	c-4.913-14.169-22.961-22.65-39.147-23.271c7.085-4.525,13.652-9.334,13.523-9.308c2.327,5.481,16.212,18.72,48.378,9.877
	c-10.343-20.246-36.742-17.737-37.027-17.634c6.361-4.706,8.223-6.386,13.161-10.342
	C447.914,139.063,462.833,159.852,488.923,145.372z"/>
<path fill="#FFFFFF" d="M589.53,21.751c-12.134,0.304-21.725,10.386-21.421,22.521c0.303,12.134,10.386,21.725,22.521,21.421
	c12.129-0.303,21.718-10.378,21.422-22.507C611.728,31.059,601.659,21.477,589.53,21.751z M590.539,63.122
	c-10.693,0.253-19.566-8.209-19.82-18.902s8.209-19.566,18.902-19.82c10.678-0.253,19.545,8.187,19.819,18.864
	c0.26,10.707-8.21,19.597-18.917,19.857c-0.012,0-0.024,0-0.036,0.001H590.539z"/>
<polygon fill="#FFFFFF" points="575.672,39.282 579.989,39.282 579.989,52.753 582.834,52.753 582.834,39.282 587.178,39.282 
	587.178,36.645 575.672,36.645 "/>
<polygon fill="#FFFFFF" points="595.555,45.798 590.85,36.645 587.953,36.645 587.953,52.753 590.85,52.753 590.85,42.23 
	594.263,48.979 596.926,48.979 600.287,42.23 600.287,52.753 603.209,52.753 603.209,36.645 600.287,36.645 "/>
<path fill="#FFFFFF" d="M50.498,516.932c0-16.988-9.257-26.09-25.236-26.09C9.283,490.842,0,499.943,0,516.932
	c0,14.221,6.542,22.96,18.1,25.365c1.784,10.886,8.766,16.315,23.271,16.496l3.154-14.894c-1.681,0.479-3.423,0.706-5.171,0.673
	c-2.909,0.307-5.812-0.633-7.989-2.586C43.103,539.995,50.498,531.308,50.498,516.932z M25.262,528.541
	c-5.171,0-7.059-4.163-7.059-11.48s1.784-11.791,7.059-11.791c5.275,0,7.059,4.163,7.059,11.559
	C32.321,524.223,30.537,528.541,25.262,528.541z"/>
<path fill="#FFFFFF" d="M104.616,520.784c0,4.008-0.827,8.016-5.611,8.016c-4.783,0-5.611-4.008-5.611-8.016v-28.934H75.967v30.691
	c0,15.515,9.851,20.427,23.038,20.427s23.064-4.938,23.064-20.427v-30.691h-17.453V520.784z"/>
<path fill="#FFFFFF" d="M159.096,491.851l-16.393,50.084h17.324l2.043-6.8h16.497l2.224,6.8h18.1l-16.497-50.084H159.096z
	 M166,522.129l1.784-6.878c1.422-5.456,2.198-9.8,2.198-9.8h0.336c0,0,1.034,4.344,2.586,9.8l1.784,6.878H166z"/>
<polygon fill="#FFFFFF" points="239.691,491.851 222.237,491.851 222.237,541.935 257.118,541.935 257.118,526.989 239.691,526.989 
	"/>
<path fill="#FFFFFF" d="M309.115,513.027c-1.189,2.046-2.16,4.213-2.896,6.464h-0.336c-0.765-2.239-1.734-4.403-2.896-6.464
	l-11.118-21.1h-10.032v50.084h9.102v-26.942c0.055-2.956-0.118-5.913-0.517-8.843h0.336c1.016,2.888,2.297,5.675,3.827,8.326
	l8.584,15.514h5.171l8.585-15.514c1.544-2.633,2.801-5.425,3.749-8.326h0.336c-0.319,2.937-0.458,5.89-0.414,8.843v26.865h9.102
	v-50.084h-9.696L309.115,513.027z"/>
<path fill="#FFFFFF" d="M368.275,491.851l-18.1,50.084h9.231l4.421-12.566h19.987l4.422,12.566h9.954l-18.1-50.084H368.275z
	 M366.466,521.792l3.335-9.438c1.541-4.408,2.845-8.896,3.904-13.445h0.337c1.007,4.588,2.312,9.104,3.904,13.523l3.231,9.359
	H366.466z"/>
<path fill="#FFFFFF" d="M452.49,526.964c-0.666-4.291-4.248-7.527-8.584-7.757v-0.182c6.439-0.126,11.557-5.448,11.43-11.888
	c-0.004-0.2-0.013-0.4-0.027-0.601c0-10.032-6.128-14.635-17.53-14.635h-18.1v50.084h9.102v-19.47h6.102
	c4.525,0,7.163,1.034,8.507,6.387l1.966,8.248c0.23,1.832,1.068,3.534,2.379,4.835h9.929c-1.248-1.502-2.133-3.271-2.586-5.171
	L452.49,526.964z M437.364,514.992h-8.584v-15.514h8.584c5.767,0,8.507,2.818,8.507,7.757c-0.025,5.378-2.844,7.757-8.532,7.757
	H437.364z"/>
<polygon fill="#FFFFFF" points="519.046,491.851 508.496,491.851 494.533,512.613 490.811,512.613 490.811,491.851 481.709,491.851 
	481.709,541.935 490.811,541.935 490.811,520.422 494.378,520.422 509.35,541.935 520.39,541.935 502.109,516.182 "/>
<polygon fill="#FFFFFF" points="263.867,714.657 257.454,734.334 236.795,734.334 253.524,746.486 247.111,766.189 263.867,754.036 
	280.596,766.189 274.209,746.486 290.938,734.334 270.279,734.334 "/>
<polygon fill="#FFFFFF" points="39.535,714.657 33.148,734.334 12.463,734.334 29.192,746.486 22.78,766.189 39.535,754.036 
	56.264,766.189 49.903,746.486 66.632,734.334 45.947,734.334 "/>
<polygon fill="#FFFFFF" points="151.701,714.657 145.314,734.334 124.629,734.334 141.358,746.486 134.972,766.189 151.701,754.036 
	168.456,766.189 162.043,746.486 178.772,734.334 158.113,734.334 "/>
<polygon fill="#FFFFFF" points="376.007,714.657 369.62,734.334 348.935,734.334 365.689,746.486 359.277,766.189 376.007,754.036 
	392.762,766.189 386.375,746.486 403.104,734.334 382.419,734.334 "/>
</svg>
