<svg id="Qualmark" xmlns="http://www.w3.org/2000/svg" viewBox="0 0 236.69 289.48"><defs><style>.cls-1{fill:#cd9c00;}.cls-2{fill:#fff;}</style></defs><title>gold_5</title><rect class="cls-1" x="1.42" y="216.85" width="201.26" height="31.18"/><path class="cls-2" d="M27.66,232.12V241H25.74l-.32-1.91c-.64,1.59-2.56,2.55-4.8,2.55-4.48,0-7.36-3.18-7.36-8.91s3.52-9.23,8-9.23c3.52,0,5.44,1.27,6.4,4.14l-2.24,1.27a4.14,4.14,0,0,0-4.16-3.18c-3.2,0-5.12,2.23-5.12,6.68,0,3.82,1.6,6.68,5.12,6.68,2.24,0,4.48-1,4.48-3.5v-1.27H21.58V231.8h6.08Z"/><path class="cls-2" d="M39.5,232.44c0-5.73,3.2-9.23,7.68-9.23,4.8,0,7.68,3.19,7.68,9.23s-3.2,9.23-7.68,9.23C42.38,241.35,39.5,238.17,39.5,232.44Zm2.88,0c0,4.14,1.6,6.36,5.12,6.36s4.8-2.22,4.8-6.36-1.6-6.36-4.8-6.36C44,225.76,42.38,228.3,42.38,232.44Z"/><path class="cls-2" d="M70.54,223.85v15h7.68V241H67.66V223.85Z"/><path class="cls-2" d="M89.73,241V223.85h5.44c4.8,0,8,2.23,8,8.59s-3.84,8.91-8.64,8.91h-4.8Zm5.12-2.54c3.52,0,5.76-1.59,5.76-6.37s-2.24-6.36-5.44-6.36H92.61v12.73Z"/><path d="M189.09,47.81C186,43.18,181.56,40.7,176.94,42c1.36-1.35,2.51-2.33,3.66-3.6-.45,1.16,7.5,5.35,14.5-.07a13.52,13.52,0,0,0-11-3.81c.81-1.15,1-1.06,2.1-2.48a9.31,9.31,0,0,0,12.15-1.13c-4.81-3.59-10.38-1.3-10.4-1.3l2.29-3.51c1,1.34,7.74,2.62,10.1-1.91-2-1.88-8-1.24-8.63-.79a23.74,23.74,0,0,0,1.1-2.16c12.48,1.53,8.2-13,5.4-21.19-47,71.56-109.54,20.93-186,65.92A64,64,0,0,0,8.3,95a35.76,35.76,0,0,0,.5,4c-.16.69.85,6.23,2.88,12.37,1.51,4.39,3.21,7.34,5.09,11.86,1.11-.84,2.38-1.81,3.24-2.56-3.41-4.84-14.91-34.32-.63-51.51C32.92,69,34.46,107.79,32.19,111.9c.1,0,6.31-4.19,8.7-5.67-2.9-1.15-13.14-34.86,4-48.87,0,0,15.26,5.85,8.92,41.41,2.59-1.7,6.23-3.25,9.82-5.09-2-3.39-12.38-28.84,4.32-42.13,9,3.69,8.52,31.5,5,37.58,2.87-1.34,6-3,8.86-4.28-5.27-2.43-4.86-28.6,4-35.73,9.89,9.31,7.48,24.95,5,31.81,0,0,7.48-3.11,7.43-3.1-5.9-11.12-3.15-24.58,3.14-29.9q7.26,4.66,4,26.92c2.11-.85,3.32-1.47,5.36-2.24-1.27-2.44-4.67-17.61,4-25.77,7.78,3.71,5,20.57,4.44,22.28.08-.12,4.57-1.78,4.5-1.91-1.53-3.28-2.6-15.75,4.57-21.77,2.85,2.05,5.86,7.72,3.16,18.47,1.65-.81,3.45-1.52,5.16-2.31-2.44-2.72-.68-13.67,3-18,4.37,1.94,6.26,11.41,4.68,14.56,1.09-.55,2.5-1.24,4.29-2.26-1.4-2.22-1.85-12.42,2.44-15.2,4.21,2.9,3.78,10.36,3.62,12,1.21-.77,4.73-2.58,4.65-2.64-2.34-2.08-3.44-8.93,1.56-13,4.33,1,4.42,9.09,4,9.62,1.69-1.11,4.37-3.06,5.74-4.07-4-.86-3.5-7.27-1.35-10.11,2.63.54,4.49,2.14,5.36,6.86,1-.94,3.44-2.9,4.18-3.78-2.4-.19-5.4-5.43-1.7-8.88,1.11.47,4.55,1.93,4.88,5.63a26.27,26.27,0,0,0,2.6-3.05c-1.67-.61-3.51-5.63-1.8-7.82,2.28-.21,4.31,2.87,4.65,4.18l2.21-3.24c-1.28-1.05-3.92-4.07-1.58-6.71,2.55.12,3.46,2.06,4,3.9C166.2,70.33,61.66,79.05,7.11,140.18c0,0-5.67,5.94-5.67,8.79l0,20.63H2.55c2.75-7.75,11.57-27.49,29.33-41.88.35-.43,7.7,29.19,48.56,24.12-8-19.3-33-31.92-38.76-32.27,1.11-.85,8.3-6.22,9.45-6.87-1.56,5.22,21.9,27,40,21-4.84-14.75-24.76-27.23-29.91-27.43,2.15-1.11,4.32-2.82,6.56-3.89-1.17,2.82,16.06,19.68,34.49,18.32.18-8.74-19.78-25.45-23.63-24.13,1.84-1,4.65-2.63,5.51-3,2.62,6,19.63,18.9,31.33,16.8C106,90,93.75,88.79,93.62,88.78c3.26-1.53,5.17-2.53,5.74-2.77,0,5.44,16.8,17.72,28.49,14.84-2.37-9-11.57-17.83-20.62-18.67l6.18-2.94C112.46,81,126.62,92.76,140,92c-6.49-15.71-15.36-16-18.54-16.65,1.8-.8,3.75-1.9,5.66-2.89.76,2,8.07,12.38,25.73,9.76a23.13,23.13,0,0,0-18.67-13.11c2.52-1.49,4.39-2.12,6.22-3.13,1.25,1.46,5.65,10.8,23.58,7.39-3.79-9.09-12-11.24-15.24-11.87,1.51-.93,3.32-1.9,4.51-2.61,1.2,2.08,10.34,8.63,20.19,5.89-1.9-5.48-8.88-8.76-15.14-9,2.74-1.75,5.28-3.61,5.23-3.6.9,2.12,6.27,7.24,18.71,3.82-4-7.83-14.21-6.86-14.32-6.82,2.46-1.82,3.18-2.47,5.09-4C173.23,45.37,179,53.41,189.09,47.81Z"/><path d="M228,0a8.5,8.5,0,1,0,8.71,8.29A8.52,8.52,0,0,0,228,0Zm.39,16a7.49,7.49,0,1,1,7.31-7.68A7.5,7.5,0,0,1,228.37,16Z"/><polygon points="222.64 6.78 224.31 6.78 224.31 11.99 225.41 11.99 225.41 6.78 227.09 6.78 227.09 5.76 222.64 5.76 222.64 6.78"/><polygon points="230.33 9.3 228.51 5.76 227.39 5.76 227.39 11.99 228.51 11.99 228.51 7.92 229.83 10.53 230.86 10.53 232.16 7.92 232.16 11.99 233.29 11.99 233.29 5.76 232.16 5.76 230.33 9.3"/><path d="M19.53,191.51c0-6.57-3.58-10.09-9.76-10.09S0,184.94,0,191.51c0,5.5,2.53,8.88,7,9.81.69,4.21,3.39,6.31,9,6.38l1.22-5.76a6.81,6.81,0,0,1-2,.26,4,4,0,0,1-3.09-1C16.67,200.43,19.53,197.07,19.53,191.51ZM9.77,196c-2,0-2.73-1.61-2.73-4.44S7.73,187,9.77,187s2.73,1.61,2.73,4.47S11.81,196,9.77,196Z"/><path d="M40.46,193c0,1.55-.32,3.1-2.17,3.1s-2.17-1.55-2.17-3.1V181.81H29.38v11.87c0,6,3.81,7.9,8.91,7.9s8.92-1.91,8.92-7.9V181.81H40.46Z"/><path d="M61.53,181.81l-6.34,19.37h6.7l.79-2.63h6.38l.86,2.63h7l-6.38-19.37Zm2.67,11.71.69-2.66c.55-2.11.85-3.79.85-3.79h.13s.4,1.68,1,3.79l.69,2.66Z"/><polygon points="92.7 181.81 85.95 181.81 85.95 201.18 99.44 201.18 99.44 195.4 92.7 195.4 92.7 181.81"/><path d="M119.55,190a13,13,0,0,0-1.12,2.5h-.13a14.89,14.89,0,0,0-1.12-2.5l-4.3-8.16H109v19.37h3.52V190.79a22.3,22.3,0,0,0-.2-3.42h.13a19.14,19.14,0,0,0,1.48,3.22l3.32,6h2l3.32-6a16.46,16.46,0,0,0,1.45-3.22h.13a27.78,27.78,0,0,0-.16,3.42v10.39h3.52V181.81h-3.75Z"/><path d="M142.43,181.81l-7,19.37H139l1.71-4.86h7.73l1.71,4.86H154l-7-19.37Zm-.7,11.58,1.29-3.65a50.46,50.46,0,0,0,1.51-5.2h.13a42,42,0,0,0,1.51,5.23l1.25,3.62Z"/><path d="M175,195.39a3.55,3.55,0,0,0-3.32-3v-.07a4.51,4.51,0,0,0,4.41-4.83c0-3.88-2.37-5.66-6.78-5.66h-7v19.37h3.52v-7.53h2.36c1.75,0,2.77.4,3.29,2.47l.76,3.19a3.2,3.2,0,0,0,.92,1.87H177a4.91,4.91,0,0,1-1-2Zm-5.85-4.63h-3.32v-6h3.32c2.23,0,3.29,1.09,3.29,3C172.43,189.84,171.34,190.76,169.14,190.76Z"/><polygon points="200.74 181.81 196.66 181.81 191.26 189.84 189.82 189.84 189.82 181.81 186.3 181.81 186.3 201.18 189.82 201.18 189.82 192.86 191.2 192.86 196.99 201.18 201.26 201.18 194.19 191.22 200.74 181.81"/><polygon points="102.05 267.98 99.57 275.59 91.58 275.59 98.05 280.29 95.57 287.91 102.05 283.21 108.52 287.91 106.05 280.29 112.52 275.59 104.53 275.59 102.05 267.98"/><polygon points="15.29 267.98 12.82 275.59 4.82 275.59 11.29 280.29 8.81 287.91 15.29 283.21 21.76 287.91 19.3 280.29 25.77 275.59 17.77 275.59 15.29 267.98"/><polygon points="58.67 267.98 56.2 275.59 48.2 275.59 54.67 280.29 52.2 287.91 58.67 283.21 65.15 287.91 62.67 280.29 69.14 275.59 61.15 275.59 58.67 267.98"/><polygon points="145.42 267.98 142.95 275.59 134.95 275.59 141.43 280.29 138.95 287.91 145.42 283.21 151.9 287.91 149.43 280.29 155.9 275.59 147.9 275.59 145.42 267.98"/><polygon points="188.81 267.98 186.33 275.59 178.34 275.59 184.81 280.29 182.33 287.91 188.81 283.21 195.28 287.91 192.81 280.29 199.27 275.59 191.28 275.59 188.81 267.98"/></svg>