<?xml version="1.0" encoding="utf-8"?>
<!-- Generator: Adobe Illustrator 22.0.1, SVG Export Plug-In . SVG Version: 6.00 Build 0)  -->
<svg version="1.1" id="Layer_1" xmlns="http://www.w3.org/2000/svg" xmlns:xlink="http://www.w3.org/1999/xlink" x="0px" y="0px"
	 viewBox="0 0 918.4 328.8" style="enable-background:new 0 0 918.4 328.8;" xml:space="preserve">
<style type="text/css">
	.st0{fill:#231F20;}
</style>
<g id="Layer_2_1_">
</g>
<g>
	<g>
		<path d="M642.9,34.1h-17.2v-29h17.2v3.4h-13.3v9.3h11.8v3.4h-11.8v9.3h13.3V34.1z"/>
		<path d="M667.4,22.8c2,2.5,3.4,5.9,3.4,5.9l0,0c0,0,0-3.4,0-6.9V5.1h3.9v29h-4.4l-11.8-17.2c-2-2.5-3.4-5.9-3.4-5.9l0,0
			c0,0,0.5,3.4,0.5,6.9v16.7h-3.9V5.1h3.9L667.4,22.8z"/>
		<path d="M685.1,34.1v-29h8.4c8.4,0,13.8,3.9,13.8,14.3c0,10.8-6.4,14.7-13.8,14.7H685.1z M693,31.2c5.9,0,10.3-3.4,10.3-11.3
			c0-8.4-4.4-11.3-9.8-11.3h-4.4v22.6C689.1,31.2,693,31.2,693,31.2z"/>
		<path d="M713.7,19.9c0-9.8,4.9-15.2,12.8-15.2s12.8,5.4,12.8,15.2s-4.9,15.2-12.8,15.2S713.7,29.7,713.7,19.9z M717.6,19.9
			c0,7.4,2.9,11.8,8.8,11.8s8.8-4.4,8.8-11.8s-3-11.8-8.8-11.8C721,8.1,717.6,12.5,717.6,19.9z"/>
		<path d="M764.3,34.1c-0.5-1-1-1.5-1-2.5l-1.5-5.4c-1-3.4-2.9-4.4-5.9-4.4H752v12.3h-3.9v-29h9.3c6.9,0,9.8,2.9,9.8,7.9
			c0,4.4-3.4,6.9-6.9,7.4l0,0c2.9,0.5,4.4,1.5,4.9,4.9l1.5,5.9c0.5,1,1,2,1.5,2.9C768.2,34.1,764.3,34.1,764.3,34.1z M751.5,18.9
			h5.4c3.9,0,5.9-2,5.9-5.4c0-2.9-2-4.9-5.9-4.9h-5.4V18.9z"/>
		<path d="M777.1,26.7c0.5,3.9,2.9,5.4,6.4,5.4s5.4-1.5,5.4-4.4s-1.5-3.9-6.4-5.9c-3.9-1.5-7.9-2.9-7.9-8.4c0-5.9,4.4-7.9,8.8-7.9
			c4.9,0,8.8,2,9.3,7.9l-3.9,0.5c-0.5-3.4-2.5-5.4-5.4-5.4s-4.9,2-4.9,4.4c0,3.4,2.5,4.4,6.9,5.9c3.9,1.5,7.9,3.4,7.9,8.4
			c0,5.4-4.4,7.9-9.8,7.9c-5.9,0-8.8-2.5-9.8-7.9L777.1,26.7z"/>
		<path d="M818.4,34.1h-17.2v-29h17.2v3.4h-13.3v9.3h11.8v3.4h-11.8v9.3h13.3V34.1z"/>
		<path d="M827.2,34.1v-29h8.4c8.4,0,13.8,3.9,13.8,14.3c0,10.8-6.4,14.7-13.8,14.7H827.2z M835.1,31.2c5.9,0,10.3-3.4,10.3-11.3
			c0-8.4-4.4-11.3-9.8-11.3h-4.4v22.6C831.2,31.2,835.1,31.2,835.1,31.2z"/>
		<path d="M883.3,19.4c3.4,0,6.4,2.5,6.4,6.4c0,4.9-3,8.4-10.3,8.4H871v-29h8.8c5.9,0,8.8,2.5,8.8,7.4
			C888.7,16.4,886.2,18.9,883.3,19.4L883.3,19.4z M879.3,18.4c3.4,0,5.4-1.5,5.4-4.9s-2-4.9-5.4-4.9h-4.4v9.8H879.3z M874.4,31.2
			h5.4c3.4,0,5.9-1.5,5.9-4.9c0-2.5-1.5-4.4-5.9-4.4h-5.4V31.2z"/>
		<path d="M902.5,15.4c1.5,2.9,2,4.4,2,4.4l0,0c0,0,0.5-1.5,2-4.4l4.4-9.8h3.9l-8.8,17.7v11.3H902V23.3l-9.3-17.7h4.4L902.5,15.4z"
			/>
	</g>
	<g>
		<path d="M525.8,4.6v311.8h-3.9V4.6H525.8z"/>
	</g>
	<g>
		<g>
			<path class="st0" d="M480.9,104.2c-18.6,0.4-36.5,6.3-53.5,13.3c-9.9,4.1-19.5,9-29.5,12.9c-11.2,4.4-26.3-2.8-35.4-9
				c-12-8.1-24.5-18.6-33.5-30c-10.6-13.5-19.6-28.4-29.1-42.8c-8.7-13.2-17.5-27.1-29-38.1c-6.2-6-11.8-6.9-19.9-4.9
				c-15,3.7-24.9,13.3-35.4,24.2c-16.4,16.9-33.4,32.4-53.9,44.1c-41.7,23.7-90.9,29-138,29.1c-2.6,0-6.5,2.4-8.1,2.4
				c66.7-0.2,137.1-12.4,188.4-58.1c13.1-11.7,24-26.4,38.4-36.5c7-4.9,11.4-5.5,19.1,1.1c11.7,10.1,20.3,24.5,28.7,37.2
				c9.7,14.5,18.8,29.4,29.3,43.3c8.9,11.8,21.1,21.1,32.7,30c12.7,9.8,29.2,14,44.7,9.4c25.8-7.7,48-24.4,75.9-25
				C475.4,106.5,479.3,104.2,480.9,104.2"/>
			<path class="st0" d="M1.9,105.2c71.7-0.1,147-4.1,214.4-31c13.7-5.5,26.3-12.9,39.7-18.8c6.6-2.9,16.8-0.1,25.4,4.3
				c18.5,9.4,32.9,26.5,46.5,41.6c19,21.1,50.8,32.8,79.1,30.7c8.4-0.6,17.2-2.6,24.8-6.5c14.3-7.3,23.7-18.5,41.1-18.9
				c2.6-0.1,6.4-2.3,8.1-2.4c-14.8,0.3-28.6,4.5-40.9,12.7c-9.1,6.1-16.5,12.5-28.1,12.8c-15,0.4-30.2-3.2-44-8.6
				c-19.7-7.8-31.3-22.3-45.5-37.1c-13.5-14.1-30.3-30.1-50.7-32.3c-10.7-1.1-22,4.4-31.3,9.2c-16.5,8.4-33,16.1-50.6,21.7
				C132.5,100.7,69.6,102.7,10,102.8C7.4,102.8,3.5,105.2,1.9,105.2"/>
			<path class="st0" d="M17.8,105.2C57.2,105,96.1,97.8,132.3,82c26.8-11.7,49.6-29.5,74.7-44.1c9.5-5.5,20.5-11.5,30.9-5
				c11.8,7.4,20.6,20.5,29.9,30.6C281.1,77.9,296.1,90.6,314,99c8.7,4.1,17.9,6.1,27,8.9c12.6,3.9,25,8.2,37.8,11.7
				c17.8,4.8,37.9,8.8,56.1,3.5c4.7-1.4,9-3.1,13.1-6c8.5-6.2,13.3-10.2,24.9-10.4c2.6,0,6.4-2.3,8.1-2.4
				c-13.1,0.2-26.4,2.7-36.7,11.2c-2.2,1.8-4.4,3.7-6.8,5.3c-5.9,3.9-14.7,2.5-21.4,2c-14.1-1.1-28-5-41.5-9
				c-21.9-6.6-45.5-11.9-65.2-24c-16-9.8-29-23.7-41.4-37.5c-7.2-8-15.8-20.9-26.7-24c-7.9-2.3-17.9,1-25.3,3.7
				c-23.3,8.3-43,25.6-64.1,38c-38.7,22.8-81,32.9-125.8,33.1C23.3,102.8,19.4,105.2,17.8,105.2"/>
			<path class="st0" d="M9.7,207c0-7.5-0.1-8.6-4.6-9l-1.8-0.1c-0.4-0.3-0.3-1.6,0.1-1.8c4,0.1,6.4,0.2,9.3,0.2
				c2.8,0,5.2-0.1,8.8-0.2c0.4,0.2,0.6,1.5,0.1,1.8l-1.7,0.1c-4.2,0.4-4.4,1.5-4.4,9v24.9c0,4.5,0.2,6.4,1.5,7.7
				c0.8,0.8,2.1,1.6,7.8,1.6c6.1,0,7.6-0.3,8.7-0.9c1.4-0.9,3.3-3.4,4.7-7.1c0.4-0.4,1.8-0.1,1.8,0.4c0,0.8-2,8.1-3,10
				c-3.6-0.1-10.4-0.2-17.8-0.2h-6.6c-3,0-5.3,0.1-9.3,0.2c-0.4-0.2-0.6-1.4-0.1-1.8l2.1-0.2c4.1-0.4,4.3-1.4,4.3-8.9V207z"/>
			<path class="st0" d="M99.9,221.9c0-11.8-5.2-24.5-18.9-24.5c-7.4,0-17.1,5.1-17.1,20.7c0,10.6,5.1,24.3,19.2,24.3
				C91.7,242.4,99.9,236,99.9,221.9 M56.8,220.4c0-14.3,10.7-25.2,25.4-25.2c16.5,0,24.8,11.9,24.8,24.5c0,14.4-11,24.9-24.8,24.9
				C66.4,244.6,56.8,233.2,56.8,220.4"/>
			<path class="st0" d="M139.6,231.1c0,3.8,0.2,6.1,1.4,7.8c1.6,2.2,4.3,2.9,8.8,2.9c13.9,0,20.1-9.1,20.1-22.4
				c0-7.9-3.8-21.1-22.5-21.1c-4.2,0-6.5,0.6-7.1,1c-0.6,0.4-0.7,2.2-0.7,5.4V231.1z M133.7,205.6c0-5-0.4-6.5-3.4-6.9l-1.6-0.2
				c-0.6-0.4-0.6-1.5,0.1-1.8c6.1-0.4,11.9-0.6,17.9-0.6c6,0,11.1,0.4,15.7,2.1c9.6,3.5,14.5,11.6,14.5,21.1
				c0,9.1-4.4,16.9-12.5,21.3c-4.6,2.5-10.5,3.4-16,3.4c-4.6,0-9.1-0.6-11.6-0.6c-3,0-5.6,0.1-8.9,0.2c-0.4-0.2-0.6-1.4-0.1-1.8
				l1.6-0.2c4.1-0.6,4.3-1.4,4.3-8.9V205.6z"/>
			<path class="st0" d="M240.9,236.2c0,2.9,0.4,4.6,1.7,5.1c0.2,0.2,0.2,0.6-0.1,0.9c-0.9,0-2.1,0.3-3.5,0.6
				c-3.8,1-8.9,1.9-12.8,1.9c-8.5,0-16.3-2.4-21.8-7.9c-4.3-4.3-6.6-9.9-6.6-16.2c0-6.1,2-12.2,6.4-16.9c4.8-5,11.9-8.4,22.6-8.4
				c4.1,0,7.9,0.8,9.1,1.1c1.4,0.3,3.6,0.8,4.4,0.6c0,2.4,0.4,6.1,1.1,10.4c-0.2,0.6-1.5,0.6-1.9,0.2c-2-7.7-7.4-10.1-14.6-10.1
				c-13.9,0-19.9,9.9-19.9,20.6c0,13.7,7.1,24.5,21.4,24.5c4.4,0,7.1-0.9,7.9-2.1c0.4-0.5,0.7-1.8,0.7-4.1v-2.9c0-6-0.2-6.4-4.6-6.9
				l-3.1-0.4c-0.6-0.3-0.5-1.6,0-1.8c2.1,0.1,6,0.2,10.2,0.2c2.8,0,5.2-0.1,7.6-0.2c0.5,0.3,0.6,1.4,0.1,1.8l-1.1,0.1
				c-3,0.4-3.1,2.4-3.1,6V236.2z"/>
			<path class="st0" d="M271.4,207c0-7.4-0.1-8.5-4.4-9l-1.1-0.1c-0.4-0.3-0.3-1.6,0.1-1.8c3.1,0.1,5.5,0.2,8.4,0.2h13.4
				c4.6,0,8.8,0,9.6-0.2c0.4,1.2,0.9,6.4,1.1,9.5c-0.3,0.4-1.4,0.6-1.8,0.1c-1.1-3.4-1.7-5.9-5.4-6.8c-1.5-0.4-3.8-0.4-6.9-0.4h-5.1
				c-2.1,0-2.1,0.1-2.1,2.9v14.3c0,2,0.2,2,2.4,2h4.1c3,0,5.2-0.1,6.1-0.4c0.9-0.3,1.4-0.7,1.7-2.5l0.6-2.9c0.4-0.4,1.6-0.4,1.9,0.1
				c0,1.7-0.3,4.5-0.3,7.2c0,2.6,0.3,5.3,0.3,6.9c-0.3,0.5-1.5,0.5-1.9,0.1l-0.6-2.8c-0.3-1.3-0.8-2.4-2.2-2.7
				c-1-0.3-2.7-0.4-5.5-0.4h-4.1c-2.1,0-2.4,0.1-2.4,1.9v10.1c0,3.8,0.2,6.2,1.4,7.4c0.9,0.9,2.4,1.6,8.6,1.6c5.5,0,7.6-0.3,9.1-1.1
				c1.3-0.7,3.2-3.2,5.1-6.9c0.5-0.4,1.5-0.1,1.8,0.5c-0.5,2.5-2.3,8-3.2,9.9c-6.4-0.1-12.8-0.2-19.1-0.2h-6.4
				c-3.1,0-5.5,0.1-9.7,0.2c-0.4-0.2-0.6-1.4-0.1-1.8l2.4-0.2c4.1-0.4,4.4-1.4,4.4-8.9V207z"/>
			<path class="st0" d="M334.3,244.6c-6,0-9.8-1.9-11.1-2.6c-0.9-1.6-1.8-6.6-1.9-10c0.4-0.5,1.4-0.6,1.7-0.2
				c1.1,3.6,4,10.6,12.3,10.6c6,0,8.9-3.9,8.9-8.2c0-3.1-0.6-6.6-5.9-10l-6.8-4.4c-3.6-2.4-7.7-6.4-7.7-12.3
				c0-6.8,5.3-12.3,14.6-12.3c2.2,0,4.8,0.4,6.6,0.9c0.9,0.3,1.9,0.4,2.5,0.4c0.6,1.7,1.3,5.7,1.3,8.7c-0.3,0.4-1.4,0.6-1.8,0.2
				c-0.9-3.4-2.9-8.1-9.7-8.1c-7,0-8.5,4.6-8.5,7.9c0,4.1,3.4,7.1,6.1,8.8l5.7,3.6c4.5,2.8,8.9,6.9,8.9,13.7
				C349.5,239.2,343.6,244.6,334.3,244.6"/>
			<path class="st0" d="M41.3,145.7c0-6.2-0.1-7.2-3.8-7.4l-1.5-0.1c-0.4-0.2-0.2-1.3,0.1-1.5c3.3,0.1,5.3,0.2,7.7,0.2
				c2.3,0,4.3-0.1,7.3-0.2c0.4,0.2,0.5,1.2,0.1,1.5l-1.4,0.1c-3.5,0.3-3.6,1.2-3.6,7.4v20.6c0,3.7,0.2,5.3,1.2,6.4
				c0.6,0.7,1.8,1.4,6.4,1.4c5,0,6.3-0.2,7.2-0.8c1.2-0.7,2.7-2.8,3.9-5.9c0.4-0.3,1.5-0.1,1.5,0.4c0,0.6-1.7,6.7-2.5,8.3
				c-3-0.1-8.6-0.2-14.7-0.2h-5.4c-2.5,0-4.4,0.1-7.7,0.2c-0.4-0.2-0.5-1.1-0.1-1.5l1.8-0.2c3.4-0.4,3.5-1.2,3.5-7.4V145.7z"/>
			<path class="st0" d="M112.9,151.6c0-3.7-0.1-10.5-1.1-12.2c-0.4-0.7-1.5-1.1-3-1.2l-1.5-0.1c-0.4-0.4-0.2-1.2,0.1-1.4
				c2.2,0.1,4.4,0.2,6.7,0.2c2.5,0,4.1-0.1,6.2-0.2c0.5,0.3,0.4,1.1,0.1,1.4l-1.4,0.1c-1.5,0.1-2.6,0.7-3,1.4
				c-0.8,2-0.8,8.7-0.8,12.1v6.7c0,5.1-0.8,10.6-4.1,14.1c-2.5,2.8-6.9,4.3-11.3,4.3c-4.1,0-8.2-0.8-11.1-3.2
				c-3.1-2.6-4.6-6.9-4.6-13.9v-13.9c0-6.1-0.1-7.2-3.5-7.4l-1.5-0.1c-0.4-0.2-0.2-1.2,0.1-1.4c3,0.1,5,0.2,7.3,0.2
				c2.4,0,4.4-0.1,7.3-0.2c0.4,0.2,0.5,1.2,0.1,1.4l-1.4,0.1c-3.4,0.3-3.5,1.3-3.5,7.4v12.8c0,9.5,3,15.8,12,15.8
				c8.6,0,11.8-6.7,11.8-15.7V151.6z"/>
			<path class="st0" d="M172.4,174.5c0.4,0.4,0.4,1.2-0.1,1.5c-2.7-0.1-5-0.2-7.4-0.2c-2.7,0-5.5,0.1-7.6,0.2
				c-0.4-0.4-0.4-1.1-0.1-1.5l1.7-0.2c1.4-0.1,2-0.4,2-0.8c0-0.4-0.1-0.9-1.3-2.6c-2.5-3.6-5.8-8.5-8.4-11.9c-1.6,2-6,8.5-8.3,12.6
				c-0.5,0.8-0.8,1.5-0.8,1.9c0,0.4,0.5,0.7,1.7,0.8l1.6,0.2c0.4,0.4,0.3,1.2-0.1,1.5c-2.1-0.1-4.4-0.2-6.4-0.2
				c-2,0-4.2,0.1-6.1,0.2c-0.5-0.2-0.6-1.1-0.2-1.5l1.5-0.2c3.2-0.4,5.3-2.9,7-5.3c0.7-0.9,4.8-6.1,8-10.9c0.4-0.6,0.5-1,0.5-1.2
				c0-0.2-0.2-0.7-0.7-1.4l-8.9-12.7c-1.9-2.8-3.1-4-5.1-4.4l-1.9-0.4c-0.3-0.4-0.2-1.3,0.1-1.5c2.8,0.1,4.7,0.2,6.9,0.2
				c2.3,0,5-0.1,6.7-0.2c0.4,0.2,0.5,1.1,0.1,1.5l-1.7,0.1c-1.1,0.1-1.8,0.4-1.8,0.8c0,0.5,0.6,1.5,1.8,3.3c2,2.8,5.4,8.2,7.6,10.8
				c1.5-1.9,6.9-10.3,7.9-12.1c0.5-0.8,0.8-1.5,0.8-2c0-0.3-0.9-0.6-2-0.8l-1.5-0.2c-0.4-0.4-0.4-1.2,0.1-1.5c2.1,0.1,4,0.2,6.3,0.2
				c2.2,0,3.8-0.1,5.7-0.2c0.4,0.3,0.5,1.1,0.1,1.5l-1.4,0.1c-1.8,0.2-3.9,1.9-6.3,5c-2.3,3-4.8,6.5-7.7,10.5
				c-0.4,0.5-0.6,0.9-0.6,1.1c0,0.2,0.1,0.6,0.8,1.5l10,14.1c2,2.8,3.5,3.7,5.4,3.9L172.4,174.5z"/>
			<path class="st0" d="M218.6,151.6c0-3.7-0.1-10.5-1.1-12.2c-0.4-0.7-1.5-1.1-3-1.2l-1.5-0.1c-0.4-0.4-0.2-1.2,0.1-1.4
				c2.2,0.1,4.4,0.2,6.7,0.2c2.5,0,4.1-0.1,6.2-0.2c0.5,0.3,0.4,1.1,0.1,1.4l-1.4,0.1c-1.5,0.1-2.6,0.7-3,1.4
				c-0.8,2-0.8,8.7-0.8,12.1v6.7c0,5.1-0.8,10.6-4.1,14.1c-2.5,2.8-6.9,4.3-11.3,4.3c-4.1,0-8.2-0.8-11-3.2
				c-3.1-2.6-4.6-6.9-4.6-13.9v-13.9c0-6.1-0.1-7.2-3.5-7.4L185,138c-0.4-0.2-0.2-1.2,0.1-1.4c3,0.1,5,0.2,7.3,0.2
				c2.4,0,4.4-0.1,7.3-0.2c0.4,0.2,0.5,1.2,0.1,1.4l-1.4,0.1c-3.4,0.3-3.5,1.3-3.5,7.4v12.8c0,9.5,3,15.8,12,15.8
				c8.6,0,11.8-6.7,11.8-15.7V151.6z"/>
			<path class="st0" d="M251.2,154.2c0,1.1,0,1.7,0.2,2c0.2,0.2,1.1,0.3,4.1,0.3c2.1,0,4.4-0.2,6.1-1.5c1.6-1.2,3-3.3,3-7.3
				c0-4.7-2.9-9.1-9.5-9.1c-3.7,0-3.8,0.2-3.8,1.9V154.2z M246.4,145.7c0-5.6-0.2-6.6-2.6-6.9l-1.9-0.2c-0.4-0.3-0.4-1.2,0.1-1.5
				c3.3-0.3,7.4-0.5,13.2-0.5c3.7,0,7.1,0.3,9.9,1.8c2.8,1.5,4.9,4.1,4.9,8.3c0,5.6-4.4,8.7-7.4,9.9c-0.3,0.4,0,0.9,0.3,1.4
				c4.7,7.6,7.9,12.4,11.9,15.7c1,0.9,2.5,1.5,4.1,1.7c0.3,0.1,0.4,0.6,0.1,0.8c-0.5,0.2-1.5,0.3-2.6,0.3c-5,0-8-1.5-12.2-7.4
				c-1.5-2.2-4-6.3-5.8-8.9c-0.9-1.3-1.8-1.9-4.2-1.9c-2.7,0-2.8,0.1-2.8,1.3v7.4c0,6.2,0.1,6.9,3.5,7.4l1.2,0.2
				c0.4,0.3,0.2,1.3-0.1,1.5c-2.7-0.1-4.7-0.2-7-0.2c-2.5,0-4.6,0.1-7.4,0.2c-0.4-0.2-0.5-1.1-0.1-1.5l1.5-0.2
				c3.4-0.4,3.5-1.2,3.5-7.4V145.7z"/>
			<path class="st0" d="M305.9,166.8c0,6.3,0.4,7.3,3.5,7.5l2.2,0.2c0.4,0.4,0.2,1.3-0.1,1.5c-3.7-0.1-5.7-0.2-8-0.2
				c-2.5,0-4.6,0.1-7.7,0.2c-0.4-0.2-0.5-1.1-0.1-1.5l1.8-0.2c3.4-0.4,3.5-1.2,3.5-7.5v-3c0-3.2-0.2-4-1.9-7.3l-7-13.6
				c-2-3.9-2.9-4.2-4.7-4.5l-1.7-0.3c-0.4-0.4-0.3-1.2,0.1-1.5c1.9,0.1,4,0.2,6.9,0.2c2.7,0,4.8-0.1,6.3-0.2
				c0.5,0.2,0.5,1.1,0.2,1.5l-0.8,0.1c-2.1,0.3-2.5,0.6-2.5,1.1c0,0.6,1.5,4,1.8,4.6c2.2,4.4,4.4,9,6.7,13.1c1.8-3.1,3.8-6.6,5.6-10
				c1.7-3.1,3.8-7.1,3.8-7.8c0-0.4-1.1-0.8-2.5-0.9l-1.1-0.1c-0.4-0.4-0.4-1.2,0.1-1.5c2.1,0.1,3.8,0.2,5.7,0.2
				c1.8,0,3.5-0.1,5.5-0.2c0.5,0.3,0.5,1.1,0.1,1.5l-1.7,0.3c-3.1,0.5-4.8,4.3-7.8,9.3l-3.7,6.4c-2.6,4.5-2.8,5-2.8,9.6V166.8z"/>
			<path class="st0" d="M54.2,310.5c0,1,0,4.7,0.1,5.6c-0.1,0.2-0.3,0.4-0.6,0.4c-0.4-0.5-1.3-1.7-4.1-4.8l-7.4-8.4
				c-0.9-1-3-3.6-3.7-4.3h-0.1c-0.1,0.4-0.2,1.1-0.2,2.1v6.9c0,1.5,0,5.6,0.6,6.6c0.2,0.3,0.8,0.5,1.6,0.6l1,0.1
				c0.2,0.3,0.2,0.6-0.1,0.8c-1.4-0.1-2.5-0.1-3.7-0.1c-1.3,0-2.2,0-3.3,0.1c-0.2-0.2-0.3-0.6-0.1-0.8l0.9-0.1
				c0.7-0.1,1.2-0.3,1.4-0.6c0.4-1.1,0.4-5,0.4-6.5v-9.2c0-0.9,0-1.6-0.7-2.3c-0.4-0.4-1.2-0.7-2-0.8l-0.5-0.1
				c-0.2-0.2-0.2-0.7,0.1-0.8c1.3,0.1,3,0.1,3.6,0.1c0.5,0,1,0,1.5-0.1c0.6,1.6,4.4,5.8,5.4,7l3.1,3.5c2.2,2.4,3.7,4.2,5.2,5.7h0.1
				c0.1-0.2,0.1-0.7,0.1-1.3v-6.8c0-1.5,0-5.6-0.6-6.6c-0.2-0.3-0.7-0.5-2-0.6l-0.5-0.1c-0.2-0.2-0.2-0.7,0.1-0.8
				c1.5,0.1,2.5,0.1,3.7,0.1c1.4,0,2.2,0,3.3-0.1c0.3,0.2,0.3,0.6,0.1,0.8l-0.4,0.1c-1,0.2-1.7,0.4-1.8,0.7
				c-0.5,1.1-0.5,5.1-0.5,6.5V310.5z"/>
			<path class="st0" d="M68.3,299.7c0-3.3-0.1-3.8-1.9-4l-0.5-0.1c-0.2-0.1-0.1-0.7,0.1-0.8c1.4,0.1,2.4,0.1,3.7,0.1h6
				c2,0,3.9,0,4.3-0.1c0.2,0.5,0.4,2.8,0.5,4.2c-0.1,0.2-0.6,0.3-0.8,0.1c-0.5-1.5-0.8-2.6-2.4-3c-0.7-0.2-1.7-0.2-3.1-0.2h-2.3
				c-1,0-1,0.1-1,1.3v6.4c0,0.9,0.1,0.9,1,0.9h1.8c1.3,0,2.3-0.1,2.7-0.2c0.4-0.1,0.6-0.3,0.8-1.1l0.3-1.3c0.2-0.2,0.7-0.2,0.8,0
				c0,0.8-0.1,2-0.1,3.2c0,1.1,0.1,2.4,0.1,3c-0.1,0.2-0.7,0.2-0.8,0l-0.3-1.2c-0.1-0.6-0.3-1-1-1.2c-0.4-0.1-1.2-0.2-2.4-0.2H72
				c-1,0-1,0-1,0.9v4.5c0,1.7,0.1,2.8,0.6,3.3c0.4,0.4,1,0.7,3.8,0.7c2.4,0,3.4-0.1,4.1-0.5c0.6-0.3,1.4-1.4,2.3-3.1
				c0.2-0.2,0.7-0.1,0.8,0.2c-0.2,1.1-1,3.6-1.4,4.4c-2.9-0.1-5.7-0.1-8.5-0.1h-2.9c-1.4,0-2.4,0-4.3,0.1c-0.2-0.1-0.3-0.6-0.1-0.8
				l1-0.1c1.8-0.2,2-0.6,2-4V299.7z"/>
			<path class="st0" d="M88.7,295.6c-0.2-0.2-0.2-0.6,0.1-0.8c0.9,0.1,2.3,0.1,3.3,0.1c0.9,0,2.5,0,3.6-0.1c0.3,0.1,0.3,0.5,0.1,0.8
				l-0.7,0.1c-0.7,0.1-1,0.3-1,0.5c0,0.4,0.7,2,1.7,4.3c1.8,4,3.7,7.9,5.5,11.8c0.8-1.6,1.6-3.4,2.4-5.1c0.3-0.6,0.5-1.1,0.5-1.3
				s-0.1-0.4-0.3-0.8c-1.1-2.5-2.3-5.1-3.5-7.6c-0.5-1-1-1.7-2-1.7l-0.8-0.1c-0.2-0.3-0.2-0.6,0.1-0.8c0.9,0.1,2.1,0.1,3.4,0.1
				c1.6,0,2.8,0,3.5-0.1c0.2,0.1,0.3,0.5,0.1,0.8l-0.8,0.1c-1.2,0.1-1.3,0.3-0.7,1.7c0.7,1.6,1.6,3.6,2.4,5.5
				c0.6-1.2,1.2-2.4,1.9-4.2c1.1-2.7,1-3,0-3.1l-1-0.1c-0.2-0.3-0.2-0.7,0.1-0.8c0.9,0.1,1.8,0.1,3,0.1c1,0,2.3,0,3-0.1
				c0.2,0.1,0.3,0.5,0.1,0.8l-0.9,0.1c-1.3,0.1-1.9,1.5-2.6,2.8c-0.7,1.2-2,3.9-2.5,5.1c-0.2,0.3-0.3,0.6-0.3,0.8
				c0,0.1,0.1,0.4,0.2,0.8c1.1,2.4,2.2,4.8,3.2,7.2c1-2.2,1.9-4.4,2.9-6.7c0.6-1.5,2.3-5.7,2.5-6.3c0.4-1.1,1-2.5,1-2.9
				c0-0.4-0.4-0.7-1-0.7l-0.9-0.1c-0.3-0.3-0.2-0.6,0-0.8c1.2,0.1,2.1,0.1,3,0.1c1.2,0,2.1,0,3-0.1c0.3,0.1,0.3,0.5,0.1,0.8
				l-0.6,0.1c-1.6,0.2-1.9,1.1-3.8,5.5l-2.3,5.4c-1.4,3.2-2.7,6.4-4,9.7c-0.1,0.1-0.2,0.1-0.4,0.1c-0.2,0-0.3,0-0.4-0.1
				c-1-2.8-2.9-6.8-3.8-9c-1.1,2.3-3,6.4-4,9c-0.1,0.1-0.2,0.1-0.4,0.1c-0.2,0-0.3,0-0.5-0.1c-0.5-1.3-1.8-4.2-2.2-5.1
				c-2-4.4-4-8.8-6.1-13.2c-0.6-1.3-1-2.2-2.3-2.3L88.7,295.6z"/>
			<path class="st0" d="M151.1,301.6c1.7-2.4,2.6-3.6,3.1-4.5c0.2-0.4,0.4-0.6,0.4-0.9c0-0.2-0.3-0.3-1.1-0.3h-4.7
				c-2.5,0-4,0.2-4.7,1c-0.7,0.7-1.1,1.6-1.4,2.2c-0.3,0.1-0.7,0-0.8-0.2c0.4-1.1,0.9-3,1.3-4.8c0.1-0.1,0.4-0.1,0.5,0
				c0.1,0.8,0.6,0.8,3.1,0.8h8.4c2.3,0,3.3,0,3.7-0.1c0.1,0,0.2,0.2,0.2,0.3c-0.9,0.7-3.6,4.4-5.2,6.8l-5.2,7.6
				c-0.4,0.5-3.1,4.4-3.1,4.9c0,0.3,0.3,0.4,0.9,0.4c0.8,0.1,2.5,0.1,4.7,0.1c2,0,4.7-0.1,5.9-0.7c0.9-0.5,1.7-1.7,2.2-2.9
				c0.3-0.1,0.7-0.1,0.8,0.2c-0.3,1.5-0.9,3.7-1.4,4.5c-1.7-0.1-3.6-0.1-5.8-0.1h-8.2c-1.7,0-2.8,0.1-3.6,0.1
				c-0.1-0.1-0.2-0.2-0.2-0.4c0.7-0.6,2.5-2.9,3.5-4.3L151.1,301.6z"/>
			<path class="st0" d="M170.7,299.7c0-3.3-0.1-3.8-1.9-4l-0.5-0.1c-0.2-0.1-0.1-0.7,0.1-0.8c1.4,0.1,2.4,0.1,3.7,0.1h6
				c2,0,3.9,0,4.3-0.1c0.2,0.5,0.4,2.8,0.5,4.2c-0.1,0.2-0.6,0.3-0.8,0.1c-0.5-1.5-0.8-2.6-2.4-3c-0.7-0.2-1.7-0.2-3.1-0.2h-2.3
				c-1,0-1,0.1-1,1.3v6.4c0,0.9,0.1,0.9,1,0.9h1.8c1.3,0,2.3-0.1,2.7-0.2c0.4-0.1,0.6-0.3,0.8-1.1l0.3-1.3c0.2-0.2,0.7-0.2,0.8,0
				c0,0.8-0.1,2-0.1,3.2c0,1.1,0.1,2.4,0.1,3c-0.1,0.2-0.7,0.2-0.8,0l-0.3-1.2c-0.1-0.6-0.3-1-1-1.2c-0.4-0.1-1.2-0.2-2.4-0.2h-1.8
				c-1,0-1,0-1,0.9v4.5c0,1.7,0.1,2.8,0.6,3.3c0.4,0.4,1,0.7,3.8,0.7c2.4,0,3.4-0.1,4.1-0.5c0.6-0.3,1.4-1.4,2.3-3.1
				c0.2-0.2,0.7-0.1,0.8,0.2c-0.2,1.1-1,3.6-1.4,4.4c-2.9-0.1-5.7-0.1-8.5-0.1H172c-1.4,0-2.4,0-4.3,0.1c-0.2-0.1-0.3-0.6-0.1-0.8
				l1-0.1c1.8-0.2,2-0.6,2-4V299.7z"/>
			<path class="st0" d="M198.1,305.7c-0.3,0.7-0.2,0.8,0.7,0.8h3.9c0.9,0,1-0.1,0.7-1l-1.7-5.2c-0.3-0.8-0.5-1.6-0.7-2h-0.1
				c-0.1,0.2-0.4,0.9-0.8,1.9L198.1,305.7z M204.4,308.5c-0.2-0.7-0.4-0.8-1.3-0.8h-4.8c-0.8,0-1,0.1-1.2,0.8l-1.1,3.3
				c-0.5,1.4-0.7,2.3-0.7,2.6c0,0.4,0.2,0.6,0.9,0.6l1,0.1c0.2,0.2,0.2,0.7-0.1,0.8c-0.8-0.1-1.8-0.1-3.3-0.1c-1,0-2.2,0.1-3,0.1
				c-0.2-0.1-0.3-0.6-0.1-0.8l1-0.1c0.8-0.1,1.5-0.4,1.9-1.6c0.6-1.5,1.5-3.5,2.8-7.1l3.2-8.6c0.4-1.1,0.6-1.7,0.5-2.3
				c0.8-0.2,1.3-0.8,1.7-1.2c0.2,0,0.4,0.1,0.5,0.3c0.4,1.4,0.9,2.9,1.4,4.3l4.4,12.8c0.9,2.7,1.3,3.2,2.7,3.4l0.9,0.1
				c0.2,0.2,0.2,0.7,0,0.8c-1.3-0.1-2.4-0.1-3.8-0.1c-1.5,0-2.7,0.1-3.7,0.1c-0.3-0.1-0.3-0.6-0.1-0.8l0.9-0.1
				c0.7-0.1,1.1-0.3,1.1-0.6c0-0.3-0.2-0.9-0.4-1.7L204.4,308.5z"/>
			<path class="st0" d="M221.7,299.7c0-3.3-0.1-3.8-2.1-4l-0.8-0.1c-0.2-0.1-0.1-0.7,0.1-0.8c1.8,0.1,2.9,0.1,4.1,0.1
				c1.2,0,2.3,0,3.9-0.1c0.2,0.1,0.3,0.7,0.1,0.8l-0.8,0.1c-1.9,0.2-1.9,0.7-1.9,4v11.1c0,2,0.1,2.8,0.7,3.4c0.3,0.4,1,0.7,3.5,0.7
				c2.7,0,3.4-0.1,3.9-0.4c0.6-0.4,1.5-1.5,2.1-3.1c0.2-0.2,0.8,0,0.8,0.2c0,0.4-0.9,3.6-1.3,4.4c-1.6-0.1-4.6-0.1-7.9-0.1H223
				c-1.3,0-2.4,0-4.1,0.1c-0.2-0.1-0.3-0.6-0.1-0.8l1-0.1c1.8-0.2,1.9-0.6,1.9-4V299.7z"/>
			<path class="st0" d="M248.6,305.7c-0.3,0.7-0.2,0.8,0.7,0.8h3.9c0.9,0,1-0.1,0.7-1l-1.7-5.2c-0.3-0.8-0.5-1.6-0.7-2h-0.1
				c-0.1,0.2-0.4,0.9-0.8,1.9L248.6,305.7z M254.8,308.5c-0.2-0.7-0.4-0.8-1.3-0.8h-4.8c-0.8,0-1,0.1-1.2,0.8l-1.1,3.3
				c-0.5,1.4-0.7,2.3-0.7,2.6c0,0.4,0.2,0.6,0.9,0.6l1,0.1c0.2,0.2,0.2,0.7-0.1,0.8c-0.8-0.1-1.8-0.1-3.3-0.1c-1,0-2.2,0.1-3,0.1
				c-0.2-0.1-0.3-0.6-0.1-0.8l1-0.1c0.8-0.1,1.5-0.4,1.9-1.6c0.6-1.5,1.5-3.5,2.8-7.1l3.2-8.6c0.4-1.1,0.6-1.7,0.5-2.3
				c0.8-0.2,1.3-0.8,1.7-1.2c0.2,0,0.4,0.1,0.5,0.3c0.4,1.4,0.9,2.9,1.4,4.3l4.4,12.8c0.9,2.7,1.3,3.2,2.7,3.4l0.9,0.1
				c0.2,0.2,0.2,0.7,0,0.8c-1.3-0.1-2.4-0.1-3.8-0.1c-1.5,0-2.7,0.1-3.7,0.1c-0.3-0.1-0.3-0.6-0.1-0.8l0.9-0.1
				c0.7-0.1,1.1-0.3,1.1-0.6c0-0.3-0.2-0.9-0.4-1.7L254.8,308.5z"/>
			<path class="st0" d="M289.2,310.5c0,1,0,4.7,0.1,5.6c-0.1,0.2-0.3,0.4-0.6,0.4c-0.4-0.5-1.3-1.7-4.1-4.8l-7.4-8.4
				c-0.9-1-3-3.6-3.7-4.3h-0.1c-0.1,0.4-0.2,1.1-0.2,2.1v6.9c0,1.5,0,5.6,0.6,6.6c0.2,0.3,0.8,0.5,1.6,0.6l1,0.1
				c0.2,0.3,0.2,0.6-0.1,0.8c-1.4-0.1-2.5-0.1-3.7-0.1c-1.3,0-2.2,0-3.3,0.1c-0.2-0.2-0.3-0.6-0.1-0.8l0.9-0.1
				c0.7-0.1,1.2-0.3,1.4-0.6c0.4-1.1,0.4-5,0.4-6.5v-9.2c0-0.9,0-1.6-0.7-2.3c-0.4-0.4-1.2-0.7-2-0.8l-0.5-0.1
				c-0.2-0.2-0.2-0.7,0.1-0.8c1.3,0.1,3,0.1,3.6,0.1c0.5,0,1,0,1.5-0.1c0.6,1.6,4.4,5.8,5.4,7l3.1,3.5c2.2,2.4,3.7,4.2,5.2,5.7h0.1
				c0.1-0.2,0.1-0.7,0.1-1.3v-6.8c0-1.5,0-5.6-0.6-6.6c-0.2-0.3-0.7-0.5-2-0.6l-0.5-0.1c-0.2-0.2-0.2-0.7,0.1-0.8
				c1.5,0.1,2.5,0.1,3.7,0.1c1.4,0,2.2,0,3.3-0.1c0.3,0.2,0.3,0.6,0.1,0.8l-0.4,0.1c-1,0.2-1.7,0.4-1.8,0.7
				c-0.5,1.1-0.5,5.1-0.5,6.5V310.5z"/>
			<path class="st0" d="M305.9,310.4c0,1.7,0.1,2.7,0.6,3.5c0.7,1,1.9,1.3,3.9,1.3c6.2,0,8.9-4,8.9-9.9c0-3.5-1.7-9.4-10-9.4
				c-1.9,0-2.9,0.3-3.1,0.4s-0.3,1-0.3,2.4V310.4z M303.3,299.1c0-2.2-0.2-2.9-1.5-3.1l-0.7-0.1c-0.3-0.2-0.3-0.7,0-0.8
				c2.7-0.2,5.3-0.3,8-0.3c2.7,0,4.9,0.2,7,1c4.3,1.6,6.4,5.2,6.4,9.4c0,4-1.9,7.5-5.6,9.5c-2.1,1.1-4.7,1.5-7.1,1.5
				c-2,0-4.1-0.3-5.2-0.3c-1.3,0-2.5,0-4,0.1c-0.2-0.1-0.3-0.6-0.1-0.8l0.7-0.1c1.8-0.3,1.9-0.6,1.9-4V299.1z"/>
			<path class="st0" d="M176.6,268c0-2.7-1.2-5.6-4.3-5.6c-1.7,0-3.9,1.2-3.9,4.8c0,2.4,1.2,5.6,4.4,5.6
				C174.7,272.8,176.6,271.3,176.6,268 M166.7,267.7c0-3.3,2.5-5.8,5.8-5.8c3.8,0,5.7,2.7,5.7,5.6c0,3.3-2.5,5.7-5.7,5.7
				C168.9,273.3,166.7,270.7,166.7,267.7"/>
			<path class="st0" d="M182.1,266.8c0,0.4,0,0.4,0.5,0.4h1.1c0.7,0,1.2,0,1.4-0.1c0.2-0.1,0.3-0.1,0.4-0.6l0.1-0.7
				c0.1-0.1,0.4-0.1,0.4,0c0,0.4-0.1,1-0.1,1.7c0,0.6,0.1,1.2,0.1,1.6c-0.1,0.1-0.3,0.1-0.4,0l-0.2-0.6c-0.1-0.3-0.2-0.5-0.5-0.6
				c-0.2-0.1-0.6-0.1-1.3-0.1h-1.1c-0.5,0-0.5,0-0.5,0.4v2.3c0,1.7,0,2,1,2l0.6,0.1c0.1,0.1,0.1,0.4,0,0.4c-1,0-1.5-0.1-2.2-0.1
				c-0.7,0-1.3,0-2.1,0.1c-0.1-0.1-0.1-0.3,0-0.4l0.4-0.1c1-0.1,1-0.3,1-2v-5.9c0-1.7,0-2-1-2.1l-0.3,0c-0.1-0.1-0.1-0.4,0-0.4
				c0.7,0,1.2,0,1.9,0h3c1,0,2,0,2.2,0c0,0.8,0,1.5,0,2.2c0,0.1-0.3,0.1-0.4,0c-0.1-0.7-0.3-1.3-1.1-1.6c-0.4-0.1-0.9-0.1-1.6-0.1
				h-1c-0.5,0-0.5,0-0.5,0.7V266.8z"/>
		</g>
	</g>
	<g>
		<path d="M858,127.8c-3.8-5.7-9.2-8.7-14.9-7.1c1.7-1.7,3.1-2.9,4.5-4.4c-0.6,1.4,9.2,6.6,17.8-0.1c-3.6-3.5-8.5-5.2-13.5-4.7
			c1-1.4,1.2-1.3,2.6-3c4.6,3.3,11,2.7,14.9-1.4c-5.9-4.4-12.7-1.6-12.8-1.6l2.8-4.3c1.2,1.6,9.5,3.2,12.4-2.3
			c-2.5-2.3-9.8-1.5-10.6-1c0.5-0.9,0.9-1.7,1.4-2.7c15.3,1.9,10.1-16,6.6-26c-57.7,87.9-134.5,25.7-228.5,81
			c-4.3,11.4-6,23.6-4.8,35.7c0.1,1.6,0.3,3.3,0.6,4.9c-0.2,0.8,1,7.7,3.5,15.2c1.9,5.4,3.9,9,6.3,14.6c1.4-1,2.9-2.2,4-3.1
			c-4.2-5.9-18.3-42.2-0.8-63.3c16.6-0.2,18.5,47.4,15.7,52.5c0.1,0,7.8-5.1,10.7-7c-3.6-1.4-16.1-42.8,4.9-60c0,0,18.7,7.2,11,50.9
			c3.2-2.1,7.7-4,12.1-6.3c-2.5-4.2-15.2-35.4,5.3-51.7c11.1,4.5,10.5,38.7,6.1,46.2c3.5-1.6,7.4-3.7,10.9-5.3
			c-6.5-3-6-35.1,4.9-43.9c12.1,11.4,9.2,30.6,6.1,39.1c0,0,9.2-3.8,9.1-3.8c-7.2-13.7-3.9-30.2,3.9-36.7c5.9,3.8,7.6,14.8,4.9,33.1
			c2.6-1,4.1-1.8,6.6-2.8c-1.6-3-5.7-21.6,4.9-31.7c9.6,4.6,6.1,25.3,5.5,27.4c0.1-0.1,5.6-2.2,5.5-2.3c-1.9-4-3.2-19.3,5.6-26.7
			c3.5,2.5,7.2,9.5,3.9,22.7c2-1,4.2-1.9,6.3-2.8c-3-3.3-0.8-16.8,3.7-22.1c5.4,2.4,7.7,14,5.7,17.9c1.3-0.7,3.1-1.5,5.3-2.8
			c-1.7-2.7-2.3-15.3,3-18.7c5.2,3.6,4.6,12.7,4.4,14.7c1.5-0.9,5.8-3.2,5.7-3.2c-2.9-2.6-4.2-11,1.9-16c5.3,1.2,5.4,11.2,4.9,11.8
			c2.1-1.4,5.4-3.8,7.1-5c-4.9-1.1-4.3-8.9-1.7-12.4c3.2,0.7,5.5,2.6,6.6,8.4c1.2-1.2,4.2-3.6,5.1-4.6c-2.9-0.2-6.6-6.7-2.1-10.9
			c1.4,0.6,5.6,2.4,6,6.9c1.2-1.2,2.2-2.4,3.2-3.7c-2.1-0.7-4.3-6.9-2.2-9.6c2.8-0.3,5.3,3.5,5.7,5.1l2.7-4c-1.6-1.3-4.8-5-1.9-8.2
			c3.1,0.1,4.2,2.5,4.9,4.8c-31.7,62.3-160.1,73-227.1,148.1c0,0-7,7.3-7,10.8v25.3h1.4c3.4-9.5,14.2-33.8,36-51.4
			c0.4-0.5,9.5,35.9,59.6,29.6c-9.8-23.7-40.5-39.2-47.6-39.6c1.4-1,10.2-7.6,11.6-8.4c-1.9,6.4,26.9,33.2,49.1,25.8
			c-5.9-18.1-30.4-33.4-36.7-33.7c2.6-1.4,5.3-3.5,8.1-4.8c-1.4,3.5,19.7,24.2,42.4,22.5c0.2-10.7-24.3-31.3-29-29.6
			c2.3-1.2,5.7-3.2,6.8-3.7c3.2,7.4,24.1,23.2,38.5,20.6c-11.6-25-26.7-26.5-26.9-26.5c4-1.9,6.4-3.1,7.1-3.4
			c0,6.7,20.6,21.8,35,18.2c-2.9-11.1-14.2-21.9-25.3-22.9l7.6-3.6c-1.2,2.2,16.2,16.6,32.7,15.7c-8-19.3-18.9-19.7-22.8-20.5
			c2.2-1,4.6-2.3,7-3.5c0.9,2.5,9.9,15.2,31.6,12c-4.3-9-13-15.1-22.9-16.1c3.1-1.8,5.4-2.6,7.6-3.8c1.5,1.8,6.9,13.3,29,9.1
			c-4.7-11.2-14.7-13.8-18.7-14.6c1.9-1.1,4.1-2.3,5.5-3.2c1.5,2.6,12.7,10.6,24.8,7.2c-2.3-6.7-10.9-10.8-18.6-11.1
			c3.4-2.1,6.5-4.4,6.4-4.4c1.1,2.6,7.7,8.9,23,4.7c-4.9-9.6-17.5-8.4-17.6-8.4c3-2.2,3.9-3,6.3-4.9
			C838.5,124.8,845.6,134.7,858,127.8z"/>
		<path d="M905.8,69.1c-5.8,0.1-10.3,4.9-10.2,10.7c0.1,5.8,4.9,10.3,10.7,10.2c5.8-0.1,10.3-4.9,10.2-10.7
			C916.4,73.5,911.6,69,905.8,69.1z M906.3,88.7c-5.1,0.1-9.3-3.9-9.4-9c-0.1-5.1,3.9-9.3,9-9.4c5.1-0.1,9.3,3.9,9.4,9
			C915.4,84.4,911.4,88.6,906.3,88.7C906.3,88.7,906.3,88.7,906.3,88.7L906.3,88.7z"/>
		<polygon points="899.2,77.4 901.3,77.4 901.3,83.8 902.6,83.8 902.6,77.4 904.7,77.4 904.7,76.2 899.2,76.2 		"/>
		<polygon points="908.7,80.5 906.4,76.2 905.1,76.2 905.1,83.8 906.4,83.8 906.4,78.8 908.1,82 909.3,82 910.9,78.8 910.9,83.8 
			912.3,83.8 912.3,76.2 910.9,76.2 		"/>
		<path d="M649.7,304.3c0-8.1-4.4-12.4-12-12.4s-12,4.3-12,12.4c0,6.8,3.1,10.9,8.6,12c0.8,5.2,4.2,7.8,11.1,7.8l1.5-7.1
			c-0.8,0.2-1.6,0.3-2.5,0.3c-1.4,0.1-2.8-0.3-3.8-1.2C646.2,315.3,649.7,311.2,649.7,304.3z M637.8,309.8c-2.5,0-3.4-2-3.4-5.5
			s0.8-5.6,3.4-5.6c2.5,0,3.4,2,3.4,5.5S640.3,309.8,637.8,309.8z"/>
		<path d="M675.5,306.2c0,1.9-0.4,3.8-2.7,3.8c-2.3,0-2.7-1.9-2.7-3.8v-13.7h-8.3V307c0,7.4,4.7,9.7,10.9,9.7c6.3,0,11-2.3,11-9.7
			v-14.6h-8.3V306.2z"/>
		<path d="M701.3,292.4l-7.8,23.8h8.2l1-3.2h7.8l1.1,3.2h8.6l-7.8-23.8H701.3z M704.6,306.8l0.8-3.3c0.7-2.6,1-4.7,1-4.7h0.2
			c0,0,0.5,2.1,1.2,4.7l0.8,3.3H704.6z"/>
		<polygon points="739.6,292.4 731.3,292.4 731.3,316.2 747.9,316.2 747.9,309.1 739.6,309.1 		"/>
		<path d="M772.6,302.5c-0.6,1-1,2-1.4,3.1h-0.2c-0.4-1.1-0.8-2.1-1.4-3.1l-5.3-10h-4.8v23.8h4.3v-12.8c0-1.4-0.1-2.8-0.2-4.2h0.2
			c0.5,1.4,1.1,2.7,1.8,4l4.1,7.4h2.5l4.1-7.4c0.7-1.3,1.3-2.6,1.8-4h0.2c-0.2,1.4-0.2,2.8-0.2,4.2v12.8h4.3v-23.8h-4.6L772.6,302.5
			z"/>
		<path d="M800.7,292.4l-8.6,23.8h4.4l2.1-6h9.5l2.1,6h4.7l-8.6-23.8H800.7z M799.8,306.6l1.6-4.5c0.7-2.1,1.4-4.2,1.9-6.4h0.2
			c0.5,2.2,1.1,4.3,1.9,6.4l1.5,4.4H799.8z"/>
		<path d="M840.7,309.1c-0.3-2-2-3.6-4.1-3.7v-0.1c3.1-0.1,5.5-2.6,5.4-5.6c0-0.1,0-0.2,0-0.3c0-4.8-2.9-7-8.3-7h-8.6v23.8h4.3V307
			h2.9c2.1,0,3.4,0.5,4,3l0.9,3.9c0.1,0.9,0.5,1.7,1.1,2.3h4.7c-0.6-0.7-1-1.6-1.2-2.5L840.7,309.1z M833.5,303.4h-4.1V296h4.1
			c2.7,0,4,1.3,4,3.7C837.6,302.3,836.2,303.4,833.5,303.4L833.5,303.4z"/>
		<polygon points="872.3,292.4 867.3,292.4 860.7,302.3 858.9,302.3 858.9,292.4 854.6,292.4 854.6,316.2 858.9,316.2 858.9,306 
			860.6,306 867.7,316.2 873,316.2 864.3,304 		"/>
	</g>
</g>
</svg>
