<svg xmlns="http://www.w3.org/2000/svg" viewBox="0 0 236.69 238.11"><defs><style>.cls-1{fill:#1d1d1b;}.cls-2{fill:#fff;}</style></defs><title>TNZ1111 Qualmark Partner Logo</title><g id="Qualmark"><path class="cls-1" d="M189.09,47.81c-3.05-4.64-7.53-7.11-12.15-5.87,1.37-1.35,2.52-2.32,3.66-3.6-.45,1.16,7.5,5.35,14.5-.07a13.54,13.54,0,0,0-11-3.81c.8-1.15,1-1.06,2.09-2.48,0,0,6.24,4.67,12.15-1.12-4.8-3.59-10.37-1.3-10.4-1.3l2.29-3.51c1,1.34,7.75,2.62,10.1-1.91-2-1.88-8-1.24-8.63-.8a23.74,23.74,0,0,0,1.11-2.16C205.3,22.72,201,8.18,198.22,0c-47,71.56-109.54,20.93-186,65.92A63.84,63.84,0,0,0,8.3,95a34.9,34.9,0,0,0,.5,4c-.16.69.85,6.24,2.88,12.37,1.51,4.39,3.21,7.34,5.09,11.86,1.1-.84,2.38-1.8,3.24-2.56-3.41-4.84-14.91-34.32-.63-51.51,13.54-.23,15.07,38.57,12.8,42.68.1,0,6.31-4.18,8.7-5.67-2.9-1.15-13.14-34.87,4-48.88,0,0,15.26,5.85,8.92,41.41,2.6-1.7,6.24-3.25,9.82-5.08-1.95-3.39-12.37-28.84,4.32-42.13,9,3.69,8.52,31.5,5,37.57,2.87-1.34,6-3,8.86-4.28-5.27-2.43-4.87-28.6,4-35.74,9.89,9.32,7.48,25,5,31.81,0,0,7.47-3.1,7.42-3.1-5.89-11.12-3.15-24.58,3.15-29.89q7.25,4.66,3.95,26.91c2.11-.85,3.32-1.47,5.36-2.23-1.27-2.44-4.67-17.61,4-25.77,7.78,3.71,5,20.58,4.44,22.28.08-.12,4.56-1.78,4.5-1.91-1.53-3.28-2.6-15.75,4.56-21.77,2.85,2,5.86,7.72,3.16,18.46,1.66-.81,3.45-1.52,5.16-2.31-2.43-2.72-.68-13.67,3-18,4.36,1.94,6.25,11.4,4.68,14.56,1.09-.55,2.49-1.24,4.29-2.25-1.41-2.22-1.86-12.42,2.44-15.21,4.21,2.91,3.77,10.37,3.62,12,1.21-.77,4.73-2.58,4.65-2.64-2.34-2.08-3.45-8.93,1.55-13.05,4.33,1,4.43,9.09,4,9.62,1.69-1.11,4.37-3.06,5.74-4.07-4-.86-3.5-7.26-1.35-10.11,2.64.54,4.49,2.15,5.36,6.87,1-.94,3.44-2.9,4.18-3.78-2.4-.18-5.4-5.43-1.7-8.87,1.11.46,4.56,1.92,4.89,5.63a27.17,27.17,0,0,0,2.6-3c-1.67-.61-3.51-5.64-1.8-7.82,2.28-.21,4.31,2.88,4.64,4.18l2.21-3.24c-1.28-1-3.92-4.06-1.58-6.71,2.55.13,3.47,2.06,4,3.9C166.2,70.33,61.66,79.05,7.11,140.18c0,0-5.67,5.93-5.67,8.79l0,20.62H2.55c2.75-7.75,11.57-27.49,29.33-41.89.36-.43,7.7,29.2,48.56,24.13-8-19.3-33-31.93-38.76-32.28,1.1-.85,8.3-6.21,9.45-6.86-1.56,5.21,21.9,27,40,21-4.83-14.76-24.76-27.24-29.91-27.43,2.15-1.11,4.32-2.82,6.56-3.89-1.18,2.82,16.05,19.68,34.49,18.33.18-8.75-19.78-25.46-23.63-24.13,1.84-1,4.65-2.63,5.51-3.05,2.63,6,19.63,18.9,31.33,16.81C105.95,90,93.75,88.79,93.62,88.78c3.25-1.53,5.16-2.53,5.74-2.77,0,5.44,16.8,17.72,28.49,14.84-2.37-9-11.57-17.83-20.62-18.67,2.14-1,4.54-2.14,6.18-2.94C112.46,81,126.62,92.76,140,92,133.54,76.31,124.67,76,121.49,75.37c1.79-.8,3.75-1.9,5.65-2.89.76,2,8.07,12.38,25.73,9.76a23.15,23.15,0,0,0-18.67-13.11c2.52-1.49,4.39-2.12,6.22-3.13,1.24,1.46,5.64,10.8,23.58,7.39-3.79-9.09-12-11.24-15.24-11.87,1.51-.93,3.32-1.9,4.52-2.6,1.2,2.08,10.34,8.62,20.19,5.89-1.9-5.48-8.89-8.76-15.14-9,2.73-1.75,5.28-3.62,5.23-3.6.91,2.12,6.27,7.24,18.71,3.82-4-7.83-14.21-6.86-14.32-6.82,2.46-1.82,3.18-2.47,5.09-4C173.23,45.37,179,53.41,189.09,47.81Z"/><path class="cls-1" d="M228,0a8.5,8.5,0,1,0,8.71,8.29A8.51,8.51,0,0,0,228,0Zm.39,16a7.49,7.49,0,1,1,7.31-7.69A7.5,7.5,0,0,1,228.37,16Z"/><polygon class="cls-1" points="222.64 6.78 224.31 6.78 224.31 11.99 225.41 11.99 225.41 6.78 227.09 6.78 227.09 5.76 222.64 5.76 222.64 6.78"/><polygon class="cls-1" points="230.33 9.3 228.51 5.76 227.39 5.76 227.39 11.99 228.51 11.99 228.51 7.92 229.83 10.53 230.86 10.53 232.16 7.92 232.16 11.99 233.29 11.99 233.29 5.76 232.16 5.76 230.33 9.3"/><path class="cls-1" d="M19.53,191.51c0-6.58-3.58-10.1-9.77-10.1S0,184.94,0,191.51c0,5.49,2.53,8.88,7,9.8.69,4.21,3.39,6.31,9,6.38l1.22-5.76a6.73,6.73,0,0,1-2,.26,4,4,0,0,1-3.09-1.05C16.67,200.43,19.53,197.07,19.53,191.51ZM9.77,196c-2,0-2.73-1.61-2.73-4.44S7.73,187,9.77,187s2.73,1.61,2.73,4.47S11.81,196,9.77,196Z"/><path class="cls-1" d="M40.46,193c0,1.55-.33,3.09-2.17,3.09s-2.17-1.55-2.17-3.09V181.81H29.38v11.87c0,6,3.81,7.89,8.91,7.89s8.91-1.91,8.91-7.89V181.81H40.46Z"/><path class="cls-1" d="M61.53,181.81l-6.35,19.37h6.71l.79-2.63h6.38l.85,2.63h7l-6.38-19.37Zm2.66,11.71.69-2.66c.56-2.1.85-3.78.85-3.78h.13s.39,1.68,1,3.78l.69,2.66Z"/><polygon class="cls-1" points="92.7 181.81 85.95 181.81 85.95 201.18 99.44 201.18 99.44 195.4 92.7 195.4 92.7 181.81"/><path class="cls-1" d="M119.55,190a12.37,12.37,0,0,0-1.12,2.5h-.13a15.25,15.25,0,0,0-1.12-2.5l-4.31-8.16H109v19.37h3.52V190.79a22.49,22.49,0,0,0-.2-3.42h.13a18.57,18.57,0,0,0,1.48,3.22l3.32,6h2l3.32-6a16.62,16.62,0,0,0,1.45-3.22h.13a27.08,27.08,0,0,0-.16,3.42v10.39h3.52V181.81h-3.75Z"/><path class="cls-1" d="M142.43,181.81l-7,19.37H139l1.71-4.87h7.73l1.71,4.87H154l-7-19.37Zm-.69,11.58,1.28-3.65a50.19,50.19,0,0,0,1.51-5.2h.13a41.3,41.3,0,0,0,1.51,5.23l1.25,3.62Z"/><path class="cls-1" d="M175,195.39a3.56,3.56,0,0,0-3.32-3v-.07a4.52,4.52,0,0,0,4.41-4.83c0-3.88-2.37-5.66-6.78-5.66h-7v19.37h3.52v-7.53h2.37c1.74,0,2.76.39,3.29,2.47l.76,3.19a3.28,3.28,0,0,0,.92,1.87H177a5,5,0,0,1-1-2Zm-5.85-4.64h-3.32v-6h3.32c2.24,0,3.29,1.09,3.29,3C172.43,189.84,171.34,190.76,169.14,190.76Z"/><polygon class="cls-1" points="200.74 181.81 196.66 181.81 191.26 189.84 189.82 189.84 189.82 181.81 186.3 181.81 186.3 201.18 189.82 201.18 189.82 192.86 191.2 192.86 196.99 201.18 201.26 201.18 194.19 191.22 200.74 181.81"/></g><g id="Ratings"><rect class="cls-1" x="1.42" y="216.85" width="201.26" height="19.84"/><path class="cls-2" d="M9.18,232.24v-11h3.33c2.73,0,3.89,1.27,3.89,3.39s-1.25,3.59-3.72,3.59H10.9v4Zm1.72-5.46h1.59c1.63,0,2.13-.82,2.13-2.08a1.88,1.88,0,0,0-2.15-2H10.9Z"/><path class="cls-2" d="M29,229.23H24.48l-1,3h-1.8l4-11h2.26l4,11H30.05Zm-4-1.42h3.52l-.84-2.47a23.75,23.75,0,0,1-.86-2.9H26.7a29.69,29.69,0,0,1-.86,2.88Z"/><path class="cls-2" d="M45.07,232.24a2.1,2.1,0,0,1-.49-1l-.45-1.91c-.32-1.29-1-1.53-2.06-1.53H40.59v4.47H38.87v-11h3.82c2.53,0,3.76,1.07,3.76,3.14a2.56,2.56,0,0,1-2.54,2.73v.06a2,2,0,0,1,1.91,1.76l.56,2.17a3.08,3.08,0,0,0,.58,1.16Zm-4.47-5.91h2c1.38,0,2-.58,2-1.83s-.65-1.83-2-1.83h-2Z"/><path class="cls-2" d="M55.95,232.24v-9.52h-3.2v-1.5h8.16v1.5H57.69v9.52Z"/><path class="cls-2" d="M74,227.52c.65,1,1.25,2.09,1.25,2.09h.08s-.09-1.18-.09-2.56v-5.84h1.72v11h-1.7L70.83,226a20.69,20.69,0,0,1-1.27-2.13h-.08s.11,1.18.11,2.6v5.82H67.88v-11h1.76Z"/><path class="cls-2" d="M92.06,232.24H85.27v-11h6.79v1.5H87V226h4.49v1.5H87v3.27h5.07Z"/><path class="cls-2" d="M106.35,232.24a2.1,2.1,0,0,1-.49-1l-.45-1.91c-.32-1.29-1-1.53-2.06-1.53h-1.48v4.47h-1.72v-11H104c2.53,0,3.76,1.07,3.76,3.14a2.56,2.56,0,0,1-2.54,2.73v.06a2,2,0,0,1,1.91,1.76l.56,2.17a3.08,3.08,0,0,0,.58,1.16Zm-4.47-5.91h2c1.38,0,2-.58,2-1.83s-.65-1.83-2-1.83h-2Z"/></g></svg>