<?xml version="1.0" encoding="utf-8"?>
<!-- Generator: Adobe Illustrator 22.0.1, SVG Export Plug-In . SVG Version: 6.00 Build 0)  -->
<svg version="1.1" xmlns="http://www.w3.org/2000/svg" xmlns:xlink="http://www.w3.org/1999/xlink" x="0px" y="0px"
	 viewBox="0 0 236.7 335.9" style="enable-background:new 0 0 236.7 335.9;" xml:space="preserve">
<style type="text/css">
	.st0{display:none;}
	.st1{display:inline;fill:#1D1D1B;}
	.st2{fill:#9D9C9E;}
	.st3{fill:#FFFFFF;}
</style>
<g id="Qualmark">
	<g>
		<path d="M189.1,47.8c-3.1-4.6-7.5-7.1-12.1-5.9c1.4-1.3,2.5-2.3,3.7-3.6c-0.5,1.2,7.5,5.3,14.5-0.1c-3.4-3.3-7-4-11-3.8
			c0.8-1.1,1-1.1,2.1-2.5c0,0,6.2,4.7,12.2-1.1c-4.8-3.6-10.4-1.3-10.4-1.3l2.3-3.5c1,1.3,7.7,2.6,10.1-1.9c-2-1.9-8-1.2-8.6-0.8
			c0.2-0.2,0.7-1.5,1.1-2.2c12.5,1.5,8.2-13,5.4-21.2c-47,71.6-109.5,20.9-186,65.9c-3.6,9.3-4.9,19-3.9,29.1c0.1,1,0.1,1.8,0.5,4
			c-0.2,0.7,0.8,6.2,2.9,12.4c1.5,4.4,3.2,7.3,5.1,11.9c1.1-0.8,2.4-1.8,3.2-2.6c-3.4-4.8-14.9-34.3-0.6-51.5
			c13.5-0.2,15.1,38.6,12.8,42.7c0.1,0,6.3-4.2,8.7-5.7c-2.9-1.2-13.1-34.9,4-48.9c0,0,15.3,5.9,8.9,41.4c2.6-1.7,6.2-3.2,9.8-5.1
			c-1.9-3.4-12.4-28.8,4.3-42.1c9,3.7,8.5,31.5,5,37.6c2.9-1.3,6-3,8.9-4.3c-5.3-2.4-4.9-28.6,4-35.7c9.9,9.3,7.5,25,5,31.8
			c0,0,7.5-3.1,7.4-3.1c-5.9-11.1-3.1-24.6,3.1-29.9c4.8,3.1,6.2,12.1,3.9,26.9c2.1-0.8,3.3-1.5,5.4-2.2c-1.3-2.4-4.7-17.6,4-25.8
			c7.8,3.7,5,20.6,4.4,22.3c0.1-0.1,4.6-1.8,4.5-1.9c-1.5-3.3-2.6-15.7,4.6-21.8c2.9,2,5.9,7.7,3.2,18.5c1.7-0.8,3.5-1.5,5.2-2.3
			c-2.4-2.7-0.7-13.7,3-18c4.4,1.9,6.3,11.4,4.7,14.6c1.1-0.6,2.5-1.2,4.3-2.3c-1.4-2.2-1.9-12.4,2.4-15.2c4.2,2.9,3.8,10.4,3.6,12
			c1.2-0.8,4.7-2.6,4.7-2.6c-2.3-2.1-3.4-8.9,1.6-13.1c4.3,1,4.4,9.1,4,9.6c1.7-1.1,4.4-3.1,5.7-4.1c-4-0.9-3.5-7.3-1.4-10.1
			c2.6,0.5,4.5,2.1,5.4,6.9c1-0.9,3.4-2.9,4.2-3.8c-2.4-0.2-5.4-5.4-1.7-8.9c1.1,0.5,4.6,1.9,4.9,5.6c0.5-0.3,2.3-2.6,2.6-3
			c-1.7-0.6-3.5-5.6-1.8-7.8c2.3-0.2,4.3,2.9,4.6,4.2l2.2-3.2c-1.3-1-3.9-4.1-1.6-6.7c2.6,0.1,3.5,2.1,4,3.9
			C166.2,70.3,61.7,79.1,7.1,140.2c0,0-5.7,5.9-5.7,8.8l0,20.6l1.1,0c2.8-7.8,11.6-27.5,29.3-41.9c0.4-0.4,7.7,29.2,48.6,24.1
			c-8-19.3-33-31.9-38.8-32.3c1.1-0.8,8.3-6.2,9.4-6.9c-1.6,5.2,21.9,27,40,21c-4.8-14.8-24.8-27.2-29.9-27.4
			c2.2-1.1,4.3-2.8,6.6-3.9c-1.2,2.8,16.1,19.7,34.5,18.3c0.2-8.7-19.8-25.5-23.6-24.1c1.8-1,4.7-2.6,5.5-3.1
			c2.6,6,19.6,18.9,31.3,16.8C105.9,90,93.7,88.8,93.6,88.8c3.3-1.5,5.2-2.5,5.7-2.8c0,5.4,16.8,17.7,28.5,14.8
			c-2.4-9-11.6-17.8-20.6-18.7c2.1-1,4.5-2.1,6.2-2.9c-1,1.7,13.2,13.5,26.6,12.8c-6.5-15.7-15.4-16.1-18.5-16.7
			c1.8-0.8,3.7-1.9,5.7-2.9c0.8,2,8.1,12.4,25.7,9.8c-4.4-9.6-13.8-12.8-18.7-13.1c2.5-1.5,4.4-2.1,6.2-3.1
			c1.2,1.5,5.6,10.8,23.6,7.4c-3.8-9.1-12-11.2-15.2-11.9c1.5-0.9,3.3-1.9,4.5-2.6c1.2,2.1,10.3,8.6,20.2,5.9
			c-1.9-5.5-8.9-8.8-15.1-9c2.7-1.8,5.3-3.6,5.2-3.6c0.9,2.1,6.3,7.2,18.7,3.8c-4-7.8-14.2-6.9-14.3-6.8c2.5-1.8,3.2-2.5,5.1-4
			C173.2,45.4,179,53.4,189.1,47.8z"/>
		<path d="M228,0c-4.7,0.1-8.4,4-8.3,8.7c0.1,4.7,4,8.4,8.7,8.3c4.7-0.1,8.4-4,8.3-8.7C236.6,3.6,232.7-0.1,228,0z M228.4,16
			c-4.1,0.1-7.6-3.2-7.7-7.3c-0.1-4.1,3.2-7.6,7.3-7.7c4.1-0.1,7.6,3.2,7.7,7.3C235.8,12.4,232.5,15.9,228.4,16z"/>
		<polygon points="222.6,6.8 224.3,6.8 224.3,12 225.4,12 225.4,6.8 227.1,6.8 227.1,5.8 222.6,5.8 		"/>
		<polygon points="230.3,9.3 228.5,5.8 227.4,5.8 227.4,12 228.5,12 228.5,7.9 229.8,10.5 230.9,10.5 232.2,7.9 232.2,12 233.3,12 
			233.3,5.8 232.2,5.8 		"/>
		<path d="M19.5,191.5c0-6.6-3.6-10.1-9.8-10.1S0,184.9,0,191.5c0,5.5,2.5,8.9,7,9.8c0.7,4.2,3.4,6.3,9,6.4l1.2-5.8
			c-0.4,0.1-1.1,0.3-2,0.3c-1.3,0-2.6-0.4-3.1-1.1C16.7,200.4,19.5,197.1,19.5,191.5z M9.8,196c-2,0-2.7-1.6-2.7-4.4
			c0-2.9,0.7-4.5,2.7-4.5c2,0,2.7,1.6,2.7,4.5C12.5,194.3,11.8,196,9.8,196z"/>
		<path d="M40.5,193c0,1.5-0.3,3.1-2.2,3.1c-1.8,0-2.2-1.5-2.2-3.1v-11.2h-6.7v11.9c0,6,3.8,7.9,8.9,7.9c5.1,0,8.9-1.9,8.9-7.9
			v-11.9h-6.7V193z"/>
		<path d="M61.5,181.8l-6.3,19.4h6.7l0.8-2.6h6.4l0.9,2.6h7l-6.4-19.4H61.5z M64.2,193.5l0.7-2.7c0.6-2.1,0.9-3.8,0.9-3.8h0.1
			c0,0,0.4,1.7,1,3.8l0.7,2.7H64.2z"/>
		<polygon points="92.7,181.8 86,181.8 86,201.2 99.4,201.2 99.4,195.4 92.7,195.4 		"/>
		<path d="M119.6,190c-0.9,1.6-1.1,2.5-1.1,2.5h-0.1c0,0-0.3-0.9-1.1-2.5l-4.3-8.2H109v19.4h3.5v-10.4c0-2.3-0.2-3.4-0.2-3.4h0.1
			c0,0,0.4,1.3,1.5,3.2l3.3,6h2l3.3-6c1.1-1.9,1.4-3.2,1.4-3.2h0.1c0,0-0.2,1.2-0.2,3.4v10.4h3.5v-19.4h-3.7L119.6,190z"/>
		<path d="M142.4,181.8l-7,19.4h3.6l1.7-4.9h7.7l1.7,4.9h3.8l-7-19.4H142.4z M141.7,193.4l1.3-3.7c1.1-3.1,1.5-5.2,1.5-5.2h0.1
			c0,0,0.4,2.2,1.5,5.2l1.3,3.6H141.7z"/>
		<path d="M175,195.4c-0.5-2-1.5-2.8-3.3-3v-0.1c2.5-0.2,4.4-1.8,4.4-4.8c0-3.9-2.4-5.7-6.8-5.7h-7v19.4h3.5v-7.5h2.4
			c1.7,0,2.8,0.4,3.3,2.5l0.8,3.2c0.2,0.8,0.4,1.4,0.9,1.9h3.8c-0.5-0.6-0.8-1.3-1-2L175,195.4z M169.1,190.8h-3.3v-6h3.3
			c2.2,0,3.3,1.1,3.3,3C172.4,189.8,171.3,190.8,169.1,190.8z"/>
		<polygon points="200.7,181.8 196.7,181.8 191.3,189.8 189.8,189.8 189.8,181.8 186.3,181.8 186.3,201.2 189.8,201.2 189.8,192.9 
			191.2,192.9 197,201.2 201.3,201.2 194.2,191.2 		"/>
	</g>
</g>
<g id="Ratings">
	<g class="st0">
		<polygon class="st1" points="15.5,267.9 15.5,274.4 19.6,274.4 19.6,273.1 17,273.1 17,267.9 		"/>
		<rect x="21.7" y="267.9" class="st1" width="1.5" height="6.5"/>
		<path class="st1" d="M29.8,273.7l0.2,0.7H31v-3.5h-2.8v1.2h1.4v0.2c0,0.6-0.4,1-1.3,1c-1.2,0-1.6-0.9-1.6-2.1
			c0-1.6,0.9-2.1,1.6-2.1c0.6,0,1.1,0.3,1.3,1l1.5-0.7c-0.4-1-1.4-1.7-2.7-1.7c-2,0-3.2,1.2-3.2,3.4c0,2.3,1.2,3.4,2.9,3.4
			C28.8,274.5,29.5,274.2,29.8,273.7z"/>
		<polygon class="st1" points="37.3,274.4 38.8,274.4 38.8,267.9 37.3,267.9 37.3,270.4 34.8,270.4 34.8,267.9 33.3,267.9 
			33.3,274.4 34.8,274.4 34.8,271.7 37.3,271.7 		"/>
		<polygon class="st1" points="45.7,267.9 40.6,267.9 40.6,269.2 42.4,269.2 42.4,274.4 43.9,274.4 43.9,269.2 45.7,269.2 		"/>
		<polygon class="st1" points="5.4,281 3,281 3,279.5 5.8,279.5 5.8,278.2 1.5,278.2 1.5,284.7 3,284.7 3,282.3 5.4,282.3 		"/>
		<path class="st1" d="M13.6,281.4c0-2.2-1.2-3.4-3.1-3.4s-3.1,1.2-3.1,3.4c0,2.2,1.2,3.4,3.1,3.4S13.6,283.6,13.6,281.4z
			 M10.5,283.5c-1,0-1.5-0.8-1.5-2.1c0-1.3,0.5-2.1,1.5-2.1c1,0,1.5,0.8,1.5,2.1C12.1,282.7,11.5,283.5,10.5,283.5z"/>
		<path class="st1" d="M18.3,284.8c1.9,0,3.1-1.2,3.1-3.4c0-2.2-1.2-3.4-3.1-3.4s-3.1,1.2-3.1,3.4C15.2,283.6,16.4,284.8,18.3,284.8
			z M18.3,279.4c1,0,1.5,0.8,1.5,2.1c0,1.3-0.5,2.1-1.5,2.1s-1.5-0.8-1.5-2.1C16.8,280.1,17.3,279.4,18.3,279.4z"/>
		<polygon class="st1" points="26,284.7 26,279.5 27.8,279.5 27.8,278.2 22.7,278.2 22.7,279.5 24.5,279.5 24.5,284.7 		"/>
		<path class="st1" d="M31.2,282.6h1c1.4,0,2.2-0.8,2.2-2.2c0-1.4-0.7-2.2-2.4-2.2h-2.3v6.5h1.5V282.6z M31.2,279.4h0.8
			c0.6,0,0.9,0.3,0.9,1c0,0.6-0.3,0.9-0.9,0.9h-0.8V279.4z"/>
		<path class="st1" d="M37.6,282.4h0.6c0.5,0,0.8,0.1,0.9,0.7l0.2,1c0.1,0.3,0.1,0.5,0.3,0.7h1.7c-0.2-0.2-0.3-0.4-0.4-0.7l-0.3-1.2
			c-0.2-0.6-0.5-0.9-1.1-1v0c0.8-0.1,1.4-0.6,1.4-1.6c0-1.5-0.9-2-2.4-2h-2.6v6.5h1.5V282.4z M37.6,279.4h1c0.6,0,0.9,0.3,0.9,0.9
			c0,0.6-0.3,0.9-0.9,0.9h-1V279.4z"/>
		<rect x="43.3" y="278.2" class="st1" width="1.5" height="6.5"/>
		<path class="st1" d="M52.9,284.7v-6.5h-1.5v2.6c0,0.8,0,1.4,0,1.4h0c0,0-0.2-0.4-0.5-0.9l-2.3-3.2h-1.4v6.5h1.5v-2.6
			c0-0.9-0.1-1.5-0.1-1.5h0c0,0,0.2,0.4,0.6,1l2.3,3.1H52.9z"/>
		<polygon class="st1" points="54.6,278.2 54.6,279.5 56.4,279.5 56.4,284.7 57.9,284.7 57.9,279.5 59.7,279.5 59.7,278.2 		"/>
		<rect x="1.4" y="271" class="st1" width="8" height="0.9"/>
		<rect x="51.7" y="271" class="st1" width="8" height="0.9"/>
		<path class="st1" d="M14.2,289.5c0.2,0.3,0.3,0.7-0.1,1l0.6,0.5c0.6-0.6,0.5-1.3,0-2c-0.4-0.6-1.2-1-1.9-0.4
			c-0.6,0.5-0.6,1.1-0.3,1.9c0.2,0.7,0.2,0.9-0.1,1.2c-0.3,0.2-0.6,0.1-0.9-0.2c-0.3-0.4-0.3-0.8,0.1-1.2l-0.7-0.4
			c-0.5,0.6-0.5,1.3,0.1,2c0.5,0.7,1.3,1,2,0.5c0.7-0.5,0.6-1.1,0.3-1.9c-0.2-0.6-0.3-0.9,0-1.2C13.6,289.1,13.9,289.2,14.2,289.5z"
			/>
		<path class="st1" d="M14.3,295.5c0.7,0.6,1.6,0.9,2.4,0l2-2.3l-0.6-0.5l-1.8,2.1c-0.5,0.6-1,0.6-1.5,0.2c-0.5-0.4-0.5-0.9,0-1.5
			l1.8-2.1l-0.6-0.5l-2,2.3C13.2,294.1,13.6,294.9,14.3,295.5z"/>
		<path class="st1" d="M21.3,296c0.4-0.8,0-1.4-0.8-1.8c-0.6-0.4-1.4-0.4-1.9,0.4c-0.4,0.7-0.1,1.3,0.5,1.9c0.5,0.6,0.5,0.8,0.4,1.1
			c-0.2,0.3-0.5,0.3-0.9,0.1c-0.4-0.2-0.6-0.6-0.4-1.1l-0.8-0.2c-0.3,0.8,0.1,1.3,0.8,1.8c0.8,0.4,1.6,0.5,2-0.3
			c0.4-0.7,0.1-1.3-0.4-1.9c-0.4-0.5-0.6-0.7-0.4-1.1c0.2-0.3,0.5-0.4,0.9-0.2c0.3,0.2,0.5,0.6,0.3,1L21.3,296z"/>
		<polygon class="st1" points="22.6,300.2 23.8,296.6 25.1,297.1 25.3,296.4 22.1,295.3 21.9,295.9 23.1,296.4 21.8,299.9 		"/>
		<path class="st1" d="M25.6,299.9l1.8,0.3l0.2,1.2l0.9,0.2l-0.8-4.7l-1-0.2l-2.4,4.1l0.8,0.1L25.6,299.9z M26.3,298.5
			c0.4-0.7,0.6-1.1,0.6-1.1l0,0c0,0,0,0.5,0.1,1.3l0.1,0.9l-1.3-0.2L26.3,298.5z"/>
		
			<rect x="27.8" y="298.8" transform="matrix(2.209895e-02 -0.9998 0.9998 2.209895e-02 -269.7954 322.683)" class="st1" width="4.5" height="0.8"/>
		<path class="st1" d="M33.1,299l2,2.1l0.8-0.1l-0.6-4.4l-0.8,0.1l0.3,2.2c0.1,0.6,0.2,1,0.2,1l0,0c0,0-0.2-0.4-0.6-0.7l-2-2.2
			l-0.8,0.1l0.6,4.4l0.8-0.1l-0.3-2.1c-0.1-0.6-0.2-1-0.2-1l0,0C32.5,298.2,32.7,298.6,33.1,299z"/>
		<path class="st1" d="M40.3,299.5l0.8-0.3l-3.1-3.6l-1,0.4l0,4.8l0.8-0.3l0-1.2l1.7-0.6L40.3,299.5z M37.9,298.5l0-0.9
			c0-0.7-0.1-1.2-0.1-1.2l0,0c0,0,0.3,0.4,0.7,1l0.6,0.7L37.9,298.5z"/>
		<path class="st1" d="M43.5,297.8c0.9-0.6,1.1-1.2,0.7-1.9c-0.3-0.5-0.9-0.6-1.4-0.4l0,0c0.4-0.3,0.5-0.8,0.1-1.3
			c-0.4-0.6-1-0.7-1.8-0.2l-1.4,0.8l2.3,3.8L43.5,297.8z M40.9,295l0.5-0.3c0.4-0.2,0.7-0.2,1,0.1c0.2,0.4,0.1,0.7-0.3,0.9l-0.6,0.3
			L40.9,295z M42.5,296.2c0.5-0.3,0.8-0.2,1,0.1c0.2,0.4,0.1,0.7-0.3,1l-0.7,0.4l-0.6-1.1L42.5,296.2z"/>
		<polygon class="st1" points="48.2,294.1 47.7,293.6 46.3,294.9 43.8,292.1 43.2,292.6 46.2,295.9 		"/>
		<polygon class="st1" points="50.7,291.1 50.1,290.7 48.8,292.3 47.9,291.5 49,290.1 48.5,289.7 47.4,291.1 46.5,290.3 47.7,288.8 
			47.2,288.3 45.4,290.5 48.9,293.3 		"/>
		<path class="st1" d="M21.4,256.9l0.5-0.2c0.4-0.2,0.6-0.2,0.9,0.2l0.4,0.6c0.1,0.2,0.2,0.3,0.4,0.3l0.8-0.3
			c-0.2-0.1-0.3-0.2-0.4-0.3l-0.5-0.7c-0.3-0.4-0.6-0.5-1-0.4l0,0c0.5-0.3,0.8-0.8,0.5-1.4c-0.3-0.8-1-1-1.9-0.6l-1.5,0.6l1.7,4.1
			l0.8-0.3L21.4,256.9z M21.1,256.3l-0.5-1.3l0.7-0.3c0.5-0.2,0.8-0.1,1,0.3c0.2,0.4,0,0.7-0.4,0.9L21.1,256.3z"/>
		<path class="st1" d="M26,252.6l-0.9,4.7l0.8-0.1l0.2-1.2l1.8-0.3l0.6,1.1l0.9-0.1l-2.3-4.2L26,252.6z M27.5,255.1l-1.3,0.2
			l0.2-0.9c0.1-0.7,0.2-1.2,0.2-1.2l0,0c0,0,0.2,0.5,0.5,1.1L27.5,255.1z"/>
		<polygon class="st1" points="31.3,256.7 31.4,253 32.7,253 32.7,252.3 29.3,252.2 29.3,252.9 30.6,252.9 30.5,256.7 		"/>
		<polygon class="st1" points="36.9,253.8 37,253.1 34.3,252.5 33.3,256.9 36.1,257.5 36.3,256.8 34.3,256.4 34.5,255.2 36.3,255.6 
			36.4,254.9 34.7,254.5 34.9,253.4 		"/>
		<path class="st1" d="M40.3,254.3l-1.3-0.6l-1.8,4.1l1.3,0.6c1.1,0.5,2.3,0.3,2.9-1.2C42,255.8,41.4,254.8,40.3,254.3z M40.6,256.9
			c-0.5,1-1.2,1.2-1.9,0.8l-0.5-0.2l1.3-2.8l0.6,0.3C40.6,255.2,41,255.8,40.6,256.9z"/>
		<path class="st1" d="M30.6,248.9c11.5,0,21.4,7,25.6,17h0.9C52.9,255.4,42.6,248,30.6,248S8.3,255.4,4,265.9H5
			C9.2,255.9,19.1,248.9,30.6,248.9z"/>
		<path class="st1" d="M30.6,304.5c-11.2,0-20.9-6.7-25.3-16.2h-1c4.4,10.1,14.5,17.1,26.2,17.1s21.8-7.1,26.2-17.1h-1
			C51.5,297.8,41.8,304.5,30.6,304.5z"/>
	</g>
	<g class="st0">
		<path class="st1" d="M173.6,248.9c11.5,0,21.4,7,25.6,17h0.9c-4.3-10.5-14.6-17.9-26.5-17.9s-22.3,7.4-26.5,17.9h0.9
			C152.2,255.9,162.1,248.9,173.6,248.9z"/>
		<path class="st1" d="M160.4,267.9l-0.8,3.6c-0.2,0.9-0.3,1.8-0.3,1.8h0c0,0-0.1-0.9-0.3-1.8l-0.8-3.6h-1.6l1.4,6.5h2.1l0.8-3.2
			c0.2-0.9,0.3-1.8,0.3-1.8h0c0,0,0,0.9,0.3,1.8l0.7,3.2h2.2l1.4-6.5h-1.5l-0.7,3.6c-0.2,0.9-0.3,1.8-0.3,1.8h0c0,0-0.1-0.9-0.3-1.8
			l-0.8-3.6H160.4z"/>
		<path class="st1" d="M168.9,274.4l0.5-1.4h2.5l0.5,1.4h1.6l-2.4-6.5h-1.9l-2.4,6.5H168.9z M170,271c0.4-1.1,0.5-1.9,0.5-1.9h0
			c0,0,0.1,0.8,0.5,1.9l0.3,0.7h-1.6L170,271z"/>
		<path class="st1" d="M176.3,274.4h1.5v-2.3h0.6c0.5,0,0.8,0.1,0.9,0.7l0.2,1c0.1,0.3,0.1,0.5,0.3,0.7h1.7
			c-0.2-0.2-0.3-0.4-0.4-0.7l-0.3-1.2c-0.2-0.6-0.5-0.9-1.1-1v0c0.8-0.1,1.4-0.6,1.4-1.6c0-1.5-0.9-2-2.4-2h-2.6V274.4z
			 M177.8,269.1h1c0.6,0,0.9,0.3,0.9,0.9c0,0.6-0.3,0.9-0.9,0.9h-1V269.1z"/>
		<path class="st1" d="M189,274.4h1.5v-6.5H189l-1.2,2.2c-0.4,0.6-0.5,1-0.5,1h0c0,0-0.1-0.3-0.5-1l-1.2-2.2H184v6.5h1.5v-2.9
			c0-0.7-0.1-1.1-0.1-1.1h0c0,0,0.2,0.5,0.5,1l0.9,1.5h0.7l0.9-1.5c0.3-0.5,0.5-1,0.5-1h0c0,0-0.1,0.4-0.1,1.1V274.4z"/>
		<path class="st1" d="M149.5,281.5c0.2-0.9,0.3-1.8,0.3-1.8h0c0,0,0,0.9,0.3,1.8l0.7,3.2h2.2l1.4-6.5h-1.5l-0.7,3.6
			c-0.2,0.9-0.3,1.8-0.3,1.8h0c0,0-0.1-0.9-0.3-1.8l-0.8-3.6h-1.8l-0.8,3.6c-0.2,0.9-0.3,1.8-0.3,1.8h0c0,0-0.1-0.9-0.3-1.8
			l-0.8-3.6h-1.6l1.4,6.5h2.1L149.5,281.5z"/>
		<polygon class="st1" points="161.4,279.5 161.4,278.2 157,278.2 157,284.7 161.4,284.7 161.4,283.4 158.5,283.4 158.5,282 
			161,282 161,280.8 158.5,280.8 158.5,279.5 		"/>
		<polygon class="st1" points="168.8,283.4 166.3,283.4 166.3,278.2 164.8,278.2 164.8,284.7 168.8,284.7 		"/>
		<path class="st1" d="M176.6,283.3l-1.3-0.8c-0.3,0.6-0.8,0.9-1.4,0.9c-1.1,0-1.6-0.8-1.6-2c0-1.3,0.6-2.1,1.6-2.1
			c0.7,0,1.1,0.4,1.3,1l1.5-0.7c-0.5-1-1.3-1.7-2.7-1.7c-2,0-3.2,1.2-3.2,3.4c0,2.2,1.2,3.4,3,3.4
			C175.3,284.8,176,284.3,176.6,283.3z"/>
		<path class="st1" d="M179,281.4c0,2.2,1.2,3.4,3.1,3.4s3.1-1.2,3.1-3.4c0-2.2-1.2-3.4-3.1-3.4S179,279.2,179,281.4z M183.6,281.5
			c0,1.3-0.5,2.1-1.5,2.1s-1.5-0.8-1.5-2.1c0-1.3,0.5-2.1,1.5-2.1C183.1,279.4,183.6,280.2,183.6,281.5z"/>
		<path class="st1" d="M192.9,284.7h1.5v-6.5h-1.5l-1.2,2.2c-0.4,0.6-0.5,1-0.5,1h0c0,0-0.1-0.3-0.5-1l-1.2-2.2h-1.5v6.5h1.5v-2.9
			c0-0.7-0.1-1.1-0.1-1.1h0c0,0,0.2,0.5,0.5,1l0.9,1.5h0.7l0.9-1.5c0.3-0.5,0.5-1,0.5-1h0c0,0-0.1,0.4-0.1,1.1V284.7z"/>
		<polygon class="st1" points="197.6,284.7 202,284.7 202,283.4 199.1,283.4 199.1,282 201.7,282 201.7,280.8 199.1,280.8 
			199.1,279.5 202,279.5 202,278.2 197.6,278.2 		"/>
		<rect x="144.5" y="271" class="st1" width="8" height="0.9"/>
		<rect x="194.7" y="271" class="st1" width="8" height="0.9"/>
		<path class="st1" d="M166,254.5c-0.3-0.8-1-1-1.9-0.6l-1.5,0.6l1.7,4.1l0.8-0.3l-0.7-1.6l0.5-0.2c0.4-0.2,0.6-0.2,0.9,0.2l0.4,0.6
			c0.1,0.2,0.2,0.3,0.4,0.3l0.8-0.3c-0.2-0.1-0.3-0.2-0.4-0.3l-0.5-0.7c-0.3-0.4-0.6-0.5-1-0.4l0,0C166,255.7,166.3,255.2,166,254.5
			z M164.8,255.9l-0.7,0.3l-0.5-1.3l0.7-0.3c0.5-0.2,0.8-0.1,1,0.3C165.4,255.4,165.3,255.7,164.8,255.9z"/>
		<path class="st1" d="M169,252.5l-0.9,4.7l0.8-0.1l0.2-1.2l1.8-0.3l0.6,1.1l0.9-0.1l-2.3-4.2L169,252.5z M170.5,255l-1.3,0.2
			l0.2-0.9c0.1-0.7,0.2-1.2,0.2-1.2l0,0c0,0,0.2,0.5,0.5,1.1L170.5,255z"/>
		<polygon class="st1" points="174.2,256.6 174.3,252.8 175.6,252.9 175.6,252.2 172.3,252.1 172.3,252.8 173.5,252.8 173.4,256.6 
					"/>
		<polygon class="st1" points="179.9,253.7 180,253 177.2,252.4 176.3,256.8 179.1,257.4 179.2,256.7 177.2,256.2 177.5,255.1 
			179.2,255.5 179.4,254.8 177.6,254.4 177.9,253.2 		"/>
		<path class="st1" d="M183.2,254.2l-1.3-0.6l-1.8,4.1l1.3,0.6c1.1,0.5,2.3,0.3,2.9-1.2C185,255.6,184.4,254.7,183.2,254.2z
			 M183.5,256.8c-0.5,1-1.2,1.2-1.9,0.8l-0.5-0.2l1.3-2.8l0.6,0.3C183.6,255.1,184,255.7,183.5,256.8z"/>
		<path class="st1" d="M156.7,295.1l0.8,0.8l3.9-2.5l-0.6-0.6l-2.3,1.5c-0.6,0.4-1,0.7-1,0.7l0,0c0,0,0.3-0.4,0.7-1l1.4-2.4
			l-0.7-0.7l-2.3,1.5c-0.6,0.4-1,0.7-1,0.7l0,0c0,0,0.3-0.5,0.7-1.1l1.4-2.4l-0.6-0.6l-2.3,4l0.8,0.8l2.2-1.4c0.6-0.4,1-0.7,1-0.7
			l0,0c0,0-0.4,0.4-0.7,1L156.7,295.1z"/>
		<polygon class="st1" points="164,295.6 164.4,295 161.9,293.6 159.7,297.4 162.2,298.9 162.5,298.3 160.8,297.2 161.4,296.2 
			162.9,297.1 163.3,296.5 161.7,295.6 162.3,294.6 		"/>
		<polygon class="st1" points="166.5,299.8 164.7,299.1 166,295.6 165.2,295.3 163.7,299.5 166.3,300.4 		"/>
		<path class="st1" d="M169.7,297.2c0.5,0.1,0.8,0.4,0.9,0.9l0.8-0.2c-0.2-0.8-0.7-1.2-1.5-1.4c-1.3-0.2-2.2,0.5-2.5,1.9
			c-0.3,1.5,0.4,2.4,1.6,2.6c0.9,0.2,1.5-0.1,2-0.6l-0.6-0.5c-0.4,0.4-0.7,0.6-1.2,0.5c-0.8-0.1-1.1-0.8-0.9-1.8
			C168.4,297.6,168.9,297.1,169.7,297.2z"/>
		<path class="st1" d="M171.9,299.2c0.1,1.5,0.9,2.3,2.1,2.2c1.3,0,2-0.9,2-2.4c-0.1-1.5-0.9-2.3-2.1-2.3
			C172.6,296.8,171.8,297.7,171.9,299.2z M175.1,299.1c0,1-0.4,1.6-1.1,1.7c-0.8,0-1.2-0.6-1.3-1.6c0-1,0.4-1.6,1.1-1.7
			C174.7,297.5,175.1,298.1,175.1,299.1z"/>
		<path class="st1" d="M178.1,298.4l1.1,1.1l0.5-0.1l0.4-1.5c0.1-0.5,0.1-0.8,0.1-0.8l0,0c0,0,0,0.3,0.2,0.8l0.6,2.3l0.8-0.2
			l-1.2-4.3l-0.8,0.2l-0.4,2.1c-0.1,0.4-0.1,0.6-0.1,0.6l0,0c0,0-0.1-0.2-0.4-0.5l-1.5-1.5l-0.9,0.2l1.2,4.3l0.8-0.2l-0.6-2.3
			c-0.1-0.5-0.3-0.7-0.3-0.7l0,0C177.5,297.7,177.7,298,178.1,298.4z"/>
		
			<rect x="182.3" y="294.7" transform="matrix(0.9024 -0.4309 0.4309 0.9024 -110.113 107.7309)" class="st1" width="0.8" height="4.5"/>
		<path class="st1" d="M185.3,295.3l2.8,1l0.6-0.4l-2.6-3.7l-0.7,0.5l1.3,1.8c0.3,0.5,0.6,0.8,0.6,0.8l0,0c0,0-0.4-0.2-0.8-0.4
			l-2.8-1l-0.7,0.5l2.6,3.7l0.7-0.5l-1.2-1.8c-0.3-0.5-0.6-0.8-0.6-0.8l0,0C184.5,294.9,184.8,295.1,185.3,295.3z"/>
		<path class="st1" d="M192.5,292l-1.7-1.6l-1.2,1.3l0.5,0.5l0.7-0.8l0.2,0.2c0.4,0.4,0.3,0.9-0.1,1.3c-0.6,0.6-1.3,0.4-2-0.2
			c-0.8-0.8-0.8-1.5-0.4-2c0.3-0.3,0.7-0.4,1.2-0.2l0.2-0.8c-0.7-0.3-1.4-0.1-2,0.5c-0.9,0.9-0.8,2.1,0.3,3.2c1.1,1,2.3,1,3,0.1
			c0.4-0.4,0.5-0.9,0.4-1.3l0.5,0.3L192.5,292z"/>
		<path class="st1" d="M173.6,304.5c-11.2,0-20.9-6.7-25.3-16.2h-1c4.5,10.1,14.5,17.1,26.2,17.1s21.8-7.1,26.2-17.1h-1
			C194.4,297.8,184.8,304.5,173.6,304.5z"/>
	</g>
	<g class="st0">
		<path class="st1" d="M102,248.9c11.5,0,21.4,7,25.6,17h0.9C124.3,255.4,114,248,102,248s-22.3,7.4-26.5,17.9h0.9
			C80.7,255.9,90.6,248.9,102,248.9z"/>
		<path class="st1" d="M89.6,269c0.5,0,0.9,0.3,0.9,0.8l1.5-0.4c-0.1-1.2-1.1-1.7-2.5-1.7c-1.1,0-2.3,0.5-2.3,2
			c0,1.1,0.6,1.7,2.1,2.2c0.9,0.3,1.1,0.5,1.1,0.9c0,0.4-0.4,0.6-0.9,0.6c-0.6,0-1.1-0.4-1.2-1.1l-1.4,0.6c0.3,1.2,1.2,1.6,2.5,1.6
			c1.4,0,2.5-0.5,2.5-1.9c0-1.3-0.7-1.7-2.1-2.1c-0.8-0.2-1.1-0.4-1.1-0.9C88.9,269.2,89.2,269,89.6,269z"/>
		<path class="st1" d="M99.2,267.9h-1.9l-2.4,6.5h1.6L97,273h2.5l0.5,1.4h1.6L99.2,267.9z M97.4,271.8l0.3-0.7
			c0.4-1.1,0.5-1.9,0.5-1.9h0c0,0,0.1,0.8,0.5,1.9l0.3,0.7H97.4z"/>
		<polygon class="st1" points="109.2,269.2 109.2,267.9 104.9,267.9 104.9,274.4 106.4,274.4 106.4,272 108.8,272 108.8,270.7 
			106.4,270.7 106.4,269.2 		"/>
		<polygon class="st1" points="117.1,273.1 114.2,273.1 114.2,271.7 116.7,271.7 116.7,270.5 114.2,270.5 114.2,269.2 117.1,269.2 
			117.1,267.9 112.7,267.9 112.7,274.4 117.1,274.4 		"/>
		<path class="st1" d="M78.5,284.1l0.8,0.7l1.1-1l-0.9-0.8c0.3-0.3,0.5-0.9,0.6-1.4l-1.2-0.4c0,0.4-0.1,0.7-0.3,1l-1.3-1.2
			c0.8-0.2,1.4-0.6,1.4-1.4c0-1-0.9-1.6-2-1.6c-1.2,0-2.1,0.5-2.1,1.6c0,0.5,0.2,1,0.6,1.4l0.4,0.4c-1,0.3-1.5,1-1.5,1.7
			c0,1.3,1.1,1.8,2.2,1.8C77.3,284.8,78,284.6,78.5,284.1z M76.7,279c0.4,0,0.6,0.2,0.6,0.6c0,0.4-0.2,0.7-0.5,0.9l-0.4-0.4
			c-0.2-0.2-0.3-0.3-0.3-0.6C76.2,279.2,76.4,279,76.7,279z M75.6,282.9c0-0.5,0.2-0.8,0.6-1l1.5,1.4c-0.3,0.3-0.6,0.4-1.1,0.4
			C76,283.7,75.6,283.4,75.6,282.9z"/>
		<path class="st1" d="M87.8,279.3c0.5,0,0.9,0.3,0.9,0.8l1.5-0.4c-0.1-1.2-1.1-1.7-2.5-1.7c-1.1,0-2.3,0.5-2.3,2
			c0,1.1,0.6,1.7,2.1,2.2c0.9,0.3,1.1,0.5,1.1,0.9c0,0.4-0.4,0.6-0.9,0.6c-0.6,0-1.1-0.4-1.2-1.1l-1.4,0.6c0.3,1.2,1.2,1.6,2.5,1.6
			c1.4,0,2.5-0.5,2.5-1.9c0-1.3-0.7-1.7-2.1-2.1c-0.8-0.2-1.1-0.4-1.1-0.9C87,279.4,87.4,279.3,87.8,279.3z"/>
		<path class="st1" d="M100.6,281.4c0-2.2-1.2-3.4-3.1-3.4c-1.9,0-3.1,1.2-3.1,3.4c0,2.2,1.2,3.4,3.1,3.4
			C99.4,284.8,100.6,283.6,100.6,281.4z M96,281.5c0-1.3,0.5-2.1,1.5-2.1c1,0,1.5,0.8,1.5,2.1c0,1.3-0.5,2.1-1.5,2.1
			S96,282.7,96,281.5z"/>
		<path class="st1" d="M110,282.5v-4.3h-1.5v3.9c0,0.9-0.2,1.5-1.2,1.5c-0.9,0-1.2-0.6-1.2-1.5v-3.9h-1.5v4.3c0,1.8,1.3,2.3,2.7,2.3
			C108.7,284.8,110,284.3,110,282.5z"/>
		<path class="st1" d="M116.4,281.6l2.3,3.1h1.4v-6.5h-1.5v2.6c0,0.8,0,1.4,0,1.4h0c0,0-0.2-0.4-0.5-0.9l-2.3-3.2h-1.4v6.5h1.5v-2.6
			c0-0.9-0.1-1.5-0.1-1.5h0C115.8,280.6,116,281,116.4,281.6z"/>
		<path class="st1" d="M126.8,278.2h-2.4v6.5h2.3c1.9,0,3.3-0.9,3.3-3.3C129.9,279.1,128.6,278.2,126.8,278.2z M126.5,283.4h-0.7v-4
			h0.7c1.1,0,1.8,0.5,1.8,2C128.4,282.9,127.7,283.4,126.5,283.4z"/>
		<rect x="72.9" y="271" class="st1" width="8" height="0.9"/>
		<rect x="123.2" y="271" class="st1" width="8" height="0.9"/>
		<path class="st1" d="M93.5,258.5l-0.7-1.6l0.5-0.2c0.4-0.2,0.6-0.2,0.9,0.2l0.4,0.6c0.1,0.2,0.2,0.3,0.4,0.3l0.8-0.3
			c-0.2-0.1-0.3-0.2-0.4-0.3l-0.5-0.7c-0.3-0.4-0.6-0.5-1-0.4l0,0c0.5-0.3,0.8-0.8,0.5-1.4c-0.3-0.8-1-1-1.9-0.6l-1.5,0.6l1.7,4.1
			L93.5,258.5z M92,255l0.7-0.3c0.5-0.2,0.8-0.1,1,0.3c0.2,0.4,0,0.7-0.4,0.9l-0.7,0.3L92,255z"/>
		<path class="st1" d="M97.6,256l1.8-0.3l0.6,1.1l0.9-0.1l-2.3-4.2l-1,0.2l-0.9,4.7l0.8-0.1L97.6,256z M97.9,254.4
			c0.1-0.7,0.2-1.2,0.2-1.2l0,0c0,0,0.2,0.5,0.5,1.1l0.4,0.8l-1.3,0.2L97.9,254.4z"/>
		<polygon class="st1" points="102.7,256.7 102.8,253 104.1,253 104.1,252.3 100.8,252.2 100.7,252.9 102,252.9 101.9,256.7 		"/>
		<polygon class="st1" points="104.8,256.9 107.6,257.5 107.7,256.8 105.7,256.4 106,255.2 107.7,255.6 107.9,254.9 106.1,254.5 
			106.4,253.4 108.3,253.8 108.5,253.1 105.7,252.5 		"/>
		<path class="st1" d="M112.8,257.2c0.6-1.4,0.1-2.4-1.1-2.9l-1.3-0.6l-1.8,4.1l1.3,0.6C111,258.9,112.1,258.7,112.8,257.2z
			 M110.1,257.7l-0.5-0.2l1.3-2.8l0.6,0.3c0.7,0.3,1.1,0.9,0.6,2C111.5,257.9,110.8,258.1,110.1,257.7z"/>
		<path class="st1" d="M96.8,297.4c0.2-0.8-0.3-1.3-1.1-1.6c-0.7-0.2-1.5-0.1-1.8,0.8c-0.2,0.8,0.2,1.2,0.9,1.8
			c0.6,0.4,0.7,0.7,0.6,1c-0.1,0.4-0.5,0.4-0.9,0.3c-0.4-0.1-0.7-0.5-0.6-1l-0.8,0c-0.1,0.8,0.3,1.3,1.2,1.6
			c0.8,0.3,1.7,0.1,1.9-0.7c0.3-0.8-0.2-1.2-0.8-1.7c-0.5-0.4-0.8-0.6-0.6-1c0.1-0.4,0.4-0.5,0.8-0.3c0.4,0.1,0.6,0.4,0.5,0.9
			L96.8,297.4z"/>
		<path class="st1" d="M98.5,300l1.8,0.2l0.3,1.2l0.9,0.1l-1.2-4.6l-1-0.1l-2.1,4.3l0.8,0.1L98.5,300z M99.2,298.5
			c0.3-0.7,0.5-1.2,0.5-1.2l0,0c0,0,0,0.5,0.2,1.2l0.2,0.9l-1.3-0.1L99.2,298.5z"/>
		<polygon class="st1" points="105.4,296.6 102.7,296.9 103.2,301.3 104,301.2 103.8,299.4 105.5,299.3 105.4,298.6 103.7,298.8 
			103.6,297.5 105.5,297.3 		"/>
		<polygon class="st1" points="110.8,299.8 110.6,299.1 108.7,299.7 108.3,298.5 110,298 109.8,297.4 108.1,297.9 107.8,296.8 
			109.7,296.2 109.5,295.5 106.8,296.3 108.1,300.6 		"/>
		<path class="st1" d="M102,304.5c-11.2,0-20.9-6.7-25.3-16.2h-1c4.4,10.1,14.5,17.1,26.2,17.1c11.7,0,21.8-7.1,26.2-17.1h-1
			C122.9,297.8,113.3,304.5,102,304.5z"/>
	</g>
	<g>
		<rect x="1.4" y="216.9" class="st2" width="201.3" height="31.2"/>
	</g>
	<g>
		<path class="st3" d="M15.1,236.3c0.4,2.1,1.7,3.1,3.6,3.1c1.8,0,3.1-0.9,3.1-2.5c0-1.5-0.8-2.3-3.6-3.3c-2.7-0.9-5-2.1-5-5.3
			c0-3.6,2.8-4.9,5.5-4.9c3.2,0,5.6,1.2,5.9,4.5l-2.7,0.5c-0.2-1.9-1.4-2.9-3.2-2.9c-1.6,0-2.8,0.9-2.8,2.5c0,1.7,1.4,2.3,3.8,3.2
			c2.6,1,4.8,2,4.8,5.3c0,3.4-2.7,4.9-6,4.9c-3.4,0-5.4-1.3-6-4.5L15.1,236.3z"/>
		<path class="st3" d="M39.7,223.8v17.3H37v-17.3H39.7z"/>
		<path class="st3" d="M56.1,223.8v14.9h7.7v2.3H53.4v-17.3H56.1z"/>
		<path class="st3" d="M78.1,234.8c0.8,2.6,1.1,4.4,1.1,4.4h0.1c0,0,0.2-1.7,1-4.3l3.5-11h2.8l-5.7,17.3h-3.5l-5.7-17.3h2.9
			L78.1,234.8z"/>
		<path class="st3" d="M108.6,241.1H98v-17.3h10.6v2.3h-8v5.1h7v2.3h-7v5.1h8V241.1z"/>
		<path class="st3" d="M131,241.1c-0.4-0.5-0.6-0.9-0.8-1.6l-0.7-3c-0.5-2-1.5-2.4-3.2-2.4H124v7h-2.7v-17.3h6c4,0,5.9,1.7,5.9,4.9
			c0,2.7-1.8,4.2-4,4.3v0.1c1.6,0.2,2.5,0.9,3,2.8l0.9,3.4c0.2,0.7,0.5,1.3,0.9,1.8H131z M124,231.8h3.2c2.2,0,3.2-0.9,3.2-2.9
			c0-1.8-1-2.9-3.2-2.9H124V231.8z"/>
	</g>
</g>
<g id="_x35__x2A_">
	<polygon points="15.3,268 12.8,275.6 4.8,275.6 11.3,280.3 8.8,287.9 15.3,283.2 21.8,287.9 19.3,280.3 25.8,275.6 17.8,275.6 	"/>
	<polygon points="58.7,268 56.2,275.6 48.2,275.6 54.7,280.3 52.2,287.9 58.7,283.2 65.2,287.9 62.7,280.3 69.1,275.6 61.1,275.6 	
		"/>
</g>
</svg>
