<?xml version="1.0" standalone="no"?>
<!DOCTYPE svg PUBLIC "-//W3C//DTD SVG 20010904//EN"
 "http://www.w3.org/TR/2001/REC-SVG-20010904/DTD/svg10.dtd">
<svg version="1.0" xmlns="http://www.w3.org/2000/svg"
 width="576.000000pt" height="576.000000pt" viewBox="0 0 576.000000 576.000000"
 preserveAspectRatio="xMidYMid meet">
<metadata>
Created by potrace 1.14, written by Peter Selinger 2001-2017
</metadata>
<g transform="translate(0.000000,576.000000) scale(0.100000,-0.100000)"
fill="#000000" stroke="none">
<path d="M4369 4395 c-3 -2 -23 -7 -45 -10 -21 -4 -79 -15 -129 -26 -49 -11
-99 -22 -110 -25 -38 -8 -60 -13 -120 -30 -33 -9 -64 -17 -70 -18 -9 -2 -52
-15 -105 -32 -8 -3 -15 -5 -15 -4 0 2 -62 -21 -110 -40 -11 -4 -54 -20 -95
-36 -90 -34 -290 -132 -380 -187 -155 -94 -335 -248 -431 -367 -149 -186 -247
-408 -277 -630 -14 -103 -6 -413 13 -501 5 -22 3 -25 -17 -23 -13 1 -23 3 -23
4 0 1 -9 3 -20 5 -11 1 -33 5 -50 9 -16 3 -57 9 -90 12 -33 4 -63 8 -68 11 -8
5 -293 4 -347 -1 -19 -2 -55 -7 -80 -11 -25 -5 -54 -9 -65 -11 -11 -1 -21 -3
-22 -4 -3 -3 -3 -3 -58 -15 -22 -4 -44 -9 -50 -11 -58 -13 -331 -127 -345
-144 -3 -4 -25 -17 -50 -31 -24 -13 -51 -29 -60 -36 -8 -6 -53 -40 -99 -74
-349 -261 -684 -756 -860 -1274 -27 -79 -28 -87 -10 -65 11 14 28 34 37 45 10
11 24 30 32 41 87 124 362 404 566 574 49 41 91 78 92 83 2 4 10 7 17 7 7 0
15 4 17 8 2 5 32 30 68 55 36 26 70 51 75 55 72 59 430 262 461 262 8 0 14 5
14 10 0 6 7 10 15 10 8 0 23 4 33 10 60 33 266 104 392 135 69 17 172 37 205
40 22 2 69 7 105 11 73 8 315 10 400 3 45 -3 54 -1 52 11 -24 109 -33 183 -32
285 1 129 24 278 62 383 10 32 21 65 23 75 6 28 100 221 141 290 76 127 212
296 344 427 74 75 154 150 177 169 23 18 51 40 62 49 45 39 58 49 106 82 28
19 52 38 55 41 28 33 348 228 517 315 136 71 176 94 162 94 -3 0 -8 -2 -10 -5z"/>
<path d="M4816 4003 c-2 -2 -23 -5 -47 -8 -60 -6 -72 -9 -179 -44 -139 -47
-355 -160 -485 -255 -235 -171 -351 -274 -515 -453 -71 -77 -84 -93 -148 -183
-29 -41 -60 -83 -67 -92 -8 -10 -12 -18 -8 -18 3 0 -1 -8 -9 -17 -24 -27 -106
-192 -106 -213 0 -3 -6 -21 -14 -40 -15 -34 -21 -64 -34 -145 -7 -46 -7 -48
-5 -55 1 -3 4 -27 5 -55 4 -67 14 -100 47 -165 26 -51 109 -150 126 -150 4 0
16 -9 27 -19 26 -24 125 -74 191 -96 53 -18 69 -22 125 -30 20 -3 47 -8 60
-10 14 -3 79 -5 145 -5 146 0 212 6 355 30 30 5 73 12 94 16 30 4 202 45 336
79 75 19 354 107 520 163 202 68 205 69 211 100 4 18 3 32 -1 32 -5 0 -5 12
-1 28 4 15 4 42 0 60 -4 19 -3 32 3 32 5 0 6 5 3 11 -4 6 -7 25 -7 43 l0 34
-61 -20 c-34 -10 -69 -21 -77 -23 -8 -2 -78 -20 -155 -40 -77 -21 -149 -39
-160 -40 -11 -2 -56 -10 -100 -19 -79 -15 -110 -20 -210 -32 -157 -19 -419
-19 -545 1 -25 4 -54 8 -65 10 -132 18 -269 60 -361 111 -63 34 -154 117 -154
140 0 6 -6 24 -14 39 -21 41 -14 150 14 221 53 134 204 319 369 454 24 19 51
42 61 51 10 8 31 24 45 35 42 30 99 73 112 84 7 5 17 10 23 10 5 0 10 5 10 10
0 6 4 10 9 10 6 0 30 14 54 30 25 17 50 30 56 30 6 0 11 3 11 8 0 4 10 12 23
18 12 6 76 38 142 72 199 100 305 131 421 123 26 -1 77 -51 98 -95 22 -47 26
-113 9 -172 -7 -27 -15 -53 -16 -59 -14 -54 -115 -189 -188 -250 -109 -91
-199 -115 -286 -75 -91 41 -107 142 -43 270 36 71 29 70 -48 -8 -96 -97 -143
-219 -120 -310 39 -155 272 -194 498 -84 30 15 60 32 67 37 7 6 36 28 65 49
56 41 149 144 175 192 44 83 62 122 67 147 3 15 9 39 12 55 19 87 7 176 -37
267 -38 81 -87 129 -155 154 -48 19 -158 34 -168 24z"/>
</g>
</svg>
