<svg width="277" height="172" viewBox="0 0 277 172" fill="none" xmlns="http://www.w3.org/2000/svg">
<path d="M82.8 77.6C70.8 74.3 59.7 76.4 58.5 79.4C56.7 84.2 68.1 84.5 83.7 81.2C88.8 83.3 92.4 89.9 92.4 98.9C92.4 128 66.9 168.8 35.7 168.8C18.3 168.8 10.8 157.7 10.8 144.2C10.8 134.6 13.8 128.3 17.1 123.5C10.5 127.1 -1.78814e-06 134.6 -1.78814e-06 148.4C-1.78814e-06 164.6 15 171.5 35.7 171.5C75.9 171.5 120.3 148.7 120.3 112.4C120.3 96.8 110.4 84.8 90.6 79.4C102.3 77.3 119.1 71.9 130.8 65.3C149.4 54.8 158.7 40.7 158.7 27.5C158.7 10.1 142.8 1.09999 118.8 1.09999C93 1.09999 69 16.1 66 32.9C63.9 44 71.1 53 84.6 51.2C77.7 49.4 75.9 41.9 77.7 33.8C81 18.8 97.8 4.39999 115.2 4.39999C125.7 4.39999 129.6 10.1 129.6 17.6C129.6 29.9 122.7 44.3 113.1 55.1C104.7 65 95.1 73.4 82.8 77.6ZM276.413 26.6C276.413 11.9 270.413 1.69999 254.213 1.09999C232.012 0.199994 200.513 14.6 177.713 39.2C156.113 62 149.512 84.5 150.112 101.6C150.712 123.8 165.413 133.4 185.813 133.4C211.313 133.4 238.613 111.8 258.113 81.2C269.213 64.1 276.413 41.9 276.413 26.6ZM269.213 19.7C269.213 38.3 254.813 63.5 246.413 76.7C229.912 102.8 207.113 129.8 190.312 129.8C180.113 129.8 176.813 123.2 176.513 114.8C176.513 99.2 186.413 78.8 197.513 61.1C214.313 34.7 239.513 4.39999 256.313 4.39999C264.113 4.39999 268.913 9.19999 269.213 19.7Z" fill="#7FBC42"/>
</svg>
