<svg width="520" height="174" viewBox="0 0 520 174" fill="none" xmlns="http://www.w3.org/2000/svg">
<path d="M81.6279 134.498L85.0645 130.084C86.7266 132.016 88.7817 133.61 91.23 134.868C93.7007 136.104 96.4521 136.721 99.4844 136.721C101.438 136.721 103.146 136.474 104.605 135.98C106.088 135.486 107.222 134.834 108.008 134.026C108.817 133.217 109.401 132.375 109.76 131.499C110.142 130.601 110.333 129.668 110.333 128.703C110.333 127.445 110.019 126.344 109.39 125.401C108.783 124.435 107.952 123.66 106.896 123.076C105.841 122.47 104.628 121.942 103.258 121.493C101.91 121.021 100.484 120.583 98.979 120.179C97.4741 119.774 95.958 119.359 94.4307 118.932C92.9258 118.505 91.4883 117.966 90.1182 117.315C88.7705 116.664 87.5688 115.911 86.5132 115.058C85.4575 114.182 84.6152 113.07 83.9863 111.722C83.3799 110.352 83.0767 108.791 83.0767 107.039C83.0767 103.266 84.5703 100.188 87.5576 97.8076C90.5674 95.4043 94.3633 94.2026 98.9453 94.2026C105.684 94.2026 111.108 96.3701 115.218 100.705L111.782 104.917C108.525 101.233 104.089 99.3911 98.4736 99.3911C95.7334 99.3911 93.4648 100.076 91.668 101.446C89.8936 102.794 89.0063 104.546 89.0063 106.702C89.0063 107.803 89.3096 108.769 89.916 109.6C90.5449 110.431 91.3872 111.116 92.4429 111.655C93.4985 112.171 94.7002 112.643 96.0479 113.07C97.418 113.497 98.8555 113.912 100.36 114.316C101.888 114.721 103.404 115.159 104.909 115.63C106.414 116.08 107.84 116.664 109.188 117.382C110.558 118.079 111.771 118.898 112.826 119.842C113.882 120.763 114.713 121.942 115.319 123.379C115.948 124.817 116.263 126.457 116.263 128.298C116.263 130.05 115.948 131.701 115.319 133.251C114.69 134.801 113.736 136.238 112.456 137.563C111.175 138.866 109.401 139.911 107.132 140.697C104.886 141.46 102.27 141.842 99.2822 141.842C95.4863 141.842 92.0947 141.191 89.1074 139.888C86.1426 138.563 83.6494 136.766 81.6279 134.498ZM124.13 141V94.9775H142.627C147.074 94.9775 150.589 96.314 153.172 98.9868C155.755 101.637 157.047 104.928 157.047 108.858C157.047 112.767 155.744 116.057 153.139 118.73C150.556 121.38 147.052 122.706 142.627 122.706H129.858V141H124.13ZM129.858 117.618H141.919C144.637 117.618 146.85 116.81 148.557 115.192C150.264 113.575 151.117 111.464 151.117 108.858C151.117 106.253 150.264 104.142 148.557 102.524C146.85 100.907 144.637 100.099 141.919 100.099H129.858V117.618ZM163.937 141V94.9775H194.091V100.099H169.665V114.923H193.586V120.01H169.665V135.879H194.091V141H163.937ZM202.498 127.692C201.263 124.705 200.645 121.481 200.645 118.022C200.645 114.563 201.263 111.34 202.498 108.353C203.733 105.366 205.407 102.85 207.518 100.806C209.629 98.7397 212.134 97.1226 215.031 95.9546C217.951 94.7866 221.051 94.2026 224.33 94.2026C231.72 94.2026 237.537 97.2461 241.782 103.333L237.032 106.028C235.684 104.007 233.876 102.39 231.607 101.177C229.339 99.9414 226.913 99.3237 224.33 99.3237C219.254 99.3237 215.031 101.076 211.662 104.58C208.293 108.061 206.608 112.542 206.608 118.022C206.608 121.594 207.383 124.817 208.933 127.692C210.483 130.544 212.605 132.768 215.301 134.363C217.996 135.935 221.006 136.721 224.33 136.721C226.89 136.721 229.305 136.104 231.574 134.868C233.865 133.633 235.684 132.016 237.032 130.017L241.849 132.645C237.38 138.776 231.54 141.842 224.33 141.842C221.051 141.842 217.951 141.258 215.031 140.09C212.134 138.922 209.629 137.316 207.518 135.272C205.407 133.206 203.733 130.679 202.498 127.692ZM248.47 141V94.9775H254.198V141H248.47ZM259.505 141L278.069 94.9775H285.178L303.675 141H297.138L293.062 130.724H270.152L266.075 141H259.505ZM271.87 125.67H291.411L281.607 100.84L271.87 125.67ZM308.24 141V94.9775H313.968V135.879H335.362V141H308.24ZM351.155 141V94.9775H369.315C376.547 94.9775 382.421 97.0889 386.935 101.312C391.473 105.534 393.741 111.082 393.741 117.955C393.741 122.537 392.708 126.58 390.641 130.084C388.598 133.588 385.734 136.283 382.05 138.17C378.367 140.057 374.144 141 369.382 141H351.155ZM360.959 132.375H369.315C372.257 132.375 374.84 131.712 377.064 130.387C379.287 129.062 380.95 127.321 382.05 125.165C383.173 123.009 383.735 120.605 383.735 117.955C383.735 113.755 382.477 110.318 379.961 107.646C377.446 104.95 373.919 103.603 369.382 103.603H360.959V132.375ZM400.682 141V94.9775H433.261V103.603H410.486V113.272H432.756V121.897H410.486V132.375H433.261V141H400.682ZM436.091 141L453.813 94.9775H466.11L483.832 141H472.714L469.816 133.217H450.107L447.209 141H436.091ZM452.768 124.592H467.121L459.945 104.782L452.768 124.592ZM487.673 141V94.9775H497.544V132.375H516.984V141H487.673Z" fill="white"/>
<path d="M136.159 0.122559C136.159 0.122559 134.409 69.0872 91.2584 83.2225V83.4182C144.808 101.173 171 24.7738 171 24.7738L136.159 0.122559Z" fill="white"/>
<path fill-rule="evenodd" clip-rule="evenodd" d="M-1.52588e-05 137.758L33.578 153.41C33.578 153.41 42.4705 93.6891 89.6061 83.6624C33.6752 64.8316 -1.52588e-05 137.758 -1.52588e-05 137.758Z" fill="white"/>
<path fill-rule="evenodd" clip-rule="evenodd" d="M6.85146 151.111L22.1098 157.665C22.1098 157.665 16.9589 163.241 14.9179 171.899C12.8284 180.556 2.67243 160.258 6.85146 151.111V151.111Z" fill="white"/>
</svg>
