<svg width="66" height="54" viewBox="0 0 66 54" fill="none" xmlns="http://www.w3.org/2000/svg">
<path d="M65.461 6.31583C63.057 7.38183 60.471 8.10283 57.759 8.42483C60.528 6.76583 62.653 4.14083 63.656 1.00783C61.065 2.54483 58.194 3.65983 55.141 4.26083C52.695 1.65583 49.21 0.027832 45.351 0.027832C37.947 0.027832 31.942 6.03283 31.942 13.4368C31.942 14.4878 32.061 15.5108 32.291 16.4928C21.147 15.9338 11.266 10.5958 4.65203 2.48083C3.49803 4.46083 2.83603 6.76583 2.83603 9.22283C2.83603 13.8738 5.20503 17.9798 8.80103 20.3838C6.60403 20.3148 4.53503 19.7118 2.72803 18.7048C2.72703 18.7618 2.72703 18.8188 2.72703 18.8748C2.72703 25.3718 7.35103 30.7908 13.484 32.0218C12.36 32.3298 11.173 32.4928 9.95203 32.4928C9.08603 32.4928 8.24703 32.4098 7.42903 32.2538C9.13503 37.5798 14.086 41.4568 19.955 41.5658C15.365 45.1628 9.58403 47.3058 3.30003 47.3058C2.22003 47.3058 1.15003 47.2428 0.103027 47.1178C6.03403 50.9238 13.084 53.1428 20.656 53.1428C45.32 53.1428 58.808 32.7108 58.808 14.9898C58.808 14.4088 58.795 13.8298 58.769 13.2558C61.391 11.3658 63.664 9.00483 65.461 6.31583Z" fill="#FAF8F0"/>
</svg>
