<svg width="765" height="661" viewBox="0 0 765 661" fill="none" xmlns="http://www.w3.org/2000/svg">
<mask id="mask0_21_337" style="mask-type:alpha" maskUnits="userSpaceOnUse" x="-1" y="-1" width="766" height="663">
<rect width="764" height="661" fill="#D9D9D9" stroke="#80BC42" stroke-width="2"/>
</mask>
<g mask="url(#mask0_21_337)">
<path d="M2.62823 530.695C3.25644 528.688 4.06764 526.174 5.0704 523.215C7.87458 514.939 12.1762 503.178 18.1625 489.252C30.1369 461.395 48.8422 424.896 75.7691 390.295C129.605 321.115 216.234 259.579 347.735 289.723L349.215 290.062L348.943 288.569C337.945 228.265 347.871 180.69 369.438 143.102C391.015 105.495 424.291 77.8082 460.113 57.3865C523.001 21.5345 593.529 8.1785 621.919 2.80239C622.49 2.69413 623.045 2.58912 623.582 2.48722C413.973 105.385 362.351 241.17 386.415 330.792C274.14 316.686 177.48 367.664 108.872 422.182C74.4077 449.568 46.991 477.872 28.1904 499.328C18.7893 510.058 11.5407 519.077 6.64053 525.416C5.0551 527.467 3.71545 529.238 2.62823 530.695Z" stroke="#80BC42" stroke-width="2"/>
<path d="M1759.4 401.864C1775.28 354.307 1773.95 296.119 1748.07 246.648C1720.98 194.858 1667.04 152.734 1578.08 142.32L1577.96 143.313L1578.08 142.32C1343.82 115.042 1109.83 193.197 914.779 264.554C899.667 270.082 884.79 275.57 870.165 280.964C790.363 310.397 718.071 337.061 656.124 352.535C582.764 370.861 524.291 373.386 485.111 346.625L485.109 346.624C468.426 335.288 458.894 321.271 455.034 305.589C451.168 289.885 452.967 272.418 459.124 254.176C471.445 217.673 501.133 178.315 537.029 144.364C572.916 110.422 614.901 81.9856 651.696 67.2713C670.098 59.9125 687.134 56.013 701.426 56.5247C715.694 57.0356 727.154 61.9334 734.603 72.1099L734.607 72.1156C756.723 101.885 748.096 137.478 726.414 164.31C704.706 191.175 670.232 208.835 641.322 202.883L641.314 202.881L641.306 202.88C630.016 200.75 622.881 196.257 618.897 190.495C614.913 184.732 613.969 177.535 615.396 169.768C617.957 155.824 628.124 140.317 641.293 128.918C633.024 142.629 630.359 153.92 632.472 162.475C634.878 172.211 643.348 178.005 655.681 179.767C663.199 180.904 672.819 177.266 682.282 170.89C691.794 164.48 701.342 155.175 708.762 144.646C716.177 134.124 721.518 122.307 722.512 110.868C723.509 99.3846 720.116 88.3042 710.123 79.4217C707.457 77.0519 703.62 75.8596 698.988 75.5936C694.346 75.3271 688.799 75.9837 682.586 77.4192C670.158 80.2909 654.899 86.3192 638.56 94.5899C605.877 111.133 568.7 136.737 540.935 164.337C527.053 178.137 515.491 192.468 508.028 206.448C500.57 220.419 497.154 234.137 499.733 246.652C502.321 259.206 510.897 270.344 526.986 279.214C543.051 288.07 566.662 294.701 599.49 298.276C665.24 305.436 736.452 289.592 812.247 262.651C872.127 241.368 934.948 213.127 1000.26 183.766C1017.62 175.963 1035.15 168.081 1052.85 160.23C1221.55 85.4045 1405.57 13.2985 1598.6 37.9116C1695.14 50.2213 1753.1 79.4614 1785.84 116.231C1818.57 152.98 1826.24 197.407 1821.88 240.416C1817.52 283.441 1801.12 324.973 1785.77 355.776C1778.11 371.172 1770.71 383.873 1765.23 392.723C1762.9 396.503 1760.91 399.58 1759.4 401.864Z" stroke="#80BC42" stroke-width="2"/>
</g>
</svg>
