<svg xmlns="http://www.w3.org/2000/svg" viewBox="0 0 179.7 63.15"><defs><style>.cls-1{fill:#fff;}</style></defs><g id="Layer_2" data-name="Layer 2"><g id="Layer_1-2" data-name="Layer 1"><polygon class="cls-1" points="11.97 27.79 6.08 14.21 6.08 27.79 0.53 27.79 0.53 0 5.37 0 11.15 13.58 11.15 0 16.69 0 16.69 27.79 11.97 27.79"/><path class="cls-1" d="M28.4,12A1.49,1.49,0,0,0,27,11.16a1.47,1.47,0,0,0-1.36.82c-.39.86-.39,2.93-.39,5.31s0,4.45.39,5.31a1.47,1.47,0,0,0,1.36.82,1.49,1.49,0,0,0,1.37-.82c.39-.86.39-2.93.39-5.31s0-4.45-.39-5.31M32.57,25.6c-1.36,2-3.31,2.5-5.54,2.5s-4.17-.47-5.54-2.5-1.44-5.5-1.44-8.31S20.16,11,21.49,9s3.32-2.5,5.54-2.5S31.21,7,32.57,9,34,14.48,34,17.29s-.12,6.32-1.45,8.31"/><path class="cls-1" d="M45.49,11.63A3.17,3.17,0,0,0,42.25,15v12.8H37v-21h5V9.05a6.79,6.79,0,0,1,2.3-1.87,7.15,7.15,0,0,1,3.08-.7v5.15Z"/><path class="cls-1" d="M53.26,26.5c-1.49-1.05-2.42-2.73-2.42-5.46V11.55h-2V7.61h2V1.87h5.23V7.61h2.57v3.94H56.07v9.14c0,1.63.82,2.42,2.57,2.42v4.68c-2.14,0-3.86-.2-5.38-1.29"/><path class="cls-1" d="M69.73,27.79V13.08c0-1.29-.71-1.92-1.64-1.92s-1.64.63-1.64,1.92V27.79H61.22V0h5.23V8a5.31,5.31,0,0,1,1.29-1,4.3,4.3,0,0,1,2-.51,4.69,4.69,0,0,1,4,1.76C74.6,9.25,75,10.38,75,13V27.79Z"/><path class="cls-1" d="M80.81,26.5c-1.48-1.05-2.42-2.73-2.42-5.46V0h5.23V20.69c0,1.63.82,2.42,2.57,2.42v4.68c-2.14,0-3.86-.2-5.38-1.29"/><path class="cls-1" d="M96.54,19h-.9a2.55,2.55,0,0,0-2,.51A2.74,2.74,0,0,0,93,21.27c0,1.52.71,2.26,1.8,2.26.94,0,1.76-.78,1.76-2.26Zm.35,8.82V26.07a6.36,6.36,0,0,1-1.37,1.37,3.66,3.66,0,0,1-2.3.66,4.81,4.81,0,0,1-4.25-2,7.12,7.12,0,0,1-1.21-4.64,6,6,0,0,1,2-4.69c1.06-.9,2.42-1.48,5.16-1.48h1.6V12.92c0-1.17-.59-1.84-1.57-1.84a1.38,1.38,0,0,0-1.13.51A2.23,2.23,0,0,0,93.37,13H88.15a6.42,6.42,0,0,1,1.91-4.69,7.43,7.43,0,0,1,4.88-1.87A6.73,6.73,0,0,1,99.78,8.2a7.08,7.08,0,0,1,2,5.23V27.79Z"/><path class="cls-1" d="M113.79,27.79V13.08c0-1.29-.71-1.92-1.64-1.92s-1.64.63-1.64,1.92V27.79h-5.23v-21h5V8.31A5.63,5.63,0,0,1,111.79,7a4.37,4.37,0,0,1,2-.51,4.69,4.69,0,0,1,4,1.76c.82,1,1.18,2.14,1.18,4.76V27.79Z"/><path class="cls-1" d="M130.57,13.08a2.07,2.07,0,0,0-.51-1.49,1.79,1.79,0,0,0-1.13-.43,1.48,1.48,0,0,0-1.37.82c-.39.86-.39,2.93-.39,5.31s0,4.45.39,5.31a1.48,1.48,0,0,0,1.37.82,1.79,1.79,0,0,0,1.13-.43,2.06,2.06,0,0,0,.51-1.48Zm.23,14.71V26.27a5.49,5.49,0,0,1-1.52,1.32,4.86,4.86,0,0,1-5.89-1.21c-1.45-1.79-1.45-4.91-1.45-9.09s0-7.3,1.45-9.09A4.86,4.86,0,0,1,129.28,7a5.31,5.31,0,0,1,1.29,1V0h5.23V27.79Z"/><rect class="cls-1" x="139.74" width="5.54" height="27.79"/><path class="cls-1" d="M157.73,27.79V13.08c0-1.29-.7-1.92-1.64-1.92s-1.64.63-1.64,1.92V27.79h-5.23v-21h5V8.31A5.49,5.49,0,0,1,155.74,7a4.33,4.33,0,0,1,2-.51,4.72,4.72,0,0,1,4.06,1.76c.82,1,1.17,2.14,1.17,4.76V27.79Z"/><path class="cls-1" d="M177.71,26.46a6.63,6.63,0,0,1-4.84,1.64c-2.22,0-4.18-.47-5.54-2.5s-1.45-5.5-1.45-8.31S166,11,167.33,9s3.32-2.5,5.54-2.5a6.33,6.33,0,0,1,4.76,1.6,7.9,7.9,0,0,1,2.07,5.19h-5.19a3.23,3.23,0,0,0-.39-1.44,1.37,1.37,0,0,0-1.25-.67,1.49,1.49,0,0,0-1.37.82c-.39.86-.39,2.93-.39,5.31s0,4.45.39,5.31a1.49,1.49,0,0,0,1.37.82,1.47,1.47,0,0,0,1.29-.71,3.25,3.25,0,0,0,.35-1.4h5.19a8.15,8.15,0,0,1-2,5.15"/><path class="cls-1" d="M4.86,47.32a2.78,2.78,0,0,1-2.11.85,2.75,2.75,0,0,1-2-.82C0,46.59,0,45.66,0,44.37s0-2.23.74-3a2.68,2.68,0,0,1,2-.82A2.68,2.68,0,0,1,5.56,43H4.09a1.26,1.26,0,0,0-1.34-1.09,1.21,1.21,0,0,0-.93.4c-.29.32-.36.66-.36,2.1s.07,1.79.36,2.11a1.2,1.2,0,0,0,.93.39,1.38,1.38,0,0,0,1-.42,1.46,1.46,0,0,0,.33-1v-.28H2.75V44H5.57V45a3,3,0,0,1-.71,2.28"/><path class="cls-1" d="M9.6,44.13a.91.91,0,0,0-1.6.68v3.3H6.63V42.64H8v.52a1.85,1.85,0,0,1,1.37-.59,1.64,1.64,0,0,1,1.29.52Z"/><path class="cls-1" d="M13.81,44a.9.9,0,0,0-.64-.24.88.88,0,0,0-.63.24,1.89,1.89,0,0,0-.31,1.33,1.89,1.89,0,0,0,.31,1.33.84.84,0,0,0,.63.24.86.86,0,0,0,.64-.24,1.89,1.89,0,0,0,.32-1.33A1.89,1.89,0,0,0,13.81,44m1.06,3.46a2.3,2.3,0,0,1-1.7.67,2.27,2.27,0,0,1-1.69-.67,2.81,2.81,0,0,1-.62-2.13,2.77,2.77,0,0,1,.62-2.12,2.24,2.24,0,0,1,1.69-.68,2.26,2.26,0,0,1,1.7.68,2.77,2.77,0,0,1,.62,2.12,2.81,2.81,0,0,1-.62,2.13"/><polygon class="cls-1" points="21.96 48.1 20.84 48.1 19.7 44.67 18.55 48.1 17.43 48.1 15.75 42.64 17.2 42.64 18.08 46.02 19.2 42.64 20.19 42.64 21.31 46.02 22.2 42.64 23.63 42.64 21.96 48.1"/><path class="cls-1" d="M24.13,42.64h1.36v5.47H24.13Zm0-2H25.5V41.7H24.11Z"/><path class="cls-1" d="M29.88,48.11V44.8a.91.91,0,1,0-1.82,0v3.31H26.7V42.64H28v.5a1.87,1.87,0,0,1,1.36-.57,1.78,1.78,0,0,1,1.3.49,2,2,0,0,1,.55,1.55v3.5Z"/><path class="cls-1" d="M34.42,43.8c-.81,0-.89.69-.89,1.42s.08,1.43.89,1.43.9-.71.9-1.43-.09-1.42-.9-1.42m-.13,6.37a2.59,2.59,0,0,1-2-.71l.85-.86a1.42,1.42,0,0,0,1.07.42,1,1,0,0,0,1.1-1.14v-.55a1.58,1.58,0,0,1-1.3.54,1.81,1.81,0,0,1-1.3-.48,2.86,2.86,0,0,1-.55-2.17,2.82,2.82,0,0,1,.55-2.16A1.84,1.84,0,0,1,34,42.57a1.62,1.62,0,0,1,1.34.58v-.51h1.32v5.27a2.22,2.22,0,0,1-2.4,2.26"/><polygon class="cls-1" points="44.55 48.1 41.59 43.52 41.59 48.1 40.13 48.1 40.13 40.63 41.43 40.63 44.39 45.21 44.39 40.63 45.85 40.63 45.85 48.1 44.55 48.1"/><path class="cls-1" d="M49.89,44a.9.9,0,0,0-.64-.24.88.88,0,0,0-.63.24,1.89,1.89,0,0,0-.32,1.33,1.89,1.89,0,0,0,.32,1.33.84.84,0,0,0,.63.24.86.86,0,0,0,.64-.24,1.89,1.89,0,0,0,.31-1.33A1.89,1.89,0,0,0,49.89,44M51,47.5a2.3,2.3,0,0,1-1.7.67,2.27,2.27,0,0,1-1.69-.67,2.81,2.81,0,0,1-.62-2.13,2.77,2.77,0,0,1,.62-2.12,2.24,2.24,0,0,1,1.69-.68,2.26,2.26,0,0,1,1.7.68,2.77,2.77,0,0,1,.62,2.12A2.81,2.81,0,0,1,51,47.5"/><path class="cls-1" d="M55.53,44.13a.91.91,0,0,0-1.61.68v3.3H52.56V42.64h1.33v.52a1.87,1.87,0,0,1,1.37-.59,1.63,1.63,0,0,1,1.29.52Z"/><path class="cls-1" d="M58.73,48.11a1.49,1.49,0,0,1-1.59-1.57V43.83h-.58v-1h.58V41.18h1.37V42.8h1v1h-1v2.63c0,.31.14.49.47.49h.49v1.16Z"/><path class="cls-1" d="M63.53,48.11V44.77a.89.89,0,1,0-1.77,0v3.34H60.39V40.63h1.37v2.51a1.81,1.81,0,0,1,1.31-.57,1.78,1.78,0,0,1,1.83,2v3.54Z"/><path class="cls-1" d="M67.59,48.11A1.49,1.49,0,0,1,66,46.54V40.63h1.36v5.83a.43.43,0,0,0,.49.49h.52v1.16Z"/><path class="cls-1" d="M71.92,45.8H70.84c-.5,0-.77.23-.77.62s.25.63.79.63a1.08,1.08,0,0,0,.86-.27.9.9,0,0,0,.2-.69Zm0,2.31v-.48a1.65,1.65,0,0,1-1.34.53,1.9,1.9,0,0,1-1.4-.48,1.79,1.79,0,0,1-.45-1.23c0-.87.6-1.59,1.87-1.59h1.29v-.27c0-.6-.3-.86-1-.86a1.18,1.18,0,0,0-1.05.45L69,43.33a2.29,2.29,0,0,1,2-.76c1.53,0,2.33.66,2.33,1.94v3.6Z"/><path class="cls-1" d="M77.62,48.11V44.8a.91.91,0,1,0-1.82,0v3.31H74.44V42.64h1.33v.5a1.87,1.87,0,0,1,1.36-.57,1.74,1.74,0,0,1,1.29.49A2,2,0,0,1,79,44.61v3.5Z"/><path class="cls-1" d="M82.19,43.8c-.82,0-.92.67-.92,1.57s.1,1.57.92,1.57.94-.68.94-1.57S83,43.8,82.19,43.8m1,4.31v-.52a1.65,1.65,0,0,1-1.36.58,1.94,1.94,0,0,1-1.34-.49,3.26,3.26,0,0,1-.56-2.31,3.22,3.22,0,0,1,.56-2.3,1.88,1.88,0,0,1,1.33-.5,1.65,1.65,0,0,1,1.34.55V40.63h1.36v7.48Z"/><polygon class="cls-1" points="85.65 43.02 85.65 40.63 87.08 40.63 87.08 41.93 85.65 43.02"/><path class="cls-1" d="M90.05,48.17a3,3,0,0,1-2.33-.79l.89-.89a2,2,0,0,0,1.46.51c.47,0,1-.15,1-.56s-.15-.47-.58-.51l-.86-.08c-1-.1-1.6-.53-1.6-1.53a1.88,1.88,0,0,1,2.11-1.75,2.91,2.91,0,0,1,2.09.64l-.84.85a1.89,1.89,0,0,0-1.27-.36c-.54,0-.77.25-.77.52s.08.43.56.47l.86.09c1.08.1,1.63.68,1.63,1.6,0,1.21-1,1.79-2.32,1.79"/><polygon class="cls-1" points="95.42 48.1 95.42 40.63 100.35 40.63 100.35 41.93 96.88 41.93 96.88 43.69 99.83 43.69 99.83 44.99 96.88 44.99 96.88 46.8 100.35 46.8 100.35 48.1 95.42 48.1"/><path class="cls-1" d="M103.53,48.17c-1.1,0-2.45-.59-2.45-2.8s1.35-2.8,2.45-2.8a2.3,2.3,0,0,1,1.8.74l-.92.92a1.13,1.13,0,0,0-.88-.43,1,1,0,0,0-.78.36,2.59,2.59,0,0,0,0,2.42,1,1,0,0,0,.78.36,1.13,1.13,0,0,0,.88-.43l.92.91a2.31,2.31,0,0,1-1.8.75"/><path class="cls-1" d="M108.79,44a.87.87,0,0,0-.64-.24.88.88,0,0,0-.63.24,1.89,1.89,0,0,0-.31,1.33,1.89,1.89,0,0,0,.31,1.33,1,1,0,0,0,1.27,0,1.84,1.84,0,0,0,.32-1.33,1.84,1.84,0,0,0-.32-1.33m1.06,3.46a2.48,2.48,0,0,1-3.39,0,2.81,2.81,0,0,1-.62-2.13,2.77,2.77,0,0,1,.62-2.12,2.45,2.45,0,0,1,3.39,0,2.73,2.73,0,0,1,.62,2.12,2.77,2.77,0,0,1-.62,2.13"/><path class="cls-1" d="M114.64,48.11V44.8a.88.88,0,0,0-.9-1,.89.89,0,0,0-.92,1v3.31h-1.36V42.64h1.33v.5a1.87,1.87,0,0,1,1.37-.57,1.77,1.77,0,0,1,1.29.49,2,2,0,0,1,.55,1.55v3.5Z"/><path class="cls-1" d="M119.88,44a.9.9,0,0,0-.64-.24.84.84,0,0,0-.63.24,1.84,1.84,0,0,0-.32,1.33,1.84,1.84,0,0,0,.32,1.33.81.81,0,0,0,.63.24.86.86,0,0,0,.64-.24,1.89,1.89,0,0,0,.31-1.33,1.89,1.89,0,0,0-.31-1.33m1.06,3.46a2.31,2.31,0,0,1-1.7.67,2.25,2.25,0,0,1-1.69-.67,2.77,2.77,0,0,1-.62-2.13,2.73,2.73,0,0,1,.62-2.12,2.22,2.22,0,0,1,1.69-.68,2.28,2.28,0,0,1,1.7.68,2.77,2.77,0,0,1,.62,2.12,2.81,2.81,0,0,1-.62,2.13"/><path class="cls-1" d="M128.9,48.11V44.8a.91.91,0,1,0-1.81,0v3.34h-1.37V44.8a.91.91,0,1,0-1.81,0v3.31h-1.37V42.64h1.33v.5a1.91,1.91,0,0,1,1.37-.57,1.71,1.71,0,0,1,1.45.7,2.05,2.05,0,0,1,1.63-.7,1.91,1.91,0,0,1,1.35.49,2.05,2.05,0,0,1,.6,1.55v3.5Z"/><path class="cls-1" d="M133.46,49a2.19,2.19,0,0,1-.41.7,1.62,1.62,0,0,1-1.18.42h-.53V48.88h.31a.58.58,0,0,0,.68-.49l.23-.67-1.86-5.08h1.43L133.27,46l1.09-3.38h1.44Z"/><polygon class="cls-1" points="4.16 61.37 2.47 58.39 1.45 59.61 1.45 61.37 0.53 61.37 0.53 55.33 1.45 55.33 1.45 58.36 3.92 55.33 5.04 55.33 3.08 57.69 5.24 61.37 4.16 61.37"/><path class="cls-1" d="M5.76,61.37h.86v-4.3H5.76Zm0-5.15h.92V55.3H5.73Z"/><path class="cls-1" d="M10,59.47H9c-.51,0-.77.23-.77.62s.24.61.79.61a1,1,0,0,0,.8-.25.86.86,0,0,0,.19-.64Zm0,1.9V61a1.42,1.42,0,0,1-1.14.44A1.52,1.52,0,0,1,7.76,61a1.33,1.33,0,0,1-.34-.93c0-.72.5-1.24,1.48-1.24H10v-.3c0-.54-.27-.81-.94-.81a1,1,0,0,0-.94.42l-.57-.53A1.74,1.74,0,0,1,9.13,57c1.18,0,1.77.5,1.77,1.47v2.88Z"/><path class="cls-1" d="M15,61.37a1.12,1.12,0,0,1-1.18-1.2V57.8h-.49v-.66h.49v-1.3h.86v1.3h.84v.66h-.84v2.33a.44.44,0,0,0,.48.5h.36v.74Z"/><path class="cls-1" d="M19,61.37v-.44a1.61,1.61,0,0,1-2.21.1,1.6,1.6,0,0,1-.43-1.22V57.07h.87v2.62c0,.67.38,1,.86,1a.85.85,0,0,0,.89-1V57.07h.87v4.3Z"/><path class="cls-1" d="M22.73,57.79c-.78,0-.9.66-.9,1.42s.12,1.43.9,1.43.89-.67.89-1.43-.11-1.42-.89-1.42M24,61a1.46,1.46,0,0,1-1,.39,1.32,1.32,0,0,1-1.13-.5V63.1H21v-6h.85v.45A1.32,1.32,0,0,1,23,57,1.48,1.48,0,0,1,24,57.4a2.56,2.56,0,0,1,.48,1.81A2.59,2.59,0,0,1,24,61"/><path class="cls-1" d="M28,61.37v-.44a1.6,1.6,0,0,1-2.2.1,1.6,1.6,0,0,1-.43-1.22V57.07h.86v2.62a.83.83,0,0,0,.87,1,.85.85,0,0,0,.89-1V57.07h.86v4.3Z"/><path class="cls-1" d="M34,59.47H33c-.51,0-.77.23-.77.62s.24.61.79.61a1,1,0,0,0,.8-.25.86.86,0,0,0,.19-.64Zm0,1.9V61a1.42,1.42,0,0,1-1.14.44A1.52,1.52,0,0,1,31.76,61a1.33,1.33,0,0,1-.34-.93c0-.72.5-1.24,1.48-1.24H34v-.3c0-.54-.27-.81-.94-.81a1,1,0,0,0-.94.42l-.57-.53A1.74,1.74,0,0,1,33.13,57c1.18,0,1.77.5,1.77,1.47v2.88Z"/><path class="cls-1" d="M36,61.37h.86v-4.3H36Zm0-5.15h.92V55.3H36Z"/><path class="cls-1" d="M41,61.37a1.13,1.13,0,0,1-1.18-1.2V57.8h-.49v-.66h.49v-1.3h.87v1.3h.83v.66h-.83v2.33a.44.44,0,0,0,.47.5h.36v.74Z"/><path class="cls-1" d="M44.84,58.28a.89.89,0,0,0-.85-.54.91.91,0,0,0-.86.54,1.43,1.43,0,0,0-.11.58H45a1.42,1.42,0,0,0-.12-.58M43,59.47a1.06,1.06,0,0,0,1.1,1.2,1.3,1.3,0,0,0,1-.44l.55.52a2,2,0,0,1-1.61.67c-1.08,0-1.93-.57-1.93-2.21,0-1.39.72-2.19,1.82-2.19a1.82,1.82,0,0,1,1.82,2.06v.39Z"/><path class="cls-1" d="M50.7,58a.87.87,0,0,0-.63-.24.85.85,0,0,0-.63.24,1.7,1.7,0,0,0-.3,1.18,1.67,1.67,0,0,0,.3,1.18.86.86,0,0,0,.63.25.88.88,0,0,0,.63-.25,1.62,1.62,0,0,0,.3-1.18A1.65,1.65,0,0,0,50.7,58m.67-1.79h-2.6v-.9h2.6Zm0,4.67a1.75,1.75,0,0,1-1.29.51,1.7,1.7,0,0,1-1.28-.51,3.07,3.07,0,0,1,0-3.39,1.74,1.74,0,0,1,1.28-.5,1.78,1.78,0,0,1,1.29.5,3.07,3.07,0,0,1,0,3.39"/><path class="cls-1" d="M55.38,61.37V58.73a.87.87,0,1,0-1.73,0v2.64h-.87v-6h.87V57.5A1.46,1.46,0,0,1,54.76,57a1.42,1.42,0,0,1,1.49,1.57v2.78Z"/><path class="cls-1" d="M59.62,59.47h-1c-.5,0-.77.23-.77.62s.25.61.79.61a1,1,0,0,0,.81-.25.91.91,0,0,0,.18-.64Zm0,1.9V61a1.42,1.42,0,0,1-1.14.44A1.55,1.55,0,0,1,57.34,61,1.33,1.33,0,0,1,57,60.1c0-.72.5-1.24,1.49-1.24h1.13v-.3c0-.54-.27-.81-.94-.81a1,1,0,0,0-.94.42l-.57-.53A1.76,1.76,0,0,1,58.72,57c1.17,0,1.77.5,1.77,1.47v2.88Z"/><path class="cls-1" d="M64.18,61.37V58.75c0-.67-.38-1-.86-1a.85.85,0,0,0-.89,1v2.62h-.87v-4.3h.85v.43A1.55,1.55,0,0,1,63.56,57a1.48,1.48,0,0,1,1.06.39,1.56,1.56,0,0,1,.43,1.21v2.75Z"/><path class="cls-1" d="M67.67,57.79c-.78,0-.88.67-.88,1.35s.1,1.34.88,1.34.87-.67.87-1.34-.09-1.35-.87-1.35m-.1,5.36a2,2,0,0,1-1.52-.56L66.6,62a1.22,1.22,0,0,0,.93.38,1,1,0,0,0,1-1.1v-.55a1.33,1.33,0,0,1-1.11.49,1.43,1.43,0,0,1-1-.38,3.41,3.41,0,0,1,0-3.49,1.45,1.45,0,0,1,1-.37,1.32,1.32,0,0,1,1.13.5v-.45h.84v4.27a1.72,1.72,0,0,1-1.84,1.81"/><path class="cls-1" d="M72.82,59.47h-1c-.5,0-.77.23-.77.62s.25.61.79.61a1,1,0,0,0,.81-.25.91.91,0,0,0,.18-.64Zm0,1.9V61a1.42,1.42,0,0,1-1.14.44A1.55,1.55,0,0,1,70.54,61a1.33,1.33,0,0,1-.34-.93c0-.72.5-1.24,1.49-1.24h1.13v-.3c0-.54-.27-.81-.94-.81a1,1,0,0,0-.94.42l-.57-.53A1.76,1.76,0,0,1,71.92,57c1.17,0,1.77.5,1.77,1.47v2.88Z"/><path class="cls-1" d="M78.77,58a1,1,0,0,0-1.27,0,1.7,1.7,0,0,0-.29,1.18,1.67,1.67,0,0,0,.29,1.18.93.93,0,0,0,1.27,0,1.67,1.67,0,0,0,.29-1.18A1.7,1.7,0,0,0,78.77,58m.65,2.88a1.87,1.87,0,0,1-2.57,0,3.07,3.07,0,0,1,0-3.39,1.9,1.9,0,0,1,2.57,0,3.07,3.07,0,0,1,0,3.39"/><polygon class="cls-1" points="84.77 56.15 84.77 61.37 83.85 61.37 83.85 56.15 82.19 56.15 82.19 55.33 86.43 55.33 86.43 56.15 84.77 56.15"/><path class="cls-1" d="M89.57,58.28a.89.89,0,0,0-.85-.54.91.91,0,0,0-.86.54,1.43,1.43,0,0,0-.11.58h1.94a1.42,1.42,0,0,0-.12-.58m-1.82,1.19a1.06,1.06,0,0,0,1.1,1.2,1.3,1.3,0,0,0,1-.44l.55.52a2,2,0,0,1-1.61.67c-1.08,0-1.93-.57-1.93-2.21,0-1.39.72-2.19,1.82-2.19a1.82,1.82,0,0,1,1.82,2.06v.39Z"/><polygon class="cls-1" points="95.36 56.15 95.36 61.37 94.44 61.37 94.44 56.15 92.78 56.15 92.78 55.33 97.02 55.33 97.02 56.15 95.36 56.15"/><path class="cls-1" d="M100,59.47H99c-.51,0-.77.23-.77.62s.25.61.79.61a1,1,0,0,0,.81-.25.91.91,0,0,0,.18-.64Zm0,1.9V61a1.42,1.42,0,0,1-1.15.44A1.52,1.52,0,0,1,97.72,61a1.33,1.33,0,0,1-.34-.93c0-.72.5-1.24,1.49-1.24H100v-.3c0-.54-.27-.81-.94-.81a1,1,0,0,0-.94.42l-.57-.53A1.76,1.76,0,0,1,99.1,57c1.17,0,1.77.5,1.77,1.47v2.88Z"/><path class="cls-1" d="M101.94,61.37h.87v-4.3h-.87Zm0-5.15h.91V55.3h-.91Z"/><polygon class="cls-1" points="107.85 56.15 107.85 61.37 106.94 61.37 106.94 56.15 105.28 56.15 105.28 55.33 109.52 55.33 109.52 56.15 107.85 56.15"/><path class="cls-1" d="M112.42,58a.87.87,0,0,0-.63-.24.85.85,0,0,0-.63.24,1.7,1.7,0,0,0-.3,1.18,1.67,1.67,0,0,0,.3,1.18.86.86,0,0,0,.63.25.88.88,0,0,0,.63-.25,1.62,1.62,0,0,0,.3-1.18,1.65,1.65,0,0,0-.3-1.18m.66,2.88a1.75,1.75,0,0,1-1.29.51,1.7,1.7,0,0,1-1.28-.51,3.07,3.07,0,0,1,0-3.39,1.74,1.74,0,0,1,1.28-.5,1.78,1.78,0,0,1,1.29.5,3.12,3.12,0,0,1,0,3.39"/><polygon class="cls-1" points="117.2 61.37 116 59.38 115.36 60.1 115.36 61.37 114.5 61.37 114.5 55.33 115.36 55.33 115.36 59.05 117.03 57.07 118.09 57.07 116.59 58.75 118.27 61.37 117.2 61.37"/><path class="cls-1" d="M121.34,58.28a.88.88,0,0,0-.85-.54.89.89,0,0,0-.85.54,1.28,1.28,0,0,0-.11.58h1.93a1.28,1.28,0,0,0-.12-.58m-1.81,1.19a1.06,1.06,0,0,0,1.09,1.2,1.29,1.29,0,0,0,1-.44l.55.52a2,2,0,0,1-1.61.67c-1.07,0-1.93-.57-1.93-2.21,0-1.39.72-2.19,1.82-2.19a1.82,1.82,0,0,1,1.83,2.06v.39Z"/><path class="cls-1" d="M125.57,58.08a.77.77,0,0,0-.64-.29.88.88,0,0,0-.86,1v2.62h-.86v-4.3h.84v.46A1.47,1.47,0,0,1,125.2,57a1.37,1.37,0,0,1,1,.4Z"/><path class="cls-1" d="M129,59.47h-1c-.51,0-.77.23-.77.62s.25.61.79.61a1,1,0,0,0,.81-.25.91.91,0,0,0,.18-.64Zm0,1.9V61a1.42,1.42,0,0,1-1.15.44,1.52,1.52,0,0,1-1.15-.39,1.33,1.33,0,0,1-.34-.93c0-.72.5-1.24,1.49-1.24H129v-.3c0-.54-.27-.81-.94-.81a1,1,0,0,0-.94.42l-.57-.53a1.75,1.75,0,0,1,1.54-.62c1.18,0,1.78.5,1.78,1.47v2.88Z"/><path class="cls-1" d="M133.51,61.37v-.44a1.61,1.61,0,0,1-2.21.1,1.6,1.6,0,0,1-.43-1.22V57.07h.87v2.62c0,.67.38,1,.86,1a.85.85,0,0,0,.89-1V57.07h.87v4.3Z"/></g></g></svg>