<svg fill="none" height="410" viewBox="0 0 583 410" width="583" xmlns="http://www.w3.org/2000/svg" xmlns:xlink="http://www.w3.org/1999/xlink"><clipPath id="a"><path d="m0 0h583v410h-583z"/></clipPath><g clip-path="url(#a)"><path d="m135.7 205c.6-.7.7-1.1.2-1.7-.3-.4-.5-.8-.7-1.2-.1-.1-.1-.3-.2-.4-.6-.9-.9-2-1.1-3.1-.1-.4-.1-.8 0-1.2.2 0 .3.1.4.1.4.2.9.4 1.3.6.9.5 1.7 1.2 2 2.3 0 .1.1.2.1.3.2.3.6.5.9.4.4-.1.6-.4.5-.8 0-.2-.1-.4-.1-.6-.4-1.1-.9-2.1-1.6-3.1-.6-.8-1-1.6-1.2-2.5-.1-.4-.1-.8-.1-1.2 0-.3.1-.5.2-.7h.2c.9 1.2 1.8 2.3 2 3.8.1.6.4 1.1.6 1.6.1.2.3.5.4.7.3.4.7.8.9 1.3.1.3.4.4.7.6.3.1.6.1.9-.1.3-.3.5-.6.3-1-.2-.5-.4-.9-.5-1.4-.1-.3-.3-.7-.1-1.1.1 0 .3 0 .4.1.4.3.7.6.9 1 .5 1 1.3 1.8 2 2.6.1.1.2.2.3.2.3.1.5.1.8 0 .2-.1.3-.4.3-.6 0-.3-.1-.5-.3-.8-.5-.8-.8-1.6-.9-2.4-.1-.4-.2-.9-.4-1.3-.3-.7-.1-1.4 0-2.1 0-.2.3-.3.5-.3.1 0 .3.1.4.1.4.2.7.4 1.1.7.8.7 1.6 1.5 2.4 2.2.1.1.2.2.3.3.2.1.5.1.7-.1s.3-.5.2-.7-.3-.5-.4-.7c-.4-.5-.8-1-1.1-1.6-.2-.3-.3-.6-.4-1-.1-.5.2-.8.7-.7.3 0 .6.1.9.2.5.2 1 .5 1.5.8.5.2.9.5 1.4.7.2.1.4.1.6-.1s.2-.4 0-.7c-.6-.7-1.2-1.5-1.7-2.2-.4-.5-.7-1.1-1-1.6-.1-.2-.2-.5-.1-.8.4-.3.9-.3 1.4-.2 1.2.4 2.3.7 3.2 1.6.1.1.3.2.4.3.5.3 1 .1 1.1-.5.1-.3 0-.5-.1-.8-.2-.4-.4-.8-.5-1.2-.1-.2-.1-.4-.2-.6h.5c.2 0 .4.1.6.2 1 .4 2 .8 3 1.4.3.1.5.3.8.4.5.1.9-.2.9-.8 0-.2-.1-.4-.2-.6-.3-.6-.7-1.2-1.3-1.6-.3-.3-.7-.6-1-.9-.6-.6-1.1-1.3-1.5-2-.2-.4-.5-.8-.7-1.2-.2-.3-.4-.7-.3-1.2.2 0 .3-.1.5-.1.3.1.6.2 1 .3.6.2 1.3.4 1.9.7 1.4.6 2.8.9 4.2 1.6.2.1.4.1.6.1.5 0 .8-.5.7-.9 0-.1-.1-.2-.2-.3-.5-.7-1-1.4-1.7-2-.5-.4-.9-.9-1.5-1.2-.8-.5-1.4-1.3-2-2-.3-.3-.4-.7-.6-1.1.1-.3.3-.2.5-.2 1.1 0 2.1.5 3.1 1 .2.1.4.2.6.3.4.2.8.1 1-.2.2-.2.3-.6 0-.9-.4-.6-.9-1.1-1.3-1.6-.2-.2-.4-.4-.6-.6-.1-.1-.2-.3-.3-.5.9 0 1.6.2 2.4.5.7.3 1.5.6 2.2.8.8.3 1.7.5 2.5.7.2.1.4.1.6.1.3 0 .6-.1.8-.4s.1-.6-.1-.8c-.1-.1-.3-.3-.5-.4-.5-.4-1.1-.8-1.6-1.2-.6-.4-1.2-.9-1.8-1.3-1.2-.8-2.4-1.6-3.4-2.7-.2-.3-.5-.5-.8-.7-.6-.4-.6-.5-.9-1.1.1-.2.3-.2.4-.1.6.1 1.1.1 1.7.3.7.2 1.5.4 2.2.6.4.1.8.3 1.2.4.2.1.4.1.6.2.5 0 .9-.5.6-1-.2-.3-.4-.6-.6-.8-.7-.6-1.3-1.1-2-1.7-.2-.2-.4-.4-.6-.6-.1-.1-.1-.3-.2-.5.2 0 .4-.1.6-.1 1-.1 2.1.1 3.1.2.4.1.8.1 1.3.1s.8-.3.9-.6c.1-.4-.1-.8-.5-1-.6-.3-1.1-.6-1.7-.8-.8-.3-1.7-.5-2.5-.8-.3-.1-.6-.2-.8-.4-1-.7-1.9-1.5-2.9-2.2-.1-.1-.2-.3-.4-.4.1-.3.2-.2.4-.2.7.1 1.4.2 2.1.5 1.3.5 2.6.9 4 1.2.2.1.5.1.7.1.6 0 .9-.4.9-1-.1-.4-.3-.6-.6-.9-.6-.5-1.3-1-1.9-1.4-.1-.1-.2-.2-.4-.4.2 0 .3-.1.4-.1.6 0 1.2-.1 1.7 0 .7.1 1.3.2 2 .3.3.1.7.1 1 .1.4 0 .6-.2.8-.5.1-.3.1-.6-.2-.8-.5-.6-1.1-1-1.8-1.2-1-.3-1.8-.8-2.7-1.3-.9-.6-1.9-1-2.9-1.4-1-.3-1.9-.7-2.9-1.1-.8-.3-1.6-.5-2.4-.8s-1.6-.6-2.4-.9c-.2-.1-.5-.3-.7-.4-.1-.1-.1-.2-.2-.3.1-.1.2-.1.3-.1.9 0 1.7-.1 2.5.1 1.4.4 2.8.5 4.2.5.9 0 1.8.1 2.6.1h.4c.9 0 1.1-.2 1.4-1.1-.2-.3-.4-.5-.7-.6s-.6-.2-.9-.3c-1.3-.3-1.3-.3-2.5-1.1.2-.4.6-.6 1-.8s.8-.3 1.2-.5c.5-.2.7-.6.6-1s-.6-.7-1.1-.6c-1.3.3-2.6.4-3.9.3-1.1 0-2.1-.2-3.2-.3-.3 0-.6-.1-.8-.4.3-.4.6-.4 1-.6 1.2-.4 2.4-.8 3.6-1.4.7-.4 1.3-.7 2-1.1.4-.2.6-.6.5-1s-.4-.6-.9-.6c-1.1.1-2.1.1-3.2.3-1.2.2-2.4 0-3.5-.2-.3-.1-.7-.2-1-.5.1-.2.1-.3.2-.4.2-.3.2-.6.1-.9-.1-.5-.4-.7-.9-.6-.1 0-.3.1-.4.2-.7.3-1.4.6-2.1.9-.2.1-.3.2-.5.2-.8.1-1.5.5-2.2.8s-1.4.5-2.2.7c-1.4.4-2.9.6-4.3.8-.7.1-1.4.2-2.2.4-.8.1-1.5.3-2.2.6s-1.4.5-2.2.7c-.9.2-1.8.5-2.6.7-.5.1-1.1.2-1.6.3-.4.1-.8.1-1.3-.1-.4-.2-.9-.3-1.3-.4 0-.2.1-.2.2-.3l2.4-.3c.2 0 .4-.1.6-.2.8-.2 1-.8 1.3-1.4.2-.4-.1-.9-.5-1-.1 0-.1 0-.2 0-1.5-.2-2.6-1.2-3.8-2.1-.3-.2-.5-.5-.6-1 .2 0 .3.1.4.1 1.2.8 2.5 1.2 3.9 1.6.6.2 1.3.2 1.9.2.6-.1 1.1 0 1.6.2.2.1.5.1.7.1.5.1 1.1.1 1.6.3s1 .1 1.3-.3.3-.9 0-1.4c-.4-.5-.5-1.1-.6-1.7s-.1-1.3-.3-1.9c-.2-.7-.6-1.5-.9-2.2.3-.1.7.1 1 .1 1.3.4 2.7.3 4.1.2.2 0 .5-.1.7-.1.8-.2 1.6-.5 2.4-.8.3-.1.6-.2.9-.2.9-.2 1.2-.9.8-1.7-.5-1-1-2-1.4-3 0 0 0-.1 0-.2.3 0 .6-.1.9 0 .5 0 .9-.2 1.3-.4.2-.1.3-.3.3-.6-.1-.2-.2-.5-.2-.7-.1-.4-.3-.8-.5-1.2-.3-.9-.5-1.9-.8-2.8 0-.1 0-.2 0-.3.9-.2 1.7-.3 2.6-.5 0-.7-.3-1.3-.4-2s-.3-1.4-.5-2-.6-1.2-.8-1.8c.9-.2 1.7-.3 2.5-.4.4-.1.5-.2.4-.5-.6-1.5-1-3.1-2-4.4v-.1c.3-.1.6-.2.8-.3.3-.1.6-.3.9-.5.4-.3.5-.5.4-1-.3-1.2-.7-2.3-1.3-3.4-.2-.4-.4-.8-.7-1.2.6-.3 1.3-.6 1.8-1.1.2-.3.4-.5.6-.7-.3-.8-.5-1.6-.8-2.3s-.6-1.4-1-2.2c.1-.2.4-.3.6-.4.5-.2.8-.7 1.1-1.1.1-.2.1-.4.1-.6-.2-.4-.3-.8-.6-1.1-.4-.6-.8-1.2-1-1.8.5-.3.9-.5 1.3-.9.5-.4.9-.8 1.3-1.3-.1-.2-.1-.3-.2-.5s-.3-.5-.4-.7c-.3-.8-.9-1.4-1.4-2-.1-.2-.3-.3-.5-.4-.7-.4-1.3-.9-2-1.3 0 0-.1-.1-.1-.2.1-.2.4-.3.6-.3.5-.1 1-.4 1.5-.7 1-.6 2-1.2 2.9-1.8.5-.3.8-.8 1-1.2.2-.3.1-.6-.1-.8-.3-.4-.6-.7-1-1.1-.2-.2-.4-.4-.7-.7.1-.1.2-.2.4-.2.6-.2 1.1-.5 1.6-.8 1.1-.6 2.1-1.3 2.8-2.2.1-.2.3-.3.5-.4.2-.2.3-.4.5-.6.3-.4.3-.9 0-1.4s-.7-.9-1.2-1.2c-.2-.1-.5-.3-.7-.4s-.5-.2-.8-.3c.3-.4.5-.7.9-.9s.7-.4 1.1-.6c.7-.3 1.2-.8 1.6-1.4.5-.7 1-1.5 1.5-2.2.3-.4.6-.8.9-1.2.4-.4.3-.9-.1-1.1-.3-.2-.6-.3-.9-.4-.6-.2-1.2-.4-1.7-.6-.2-.1-.4-.2-.6-.2 0-.3.1-.3.2-.4.4-.3.8-.6 1.1-1 .5-.6 1-1.1 1.6-1.6.8-.8 1.5-1.7 2.2-2.5.3-.3.5-.7.8-1 .3-.4.3-.6-.1-.9-1.1-.8-2.3-1-3.6-1-1.2 0-2.4 0-3.6 0-.1 0-.3 0-.5-.1.4-.4.7-.7 1.1-.9.6-.4 1.3-.8 1.9-1.2 1.1-.7 2-1.6 2.8-2.7.7-.9 1.5-1.9 2.2-2.8.2-.3.5-.5.8-.6.5-.2 1.1-.5 1.6-.7.1-.1.3-.1.4-.2.2-.2.2-.5 0-.7-.3-.3-.6-.6-1-.7-.8-.1-1.5-.2-2.3-.1-1.5.2-3.1.5-4.6.8-1 .2-2.1.5-3.1.7-.1 0-.2 0-.3 0l-.1.1h-.1v-.1h.1c0-.1.1-.2.1-.3 1.1-.9 2.2-1.8 3.3-2.7.9-.7 1.7-1.5 2.5-2.2.6-.5 1.2-1.1 2-1.3.5-.2.9-.5 1.2-.9.3-.3.2-.6-.1-.8s-.7-.3-.9-.7c.1 0 .2-.1.3-.1.6-.1 1.3-.1 1.9-.1.3 0 .6 0 .8-.2.6-.5 1.1-1 1.6-1.5.6-.6 1-1.4 1.4-2.2.2-.3 0-.7-.4-.7-.2 0-.4 0-.5 0-1.1.2-2.3.4-3.4.5-.1 0-.2 0-.3.1-1.2.5-2.4.6-3.6 1-.8.3-1.7.6-2.5 1-1 .5-2.1.8-3.2 1.1-1.3.4-2.6 1-3.8 1.6-.7.4-1.4.8-2.2 1.2-.3.2-.6.3-1 .3.1-.1.2-.2.3-.3.2-.2.5-.4.7-.6 2.2-1.4 4-3.1 6-4.8.6-.5 1.1-1.2 1.6-1.8.7-.9 1.4-1.9 2.3-2.7.6-.5 1-1.2 1.4-1.9.1-.1.1-.3.1-.5-.3-.2-.6-.3-1-.5.2-.1.2-.2.4-.2.6-.2 1.2-.4 1.8-.5.3-.1.6-.2.7-.5.4-.7.8-1.4 1-2.2 0-.1 0-.2 0-.4-.1 0-.3-.1-.4-.1-1.8.1-3.5.4-5.1 1.2-.2.1-.4.2-.6.2-1.2.3-2.3.9-3.3 1.5-.6.4-1.3.7-1.9 1.1-.4.2-.8.4-1.3.5-1.6.6-2.9 1.7-4.2 2.7-1.2.9-2.3 1.9-3.7 2.7-.2.1-.5.3-.7.5-.5.5-1.1.7-1.7 1 0 0-.1 0-.2 0 .3-.5.7-.9 1.2-1.2.9-.7 1.9-1.4 2.7-2.1.9-.8 1.7-1.7 2.5-2.5 1-1.2 2-2.4 3-3.6.7-.8 1-1.7 1.4-2.6.2-.4 0-.7-.4-.9-.2-.1-.5-.2-.7-.3-.3-.1-.5-.3-.6-.6-.2-.3 0-.6.3-.7.4 0 .7-.1 1.1 0 .5 0 .9-.1 1.3-.6s.9-.9 1.3-1.4c.7-.79998 1.2-1.69998 1.4-2.89998-.2 0-.3 0-.5 0-.5.2-1.1.4-1.6.6-.8.4-1.7.7-2.6 1-1.2.3-2.2.79999-3.2 1.39998-.1.1-.2.1-.3.2-2.2 1.8-4.4 3.6-6.6 5.5-.2.2-.4.4-.6.6-.7.7-1.5 1.4-2.3 1.9-.1.1-.2.1-.2.2-1.6 1.4-3.2 2.7-4.5 4.3-.6.8-1.3 1.5-2 2.2-.2.2-.4.3-.6.6 0-.2 0-.3 0-.4.6-1.1 1.3-2.2 2.1-3.2.7-.8 1.6-1.5 2.2-2.4.2-.4.5-.7.6-1.1.1-.2.2-.5.3-.7.6-.7 1.2-1.5 1.8-2.2.4-.5.8-1.1 1.3-1.6 1-1.1 1.7-2.5 2.3-3.9 0-.1.1-.2.2-.3.7-.99998 1.1-2.09998 1.5-3.19998.2-.4.4-.9.2-1.4-.6-.2-1.3-.2-1.9-.4.2-.4.5-.7.9-.9.1-.1.3-.1.4-.2.7-.4 1.2-.8 1.6-1.6.4-.9.8-1.800005.9-2.800005-.1 0-.2 0-.3.1-.3.2000001-.6.30000014-.8.6-1 .900005-2.1 1.600005-3.1 2.400005-.2.1-.3.2-.5.3-.8.4-1.5 1-2 1.8-.3.4-.6.7-1 1.1-.7.7-1.4 1.4-2 2.1-.5.5-1.1 1.1-1.6 1.6-.5.49998-.9.99998-1.4 1.59998-1.2 1.5-2.3 3-3.5 4.5-1.8 2.3-3.6 4.6-5.4 6.9-.8 1.1-1.6 2.1-2.5 3.2-.1.1-.2.2-.3.3 0-.6.1-1 .4-1.4.4-.5.6-1.1.7-1.6.2-.6.4-1.1.9-1.6.2-.2.3-.4.4-.6.8-1.2 1.6-2.5 2.4-3.7.7-1 1.2-2 1.6-3.1.1-.3.2-.5.3-.8.2-.5.4-.9.6-1.4.3-.6.1-1.1-.3-1.6-.1-.1-.3-.3-.4-.39999.2-.1.3-.19999.4-.29999.4-.2.7-.40001 1.1-.70001.2-.1.3-.39999.4-.59999.4-.8.6-1.6.7-2.4.1-.5.1-1.1.2-1.6.1-.7.2-1.40001.3-2.20001.1-.7.3-1.499995.5-2.1999949 0-.1000001 0-.2000001 0-.3000001-.2-.1-.3 0-.4.1-.5.6-1 1.2-1.6 1.800005-.6.6-1.1 1.3-1.7 1.9-.3.3-.6.7-.8 1.1-.8 1.1-1.5 2.2-2.3 3.3-.7 1-1.4 2-2 2.99998-.7 1.1-1.5 2.3-2.1 3.5-.2.4-.5.8-.7 1.2-1 1.6-2 3.3-2.9 5-.6 1.1-1.2 2.2-1.7 3.3-.7 1.4-1.4 2.8-2.1 4.1-.6 1.3-1.3 2.6-1.9 3.9-.8 1.7-1.6 3.3-2.4 5-.3.5-.5 1.1-.7 1.7-.2.4-.4.7-.7 1-.9 1-1.6 2.2-2.1 3.5-.8 1.9-1.4 3.9-2.1 5.8-.3.8-.5 1.7-.7 2.6-.1.8-.5 1.4-1.1 1.9-.3 0-.4-.2-.4-.4 0-.4 0-.8.1-1.2 0-.2.1-.4.2-.6.1-.3.1-.6-.1-.9-.2.1-.3.1-.4.2-1.3 1.7-2.6 3.3-3.4998 5.3-.5 1.1-1 2.1-1.4 3.2-.8 2-1.5 4-2 6-.3 1.3-.5 2.6-.8 3.9-.2.9-.4 1.7-.4 2.6v.2c-.5 2.2-.6 4.5-1.2 6.7-.1.5-.2 1.1-.3 1.6-.2 1.2-.4 2.4-.5 3.7-.1 1.4-.2 2.7-.2 4.1 0 1.1-.2 2.3-.3 3.4-.1.8-.1 1.6-.2 2.4-.1.6-.2 1.2-.3 1.8-.2 1.3-.5 2.6-.7 3.9-.2 1.7-.7 3.2-1.3 4.8-.4 1.1-.8 2.2-1.1 3.3-.4 1.4-1.2 2.3-2.4 3.1-1 .7-2.2 1.1-3.3 1.7-1 .5-2 .6-3.1.7-.6.1-1.2.2-1.8.2-.3 0-.6 0-.8-.1-.9-.3-1.9-.6-2.7-1-1.9-1-3.8-1.7-5.9-2.1-1-.2-2-.5-2.9-.6-.9-.2-1.7-.3-2.6-.4-.8 0-1.5 0-2.3.1-.7.1-1.4.2-2.1.1-.6-.1-1.3 0-1.9.2-.5.2-1 .3-1.5.4-.7.1-1.3.4-1.8.8-.4.3-.8.5-1.2.8-.1.1-.2.1-.3.2-.6.7-1.2 1.3-1.8 2-.5.5-.9 1-1.1 1.6-.3.7-.5 1.4-.2 2.2-.4.6-.7 1.2-1 1.9-.4.7-.7 1.5-1 2.3s-.4 1.6-.5 2.5c-.1 1.1-.2 2.2.1 3.3.2 1.2.5 2.3.9 3.4.1.3.3.5.5.8 0 .1.2.1.2.1.1-.1.2-.2.2-.3 0-.4 0-.7 0-1.1-.2-1.4 0-2.8.5-4.1.2-.6.4-.7.9-.6s1 .2 1.5.3c.2 0 .5.1.7.1h1.7c.6 0 1.2.1 1.8.4 1.4.7 2.7 1.3 4.1 2 1.1.6 2.1 1.2 3.2 1.8.5.3 1 .7 1.5 1 .8.6 1.7 1.1 2.5 1.6 0 .2-.2.2-.3.2-.9.1-1.9.1-2.8.1-.3 0-.7.1-1 .1-1.3 0-2.5.1-3.7.3-.6.1-1.2.1-1.8.2-1.1.1-2.2.3-3.3.5-.9.2-1.7.2-2.6.3-.7.1-1.5.1-2.2.2s-1.5.2-2.2.4c-1.6.4-3.1.7-4.8.8-1 .1-1.9.5-2.8.9s-1.9.7-2.9.9c-.5.1-1 .2-1.5.4-.4.1-.4.3-.3.7 0 .1.1.2.1.3-.5.1-.9.2-1.4.2-1.3.2-2.4.7-3.7 1.1-.8.3-1.6.4-2.4.6-.1 0-.3.1-.4.1-.9.3-1.7.5-2.6.8-.5.1-1 .2-1.5.3-1.1.1-2.1.2-3.1.6-.6.2-1.2.2-1.9.4-.3.1-.7.1-1 .2-1.4.3-2.9.5-4.4.5-.9 0-1.9-.2-2.8-.2-.3 0-.7-.1-1-.1-2-.3-3.9-.9-5.6-2-.8-.5-1.700005-.9-2.400005-1.5-.1-.1-.2999997-.1-.5-.1v.5c.8.8 1.600005 1.4 2.600005 2 .1.1.2.1.3.2 1.1.9 2.4 1.4 3.8 1.6.8.2 1.6.3 2.4.4 1.3.2 2.5.4 3.8.5h1.2c.4 0 .8.2 1.2.1 1.1-.1 2.1.1 3.2.2.1 0 .2 0 .3.2-.2.3-.5.3-.8.4-.7.3-1.4.5-2.2.8-1.2.4-2.3.9-3.5 1.2s-2.4.9-3.7.9c-.1 0-.1 0-.2 0-.7.4-1.5.4-2.2.5-.3 0-.6.1-.9.2-.4.1-.8.4-1.1.6-.2.2-.2.4-.1.6s.2.4.5.4c.2 0 .4 0 .5-.1.7-.1 1.3-.2 2-.2 1.7.1 3.5 0 5.2-.1h.6c1.7.1 3.3-.2 4.9-.5.4-.1.9-.2 1.3-.3 1.2-.4 2.4-.9 3.6-1.4.4-.2 1.1-.3 1.4-.2-.4.5-.8 1-1.3 1.4-1.9 1.4-3.9 2.8-5.9 3.9-1.1.6-2.1 1.3-3 2-.7.6-1.3 1.3-1.9 2-.2.2-.3.5-.2.8h.4c1-.2 2.1-.3 3.1-.3.9-.1 1.8.1 2.6.2 1.3.3 2.5.1 3.8-.3.1 0 .3-.1.4-.2.9-.6 1.9-1.2 2.8-1.9 1.4-1 2.7-2 4-3 .1-.1.2 0 .3-.1.1.1.2.3.3.4-.2.4-.5.7-.8 1-.6.6-1.1 1.3-1.7 1.9-.4.4-.7.9-1.1 1.3-.3.4-.7.8-1.1 1.1-.9.9-1.9 1.9-2.6 3.1-.6.9-1.1 1.9-1.6 2.9-.4.8-.4 1.7-.1 2.5.3-.2.5-.4.7-.5.5-.3.9-.6 1.4-.8s1-.3 1.6-.5 1.1-.3 1.7-.2c.3.1.7 0 1-.2.3-.1.6-.2.8-.4 1-.6 1.9-1.2 2.9-1.7.7-.4 1.3-.9 1.8-1.6.9-1.2 2-2.2 3-3.3.1-.1.2-.1.2-.1.3.1.3.4.2.6-.6 1.2-1.3 2.3-1.6 3.5 0 .1-.1.2-.1.2-.8 1.5-1.4 3.1-1.8 4.7-.1.5-.2 1-.3 1.5-.1.8-.1 1.6-.1 2.4 0 .4 0 .8.1 1.2.2.8.4.9 1.1.6 1.3-.5 2.4-1.2 3.4-2 .5-.4 1.1-.8 1.6-1.1.9-.6 1.8-1.3 2.5-2.2.3-.4.6-.8.8-1.2.3-.5.7-1 1.3-1.5-.1.3-.1.5-.1.7-.2.9-.3 1.8-.3 2.7 0 .5.1 1.1.1 1.6 0 1.1.6 1.9 1.2 2.7.2.3.6.3.9 0 .4-.5.9-.7 1.4-.9l1.5-.6c.5-.2.9-.4 1.4-.7.7-.4 1.3-.9 1.8-1.5.1-.2.3-.3.6-.2.3.4.4.9.5 1.4.1.4.1.7.2 1.1.3 1.1 1 1.8 2 2.4.4.2.6.2.9-.1.6-.6 1.3-1 2.1-1.4.8-.3 1.6-.8 2.1-1.5.1-.1.2-.1.3-.2.5 1.1 1.3 1.9 2.1 2.7 1 .9 1.2 1 2.4.2 1.1-.7 1.9-1.5 2.6-2.6.2-.3.3-.6.6-.8.8.6 1.6 1.2 2.3 1.8.5.4 1.1.6 1.8.6.4 0 .6-.1.8-.5.1-.3.3-.5.4-.8.4-1 .9-1.9.7-3 0-.3 0-.5.3-.8.5.3 1.1.6 1.5 1 .8.7 1.8 1 2.8 1.3.6.2 1.1-.1 1.4-.6.1-.3.2-.6.3-.9.1-.7.2-1.4.1-2.2 0-.2 0-.4.3-.5.2.2.3.3.5.5.6.5 1 1.1 1.7 1.5s1.5.7 2.3.8c.4 0 .8-.1 1-.5.1-.2.2-.4.3-.6.3-.6.5-1.1.5-1.8 0-.2.1-.4.1-.5 0-.2 0-.4.1-.5 0-.2-.1-.4.2-.5.9.8 2 1.4 3.2 1.8-.1.8-.2 1.5-.5 2.2-.2.7-.3 1.5-.3 2.3-.3.1-.6.2-1 .3-1.1.3-2.2.4-3.2 1-.2.1-.3.1-.5.2-.7.2-1.4.3-2 .5-.5.1-1 .3-1.6.5-.5.1-.8.3-1.2.5-.6.4-1.2.8-1.9.8-1.1.1-1.9.7-2.5 1.6-.2.3-.5.5-.9.6-.1 0-.3.1-.4.1-.6 0-1 .3-1.3.7-.2.3-.5.6-.7.8-1-.1-1.8.4-2.4 1.1-.8 1-1 1.8-.6 2.6.2-.2.3-.3.5-.5.3-.4.7-.6 1.3-.6.4 0 .8-.1 1.1-.3s.6-.4.9-.6c.2-.1.4-.3.6-.3.4-.1.7-.2 1.1-.5.2-.1.4-.2.6 0-.1.3-.3.7-.3 1.1-.1.5-.3.9-.6 1.2-.6.6-.9 1.3-.7 2.2.1.3 0 .5-.1.7-.2.4-.1.7.1 1 .2.2.3.5.5.7.1.1.2.1.3.1.1-.1.1-.1.1-.1 0-.1.1-.2.1-.4-.1-.9.3-1.6 1.1-2.1.5-.3.8-.8 1-1.3.1-.2.2-.4.3-.7 1.2-.2 1.9-1.1 2.4-2.1.8-.2 1.4-.6 1.8-1.2.1-.2.3-.3.5-.2.1.1.3.2.4.4s.1.4.1.6c0 .3.1.7.1 1 0 .2.1.4.2.5.4.4.6.8.9 1.2.3.5.8.7 1.3.6.5 0 1-.2 1.1-.7-.1 0-.1-.1-.2-.1-.5 0-.8-.2-.9-.8 0-.3-.2-.7-.4-1.1 0-.1.1-.2.1-.4.1-.7.5-1.2 1.1-1.5.2-.1.3-.3.5-.5.1-.2.2-.4.4-.6.1-.1.3-.3.5-.4.7-.2 1.3-.1 1.9.4l.3.3c.4.3.7.6 1.2.8.4.2.8.1 1.3.1.4 0 .8.2 1 .6.1.3.2.6.3.8s.1.3.2.5c.4-.3.7-.6.8-1 .1-.5 0-1.1-.3-1.6-.4-.5-.9-1-1.3-1.5-.3-.3-.6-.6-1-.6-.5 0-.9-.4-1.3-.8.2-.1.4-.2.5-.2.9-.1 1.8-.2 2.7-.2.5 0 1 0 1.5.2.3.1.5.2.7.4.7.4 1.4.4 2.1.2.4-.1.7-.3.9-.7l.3-.9c.1-.3.1-.7.1-1 .2-1 .3-1.9 1.1-2.6.2-.1.2-.3.4-.5s.4-.5.5998-.7c1.3-1 2.7-1.9 4.4-2.1.3 0 .5-.1.8-.2.2-.1.5-.1.7-.2 1-.2 2.1-.3 3.1-.4.8-.1 1.6-.2 2.3-.7h.2c.1.7.2 1.4.2 2.1-.1.5-.3.9-.8 1-.3.1-.5.2-.7.4-.3.1-.6.3-.8.6-.2.2-.3.4-.5.5-.5.6-1 1.2-1.1 2 0 .3-.2.4-.4.6-.4.4-.7.7-.8 1.3-.1.4-.3.8-.7 1-.9.7-1.4 1.6-1.7 2.7-.2.8-.4 1.5-1 2.1-.2.2-.3.4-.4.6-.3.7-.6 1.4-.9 2.2-.1.3-.3.6-.5.8-.6.5-.9 1.1-1 1.9-.1.5-.1 1-.2 1.4 0 .2 0 .5.2.6.3.3.3.6.3 1 .1 1 .5 1.4 1.7 1.7 0-.2 0-.5 0-.7-.2-.8 0-1.5.5-2.1.2-.2.4-.5.6-.7.4-.5.7-1.1.7-1.7 0-.7.3-1.2.8-1.6.2-.2.4-.4.6-.7.1-.1.1-.2.3-.1.1.4.3.9.4 1.3.3.7.2 1.3-.2 1.9-.5.7-.5 1.5-.3 2.4.1.3.2.6.3.9.2.4.3.8.5 1.2.3 1 1.1 1.9 2.6 1.9 0-.2.1-.3 0-.5s-.2-.3-.4-.4c-.6-.6-.7-1.5-.2-2.2.3-.5.5-1 .8-1.5.2-.3.2-.6.2-1-.1-.5-.1-1.1-.2-1.6-.1-.6 0-1.1.4-1.6.4-.6.6-1.3.5-2-.1-.5.1-1 .2-1.5.1-.4.4-.6.8-.7s.7.1 1 .4c.2.3.3.5.3.8.1.6.4 1 .8 1.4.5.4.9.8 1.1 1.4.2.5.5.9.9 1.2.3.3.5.6.6 1 .2.8.1 1.7-.2 2.4.2.3.3.3.5.2.8-.4 1.3-1 1.5-1.8.1-.4.1-.8 0-1.2-.1-.5-.1-1-.1-1.5 0-.4-.1-.9-.3-1.2-.5-.6-.7-1.4-.8-2.1 0-.1 0-.2-.1-.3-.1-.6-.4-1.1-.9-1.4-.3-.2-.5-.4-.7-.7-.2-.4-.4-.7-.7-1.1-.2-.2-.3-.5-.6-.7-.4-.2-.6-.6-.6-1 0-.2-.1-.4-.1-.5-.2-1.1.4-1.9 1.5-2 .5 0 .9-.2 1.3-.5s.8-.6 1.1-.9.6-.6.9-.9c.3.4.5.8.4 1.3s-.1 1-.2 1.5c-.1.9-.1 1.9 0 2.8.1 1 .3 2 .2 3 0 .4.1.8.1 1.3 0 .3.1.5.1.8 0 1.2.3 2.3.6 3.5.2.7.3 1.5.5 2.2.1.6.2 1.1.4 1.7.3 1 .4 1.9.3 3-.1.8-.1 1.6-.2 2.4 0 .7.1 1.4.1 2.1 0 1.8.1 3.5.2 5.3 0 .3 0 .7.1 1 0 .2 0 .4.1.5.1.3.3.4.5.4s.4-.2.5-.4c0-.1 0-.2 0-.3.1-.3.2-.5.2-.8.1-.3.1-.6.1-.9.2.2.3.3.4.4.5.3.8.7 1 1.3.4 1.2 1.3 2.1 2.1 3.1l.3.3c.3.2.7.2 1 0 .3-.3.3-.7.1-1-.1-.1-.2-.3-.4-.4-.9-1.2-1.6-2.5-1.4-4.1.1-1.3.1-2.5.2-3.8 0-.5.1-1 .2-1.4 0-.2.2-.3.3-.5s.4-.2.5 0c.2.2.4.5.6.8.4.6.7 1.2 1 1.8.6 1.1 1.3 2.2 1.7 3.4.1.4.4.8.6 1.1.4.7.9 1.4 1.3 2.1.2.3.5.6.9.9.3.3.6.5.9.8.2.2.4.4.5.7.2.5.6.9.9 1.2.8-.1 1-.1 1.2-.1zm25.1-54.2c-.1 0-.2 0-.3 0-1.6-.4-3.1-.8-4.6-1.3-1.5-.6-3.1-1-4.7-1.3-.3-.1-.6-.1-.9-.1-1.2-.1-2.4-.1-3.6-.2s-2.4-.3-3.6-.2c-.2 0-.5 0-.7-.1-.9-.1-2.2 0-3.2.4.1.1.1.3.2.4s.3.2.5.1c.7-.1 1.4.1 2.2.3 1.1.3 2.2.5 3.3.7.5.1 1.1.2 1.6.3 2.3.5 4.4 1.3 6.6 2.1 1.1.4 2.2.8 3.1 1.5.7.5 1.3 1.1 1.6 1.9.2.4.4.8.5 1.2.1.1.2.2.1.4h-.1c-.1 0-.2-.1-.3-.1-1.7-.8-3.4-1.6-5.3-1.9-.5-.1-1-.3-1.5-.4-1.2-.4-2.4-.8-3.7-1-.3-.1-.7-.1-1-.2-1.3-.4-2.5-.8-3.7-1.2-.4-.1-.8-.3-1.2-.4-.3-.1-.6-.1-.8.3.1.3.4.4.6.5 1 .4 2.1.9 3.1 1.2 1.7.6 3.3 1.5 4.7 2.5 1.1.8 2.2 1.5 3.5 2.2l2.7 1.5c.4.3.8.6 1.2 1 .4.5.8 1.1 1.2 1.7s.5 1.2 0 1.8c0 0-.1.1-.2.1-.3-.1-.7 0-1-.4s-.7-.5-1.1-.7c-1.1-.5-2.1-1.1-3.2-1.5-.3-.1-.5-.3-.7-.4-1.7-.9-3.4-1.8-5.2-2.5-1-.4-2-.8-2.8-1.5-.1-.1-.2-.1-.3-.2-.3-.1-.5-.1-.8.1-.4.3-.5.8-.2 1.2.2.2.4.5.6.7.6.6 1.3 1.2 1.9 1.8.5.5 1 .8 1.6 1.2.5.3 1.1.6 1.6.9 1.7 1.1 3.5 2.3 5.1 3.5.2.1.3.3.5.4 1.4.9 2.5 2.2 3.6 3.5.1.1.2.2.1.4-.1 0-.1 0-.2 0-1.6-.8-3.2-1.3-4.8-2-.3-.1-.6-.4-.9-.6-.4-.3-.8-.7-1.2-.9-1.1-.6-2.2-1.1-3.4-1.3-.2 0-.4-.1-.6-.2-.9-.4-1.7-.9-2.6-1.3-.4-.2-.7-.4-1.2-.4v.2c1.5 1.6 3.2 2.9 5.1 3.9.9.5 1.7 1 2.5 1.7.2.2.5.4.7.5 1.3.7 2.5 1.5 3.6 2.5.4.3.8.7.9 1.2s.4.9.8 1.2c.3.2.6.4.9.6.3.3.6.6.9.9.1.1.2.3 0 .5-.5 0-.5 0-.7-.1-.4-.2-.8-.4-1.3-.5s-.9-.4-1.3-.7c-.8-.6-1.6-1.2-2.5-1.6-1.2-.5-2.2-1.1-3.5-1.4-.6-.2-1.2-.4-1.7-.8-1.2-.9-2.6-1.4-3.9-2.2-.7-.2-1.3-.6-2-.8-.5-.2-1-.4-1.5-.5-.1 0-.3 0-.4 0 1.7 1.4 3.3 2.7 4.9 4.1l1.2.9c1.4.9 2.7 1.7 4.1 2.6.4.3.8.5 1 1 .2.4.5.7.7 1s.5.6.7 1c.4 1.1.9 2.1 1.1 3.3v.4c-.3-.2-.5-.4-.7-.6-1.1-1.1-2.1-2.3-3.4-3.2-.1-.1-.2-.2-.3-.2-1-.9-2.1-1.8-3.1-2.6-.4-.3-.8-.5-1.2-.9-.9-.8-1.8-1.5-2.9-2-.6-.3-1.2-.7-1.8-1.1-.2-.1-.3-.2-.5-.2-.4-.1-.7-.3-1.1-.5-.3-.2-.6-.3-.9-.5-.7-.3-1.5-.6-2.1-1-.3-.2-.7-.3-1-.4-.1-.1-.3 0-.3.2.1.1.2.2.4.4 1.3 1.2 2.6 2.3 3.9 3.5.5.5 1 1 1.6 1.5.9.7 1.7 1.5 2.4 2.4 1.3 1.6 2.5 3.2 3.7 5 .7 1.1 1.4 2.3 2.3 3.3.1.1.1.2.1.3-.4-.1-.8-.2-1.2-.3-.2 0-.4-.1-.5-.2-.1 0-.2-.1-.3-.2-1.1-.7-2.1-1.6-3.1-2.4-.1-.1-.2-.2-.3-.3-.6-.5-1.1-1.1-1.7-1.6-.4-.3-.8-.6-1.2-.7-.8-.2-1.4-.7-1.9-1.3-.1-.1-.3-.3-.4-.4-.5-.7-1.1-1.2-1.9-1.7-1.2-.7-2.2-1.6-3.1-2.6-.5-.5-1.1-1.1-1.6-1.6-.3-.2-.6-.4-1-.8.1.4.1.6.2.8.4.8.8 1.6 1.1 2.4.2.5.5 1 .9 1.4 1.2 1.3 2.3 2.6 3 4.2v.1c.4.7.7 1.4 1.1 2.1.3.7.6 1.3.9 2s.7 1.4 1 2.1c.6 1.1 1 2.3 1.7 3.3.1.1.2.3.2.5.2.9.5 1.8.5 2.8-.3 0-.5-.2-.7-.4-.5-.4-1-.8-1.4-1.3-.6-.7-1.2-1.5-1.9-2.1-.8-.8-1.3-1.7-1.7-2.7-.1-.2-.2-.4-.2-.6-.3-.7-.5-1.4-.9-2-1-1.8-2.1-3.6-3.2-5.4-.1-.1-.1-.2-.3-.1-.1.3-.2.7-.2 1 0 1.3.2 2.7.6 3.9.5 1.5.4 3 .7 4.6v.2c-.1.4 0 .8.2 1.2.2.5.3 1.1.2 1.7-.1.8-.3 1.5-.5 2.3l-.1.1c-.1-.1-.1-.1-.2-.2-.4-1.3-.8-2.5-1.4-3.7-.4-.9-.6-2-1.4-2.7-.2-.2-.2-.4-.3-.7-.1-.4-.1-.7-.2-1.1-.1-.9-.3-1.9-.4-2.8-.2-1.1-.5-2.2-.7-3.4s-.4-2.4-.7-3.7c-.1-.5-.2-1-.5-1.5-.1.1-.1.2-.1.4-.1.4-.1.8-.2 1.3-.1.4-.1.8-.1 1.2 0 .8 0 1.5-.1 2.3-.2 1.1-.1 2.2-.2 3.2 0 1.1-.1 2.2-.7 3.2-.1.2-.1.4-.1.6.1 1.3-.1 2.6-.2 3.9 0 .4-.1.9-.3 1.3-.3.8-.6 1.5-.7 2.3 0 .1-.1.2-.2.4-.4-.3-.5-.6-.5-1.1 0-1-.2-2-.1-3 .1-1.6 0-3.1-.1-4.7-.1-1.4-.3-2.8-.6-4.2-.2-.9-.2-1.8.1-2.8.1-.2.1-.5.2-.7.2-1.1.4-2.1.6-3.2.1-.4.1-.9.1-1.4 0-1.1-.2-2.1-.3-3.2-.1-.6-.2-1.2-.4-1.8-.1-.3-.2-.6-.1-.9.1-.5 0-.9-.2-1.3.3-.2.6-.1.9 0l.9.3c.8.2 1.7.4 2.5.8h.1c.1-.3.1-.6.2-.9.2-1.1 0-1.3 1.7-1.6h.1c.9-.1 1.8-.2 2.6.4.4.2.7.4 1.1.6.2.1.4.2.6 0 0-.4-.1-.8-.1-1.1 0-.6.2-1.2.7-1.6.4-.3.9-.6 1.5-.6.3 0 .6-.1 1-.1-.1-.4-.3-.8-.4-1.2-.2-.9.2-1.7 1-2.1.3-.2.7-.3 1.1-.5-.1-.1-.2-.2-.3-.2-.3-.2-.7-.3-1-.5-.9-.5-1.2-1.5-.7-2.4.5-.8 1-1.6 2-1.9.3-.1.6-.4.8-.8-.2 0-.3 0-.4 0-1.2.1-2.4.3-3.6.1-.5-.1-.8-.2-1.1-.5-.3-.4-.6-.9-.9-1.3-.2-.3-.2-.6 0-1 .1-.2.2-.5.3-.7.3-.5.5-1 .8-1.5.1-.2.1-.4-.1-.5-.1 0-.1 0-.2 0-.7.4-1.4.6-2.1.8-1.1.3-2.1 0-2.9-.7-.5-.5-1-1.1-1.3-1.8-.1-.2-.2-.3-.3-.5-.9.3-1 .5-.9 1.2s.1 1.4.2 2.1c0 .4.1.7-.2 1-.1.1-.1.2 0 .3 0 1-.2 1.9-.6 2.8-.1.3-.2.7-.2 1.1 0 1-.2 2-.6 2.9-.1.2-.2.4-.2.6-.1.4-.3.8-.6 1.1-.4.5-.8 1.1-1.1 1.7-.5.7-.9 1.5-1.6 2.1-.9.8-1.7 1.6-2.5 2.4-.3.3-.5.6-.9.8-.7-.5-1.5-.5-2.3-.6-.2-1.1-.4-2.2-.6-3.3-.2-1.3-.8-2.3-1.6-3.2s-1.7-1.6-2.4-2.5c-.4-.4-.7-.8-1.1-1.2-.2-.3-.4-.5-.6-.8-.8-.9-1.2-2-1.5-3.2-.3-1.5-.6-2.9-1.3-4.2-.5-1.1-1.1-2-1.8-2.9-.4-.5-1-.9-1.7-1.1.3.6.5 1.1.8 1.7.6 1.2.8 2.5.7 3.9-.1.8-.1 1.6 0 2.4v.8c-.1 1.9.2 3.8 1.3 5.5v.2c-.2 0-.4 0-.5 0-1.5-.3-3.1-.5-4.5998-.8-.5-.1-1-.2-1.4-.2-1.6 0-3.1-.5-4.5-1.2-.9-.5-1.9-.9-2.8-1.4-.6-.3-1.3-.7-1.9-1.1-.9-.6-1.8-1.3-2.6-1.9s-1.6-1.3-2.3-2.1c-.5-.6-1-1.1-1.5-1.7s-1-1.3-1.6-1.9c-.3-.3-.3-.7-.2-1 .1-.9 1-1.3 1.7-.8.1.1.2.3.5.2 0-.4-.1-.8-.4-1.1-.3-.4-.7-.8-1-1.2-.9-1-1.6-2-2.4-3.1-.5-.6-.4-1.2-.2-1.9.1-.3.3-.6.7-.7.6-.2 1.2-.3 1.8 0 .5.3.9.6 1.3 1 .2.2.3.4.6.5.3-.2.2-.4.1-.6-.3-.5-.7-1-1-1.5-.7-.9-1.5-1.7-2.5-2.2-.6-.4-1.3-.8-1.9-1.3-.5-.4-.5-1-.1-1.4s.9-.7 1.5-.7c.8 0 1.6.1 2.5.2 1.1.1 2.1.5 3.1.8.2.1.3.1.6.1-.2-.4-.5-.6-.8-.7-.5-.3-1-.5-1.5-.7-1-.5-2-.9-3-1.2-.8-.2-1.5-.6-2.2-1.1-.3-.2-.5-.5-.7-.8-.2-.2-.1-.5.1-.7s.5-.3.8-.2c.2.1.5.1.7.2.4-.7.4-.9-.1-1.4-.7-.7-1.5-1.3-2.3-1.9-.1-.1-.2-.1-.3-.2-1.2-.6-2.3-1.3-3.5-1.9-.9-.4-1.7-1-2.5-1.6-.2-.1-.3-.3-.4-.4-.4-.4-.6-.9-.4-1.6.1-.3.1-.6 0-1-1.2-.1-2.3-.2-3.5-.3-1.1-.1-2.3-.2-3.3-.8-.1 0-.1-.1-.2-.1-1.1-.2-2.2-.3-3.3.1s-2.1.9-3.2 1.3c-1 .5-2.1.4-3.1-.3.4-.4.7-.9 1.1-1.3 1.1-.9 2.3-1.8 3.8-2.1l1.5-.3c.5-.1 1-.1 1.5 0 .3.1.5.1.8.1.9-.1 1.8.1 2.6.4.5.1 1 .3 1.5.4 1.3.3 2.7.4 4.1.5.6 0 1.3.2 1.9.3s1.2.4 1.6.9c.2.2.4.3.7.5 1.3.7 2.7 1.2 4.1 1.5.4.1.9.2 1.4.2 1 0 2 0 3-.1.5 0 1.1-.1 1.6-.1.6-.1 1.1-.4 1.7-.1h.4c.5-.1.9-.3 1.2-.6.8-.6 1.6-1.4 2.3-2.2.3-.3.5-.7.7-1.2.4-.9.7-1.8 1-2.7.2-.5.4-1 .6-1.5.4-.9.8-1.8 1.1-2.7.4-1.2.5-2.5.7-3.7.2-1.6.4-3.2.8-4.8.2-.8.3-1.5.4-2.3.1-.9.1-1.7.2-2.6.1-1.2.2-2.4.5-3.5.2-.6.3-1.3.3-2 0-.4 0-.8.1-1.3 0-.3 0-.6.1-.9.1-.5.2-1 .4-1.5.2-.6.3-1.3.6-1.9.4-.9.6-1.8.6-2.8 0-1.4.3-2.8.6-4.2.3-1.5.6-3 .9-4.5.2-1.4.6-2.8 1.0998-4.2.3-.8.8-1.6.8-2.6 0-.1 0-.1 0-.2.4-1 .7-2.1 1.5-2.9.2-.2.3-.5.4-.7s.2-.4.3-.5c.4-.5.8-1 1.3-1.6.2-.2.3-.4.4-.6.4-1 .9-1.9 1.5-2.8.5-.7.9-1.6 1.3-2.4.7-1.4 1.4-2.9 2.1-4.3.6-1.5 1.4-2.8 2.4-4 .2-.2.3-.5.4-.8s.2-.6.3-1c.3-1.2.6-2.3 1-3.4.5-1.3.9-2.7 1.4-4 .8-2.1 1.8-4.2 2.8-6.2.6-1.1 1.3-2.1 2.2-3 .4-.4.7-.7 1.1-1.1.2-.2.4-.4.5-.6.4-.6.8-1.3 1.2-1.9.2-.3.5-.6.8-.7.1-.1.3-.1.4.1-.1.3-.2.5-.3.8-.4 1-.8 1.9-1 2.9-.3.9-.6 1.7-1.1 2.5-.3.5-.6 1.1-.8 1.6s-.4 1.1-.6 1.6c-.4.9-.8 1.7-1.2 2.5-.9 2-1.6 4.2-2.3 6.3v.1h.2c.6-.7 1.1-1.5 1.6-2.3.9-1.7 2.1-3.2 3.5-4.5 1.5-1.4 3-2.8 4.1-4.5.3-.4.7-.9 1.1-1.2.6-.5 1.2-.9 1.8-1.4.5-.4 1.1-.8 1.4-1.4 1.1-1.6 2.5-2.8 4-4 .3-.2.6-.5.8-.8.7-.9 1.4-1.7 2.2-2.6.1-.1.2-.2.3-.3s.3-.2.4 0c-.1.4-.2.8-.3 1.2-.4 1-.7 1.9-.9 2.9-.1.4-.3.8-.5 1.1-.6.8-1.3 1.5-2 2.2-.9.9-1.7 2-2.3 3.1-.3.6-.7 1.1-1.1 1.5-.6.7-1.3 1.5-2 2.1-.2.1-.3.3-.4.5-.3.4-.7.8-1 1.1-.6.5-1 1.2-1.4 1.9-.1.1-.2.2-.1.4h.3c1.9-.9 3.7-2 5.6-2.8.7-.3 1.3-.8 1.9-1.3.4-.4.9-.7 1.3-1.1.8-.7 1.8-1.3 2.4-2.2.6-.7 1.4-1.3 2.2-1.8.7-.4 1.4-.8 2.1-1.2.9-.5 1.7-.9 2.7-1.1 1.1-.3 2.2-.5 3.3-1 0 0 .1.1.2.1-.3.3-.6.6-.9.9-.2.2-.4.4-.6.6-.6.8-1.3 1.6-1.9 2.3-.7.8-1.4 1.6-2.2 2.3-1.3 1-2.5 2.2-3.6 3.3-1.4 1.4-2.9 2.6-4.5 3.7-.1.1-.1.2-.3.4 1.2-.4 2.2-.7 3.1-1.4.5-.4 1.1-.7 1.7-.9 1.5-.5 3-1 4.5-1.4.6-.2 1.2-.3 1.8-.6 1.6-.9 3.1-1.8 4.8-2.4.1-.1.3-.1.4-.2 1.3-.7 2.5-1.4 3.8-2 .2-.1.4-.2.6-.2.4-.1.8.2.9.5s0 .6-.2.8c-.3.3-.6.6-.9.9s-.6.6-.8 1c-.5 1-1.2 1.7-2.2 2.3-.6.4-1.2.7-1.8 1.1-.2.1-.5.3-.6.5-.5.6-1 1.2-1.5 1.9s-1.1 1.4-1.7 2c-.5.5-1 1-1.5 1.4-1.1 1-2.2 2-3.5 2.6 0 0-.1.1-.1.2.5.2 1 .2 1.5 0s.9-.3 1.4-.5c.7-.2 1.4-.5 2.2-.7 1.7-.4 3.3-.8 4.8-1.6.2-.1.3-.1.5-.2 1.2-.5 2.5-1 3.7-1.5 1.1-.5 2.2-.9 3.4-1.4.4-.2.9-.3 1.3-.3.3 0 .6-.1.9-.2.5-.3 1.1-.5 1.6-.8.1-.1.3-.1.4-.1.4-.1.7.2.7.7 0 .4-.2.6-.5.8-.8.4-1.4 1-2 1.6-.3.3-.6.5-.9.6-.6.4-1.3.8-1.9 1.2-.5.3-1 .6-1.5 1-1.1.8-2.1 1.6-3.4 2.1-.1 0-.2.1-.3.2-1.1.8-2.3 1.5-3.5 2.1-.3.1-.5.3-.8.5-1.7 1.1-3.5 1.9-5.5 2.4-1.3.3-2.6.7-3.9 1.1-.3.1-.6.1-.8.4.3-.1.7-.1 1-.2 1.3-.4 2.6-.7 4-1.1 1-.3 2-.5 3-.7.9-.2 1.9-.4 2.8-.5 1-.1 1.9-.3 2.8-.7 1.8-.6 3.6-1.1 5.4-1.3.8-.1 1.7-.1 2.6-.1.2 0 .4 0 .5.4-.2.2-.3.4-.5.7-.2.2-.4.5-.6.7-.5.7-1.1 1.3-1.8 1.8-.8.5-1.6 1-2.4 1.6-1 .7-2 1.1-3.2 1.3-1 .2-2 .5-2.9 1.1-.1.1-.2.1-.3.2-.8.1-1.6.2-2.4.3-.5 0-1 .1-1.5.3-.7.2-1.3.5-2 .8-.1.1-.3.1-.3.3.9.1 1.8.2 2.6.4s1.6.2 2.5.1c.6-.1 1.3-.1 1.9-.1 1.5-.1 3-.2 4.6-.3.3 0 .6-.1.9-.2.6-.1 1.1-.2 1.7-.2 1 0 2.1.1 3.1.2.3 0 .6.2.9.3s.4.4.2.6c-.5 1-1 1.9-2.1 2.4-.6.3-1.2.6-1.8.9-.5.2-1.1.4-1.6.6-.3.1-.6.2-1 .3-1.1.4-2.3.6-3.5.8-.2 0-.5.1-.7 0-1.3-.3-2.5-.1-3.7.1-1.4.3-2.7.6-4.1.8-.1 0-.2.1-.4.1-.3.1-.7.1-1 .2-.4.1-.8.2-1.1.4-.7.3-1.4.6-2.2.7-.5.1-.9.1-1.4.2-.6.1-1 .3-1.4.6.1 0 .3.1.4.1.7 0 1.3 0 2-.3.6-.2 1.1-.2 1.7-.3h1.1c1.1-.1 2.1-.1 3.2-.2.7-.1 1.4-.2 2.1-.2 2-.1 4-.1 6 .3.2 0 .4.1.6 0 2-.1 3.9.4 5.9.6.4 0 .7.2.8.6-.4.5-.9 1-1.4 1.3-.3.2-.7.4-.9.7-.5.5-1.2.9-1.9 1.1-1.6.5-1.2.5-3 .2-.9-.2-1.9-.3-2.8-.5-.1 0-.2 0-.3 0-1.8 0-3.6.1-5.4.1-1.4.1-2.9.2-4.3.2-.7 0-1.4.2-2.1.5-1.1.5-2.2.8-3.3 1.1-.6.1-1.2.4-1.8.6-.1 0-.2.1-.1.3 1.5-.1 3-.1 4.5-.2 4.7-.4 9.4-.2 14 .6l1.5.3c1 .3 2.1.5 3.1.5.5 0 .9.1 1.3.3.2.1.4.2.4.5-.3.6-.9 1-1.4 1.4-.7.6-1.4 1.2-2.2 1.6-.3.1-.6.2-.9.2-.5-.1-1-.2-1.5-.2-.8 0-1.6-.1-2.5-.1-1.2.1-2.4 0-3.5-.1-1-.1-2-.3-3-.5-.7-.1-1.5-.3-2.3-.3-1.1 0-2.2.1-3.3.1-.2 0-.4 0-.6.1-.1 0-.2.1-.4.3 1.9.1 3.6.4 5.3.7 2.4.5 4.7.9 7.1 1.3 1.4.2 2.8.7 4.1 1.2.1 0 .2.1.3.1.3.2.5.5.5.9s-.2.6-.5.8c-.2.1-.5.2-.8.3-.5.2-1 .3-1.5.5s-1.1.4-1.7.5c-1.8.1-3.6.2-5.4.2-.6 0-1.1 0-1.7 0 0 .2.2.3.3.3 1.1.4 2.2.8 3.4 1.1 1.2.4 2.3.9 3.4 1.6.9.6 1.9 1.3 2.8 1.8.6.4 1.1.8 1.5 1.3.1.1.2.3.3.5-.3.1-.6.2-.8.3-.6.2-1.2.2-1.7-.3-.1-.1-.2-.1-.3-.2-1.2-.6-2.4-1.2-3.7-1.6-1.4-.5-2.7-1-4.1-1.4-.8-.2-1.5-.4-2.3-.5-.6-.1-1.1-.3-1.7-.4-.1 0-.3 0-.4 0 .1.1.1.2.1.2.5.3 1 .5 1.5.7 1.2.5 2.3 1.1 3.5 1.6.8.4 1.5.7 2.3 1.1 1.4.7 2.7 1.4 4 2.2.4.3.8.6 1 1 .3.6.6 1.1.9 1.7.1.1.1.2.1.3-.1 0-.1.1-.2.1-1-.2-2-.2-3-.7-1.5-.7-3-1.3-4.5-1.9-.4-.2-.9-.3-1.3-.5-.4-.1-.4 0-.6.5.5.5 1.1.9 1.6 1.4.7.7 1.4 1.2 2.3 1.7 1.1.6 2.2 1.4 3.1 2.3.3.3.6.5.9.8.6.6 1.3 1.2 1.8 1.9.1.1.1.3.1.4-.6 0-1 .1-1.5.1-.7.1-1.3-.1-1.8-.4-.8-.4-1.6-.8-2.4-1.1-.5-.2-1-.3-1.5-.4-.2-.1-.4-.1-.6-.2-1.8-1-3.8-1.8-5.7-2.5-.2-.1-.3-.1-.6-.2.1.4.2.7.6.8 1.2.4 2.3.9 3.4 1.6 1.5 1 3.1 1.9 4.7 2.8 2 1.2 3.4 3 4.3 5.1.1.2.1.3.1.6-.6-.2-1.1-.5-1.6-.6-.6-.2-1.1-.2-1.7-.3h-.1c-1.4-.4-2.9-.8-4.3-1.3-1.3-.4-2.7-.9-4-1.3-.3-.1-.5-.2-.9-.2.3.2.5.3.8.4 1.6.8 3.2 1.6 4.7 2.7.6.4 1.2.8 1.8 1.1 1.6.8 3 1.9 4.3 3.1.4.3.7.8.9 1.2.1.2.2.4.2.7 0 .4-.3.7-.7.6-.3-.1-.5-.2-.8-.3-.9-.5-1.8-.9-2.8-1.4-.5-.2-.9-.5-1.4-.7-1.7-.7-3.3-1.3-4.9-2.2-.2-.1-.4-.2-.7-.3-.1 0-.3 0-.4-.1.4.4.9.6 1.3.9s.8.5 1.2.8c.9.8 1.8 1.5 2.7 2.1.5.3 1 .7 1.4 1.2.7 1 1.5 1.9 2.3 2.7.2.2.3.4.4.6.1.3-.1.6-.5.6-.2 0-.5-.1-.7-.3-.7-.5-1.4-.8-2.2-1.1-.5-.2-.9-.4-1.4-.6-1.2-.5-2.3-1.1-3.6-1.4-1.7-.5-3.4-1-5-1.6-.1 0-.2 0-.4-.1-.1.2-.1.3-.1.4 0 0 0 .1.1.1.2.1.5.2.8.3.9.3 1.7.6 2.6.9 1.5.6 2.8 1.5 4.1 2.5.8.6 1.6 1.3 2.5 1.8s1.6 1.2 2.2 2c.1.2.3.3.3.5.5 1.2.9 2.4 1.3 3.7.1.4.2.9.1 1.4-.2 0-.4 0-.5-.1-.6-.3-1.2-.5-1.7-.8-.2-.1-.5-.3-.7-.4-1.1-.8-2.3-1.4-3.6-1.9-1.1-.4-2.2-.8-3.2-1.2-.7-.3-1.5-.5-2.2-.8.1.2.2.3.3.3.5.3 1.1.6 1.6.9.8.5 1.6 1 2.2 1.8.4.5.8.9 1.4 1.2.3.2.7.4 1 .6.7.5 1.4.9 1.9 1.7.1.2.3.3.5.4 1 .7 1.7 1.8 2.1 2.9.1.1.1.3.1.5-.2 0-.4.1-.5.1-.6.1-1.2.1-1.8.2s-1.3.1-1.9 0c-.6-.2-1.2-.3-1.8-.6-.8-.3-1.7-.7-2.6-.9-.1 0-.3-.1-.4-.2-1.3-.6-2.6-1.2-3.7-2.2-.3-.3-.6-.6-1-.8-.5-.5-1.1-.9-1.8-1.2-.5-.2-1-.5-1.5-.7-.5-.3-1-.5-1.6-.7-1-.4-2-.8-2.8-1.5-.2-.1-.4-.2-.6-.3-.1-.1-.2-.2-.4 0 .2.2.4.3.7.5 1 .7 2.1 1.4 3.1 2.1.6.4 1.3.9 1.6 1.6.1.2.2.3.4.4.9.9 1.9 1.7 2.8 2.6 1 .9 1.9 1.9 2.7 3.1.3.5.7.9 1 1.4.2.3.4.5.6.8.5 1 1 2.1 1.3 3.2.1.2.1.5.2.7-.2 0-.3 0-.4-.1-.6-.2-1.1-.2-1.7-.2-.4 0-.9 0-1.3-.1-2.2-.7-4.4-1.5-6.3-2.9-.3-.2-.5-.4-.8-.7-.7-.9-1.6-1.6-2.4-2.4-1-.9-2-1.6-3.2-2.2-.6-.3-1.2-.6-1.8-.9-.9-.5-1.9-.9-2.9-1.2-.1 0-.2 0-.3 0 .1.1.1.2.2.2.3.2.5.3.8.4 1.7.9 3.3 1.9 4.6 3.3.8.8 1.6 1.6 2.6 2.3.8.5 1.3 1.2 1.7 2.1.6 1.4 1.4 2.8 2.3 4.1.3.5.7.9 1.1 1.2.4.4 1 .7 1.5 1.1.2.1.3.2.6.4-.3.1-.4.1-.6.2-1 .3-2.1.1-3.1 0-.4 0-.7-.1-1.1-.2-.8-.3-1.7-.4-2.5-.9-.1-.1-.3-.2-.5-.3-1-.6-1.9-1.3-2.6-2.3-.3-.4-.6-.8-.9-1.2-.9-1.2-2-2.3-3.2-3.2-.3-.2-.6-.5-.9-.8-1.7-1.7-3.8-2.8-6-3.6-.2.2-.2.4 0 .5.3.3.5.5.8.7.5.4 1 .7 1.5 1 .9.7 1.7 1.4 2.3 2.4.2.4.6.7.9 1 .2.2.3.3.5.5s.4.4.6.7c.5.6 1.1 1.2 1.5 1.9.3.5.5 1 .8 1.4.5.7.9 1.4 1.5 2.1 1.3 1.4 2.8 2.5 4.6 3.3 1 .5 2 .9 3 1.3.6.2 1.2.4 1.9.3 1-.1 2.1.1 3.1.3.4.1.8.1 1.2 0 .8-.1 1.6-.3 2.4-.5 1.2-.3 2.3-.7 3.4-.9s2.2-.5 3.2-.9c.3-.1.7-.2 1.1-.3.3-.1.6-.1.9-.2 1.6-.5 3.3-.8 4.9-.8.8 0 1.5.1 2.2.5.5.3 1.1.7 1.6 1 .6.4.8 1.1 1.1 1.8-.2 0-.4 0-.5 0-1.2-.3-2.4-.2-3.5-.2-.2 0-.4 0-.6 0-.9-.1-1.8.1-2.7.3-1 .2-2 .4-3.1.6-1.5.2-3 .4-4.4.5-.2 0-.4.1-.5.2-.1 0-.2.2-.2.3.1.1.1.1.2.1 1 .1 2.1.3 3.1.4.8.1 1.6.1 2.3.5.7.3 1.5.5 2.3.6 2.2.3 4.3 1.1 6.2 2.3.8.5 1.6.9 2.4 1.4.2.1.3.2.5.3.6.5 1.2.8 1.9 1.1.4.2.7.3 1.1.5-.7-.6-.6-.5-.6-.3h.1c.1 0 0 0-.1 0 .1 0 .1-.1 0 0zm-121.0998 3.6c-.5.1-1 .2-1.4.3-1 .2-2 .4-2.9.9-.2.1-.4.2-.5.3-.8.9-1.7 1.7-2.5 2.7-.7.9-1.6 1.5-2.6 2.1-.3.2-.7.3-1 .4s-.7 0-.9-.3-.3-.6-.1-.9.5-.5.7-.8c.2-.2.4-.3.5-.5.8-1.6 1.7-3.1 2.6-4.7.5-.8.9-1.6 1.7-2.1l.2-.2c.3-.3.3-.6.2-.9s-.4-.5-.8-.5c-1.6 0-3.2.2-4.7.6-.7.2-1.3.4-2 .5-.5-.8-.5-.8 0-1.5.6-.7 1.2-1.2 2-1.7.4-.2.8-.5 1.2-.9-.2-.1-.3-.1-.4-.1-1.4-.1-2.7-.5-4-.9-.3-.1-.6-.1-.9-.2-.5-.3-1.1-.4-1.7-.4-.1 0-.2-.1-.4-.2.4-.4.7-.6 1.1-.7.8-.3 1.5-.6 2.4-.9 1.4-.4 2.8-.6 4.2-1 1-.2 2-.4 3-.8.9-.4 1.9-.7 2.8-1.1.2-.1.3-.1.5-.1 1.5-.4 3.1-.5 4.6-.5 1.4 0 2.7-.1 4.1-.3.7-.1 1.4-.2 2.1-.2 1.5-.1 3.1-.3 4.6-.9 1-.3 2-.6 2.9-1.1.2-.1.4-.1.6-.2 1.4-.4 2.8-.6 4.2-.7 2.2-.1 4.5-.2 6.7-.4.4 0 .8-.1 1.3-.1s1-.1 1.5-.1c1 .2 2 .2 2.9.6.2.1.4.1.5.3.6.6 1.2 1.3 1.8 1.9 1.1 1.1 1.8 2.5 2.7 3.8.1.1.2.3.2.5.3 1 .9 1.8 1.6 2.4.3.3.6.6.8.9.1.2.2.4.3.6.2 1.3.8 2.4 1.4 3.5.8 1.5 1.7 3.1 2.2 4.8.2.6.3 1.3.5 1.9.2.7.3 1.4.1 2.1v.3c0 .7-.3 1.4-.5 2-.1.3-.3.5-.6.6-.5.1-.9 0-1.3-.3-.7-.4-1.2-.9-1.7-1.5-.4-.5-.9-1.1-1.3-1.6-.3-.3-.5-.7-.9-.9-.1.4-.1.7 0 1 .1.9.1 1.9.2 2.8 0 .5-.1.9-.3 1.4-.2.6-.6.9-1.2.9-.7 0-1.2-.2-1.6-.7-.2-.3-.5-.6-.8-.9-.2-.3-.5-.6-.7-.9-.3-.5-.6-1-1-1.4-.1-.1-.2-.2-.4-.4-.2.4-.2.4-.2.6.1.6.2 1.1.2 1.7 0 1.4-.2 2.7-.5 4-.1.6-.5 1.1-.9 1.5-.4.3-.9.4-1.4.2-.6-.3-1.1-.7-1.4-1.3-.4-.7-.8-1.4-1.2-2.1-.1-.2-.2-.3-.3-.4s-.3-.1-.4 0c-.1 0-.1.2-.2.3v.6c.1.8 0 1.6-.3 2.4-.3 1-1 1.6-2.1 1.7-.2 0-.4 0-.6-.1-.4-.3-.9-.5-1.1-1-.4-.9-.8-1.8-.9-2.8 0-.2 0-.4-.2-.5-.3.2-.4.5-.6.8-.7 1.3-1.7 2.3-2.9 3.1-.8.5-1.9.3-2.4-.4-.4-.6-.7-1.2-.8-1.9-.2-1.2-.3-2.3-.4-3.5 0-.2-.1-.4-.1-.6-.4-.1-.6 0-.7.3-.2.8-.7 1.4-1.1 2.1-.2.4-.5.7-.9 1-.7.6-1.4 1.1-2.2 1.7-.2.2-.5.3-.8.4-.2.1-.4 0-.5-.1-.6-.5-1-1.1-1.1-1.9-.1-.6-.2-1.1-.3-1.7-.1-.4-.1-.7-.2-1.1-.1-1-.2-2-.3-3 0-.2 0-.4-.1-.6-.1-.3-.4-.4-.6-.2s-.4.5-.6.7c-.4.6-.8 1.1-1.3 1.5-.6.5-1.1.9-1.7 1.3-.8.6-1.7 1-2.6 1.5-.4-.4-.4-.5-.3-.9.4-1.4.5-2.7.5-4.1 0-.1 0-.1 0-.2 0-.8.1-1.6.4-2.4.8-.6 1-1.4 1.3-2.2zm61.2998 6.5c0 .1-.1.3-.1.4-.2.3-.3.6-.5.8-.4998.7-.7998 1.5-1.4998 2.2-.2.6-.6 1-.9 1.4-.5.7-1.1 1.4-1.3 2.4 0 .2-.2.4-.3.6-.4.6-1 .9-1.7.9-.6 0-1-.4-1.4-.9-.1-.2-.2-.4-.2-.7-.1-.2-.1-.4-.1-.6-.1-.2-.1-.5 0-.7.3-.6.5-1.3.7-2 .2-.5.4-1.1.5-1.6.2-.9 0-1.3-.8-1.7-.6-.3-1.1-.6-1.6-1.1-.8-.7-1.7-1.5-2.5-2.2-.9-.8-1.7-1.8-2.3-2.8-.1-.1-.2-.2 0-.4.7.4 1.4.8 2.2 1.2 1.1.6 2.3 1.3 3.4 1.9.7.4 1.3.7 2.1.9.3.1.5.2.7.3.5.3 1 .5 1.5.5 1.3.2 2.6.8 3.8998 1 .1.1.2.1.2.2zm-40.9998-47c.5-.2.9-.1 1.2-.1.8 0 1.5.4 2.1.9s.7 1 .5 1.6c-.8 2-2.7 3-5.1 2.1-.1 0-.2-.1-.3-.2-.3-.3-.7-.6-1-.9-.4-.4-.5-1-.4-1.6.3-.8.9-1.2 1.7-1.4 0 .1-.1.1-.2.2s-.2.2-.3.3c-.7.9-.7 1.6.1 2.4l.1.1c.3.3.7.5 1.2.4.3-.1.7-.1 1-.1 1.3-.3 1.3-.3 1.9-1.4.4-.6.3-1.1-.2-1.6-.6-.5-1.3-.9-2.1-.8.1.2 0 .1-.2.1zm-10.5 3.5c0-.2-.1-.4-.1-.5-.1-.6.1-1.1.7-1.3.1 0 .2-.1.3-.2.3-.2.6-.3.9-.2s.5.2.8.2c.4.1.7.4.8.8.1.2.1.5.1.7.1.9-.2 1.2-1.1 1.2-.1 0-.1 0-.2-.1-.2-.6-.3-.7-.6-.7-.4 0-.6.3-.6.7-.3-.2-.6-.4-1-.6zm1.7 6.7c.3-.9.9-1.6 1.6-2 .3-.1.6-.3.8-.3.4-.1.8.1 1 .4.3.6.4 1.2.1 1.8-.1.2-.2.4-.5.4-1 .3-2 .4-3-.3zm-2.5-1.2c.1-.5.1-.8.1-1.1.2-.8.5-1.6 1-2.3.2-.3.4-.4.8-.3h2 .3v.2c-.5.8-1.2 1.5-2 1.9-.6.3-1.2.7-1.7 1.2-.1.1-.2.2-.5.4zm12.3-7.6c-.2.4-.4.4-.7.5-.1 0-.2 0-.3-.1-.1 0-.1-.1-.1-.2 0 0 0-.1.1-.1.3-.2.6-.3 1-.1z" fill="#fff"/><path d="m237 112v-21.7c0-6.2-3.3-9.1-8.9-9.1-4.6 0-8.6 2.7-10.4 5.4-1.1-3.4-3.9-5.4-8.4-5.4-4.6 0-8.6 2.9-9.9 4.6v-3.8h-7.9v30h7.9v-20.3c1.2-1.6 3.5-3.5 6.2-3.5 3.2 0 4.5 2 4.5 4.8v19h8v-20.3c1.1-1.6 3.4-3.5 6.2-3.5 3.2 0 4.5 2 4.5 4.8v19zm32.7 0v-19.4c0-8.6-6.3-11.4-13.2-11.4-4.7 0-9.5 1.4-13.2 4.7l3.1 5.5c2.5-2.3 5.5-3.5 8.7-3.5 4 0 6.6 2 6.6 5v3.8c-2-2.4-5.5-3.7-9.6-3.7-4.8 0-10.4 2.6-10.4 9.7 0 6.7 5.6 9.9 10.4 9.9 3.9 0 7.5-1.4 9.6-3.9v3.2h8zm-14.4-4.6c-3.1 0-5.7-1.6-5.7-4.5s2.6-4.5 5.7-4.5c2.6 0 5.1.9 6.4 2.7v3.7c-1.3 1.7-3.8 2.6-6.4 2.6zm37.3 4.6 12.1-30h-8.5l-7.9 20.9-7.9-20.9h-8.5l12.1 30zm28.7.7c4.7 0 9.4-1.4 12.4-4.2l-3.6-5.2c-1.9 1.9-5.4 2.9-8 2.9-5.1 0-8.1-3-8.7-6.7h22.4v-1.9c0-9.8-6.1-16.5-15.1-16.5-9.1 0-15.6 7-15.6 15.7 0 9.8 7 15.9 16.2 15.9zm6.9-18.6h-14.9c.3-3 2.4-6.4 7.4-6.4 5.3 0 7.3 3.5 7.5 6.4zm20.1 17.9v-19.8c1.3-1.9 4.8-3.4 7.4-3.4.9 0 1.6.1 2.2.2v-7.7c-3.8 0-7.4 2.2-9.6 4.8v-4h-7.9v30h7.9zm17.3-33.3c2.6 0 4.8-2.1 4.8-4.7s-2.1-4.7-4.8-4.7c-2.6 0-4.7 2.1-4.7 4.7s2.1 4.7 4.7 4.7zm4 33.3v-30h-7.9v30zm20.6.7c6.2 0 9.9-2.7 11.9-5.5l-5.2-4.8c-1.4 2.1-3.6 3.3-6.4 3.3-4.8 0-8.2-3.5-8.2-8.8 0-5.2 3.4-8.7 8.2-8.7 2.7 0 4.9 1.1 6.4 3.2l5.2-4.8c-2-2.7-5.7-5.4-11.9-5.4-9.2 0-16 6.5-16 15.7 0 9.3 6.8 15.8 16 15.8zm45.4-.7-12.3-16.4 11.9-13.6h-9.7l-11.5 13.3v-24.8h-7.9v41.5h7.9v-7.7l3.6-3.9 8 11.6zm29.4 0v-41.5h-3.3v16.3c-2.4-3.4-6.2-5.6-10.5-5.6-8 0-13.4 6.3-13.4 15.8 0 9.6 5.4 15.7 13.4 15.7 4.5 0 8.4-2.4 10.5-5.5v4.8zm-13.2-2.2c-6.7 0-10.6-5.5-10.6-12.8s3.9-12.9 10.6-12.9c4.3 0 8.2 2.5 9.9 5.5v14.9c-1.7 2.8-5.7 5.3-9.9 5.3zm23.7-32.6c1.4 0 2.5-1.1 2.5-2.5s-1.1-2.4-2.5-2.4c-1.3 0-2.5 1.1-2.5 2.4 0 1.4 1.2 2.5 2.5 2.5zm1.7 34.8v-30h-3.2v30zm20.8 12.2c7.3 0 13.6-3.3 13.6-12.4v-29.8h-3.3v4.8c-2.4-3.4-6.2-5.6-10.5-5.6-8 0-13.4 6.2-13.4 15.7 0 9.6 5.4 15.7 13.4 15.7 4.5 0 8.4-2.5 10.5-5.7v4.8c0 6.8-4.8 9.5-10.2 9.5-4.6 0-7.4-1.1-10.1-4.2l-1.9 2.6c3.5 3.6 6.8 4.6 11.9 4.6zm.3-14.5c-6.7 0-10.6-5.5-10.6-12.7 0-7.3 3.9-12.8 10.6-12.8 4.2 0 8.2 2.5 9.9 5.5v14.6c-1.7 2.8-5.7 5.4-9.9 5.4zm23.7-32.5c1.4 0 2.5-1.1 2.5-2.5s-1.1-2.4-2.5-2.4c-1.3 0-2.5 1.1-2.5 2.4s1.2 2.5 2.5 2.5zm1.6 34.8v-30h-3.2v30zm15.5.7c2.5 0 3.9-.7 5.1-1.9l-1.2-2.5c-.7.7-1.9 1.4-3.4 1.4-2.1 0-3.1-1.7-3.1-4.1v-20.8h6.1v-2.8h-6.1v-8.2h-3.3v8.2h-5v2.9h5v21.4c-.1 4 1.9 6.4 5.9 6.4zm31.8-.7v-21.1c0-6.7-4.9-9.6-11-9.6-5 0-8.5 1.7-11.6 5l1.8 2.2c2.8-3.1 5.7-4.4 9.5-4.4 4.4 0 8.1 2.4 8.1 6.9v6.1c-2.6-2.9-6.1-4.3-10.2-4.3-5.2 0-10.6 3.4-10.6 9.9s5.4 10 10.6 10c4.2 0 7.6-1.4 10.2-4.3v3.5zm-12.4-1.8c-4.9 0-8.2-3.2-8.2-7.4 0-4.3 3.3-7.5 8.2-7.5 3.6 0 7 1.4 9.1 4.2v6.6c-2.1 2.7-5.5 4.1-9.1 4.1zm24.5 1.8v-41.5h-3.2v41.5z" fill="#fff"/><path d="m196.9 141.4c2.4 0 4.3-1 5.6-2.5v-5h-6.1v2.9h2.9v1c-.5.4-1.4.8-2.3.8-2.1 0-3.5-1.6-3.5-3.7s1.5-3.7 3.5-3.7c1.2 0 2.2.8 2.7 1.6l2.7-1.4c-.9-1.6-2.6-3.1-5.4-3.1-3.8 0-6.9 2.5-6.9 6.5-.1 4.1 3 6.6 6.8 6.6zm21.6-.3-4.8-12.6h-4.1l-4.8 12.6h3.7l.6-1.8h5l.6 1.8zm-5.3-4.6h-3.2l1.6-4.8zm22.5 4.6v-12.6h-4.5l-2.6 7-2.7-7h-4.5v12.6h3.3v-8.3l3.2 8.3h1.4l3.2-8.3v8.3zm13.5 0v-2.8h-6v-2.1h5.9v-2.8h-5.9v-2h6v-2.8h-9.3v12.6zm16.8.3c3.1 0 4.7-1.8 5.5-3.4l-2.8-1.3c-.4 1-1.5 1.8-2.7 1.8-2.1 0-3.5-1.6-3.5-3.7s1.5-3.7 3.5-3.7c1.2 0 2.3.8 2.7 1.8l2.8-1.3c-.8-1.6-2.5-3.4-5.5-3.4-3.9 0-6.9 2.6-6.9 6.5 0 4 3 6.7 6.9 6.7zm20.7-.3v-12.6h-3.3v4.7h-5.3v-4.7h-3.3v12.6h3.3v-5.1h5.3v5.1zm16.5 0-4.8-12.6h-4.1l-4.8 12.6h3.7l.6-1.8h5l.6 1.8zm-5.3-4.6h-3.2l1.6-4.8zm19.9 4.6v-12.6h-3.3v6.9l-5.1-6.9h-3.4v12.6h3.3v-7.3l5.4 7.3zm10.4.3c2.4 0 4.3-1 5.6-2.5v-5h-6.1v2.9h2.9v1c-.5.4-1.4.8-2.3.8-2.1 0-3.5-1.6-3.5-3.7s1.5-3.7 3.5-3.7c1.2 0 2.2.8 2.7 1.6l2.7-1.4c-.9-1.6-2.6-3.1-5.4-3.1-3.8 0-6.9 2.5-6.9 6.5 0 4.1 3 6.6 6.8 6.6zm18.8-.3v-2.8h-6v-2.1h5.9v-2.8h-5.9v-2h6v-2.8h-9.3v12.6zm14.6 0-2.6-4.6c1.2-.4 2.5-1.6 2.5-3.8 0-2.3-1.6-4.2-4.4-4.2h-6.4v12.6h3.3v-4.2h1.7l2.1 4.2zm-5-7h-2.6v-2.7h2.6c.9 0 1.6.5 1.6 1.3 0 .9-.7 1.4-1.6 1.4z" fill="#fff"/><path d="m85.2 361.5c0-.6-.1-1.1-.1-1.7-.2-1.4-.7-2.7-1.4-3.9 0-.1-.8-1.2-1.2-1.8 0-.4.1-.8.1-.9.2-1.5-.3-2.8-1.1-3.9-.3-.5-.6-1-1.1-1.5-.8-.8-1.8-1.4-3-1.7-2.2-1.3-5.1-1.6-7.2-.1-3.8 2.8-7.7 5.2-11.8 7.4-2.5 1.3-4.8 2.8-6.4 5.1-.3.5-.6 1-.8 1.5-1.8 1.2-3.5 2.5-5 4-2.8 2.6-2.5 7.1 0 9.8 1.1 1.2 2.9-.3 4.5-.9 2.2 1.8 5.6 2.2 8 .7.4-.2.8-.5 1.1-.8.6.8 1.3 1.6 2.1 2.1 3.3 2.1 7.4.5 9.5-2.5.6-.9 1-1.9 1.3-3 0 0 0 0 .1-.1.4-.3.7-.6 1-.9l.2.2c2.8 2.7 7 2.6 9.8 0 1.6-1.8 2.1-4.6 1.4-7.1zm-2.9-7v-.1z" fill="#3b5fac"/><path d="m79.6997 344.7c-.9-3.8-5-5.6-8.5-4.8-4.2.9-8 1.6-11.8 2-4.2.4-8.4.3-12.6.7-4.6.4-8.4 1.7-12.6 3.5-.3.1-.6.3-.9.4-.1 0-.3.1-.6.2-.8.3-1.7.6-2.5.9-.2.1-1.8.4-1.8.5-.7 0-1.4 0-2.1 0-3.9-.4-9.6 3.8-6.1 4 9.3.4 1.5 6.1 5.1 6.5 1.7.2 3.6.6 5.5.9-1.4 3.4-6.7 7.6-3.6 7.4 2.4-.1 6.2-2.9 9.7-4.4.1.2.2.4.4.7.8 1.5-.9 5.4.2 6.5 1.2 1.3 5.3-.2 7.3 1.4 1.2.9 2.6-1.1 4-2 .8-.3 1.5-.8 2.2-1.5.4-.5.7-.9 1.1-1.4.2-.3.4-.7.5-1.1 1.9-1.1 3.9-2.1 5.4-2.5 3.4-.7 5.2-4.2 5-7.4 4-.5 8-1.2 12-2.1 3.6-.7 5.5-4.9 4.7-8.4zm-32.2 24.8.3-.1h.1z" fill="#7b2985"/><path d="m138.4 251.5c-.1 0-.2 0-.3 0v.1c.1 0 .2-.1.3-.1z" fill="#231f20"/><path d="m59.1002 318.6c-.2.3-.4.4-.7.6-.3.3-.5.8-.6 1.2-.1.3 0 .6.1.8.3.4.5.7.9 1 .2.1.3.1.5.1.7 0 1.4-.2 2.1-.4.2 0 .3-.1.4-.3.3-.4.5-.7.7-1.1s.1-.9-.2-1.2-.5-.5-.9-.6c-.2-.1-.4-.1-.5-.3-.5 0-1.1 0-1.8.2zm1.4.9h.3c.1 0 .2.2.1.3-.2.3-.5.5-.9.5-.2 0-.3-.1-.3-.3s.1-.3.2-.4c.2-.1.4-.1.6-.1z" fill="#231f20"/><g fill="#fff"><path d="m50.6998 324.2h2 .3v.2c-.5.8-1.2 1.5-2 1.9-.6.3-1.2.7-1.7 1.2-.1.1-.2.2-.5.4.1-.5.1-.8.1-1.1.2-.8.5-1.6 1-2.3.3-.3.5-.3.8-.3z"/><path d="m53.0998 321.2c.1.2.1.5.1.7.1.9-.2 1.2-1.1 1.2-.1 0-.1 0-.2-.1-.2-.6-.3-.7-.6-.7-.4 0-.6.3-.6.7-.4-.2-.7-.3-1-.5 0-.2-.1-.4-.1-.5-.1-.6.1-1.1.7-1.3.1 0 .2-.1.3-.2.3-.2.6-.3.9-.2s.5.2.8.2c.5 0 .7.3.8.7z"/><path d="m58.9995 319.5c0 .1-.1.1-.2.2s-.2.2-.3.3c-.7.9-.7 1.6.1 2.4l.1.1c.3.3.7.5 1.2.4.3-.1.7-.1 1-.1 1.3-.3 1.3-.3 1.9-1.4.4-.6.3-1.1-.2-1.6-.6-.5-1.3-.9-2.1-.8-.1 0-.2 0-.4 0 .5-.2.9-.1 1.2-.1.8 0 1.5.4 2.1.9s.7 1 .5 1.6c-.8 2-2.7 3-5.1 2.1-.1 0-.2-.1-.3-.2-.3-.3-.7-.6-1-.9-.4-.4-.5-1-.4-1.6.4-.8 1-1.2 1.9-1.3z"/><path d="m61.1996 320.3c-.2.4-.4.4-.7.5-.1 0-.2 0-.3-.1-.1 0-.1-.1-.1-.2 0 0 0-.1.1-.1.3-.2.6-.3 1-.1z"/><path d="m52.9002 327.1c.3-.1.6-.3.8-.3.4-.1.8.1 1 .4.3.6.4 1.2.1 1.8-.1.2-.2.4-.5.4-1.1.2-2.1.3-3.1-.4.4-.8 1-1.5 1.7-1.9z"/></g><path d="m158.1 244.6v-.1h.1c.1 0 0 0-.1.1z" fill="#231f20"/><path d="m142.6 239.4c-.4.1-.8.3-1.2.4 1-.4 2-.8 3-1.3-.8.3-1.5.7-2.2 1.1-.4.2-.7.4-1.1.7-1 .7-.7.5 1-.8-1 1.2-2.3 2.2-3.3 3.4-.6.7-.3.3 1-1.3-.3.3-.5.7-.7 1-.5.7-.9 1.4-1.4 2.2-.9 1.6-1.7 3.2-2.4 4.8.4-1 .8-2 1.3-3-2.7 6.5-4.6 13.3-7.5 19.7-2.4 5.5-5.8 10.4-8.2 15.9.4-1 .8-2 1.3-3-1.4 3.3-2.2 6.6-2.7 10.1l.4-3.3c-1.1 7.9-.9 15.8-2.3 23.7-1.4 7.8-5 15.9-11 21.3-6.9 6.2-15.4 9.1-24.6 10-8.4.8-16.3.9-24.5-.8 1.1.2 2-.6 3.1-.4-.3-.1-1-1.2-1.3-1.2 1.1-.2 2.7 1 3.8.9-.5.1 4.8-.3 4.3-.1 1-.4-.8-1.9.2-2.4 1.2-1.2-1-2.2.3-3.5.6-2.1 1.1-4.2 1.7-6.3v.3c-.6-2.1-1.1-4.2-1.7-6.3l.2.4c1.5 3.1 2.2 6.2 1.3 9.7-.8 2.9 4.1 5.9 1.3 7.3-2 1-5.4-2.2-5.6-4.2-.2-2.2-4.1-3.2-6.2-4.7-1.3-.9-11.1 1.8-11.8.2-1-2.2 2.5-.6 1.8-3-1.7-5.5-.5-7 1.8-9.5 2.8-2.9 4.7-3.9 8.8-3.9 5 .1 10 1.8 15 2.5-1.1-.2-2.2-.3-3.3-.4 4 .5 8.1.7 12.1.2l-3.3.4c2.7-.4 5.2-1 7.7-2-1 .4-2 .8-3 1.3 1.2-.5 2.4-1.1 3.5-1.8.5-.3 1.1-.8 1.6-1.1-1.7 1.3-2 1.6-1 .7.2-.2.5-.4.7-.7.5-.5.9-1 1.3-1.5.8-.9-1.9 2.7-.4.4.8-1.2 1.4-2.5 2-3.8-.4 1-.8 2-1.3 3 1.3-3.3 2.1-6.8 2.6-10.4l-.4 3.3c1.1-8.8-.4-20.8 2-29.5s9-13 12.5-21.3c-.4 1-.8 2-1.3 3 3.2-7.8 4-17 9.4-23.5 22.3-27.4-.2 3.9 7 .5 1-.5 18.2-19.3 19.3-19.7 3.3-1.2-11.4 20.2-8.7 17.8 3.8-3.3 16.9-13.4 15.7-10.6-2.6 5.9 0 16.7-6.6 19.1z" fill="#ed1c24"/><path d="m149.8 253.1-.6-.1 3.3.4c-.8-.1-1.6-.1-2.4 0l3.3-.4c-1 .1-2 .4-2.9.8l3-1.3c-.9.4-1.6.9-2.4 1.3-1.2.6 2-1.8 1.1-.8-.4.4-.8.7-1.1 1.1-.1.1-.8 1-.8.9.3.1 1.7-2.6.9-1-.5 1-1.1 2-1.6 3 .4-1 .8-2 1.3-3-1.2 2.9-1.8 6-2.2 9.1l.4-3.3c-1.9 14.8-3.7 29.4-7 43.9-1.6 7-3 14.6-6.6 20.8-5 8.5-15.3 14.1-25.2 11.1-6.3-2-10.8998-8.8-8.8-15.4 2-6.3 8.7-10.9 15.4-8.8.4.1.8.2 1.2.3l-3.3-.4c.8.1 1.5.1 2.4 0l-3.3.4c.8-.2 1.5-.4 2.3-.7-1 .4-2 .8-3 1.3.5-.2 1.1-.7 1.6-.9-1.7 1.4-2.1 1.6-1.1.8.2-.2.4-.4.6-.7.6-.7.3-.3-.9 1.2.2-.3.4-.6.5-.9.4-.7.7-1.4 1.1-2.1-.4 1-.8 2-1.3 3 2.7-6.6 4-13.9 5.5-20.8 1.6-7.4 2.8-14.9 3.9-22.4l-.4 3.3c1.3-10 1.5-20.2 5.9-29.5 2.2-4.7 6.1-8.6 10.4-11.4 5.4-3.5 11.5-4.1 17.8-3 1.6.3-6.2 7.3-4.8 8.6 1.1 1 11.7-3.9 12.3-2.8.9 1.6-6 7.8-5.9 9.9.1 1.4 7.5-1.4 7.1-.2-1 3-2.9 6-5.8 7.5-3.4 1.6-6.4 1.8-9.9 1.2z" fill="#f5831f"/><path d="m161.5 273.9c-.2-.7-3.9-2.7-3.5-3.2 3.3-3.4 2.7-3.9 1.5-8.1-.6-2 4.9-6.3 3.4-7.9-4.5-4.9-13.2-4.7-17.8 0-14 14.4-17.2 33.8-19.8 52.8l.1-.4c0 .2 0 .3-.1.4-1.8.7-3.5 1.7-4.8 3-2.3 2.1-3.7 5.9-3.7 8.9 0 .6.1 1.2.2 1.9-1.2.6-2.4 1.2-3.6 1.7-.8.3-1.7.7-2.5 1-3.2 1.2-5.6 2.9-7.5 5.8-1.8 2.9-2 6.5-1.3 9.7.7 3 3.2 6 5.8 7.5 2.5 1.5 6.8 2.4 9.7 1.3 6.8-2.7 14-5.5 19.7-10.2 0 0 .1 0 .1-.1 1-.9 2-1.8 3-2.8.9-1 1.7-2 2.5-3 .6.1 1 .1 1.1 0 2.3-2.1 5.2-3.5 5.2-6.5 0-1.4-.3-3-.9-4.5 0-.1 0-.1.1-.2 1.3-4.7 1.7-9.6 2.3-14.5-.2 1.1 1.4.7 1.2 1.8 1.3-4.9.4-7.9.5-11.1s1.1-6.8-2-10.9c-.4 1-.7-2.2-1.1-1.2 1.1-2.5 4.7-4.6 6.1-7 .3-.5 4.7-2.1 5.1-2.7.1-.1.2-.2.3-.4.2-.3.6-.7.7-.8 0-.2 0-.3 0-.3.1-.2.1-.2 0 0z" fill="#feed00"/><path d="m163.1 355.5c.2-2.3-.4-4.8-1.6-7.1-3.1-5.8-11.7-8.1-17.2-4.5-.2.2-.5.3-.7.4-.2 0-.3.1-.5.1-2.1.1-4.2 0-6.2-.3-3.6-.5-7.2-1-10.8-1.6-3.3-.5-6.8-.8-10-1.7-.1-.1-.3-.2-.4-.2-.8-.7-1.5-1.5-2.3-2.2-2.2-2.3-4.7-4.5-7.5-6-5-2.7-10.2995-3.3-15.8995-2.2-3.8.7-9 1-12.4 2.7l-1.1 1.4c-6.3 3.2-1.2 6.2 1.8 11.9 2.2 4.2 3.5 14 6.9 15.5 6.7 3.8 4.9 28 19.4995 4.2 18.6 8 25.7 11.5 49.1 10.8 7-.2 12.3-6.3 12.6-12.5.1-3.2-1.4-6.5-3.3-8.7z" fill="#008445"/><path d="m160.3 375.6c-1.4-5.4-6.4-9-10.4-12.6-3.2-2.9-7.2-4-11.1-3.4-2.1-1.5-4.6-2.4-7.4-2.6-3.3-.1-5.3 2.5-7.2 5.3-4.1 2.1-6.5 6.7-6.8 11.2-.2 3.2.7 5.9 2.4 8.1.1.9.2 1.8.2 2.8-.4 2.1-.4 4.2.3 6.7 5.1 18.4.8 3.4 5.9 5.1 1.2.4 4 8.2 5.4 8.2 6.8.3 12.5-6 12.6-12.5 0-.1 0-.2 0-.2 3.4.5 6.8.4 9.9-1.4 5.1-3 7.7-9 6.2-14.7z" fill="#3b5fac"/><path d="m50.1004 319.9-1 1.4.4 2.2-1.6 5.4 3.9 1.2h3.2l10.4-8.8-1.9004-1.8c-1.5-1-3.5-1-4.5-.5l-2 .9-2.5 1.1-2.7996-1.5z" fill="#fff"/><path d="m135.7 410c.6-.7.7-1.1.2-1.7-.3-.4-.5-.8-.7-1.2-.1-.1-.1-.3-.2-.4-.6-.9-.9-2-1.1-3.1-.1-.4-.1-.8 0-1.2.2 0 .3.1.4.1.4.2.9.4 1.3.6.9.5 1.7 1.2 2 2.3 0 .1.1.2.1.3.2.3.6.5.9.4.4-.1.6-.4.5-.8 0-.2-.1-.4-.1-.6-.4-1.1-.9-2.1-1.6-3.1-.6-.8-1-1.6-1.2-2.5-.1-.4-.1-.8-.1-1.2 0-.3.1-.5.2-.7h.2c.9 1.2 1.8 2.3 2 3.8.1.6.4 1.1.6 1.6.1.2.3.5.4.7.3.4.7.8.9 1.3.1.3.4.4.7.6.3.1.6.1.9-.1.3-.3.5-.6.3-1-.2-.5-.4-.9-.5-1.4-.1-.3-.3-.7-.1-1.1.1 0 .3 0 .4.1.4.3.7.6.9 1 .5 1 1.3 1.8 2 2.6.1.1.2.2.3.2.3.1.5.1.8 0 .2-.1.3-.4.3-.6 0-.3-.1-.5-.3-.8-.5-.8-.8-1.6-.9-2.4-.1-.4-.2-.9-.4-1.3-.3-.7-.1-1.4 0-2.1 0-.2.3-.3.5-.3.1 0 .3.1.4.1.4.2.7.4 1.1.7.8.7 1.6 1.5 2.4 2.2.1.1.2.2.3.3.2.1.5.1.7-.1s.3-.5.2-.7-.3-.5-.4-.7c-.4-.5-.8-1-1.1-1.6-.2-.3-.3-.6-.4-1-.1-.5.2-.8.7-.7.3 0 .6.1.9.2.5.2 1 .5 1.5.8.5.2.9.5 1.4.7.2.1.4.1.6-.1s.2-.4 0-.7c-.6-.7-1.2-1.5-1.7-2.2-.4-.5-.7-1.1-1-1.6-.1-.2-.2-.5-.1-.8.4-.3.9-.3 1.4-.2 1.2.4 2.3.7 3.2 1.6.1.1.3.2.4.3.5.3 1 .1 1.1-.5.1-.3 0-.5-.1-.8-.2-.4-.4-.8-.5-1.2-.1-.2-.1-.4-.2-.6h.5c.2 0 .4.1.6.2 1 .4 2 .8 3 1.4.3.1.5.3.8.4.5.1.9-.2.9-.8 0-.2-.1-.4-.2-.6-.3-.6-.7-1.2-1.3-1.6-.3-.3-.7-.6-1-.9-.6-.6-1.1-1.3-1.5-2-.2-.4-.5-.8-.7-1.2-.2-.3-.4-.7-.3-1.2.2 0 .3-.1.5 0 .3.1.6.2 1 .3.6.2 1.3.4 1.9.7 1.4.6 2.8.9 4.2 1.6.2.1.4.1.6.1.5 0 .8-.5.7-.9 0-.1-.1-.2-.2-.3-.5-.7-1-1.4-1.7-2-.5-.4-.9-.9-1.5-1.2-.8-.5-1.4-1.3-2-2-.3-.3-.4-.7-.6-1.1.1-.3.3-.2.5-.2 1.1 0 2.1.5 3.1 1l.6.3c.4.2.8.1 1-.2.2-.2.3-.6 0-.9-.4-.6-.9-1.1-1.3-1.6-.2-.2-.4-.4-.6-.6-.1-.1-.2-.3-.3-.5.9 0 1.6.2 2.4.5.7.3 1.5.6 2.2.8.8.3 1.7.5 2.5.7.2.1.4.1.6.1.3 0 .6-.1.8-.4s.1-.6-.1-.8c-.1-.1-.3-.3-.5-.4-.5-.4-1.1-.8-1.6-1.2-.6-.4-1.2-.9-1.8-1.3-1.2-.8-2.4-1.6-3.4-2.7-.2-.3-.5-.5-.8-.7-.6-.4-.6-.5-.9-1.1.1-.2.3-.2.4-.1.6.1 1.1.1 1.7.3.7.2 1.5.4 2.2.6.4.1.8.3 1.2.4.2.1.4.1.6.2.5 0 .9-.5.6-1-.2-.3-.4-.6-.6-.8-.7-.6-1.3-1.1-2-1.7-.2-.2-.4-.4-.6-.6-.1-.1-.1-.3-.2-.5.2 0 .4-.1.6-.1 1-.1 2.1.1 3.1.2.4.1.8.1 1.3.1s.8-.3.9-.6c.1-.4-.1-.8-.5-1-.6-.3-1.1-.6-1.7-.8-.8-.3-1.7-.5-2.5-.8-.3-.1-.6-.2-.8-.4-1-.7-1.9-1.5-2.9-2.2-.1-.1-.2-.3-.4-.4.1-.3.2-.2.4-.2.7.1 1.4.2 2.1.5 1.3.5 2.6.9 4 1.2.2.1.5.1.7.1.6 0 .9-.4.9-1-.1-.4-.3-.6-.6-.9-.6-.5-1.3-1-1.9-1.4-.1-.1-.2-.2-.4-.4.2 0 .3-.1.4-.1.6 0 1.2-.1 1.7 0 .7.1 1.3.2 2 .3.3.1.7.1 1 .1.4 0 .6-.2.8-.5.1-.3.1-.6-.2-.8-.5-.6-1.1-1-1.8-1.2-1-.3-1.8-.8-2.7-1.3-.9-.6-1.9-1-2.9-1.4-1-.3-1.9-.7-2.9-1.1-.8-.3-1.6-.5-2.4-.8s-1.6-.6-2.4-.9c-.2-.1-.5-.3-.7-.4-.1-.1-.1-.2-.2-.3.1-.1.2-.1.3-.1.9 0 1.7-.1 2.5.1 1.4.4 2.8.5 4.2.5.9 0 1.8.1 2.6.1h.4c.9 0 1.1-.2 1.4-1.1-.2-.3-.4-.5-.7-.6s-.6-.2-.9-.3c-1.3-.3-1.3-.3-2.5-1.1.2-.4.6-.6 1-.8s.8-.3 1.2-.5c.5-.2.7-.6.6-1s-.6-.7-1.1-.6c-1.3.3-2.6.4-3.9.3-1.1 0-2.1-.2-3.2-.3-.3 0-.6-.1-.8-.4.3-.4.6-.4 1-.6 1.2-.4 2.4-.8 3.6-1.4.7-.4 1.3-.7 2-1.1.4-.2.6-.6.5-1s-.4-.6-.9-.6c-1.1.1-2.1.1-3.2.3-1.2.2-2.4 0-3.5-.2-.3-.1-.7-.2-1-.5.1-.2.1-.3.2-.4.2-.3.2-.6.1-.9-.1-.5-.4-.7-.9-.6-.1 0-.3.1-.4.2-.7.3-1.4.6-2.1.9-.2.1-.3.2-.5.2-.8.1-1.5.5-2.2.8s-1.4.5-2.2.7c-1.4.4-2.9.6-4.3.8-.7.1-1.4.2-2.2.4-.8.1-1.5.3-2.2.6s-1.4.5-2.2.7c-.9.2-1.8.5-2.6.7-.5.1-1.1.2-1.6.3-.4.1-.8.1-1.3-.1-.4-.2-.9-.3-1.3-.4 0-.2.1-.2.2-.3l2.4-.3c.2 0 .4-.1.6-.2.8-.2 1-.8 1.3-1.4.2-.4-.1-.9-.5-1-.1 0-.1 0-.2 0-1.5-.2-2.6-1.2-3.8-2.1-.3-.2-.5-.5-.6-1 .2 0 .3.1.4.1 1.2.8 2.5 1.2 3.9 1.6.6.2 1.3.2 1.9.2.6-.1 1.1 0 1.6.2.2.1.5.1.7.1.5.1 1.1.1 1.6.3s1 .1 1.3-.3.3-.9 0-1.4c-.4-.5-.5-1.1-.6-1.7s-.1-1.3-.3-1.9c-.2-.7-.6-1.5-.9-2.2.3-.1.7 0 1 .1 1.3.4 2.7.3 4.1.2.2 0 .5-.1.7-.1.8-.2 1.6-.5 2.4-.8.3-.1.6-.2.9-.2.9-.2 1.2-.9.8-1.7-.5-1-1-2-1.4-3 0 0 0-.1 0-.2.3 0 .6-.1.9 0 .5 0 .9-.2 1.3-.4.2-.1.3-.3.3-.6-.1-.2-.2-.5-.2-.7-.1-.4-.3-.8-.5-1.2-.3-.9-.5-1.9-.8-2.8 0-.1 0-.2 0-.3.9-.2 1.7-.3 2.6-.5 0-.7-.3-1.3-.4-2s-.3-1.4-.5-2-.6-1.2-.8-1.8c.9-.1 1.7-.3 2.5-.4.4-.1.5-.2.4-.5-.6-1.5-1-3.1-2-4.4v-.1c.3-.1.6-.2.8-.3.3-.1.6-.3.9-.5.4-.3.5-.5.4-1-.3-1.2-.7-2.3-1.3-3.4-.2-.4-.4-.8-.7-1.2.6-.3 1.3-.6 1.8-1.1.2-.3.4-.5.6-.7-.3-.8-.5-1.6-.8-2.3s-.6-1.4-1-2.2c.1-.2.4-.3.6-.4.5-.2.8-.7 1.1-1.1.1-.2.1-.4.1-.6-.2-.4-.3-.8-.6-1.1-.4-.6-.8-1.2-1-1.8.5-.3.9-.5 1.3-.9.5-.4.9-.8 1.3-1.3-.1-.2-.1-.3-.2-.5s-.3-.5-.4-.7c-.3-.8-.9-1.4-1.4-2-.1-.2-.3-.3-.5-.4-.7-.4-1.3-.9-2-1.3 0 0-.1-.1-.1-.2.1-.2.4-.3.6-.3.5-.1 1-.4 1.5-.7 1-.6 2-1.2 2.9-1.8.5-.3.8-.8 1-1.2.2-.3.1-.6-.1-.8-.3-.4-.6-.7-1-1.1-.2-.2-.4-.4-.7-.7.1-.1.2-.2.4-.2.6-.2 1.1-.5 1.6-.8 1.1-.6 2.1-1.3 2.8-2.2.1-.2.3-.3.5-.4.2-.2.3-.4.5-.6.3-.4.3-.9 0-1.4s-.7-.9-1.2-1.2c-.2-.1-.5-.3-.7-.4s-.5-.2-.8-.3c.3-.4.5-.7.9-.9s.7-.4 1.1-.6c.7-.3 1.2-.8 1.6-1.4.5-.7 1-1.5 1.5-2.2.3-.4.6-.8.9-1.2.4-.4.3-.9-.1-1.1-.3-.2-.6-.3-.9-.4-.6-.2-1.2-.4-1.7-.6-.2-.1-.4-.2-.6-.2 0-.3.1-.3.2-.4.4-.3.8-.6 1.1-1 .5-.6 1-1.1 1.6-1.6.8-.8 1.5-1.7 2.2-2.5.3-.3.5-.7.8-1 .3-.4.3-.6-.1-.9-1.1-.8-2.3-1-3.6-1-1.2 0-2.4 0-3.6 0-.1 0-.3 0-.5-.1.4-.4.7-.7 1.1-.9.6-.4 1.3-.8 1.9-1.2 1.1-.7 2-1.6 2.8-2.7.7-.9 1.5-1.9 2.2-2.8.2-.3.5-.5.8-.6.5-.2 1.1-.5 1.6-.7.1-.1.3-.1.4-.2.2-.2.2-.5 0-.7-.3-.3-.6-.6-1-.7-.8-.1-1.5-.2-2.3-.1-1.5.2-3.1.5-4.6.8-1 .2-2.1.5-3.1.7-.1 0-.2 0-.3 0l-.1.1h-.1v-.1h.1c0-.1.1-.2.1-.3l3.3-2.7c.9-.7 1.7-1.5 2.5-2.2.6-.5 1.2-1.1 2-1.3.5-.2.9-.5 1.2-.9.3-.3.2-.6-.1-.8s-.7-.3-.9-.7c.1 0 .2-.1.3-.1.6-.1 1.3-.1 1.9-.1.3 0 .6 0 .8-.2.6-.5 1.1-1 1.6-1.5.6-.6 1-1.4 1.4-2.2.2-.3 0-.7-.4-.7-.2 0-.4 0-.5 0-1.1.2-2.3.4-3.4.5-.1 0-.2 0-.3.1-1.2.5-2.4.6-3.6 1-.8.3-1.7.6-2.5 1-1 .5-2.1.8-3.2 1.1-1.3.4-2.6 1-3.8 1.6-.7.4-1.4.8-2.2 1.2-.3.1-.6.3-1 .3.1-.1.2-.2.3-.3.2-.2.5-.4.7-.6 2.2-1.4 4-3.1 6-4.8.6-.5 1.1-1.2 1.6-1.8.7-.9 1.4-1.9 2.3-2.7.6-.5 1-1.2 1.4-1.9.1-.1.1-.3.1-.5-.3-.2-.6-.3-1-.5.2-.1.2-.2.4-.2.6-.2 1.2-.4 1.8-.5.3-.1.6-.2.7-.5.4-.7.8-1.4 1-2.2 0-.1 0-.2 0-.4-.1 0-.3-.1-.4-.1-1.8.1-3.5.4-5.1 1.2-.2.1-.4.2-.6.2-1.2.3-2.3.9-3.3 1.5-.6.4-1.3.7-1.9 1.1-.4.2-.8.4-1.3.5-1.6.6-2.9 1.7-4.2 2.7-1.2.9-2.3 1.9-3.7 2.7-.2.1-.5.3-.7.5-.5.5-1.1.7-1.7 1 0 0-.1 0-.2 0 .3-.5.7-.9 1.2-1.2.9-.7 1.9-1.4 2.7-2.1.9-.8 1.7-1.7 2.5-2.5 1-1.2 2-2.4 3-3.6.7-.8 1-1.7 1.4-2.6.2-.4 0-.7-.4-.9-.2-.1-.5-.2-.7-.3-.3-.1-.5-.3-.6-.6-.2-.3 0-.6.3-.7.4 0 .7-.1 1.1 0 .5 0 .9-.1 1.3-.6s.9-.9 1.3-1.4c.7-.8 1.2-1.7 1.4-2.9-.2 0-.3 0-.5 0-.5.2-1.1.4-1.6.6-.8.4-1.7.7-2.6 1-1.2.3-2.2.8-3.2 1.4-.1.1-.2.1-.3.2-2.2 1.8-4.4 3.6-6.6 5.5-.2.2-.4.4-.6.6-.7.7-1.5 1.4-2.3 1.9-.1.1-.2.1-.2.2-1.6 1.4-3.2 2.7-4.5 4.3-.6.8-1.3 1.5-2 2.2-.2.2-.4.3-.6.6 0-.2 0-.3 0-.4.6-1.1 1.3-2.2 2.1-3.2.7-.8 1.6-1.5 2.2-2.4.2-.4.5-.7.6-1.1.1-.2.2-.5.3-.7.6-.7 1.2-1.5 1.8-2.2.4-.5.8-1.1 1.3-1.6 1-1.1 1.7-2.5 2.3-3.9 0-.1.1-.2.2-.3.7-1 1.1-2.1 1.5-3.2.2-.4.4-.9.2-1.4-.6-.2-1.3-.2-1.9-.4.2-.4.5-.7.9-.9.1-.1.3-.1.4-.2.7-.4 1.2-.8 1.6-1.6.4-.9.8-1.8.9-2.8-.1 0-.2 0-.3.1-.3.2-.6.3-.8.6-1 .9-2.1 1.6-3.1 2.4-.2.1-.3.2-.5.3-.8.4-1.5 1-2 1.8-.3.4-.6.7-1 1.1-.7.7-1.4 1.4-2 2.1-.5.5-1.1 1.1-1.6 1.6s-.9 1-1.4 1.6c-1.2 1.5-2.3 3-3.5 4.5-1.8 2.3-3.6 4.6-5.4 6.9-.8 1.1-1.6 2.1-2.5 3.2-.1.1-.2.2-.3.3 0-.6.1-1 .4-1.4.4-.5.6-1.1.7-1.6.2-.6.4-1.1.9-1.6.2-.2.3-.4.4-.6.8-1.2 1.6-2.5 2.4-3.7.7-1 1.2-2 1.6-3.1.1-.3.2-.5.3-.8.2-.5.4-.9.6-1.4.3-.6.1-1.1-.3-1.6-.1-.1-.3-.3-.4-.4.2-.1.3-.2.4-.3.4-.2.7-.4 1.1-.7.2-.1.3-.4.4-.6.4-.8.6-1.6.7-2.4.1-.5.1-1.1.2-1.6.1-.7.2-1.4.3-2.2.1-.7.3-1.5.5-2.2 0-.1 0-.2 0-.3-.2-.1-.3 0-.4.1-.5.6-1 1.2-1.6 1.8s-1.1 1.3-1.7 1.9c-.3.3-.6.7-.8 1.1-.8 1.1-1.5 2.2-2.3 3.3-.7 1-1.4 2-2 3-.7 1.1-1.5 2.3-2.1 3.5-.2.4-.5.8-.7 1.2-1 1.6-2 3.3-2.9 5-.6 1.1-1.2 2.2-1.7 3.3-.7 1.4-1.4 2.8-2.1 4.1-.6 1.3-1.3 2.6-1.9 3.9-.8 1.7-1.6 3.3-2.4 5-.3.5-.5 1.1-.7 1.7-.2.4-.4.7-.7 1-.9 1-1.6 2.2-2.1 3.5-.8 1.9-1.4 3.9-2.1 5.8-.3.8-.5 1.7-.7 2.6-.1.8-.5 1.4-1.1 1.9-.3 0-.4-.2-.4-.4 0-.4 0-.8.1-1.2 0-.2.1-.4.2-.6.1-.3.1-.6-.1-.9-.2.1-.3.1-.4.2-1.3 1.7-2.6 3.3-3.4998 5.3-.5 1.1-1 2.1-1.4 3.2-.8 2-1.5 4-2 6-.3 1.3-.5 2.6-.8 3.9-.2.9-.4 1.7-.4 2.6v.2c-.5 2.2-.6 4.5-1.2 6.7-.1.5-.2 1.1-.3 1.6-.2 1.2-.4 2.4-.5 3.7-.1 1.4-.2 2.7-.2 4.1 0 1.1-.2 2.3-.3 3.4-.1.8-.1 1.6-.2 2.4-.1.6-.2 1.2-.3 1.8-.2 1.3-.5 2.6-.7 3.9-.2 1.7-.7 3.2-1.3 4.8-.4 1.1-.8 2.2-1.1 3.3-.4 1.4-1.2 2.3-2.4 3.1-1 .7-2.2 1.1-3.3 1.7-1 .5-2 .6-3.1.7-.6.1-1.2.2-1.8.2-.3 0-.6 0-.8-.1-.9-.3-1.9-.6-2.7-1-1.9-1-3.8-1.7-5.9-2.1-1-.2-2-.5-2.9-.6-.9-.2-1.7-.3-2.6-.4-.8 0-1.5 0-2.3.1-.7.1-1.4.2-2.1.1-.6 0-1.3 0-1.9.2-.5.2-1 .3-1.5.4-.7.1-1.3.4-1.8.8-.4.3-.8.5-1.2.8-.1.1-.2.1-.3.2-.6.7-1.2 1.4-1.8 2-.5.5-.9 1-1.1 1.6-.3.7-.5 1.4-.2 2.2-.4.6-.7 1.2-1 1.9-.4.7-.7 1.5-1 2.3s-.4 1.6-.5 2.5c-.1 1.1-.2 2.2.1 3.3.2 1.2.5 2.3.9 3.4.1.3.3.5.5.8 0 .1.2.1.2.1.1-.1.2-.2.2-.3 0-.4 0-.7 0-1.1-.2-1.4 0-2.8.5-4.1.2-.6.4-.7.9-.6s1 .2 1.5.3c.2 0 .5.1.7.1h1.7c.6 0 1.2.1 1.8.4 1.4.7 2.7 1.3 4.1 2 1.1.6 2.1 1.2 3.2 1.8.5.3 1 .7 1.5 1 .8.6 1.7 1.1 2.5 1.6 0 .2-.2.2-.3.2-.9 0-1.9.1-2.8.1-.3 0-.7.1-1 .1-1.3 0-2.5.1-3.7.3-.6.1-1.2.1-1.8.2-1.1.1-2.2.3-3.3.5-.9.2-1.7.2-2.6.3-.7.1-1.5.1-2.2.2s-1.5.2-2.2.4c-1.6.4-3.1.7-4.8.8-1 .1-1.9.5-2.8.9s-1.9.7-2.9.9c-.5.1-1 .2-1.5.4-.4.1-.4.3-.3.7 0 .1.1.2.1.3-.5.1-.9.2-1.4.2-1.3.2-2.4.7-3.7 1.1-.8.3-1.6.4-2.4.6-.1 0-.3.1-.4.1-.9.3-1.7.5-2.6.8-.5.1-1 .2-1.5.3-1.1.1-2.1.2-3.1.6-.6.2-1.2.2-1.9.4-.3.1-.7.1-1 .2-1.4.3-2.9.5-4.4.5-.9 0-1.9-.2-2.8-.2-.3 0-.7-.1-1-.1-2-.3-3.9-.9-5.6-2-.8-.5-1.700005-.9-2.400005-1.5-.1-.1-.2999997-.1-.5-.1v.5c.8.8 1.600005 1.4 2.600005 2 .1.1.2.1.3.2 1.1.9 2.4 1.4 3.8 1.6.8.2 1.6.3 2.4.4 1.3.2 2.5.4 3.8.5h1.2c.4 0 .8.2 1.2.1 1.1-.1 2.1.1 3.2.2.1 0 .2 0 .3.2-.2.3-.5.3-.8.4-.7.3-1.4.5-2.2.8-1.2.4-2.3.9-3.5 1.2s-2.4.9-3.7.9c-.1 0-.1 0-.2 0-.7.4-1.5.4-2.2.5-.3 0-.6.1-.9.2-.4.1-.8.4-1.1.6-.2.2-.2.4-.1.6s.2.4.5.4h.5c.7-.1 1.3-.2 2-.2 1.7.1 3.5 0 5.2-.1h.6c1.7.1 3.3-.2 4.9-.5.4-.1.9-.2 1.3-.3 1.2-.4 2.4-.9 3.6-1.4.4-.2 1.1-.3 1.4-.2-.4.5-.8 1-1.3 1.4-1.9 1.4-3.9 2.8-5.9 3.9-1.1.6-2.1 1.3-3 2-.7.6-1.3 1.3-1.9 2-.2.2-.3.5-.2.8h.4c1-.2 2.1-.3 3.1-.3.9 0 1.8.1 2.6.2 1.3.3 2.5.1 3.8-.3.1 0 .3-.1.4-.2.9-.6 1.9-1.2 2.8-1.9 1.4-1 2.7-2 4-3 .1 0 .2 0 .3-.1.1.1.2.3.3.4-.2.4-.5.7-.8 1-.6.6-1.1 1.3-1.7 1.9-.4.4-.7.9-1.1 1.3-.3.4-.7.8-1.1 1.1-.9.9-1.9 1.9-2.6 3.1-.6.9-1.1 1.9-1.6 2.9-.4.8-.4 1.7-.1 2.5.3-.2.5-.4.7-.5.5-.3.9-.6 1.4-.8s1-.3 1.6-.5 1.1-.3 1.7-.2c.3 0 .7 0 1-.2.3-.1.6-.2.8-.4 1-.6 1.9-1.2 2.9-1.7.7-.4 1.3-.9 1.8-1.6.9-1.2 2-2.2 3-3.3.1-.1.2-.1.2-.1.3.1.3.4.2.6-.6 1.2-1.3 2.3-1.6 3.5 0 .1-.1.2-.1.2-.8 1.5-1.4 3.1-1.8 4.7-.1.5-.2 1-.3 1.5-.1.8-.1 1.6-.1 2.4 0 .4 0 .8.1 1.2.2.8.4.9 1.1.6 1.3-.5 2.4-1.2 3.4-2 .5-.4 1.1-.8 1.6-1.1.9-.6 1.8-1.3 2.5-2.2.3-.4.6-.8.8-1.2.3-.5.7-1 1.3-1.5-.1.3-.1.5-.1.7-.2.9-.3 1.8-.3 2.7 0 .5.1 1.1.1 1.6 0 1.1.6 1.9 1.2 2.7.2.3.6.3.9 0 .4-.5.9-.7 1.4-.9l1.5-.6c.5-.2.9-.4 1.4-.7.7-.4 1.3-.9 1.8-1.5.1-.2.3-.3.6-.2.3.4.4.9.5 1.4.1.4.1.7.2 1.1.3 1.1 1 1.8 2 2.4.4.2.6.2.9-.1.6-.6 1.3-1 2.1-1.4.8-.3 1.6-.8 2.1-1.5.1-.1.2-.1.3-.2.5 1.1 1.3 1.9 2.1 2.7 1 .9 1.2 1 2.4.2 1.1-.7 1.9-1.5 2.6-2.6.2-.3.3-.6.6-.8.8.6 1.6 1.2 2.3 1.8.5.4 1.1.6 1.8.6.4 0 .6-.1.8-.5.1-.3.3-.5.4-.8.4-1 .9-1.9.7-3 0-.3 0-.5.3-.8.5.3 1.1.6 1.5 1 .8.7 1.8 1 2.8 1.3.6.2 1.1-.1 1.4-.6l.3-.9c.1-.7.2-1.4.1-2.2 0-.2 0-.4.3-.5.2.2.3.3.5.5.6.5 1 1.1 1.7 1.5s1.5.7 2.3.8c.4 0 .8-.1 1-.5.1-.2.2-.4.3-.6.3-.6.5-1.1.5-1.8 0-.2.1-.4.1-.5 0-.2 0-.4.1-.5 0-.2-.1-.4.2-.5.9.8 2 1.4 3.2 1.8-.1.8-.2 1.5-.5 2.2-.2.7-.3 1.5-.3 2.3-.3.1-.6.2-1 .3-1.1.3-2.2.4-3.2 1-.2.1-.3.1-.5.2-.7.2-1.4.3-2 .5-.5.1-1 .3-1.6.5-.5.1-.8.3-1.2.5-.6.4-1.2.8-1.9.8-1.1.1-1.9.7-2.5 1.6-.2.3-.5.5-.9.6-.1 0-.3.1-.4.1-.6 0-1 .3-1.3.7-.2.3-.5.6-.7.8-1-.1-1.8.4-2.4 1.1-.8 1-1 1.8-.6 2.6.2-.2.3-.3.5-.5.3-.4.7-.6 1.3-.6.4 0 .8-.1 1.1-.3s.6-.4.9-.6c.2-.1.4-.3.6-.3.4-.1.7-.2 1.1-.5.2-.1.4-.2.6 0-.1.3-.3.7-.3 1.1-.1.5-.3.9-.6 1.2-.6.6-.9 1.3-.7 2.2.1.3 0 .5-.1.7-.2.4-.1.7.1 1 .2.2.3.5.5.7.1.1.2.1.3.1.1-.1.1-.1.1-.1 0-.1.1-.2.1-.4-.1-.9.3-1.6 1.1-2.1.5-.3.8-.8 1-1.3.1-.2.2-.4.3-.7 1.2-.2 1.9-1.1 2.4-2.1.8-.2 1.4-.6 1.8-1.2.1-.2.3-.3.5-.2.1.1.3.2.4.4s.1.4.1.6c0 .3.1.7.1 1 0 .2.1.4.2.5.4.4.6.8.9 1.2.3.5.8.7 1.3.6.5 0 1-.2 1.1-.7-.1 0-.1-.1-.2-.1-.5 0-.8-.2-.9-.8 0-.3-.2-.7-.4-1.1 0-.1.1-.2.1-.4.1-.7.5-1.2 1.1-1.5.2-.1.3-.3.5-.5.1-.2.2-.4.4-.6.1-.1.3-.3.5-.4.7-.2 1.3-.1 1.9.4l.3.3c.4.3.7.6 1.2.8.4.2.8.1 1.3.1.4 0 .8.2 1 .6.1.3.2.6.3.8s.1.3.2.5c.4-.3.7-.6.8-1 .1-.5 0-1.1-.3-1.6-.4-.5-.9-1-1.3-1.5-.3-.3-.6-.6-1-.6-.5 0-.9-.4-1.3-.8.2-.1.4-.2.5-.2.9-.1 1.8-.2 2.7-.2.5 0 1 0 1.5.2.3.1.5.2.7.4.7.4 1.4.4 2.1.2.4-.1.7-.3.9-.7.1-.3.2-.6.3-.9s.1-.7.1-1c.2-1 .3-1.9 1.1-2.6.2-.1.2-.3.4-.5s.4-.5.5998-.7c1.3-1 2.7-1.9 4.4-2.1.3 0 .5-.1.8-.2.2-.1.5-.1.7-.2 1-.2 2.1-.3 3.1-.4.8-.1 1.6-.2 2.3-.7h.2c.1.7.2 1.4.2 2.1-.1.5-.3.9-.8 1-.3.1-.5.2-.7.4-.3.1-.6.3-.8.6-.2.2-.3.4-.5.5-.5.6-1 1.2-1.1 2 0 .3-.2.4-.4.6-.4.4-.7.7-.8 1.3-.1.4-.3.8-.7 1-.9.7-1.4 1.6-1.7 2.7-.2.8-.4 1.5-1 2.1-.2.2-.3.4-.4.6-.3.7-.6 1.4-.9 2.2-.1.3-.3.6-.5.8-.6.5-.9 1.1-1 1.9-.1.5-.1 1-.2 1.4 0 .2 0 .5.2.6.3.3.3.6.3 1 .1 1 .5 1.4 1.7 1.7 0-.2 0-.5 0-.7-.2-.8 0-1.5.5-2.1.2-.2.4-.5.6-.7.4-.5.7-1.1.7-1.7 0-.7.3-1.2.8-1.6.2-.2.4-.4.6-.7.1-.1.1-.2.3-.1.1.4.3.9.4 1.3.3.7.2 1.3-.2 1.9-.5.7-.5 1.5-.3 2.4l.3.9c.2.4.3.8.5 1.2.3 1 1.1 1.9 2.6 1.9 0-.2.1-.3 0-.5s-.2-.3-.4-.4c-.6-.6-.7-1.5-.2-2.2.3-.5.5-1 .8-1.5.2-.3.2-.6.2-1-.1-.5-.1-1.1-.2-1.6-.1-.6 0-1.1.4-1.6.4-.6.6-1.3.5-2-.1-.5.1-1 .2-1.5.1-.4.4-.6.8-.7s.7 0 1 .4c.2.3.3.5.3.8.1.6.4 1 .8 1.4.5.4.9.8 1.1 1.4.2.5.5.9.9 1.2.3.3.5.6.6 1 .2.8.1 1.7-.2 2.4.2.3.3.3.5.2.8-.4 1.3-1 1.5-1.8.1-.4.1-.8 0-1.2-.1-.5-.1-1-.1-1.5 0-.4-.1-.9-.3-1.2-.5-.6-.7-1.4-.8-2.1 0-.1 0-.2-.1-.3-.1-.6-.4-1.1-.9-1.4-.3-.2-.5-.4-.7-.7-.2-.4-.4-.7-.7-1.1-.2-.2-.3-.5-.6-.7-.4-.2-.6-.6-.6-1 0-.2-.1-.4-.1-.5-.2-1.1.4-1.9 1.5-2 .5 0 .9-.2 1.3-.5s.8-.6 1.1-.9l.9-.9c.3.4.5.8.4 1.3s-.1 1-.2 1.5c-.1.9-.1 1.9 0 2.8.1 1 .3 2 .2 3 0 .4.1.8.1 1.3 0 .3.1.5.1.8 0 1.2.3 2.3.6 3.5.2.7.3 1.5.5 2.2.1.6.2 1.1.4 1.7.3 1 .4 1.9.3 3-.1.8-.1 1.6-.2 2.4 0 .7.1 1.4.1 2.1 0 1.8.1 3.5.2 5.3 0 .3 0 .7.1 1 0 .2 0 .4.1.5.1.3.3.4.5.4s.4-.2.5-.4c0-.1 0-.2 0-.3.1-.3.2-.5.2-.8.1-.3.1-.6.1-.9.2.2.3.3.4.4.5.3.8.7 1 1.3.4 1.2 1.3 2.1 2.1 3.1l.3.3c.3.2.7.2 1 0 .3-.3.3-.7.1-1-.1-.1-.2-.3-.4-.4-.9-1.2-1.6-2.5-1.4-4.1.1-1.3.1-2.5.2-3.8 0-.5.1-1 .2-1.4 0-.2.2-.3.3-.5s.4-.2.5 0c.2.2.4.5.6.8.4.6.7 1.2 1 1.8.6 1.1 1.3 2.2 1.7 3.4.1.4.4.8.6 1.1.4.7.9 1.4 1.3 2.1.2.3.5.6.9.9.3.3.6.5.9.8.2.2.4.4.5.7.2.5.6.9.9 1.2.8-.3 1-.3 1.2-.3zm25.1-54.2c-.1 0-.2 0-.3 0-1.6-.4-3.1-.8-4.6-1.3-1.5-.6-3.1-1-4.7-1.3-.3-.1-.6-.1-.9-.1-1.2-.1-2.4-.1-3.6-.2s-2.4-.3-3.6-.2c-.2 0-.5 0-.7-.1-.9-.1-2.2 0-3.2.4.1.1.1.3.2.4s.3.2.5.1c.7 0 1.4.1 2.2.3 1.1.3 2.2.5 3.3.7.5.1 1.1.2 1.6.3 2.3.5 4.4 1.3 6.6 2.1 1.1.4 2.2.8 3.1 1.5.7.5 1.3 1.1 1.6 1.9.2.4.4.8.5 1.2.1.1.2.2.1.4h-.1c-.1 0-.2-.1-.3-.1-1.7-.8-3.4-1.6-5.3-1.9-.5-.1-1-.3-1.5-.4-1.2-.4-2.4-.8-3.7-1-.3-.1-.7-.1-1-.2-1.3-.4-2.5-.8-3.7-1.2-.4-.1-.8-.3-1.2-.4-.3-.1-.6-.1-.8.3.1.3.4.4.6.5 1 .4 2.1.9 3.1 1.2 1.7.6 3.3 1.5 4.7 2.5 1.1.8 2.2 1.5 3.5 2.2l2.7 1.5c.4.3.8.6 1.2 1 .4.5.8 1.1 1.2 1.7s.5 1.2 0 1.8c0 0-.1.1-.2.1-.3-.1-.7 0-1-.4s-.7-.5-1.1-.7c-1.1-.5-2.1-1.1-3.2-1.5-.3-.1-.5-.3-.7-.4-1.7-.9-3.4-1.8-5.2-2.5-1-.4-2-.8-2.8-1.5-.1-.1-.2-.1-.3-.2-.3-.1-.5-.1-.8.1-.4.3-.5.8-.2 1.2.2.2.4.5.6.7.6.6 1.3 1.2 1.9 1.8.5.5 1 .8 1.6 1.2.5.3 1.1.6 1.6.9 1.7 1.1 3.5 2.3 5.1 3.5.2.1.3.3.5.4 1.4.9 2.5 2.2 3.6 3.5.1.1.2.2.1.4-.1 0-.1 0-.2 0-1.6-.8-3.2-1.3-4.8-2-.3-.1-.6-.4-.9-.6-.4-.3-.8-.7-1.2-.9-1.1-.6-2.2-1.1-3.4-1.3-.2 0-.4-.1-.6-.2-.9-.4-1.7-.9-2.6-1.3-.4-.2-.7-.4-1.2-.4v.2c1.5 1.6 3.2 2.9 5.1 3.9.9.5 1.7 1 2.5 1.7.2.2.5.4.7.5 1.3.7 2.5 1.5 3.6 2.5.4.3.8.7.9 1.2s.4.9.8 1.2c.3.2.6.4.9.6.3.3.6.6.9.9.1.1.2.3 0 .5-.5 0-.5 0-.7-.1-.4-.2-.8-.4-1.3-.5s-.9-.4-1.3-.7c-.8-.6-1.6-1.2-2.5-1.6-1.2-.5-2.2-1.1-3.5-1.4-.6-.2-1.2-.4-1.7-.8-1.2-.9-2.6-1.4-3.9-2.2-.7-.2-1.3-.6-2-.8-.5-.2-1-.4-1.5-.5-.1 0-.3 0-.4 0 1.7 1.4 3.3 2.7 4.9 4.1.4.3.8.6 1.2.9 1.4.9 2.7 1.7 4.1 2.6.4.3.8.5 1 1 .2.4.5.7.7 1s.5.6.7 1c.4 1.1.9 2.1 1.1 3.3v.4c-.3-.2-.5-.4-.7-.6-1.1-1.1-2.1-2.3-3.4-3.2-.1-.1-.2-.2-.3-.2-1-.9-2.1-1.8-3.1-2.6-.4-.3-.8-.5-1.2-.9-.9-.8-1.8-1.5-2.9-2-.6-.3-1.2-.7-1.8-1.1-.2-.1-.3-.2-.5-.2-.4 0-.7-.3-1.1-.5-.3-.2-.6-.3-.9-.5-.7-.3-1.5-.6-2.1-1-.3-.2-.7-.3-1-.4-.1 0-.3 0-.3.2.1.1.2.2.4.4 1.3 1.2 2.6 2.3 3.9 3.5.5.5 1 1 1.6 1.5.9.7 1.7 1.5 2.4 2.4 1.3 1.6 2.5 3.2 3.7 5 .7 1.1 1.4 2.3 2.3 3.3.1.1.1.2.1.3-.4-.1-.8-.2-1.2-.3-.2 0-.4-.1-.5-.2-.1 0-.2-.1-.3-.2-1.1-.7-2.1-1.6-3.1-2.4-.1-.1-.2-.2-.3-.3-.6-.5-1.1-1.1-1.7-1.6-.4-.3-.8-.6-1.2-.7-.8-.2-1.4-.7-1.9-1.3-.1-.1-.3-.3-.4-.4-.5-.7-1.1-1.2-1.9-1.7-1.2-.7-2.2-1.6-3.1-2.6-.5-.5-1.1-1.1-1.6-1.6-.3-.2-.6-.4-1-.8.1.4.1.6.2.8.4.8.8 1.6 1.1 2.4.2.5.5 1 .9 1.4 1.2 1.3 2.3 2.6 3 4.2v.1c.4.7.7 1.4 1.1 2.1.3.7.6 1.3.9 2s.7 1.4 1 2.1c.6 1.1 1 2.3 1.7 3.3.1.1.2.3.2.5.2.9.5 1.8.5 2.8-.3 0-.5-.2-.7-.4-.5-.4-1-.8-1.4-1.3-.6-.7-1.2-1.5-1.9-2.1-.8-.8-1.3-1.7-1.7-2.7-.1-.2-.2-.4-.2-.6-.3-.7-.5-1.4-.9-2-1-1.8-2.1-3.6-3.2-5.4-.1-.1-.1-.2-.3-.1-.1.3-.2.7-.2 1 0 1.3.2 2.7.6 3.9.5 1.5.4 3 .7 4.6v.2c-.1.4 0 .8.2 1.2.2.5.3 1.1.2 1.7-.1.8-.3 1.5-.5 2.3l-.1.1c-.1-.1-.1-.1-.2-.2-.4-1.3-.8-2.5-1.4-3.7-.4-.9-.6-2-1.4-2.7-.2-.2-.2-.4-.3-.7-.1-.4-.1-.7-.2-1.1-.1-.9-.3-1.9-.4-2.8-.2-1.1-.5-2.2-.7-3.4s-.4-2.4-.7-3.7c-.1-.5-.2-1-.5-1.5-.1.1-.1.2-.1.4-.1.4-.1.8-.2 1.3-.1.4-.1.8-.1 1.2 0 .8 0 1.5-.1 2.3-.2 1.1-.1 2.2-.2 3.2 0 1.1-.1 2.2-.7 3.2-.1.2-.1.4-.1.6.1 1.3-.1 2.6-.2 3.9 0 .4-.1.9-.3 1.3-.3.8-.6 1.5-.7 2.3 0 .1-.1.2-.2.4-.4-.3-.5-.6-.5-1.1 0-1-.2-2-.1-3 .1-1.6 0-3.1-.1-4.7-.1-1.4-.3-2.8-.6-4.2-.2-.9-.2-1.8.1-2.8.1-.2.1-.5.2-.7.2-1.1.4-2.1.6-3.2.1-.4.1-.9.1-1.4 0-1.1-.2-2.1-.3-3.2-.1-.6-.2-1.2-.4-1.8-.1-.3-.2-.6-.1-.9.1-.5 0-.9-.2-1.3.3-.2.6-.1.9 0l.9.3c.8.2 1.7.4 2.5.8h.1c.1-.3.1-.6.2-.9.2-1.1 0-1.3 1.7-1.6h.1c.9-.1 1.8-.2 2.6.4.4.2.7.4 1.1.6.2.1.4.2.6 0 0-.4-.1-.8-.1-1.1 0-.6.2-1.2.7-1.6.4-.3.9-.6 1.5-.6.3 0 .6-.1 1-.1-.1-.4-.3-.8-.4-1.2-.2-.9.2-1.7 1-2.1.3-.2.7-.3 1.1-.5-.1-.1-.2-.2-.3-.2-.3-.2-.7-.3-1-.5-.9-.5-1.2-1.5-.7-2.4.5-.8 1-1.6 2-1.9.3-.1.6-.4.8-.8-.2 0-.3 0-.4 0-1.2.1-2.4.3-3.6.1-.5-.1-.8-.2-1.1-.5-.3-.4-.6-.9-.9-1.3-.2-.3-.2-.6 0-1 .1-.2.2-.5.3-.7.3-.5.5-1 .8-1.5.1-.2.1-.4-.1-.5-.1 0-.1 0-.2 0-.7.4-1.4.6-2.1.8-1.1.3-2.1 0-2.9-.7-.5-.5-1-1.1-1.3-1.8-.1-.2-.2-.3-.3-.5-.9.3-1 .5-.9 1.2s.1 1.4.2 2.1c0 .4.1.7-.2 1-.1.1-.1.2 0 .3 0 1-.2 1.9-.6 2.8-.1.3-.2.7-.2 1.1 0 1-.2 2-.6 2.9-.1.2-.2.4-.2.6-.1.4-.3.8-.6 1.1-.4.5-.8 1.1-1.1 1.7-.5.7-.9 1.5-1.6 2.1-.9.8-1.7 1.6-2.5 2.4-.3.3-.5.6-.9.8-.7-.5-1.5-.5-2.3-.6-.2-1.1-.4-2.2-.6-3.3-.2-1.3-.8-2.3-1.6-3.2s-1.7-1.6-2.4-2.5c-.4-.4-.7-.8-1.1-1.2-.2-.3-.4-.5-.6-.8-.8-.9-1.2-2-1.5-3.2-.3-1.5-.6-2.9-1.3-4.2-.5-1-1.1-2-1.8-2.9-.4-.5-1-.9-1.7-1.1.3.6.5 1.1.8 1.7.6 1.2.8 2.5.7 3.9-.1.8-.1 1.6 0 2.4v.8c-.1 1.9.2 3.8 1.3 5.5v.2c-.2 0-.4 0-.5 0-1.5-.3-3.1-.5-4.5998-.8-.5-.1-1-.2-1.4-.2-1.6 0-3.1-.5-4.5-1.2-.9-.5-1.9-.9-2.8-1.4-.6-.3-1.3-.7-1.9-1.1-.9-.6-1.8-1.3-2.6-1.9s-1.6-1.3-2.3-2.1c-.5-.6-1-1.1-1.5-1.7s-1-1.3-1.6-1.9c-.3-.3-.3-.7-.2-1 .1-.9 1-1.3 1.7-.8.1.1.2.3.5.2 0-.4-.1-.8-.4-1.1-.3-.4-.7-.8-1-1.2-.9-1-1.6-2-2.4-3.1-.5-.6-.4-1.2-.2-1.9.1-.3.3-.6.7-.7.6-.2 1.2-.3 1.8 0 .5.3.9.6 1.3 1 .2.2.3.4.6.5.3-.2.2-.4.1-.6-.3-.5-.7-1-1-1.5-.7-.9-1.5-1.7-2.5-2.2-.6-.4-1.3-.8-1.9-1.3-.5-.4-.5-1-.1-1.4s.9-.7 1.5-.7c.8 0 1.6.1 2.5.2 1.1.1 2.1.5 3.1.8.2.1.3.1.6.1-.2-.4-.5-.6-.8-.7-.5-.3-1-.5-1.5-.7-1-.5-2-.9-3-1.2-.8-.2-1.5-.6-2.2-1.1-.3-.2-.5-.5-.7-.8-.2-.2-.1-.5.1-.7s.5-.3.8-.2c.2.1.5.1.7.2.4-.7.4-.9-.1-1.4-.7-.7-1.5-1.3-2.3-1.9-.1-.1-.2-.1-.3-.2-1.2-.6-2.3-1.3-3.5-1.9-.9-.4-1.7-1-2.5-1.6-.2-.1-.3-.3-.4-.4-.4-.4-.6-.9-.4-1.6.1-.3.1-.6 0-1-1.2-.1-2.3-.2-3.5-.3-1.1-.1-2.3-.2-3.3-.8-.1 0-.1-.1-.2-.1-1.1-.2-2.2-.3-3.3.1s-2.1.9-3.2 1.3c-1 .5-2.1.4-3.1-.3.4-.4.7-.9 1.1-1.3 1.1-.9 2.3-1.8 3.8-2.1l1.5-.3c.5-.1 1-.1 1.5 0 .3.1.5.1.8.1.9-.1 1.8.1 2.6.4.5.1 1 .3 1.5.4 1.3.3 2.7.4 4.1.5.6 0 1.3.2 1.9.3s1.2.4 1.6.9c.2.2.4.3.7.5 1.3.7 2.7 1.2 4.1 1.5.4.1.9.2 1.4.2 1 0 2 0 3-.1.5 0 1.1-.1 1.6-.1.6-.1 1.1-.4 1.7-.1h.4c.5-.1.9-.3 1.2-.6.8-.6 1.6-1.4 2.3-2.2.3-.3.5-.7.7-1.2.4-.9.7-1.8 1-2.7l.6-1.5c.4-.9.8-1.8 1.1-2.7.4-1.2.5-2.5.7-3.7.2-1.6.4-3.2.8-4.8.2-.8.3-1.5.4-2.3.1-.9.1-1.7.2-2.6.1-1.2.2-2.4.5-3.5.2-.6.3-1.3.3-2 0-.4 0-.8.1-1.3 0-.3 0-.6.1-.9.1-.5.2-1 .4-1.5.2-.6.3-1.3.6-1.9.4-.9.6-1.8.6-2.8 0-1.4.3-2.8.6-4.2.3-1.5.6-3 .9-4.5.2-1.4.6-2.8 1.0998-4.2.3-.8.8-1.6.8-2.6 0-.1 0-.1 0-.2.4-1 .7-2.1 1.5-2.9.2-.2.3-.5.4-.7s.2-.4.3-.5c.4-.5.8-1 1.3-1.6.2-.2.3-.4.4-.6.4-1 .9-1.9 1.5-2.8.5-.7.9-1.6 1.3-2.4.7-1.4 1.4-2.9 2.1-4.3.6-1.5 1.4-2.8 2.4-4 .2-.2.3-.5.4-.8s.2-.6.3-1c.3-1.1.6-2.3 1-3.4.5-1.3.9-2.7 1.4-4 .8-2.1 1.8-4.2 2.8-6.2.6-1.1 1.3-2.1 2.2-3l1.1-1.1c.2-.2.4-.4.5-.6.4-.6.8-1.3 1.2-1.9.2-.3.5-.6.8-.7.1-.1.3-.1.4.1-.1.3-.2.5-.3.8-.4 1-.8 1.9-1 2.9-.3.9-.6 1.7-1.1 2.5-.3.5-.6 1.1-.8 1.6s-.4 1.1-.6 1.6c-.4.9-.8 1.7-1.2 2.5-.9 2-1.6 4.2-2.3 6.3v.1h.2c.6-.7 1.1-1.5 1.6-2.3.9-1.7 2.1-3.2 3.5-4.5 1.5-1.4 3-2.8 4.1-4.5.3-.4.7-.9 1.1-1.2.6-.5 1.2-.9 1.8-1.4.5-.4 1.1-.8 1.4-1.4 1.1-1.6 2.5-2.8 4-4 .3-.2.6-.5.8-.8.7-.9 1.4-1.7 2.2-2.6l.3-.3c.1-.1.3-.2.4 0-.1.4-.2.8-.3 1.2-.4 1-.7 1.9-.9 2.9-.1.4-.3.8-.5 1.1-.6.8-1.3 1.5-2 2.2-.9.9-1.7 2-2.3 3.1-.3.6-.7 1.1-1.1 1.5-.6.7-1.3 1.5-2 2.1-.2.1-.3.3-.4.5-.3.4-.7.8-1 1.1-.6.5-1 1.2-1.4 1.9-.1.1-.2.2-.1.4h.3c1.9-.9 3.7-2 5.6-2.8.7-.3 1.3-.8 1.9-1.3.4-.4.9-.7 1.3-1.1.8-.7 1.8-1.3 2.4-2.2.6-.7 1.4-1.3 2.2-1.8.7-.4 1.4-.8 2.1-1.2.9-.5 1.7-.9 2.7-1.1 1.1-.3 2.2-.5 3.3-1 0 0 .1.1.2.1-.3.3-.6.6-.9.9-.2.2-.4.4-.6.6-.6.8-1.3 1.6-1.9 2.3-.7.8-1.4 1.6-2.2 2.3-1.3 1-2.5 2.2-3.6 3.3-1.4 1.4-2.9 2.6-4.5 3.7-.1.1-.1.2-.3.4 1.2-.4 2.2-.7 3.1-1.4.5-.4 1.1-.7 1.7-.9 1.5-.5 3-1 4.5-1.4.6-.2 1.2-.3 1.8-.6 1.6-.9 3.1-1.8 4.8-2.4.1-.1.3-.1.4-.2 1.3-.7 2.5-1.4 3.8-2 .2-.1.4-.2.6-.2.4-.1.8.2.9.5s0 .6-.2.8c-.3.3-.6.6-.9.9s-.6.6-.8 1c-.5 1-1.2 1.7-2.2 2.3-.6.4-1.2.7-1.8 1.1-.2.1-.5.3-.6.5-.5.6-1 1.2-1.5 1.9s-1.1 1.4-1.7 2c-.5.5-1 1-1.5 1.4-1.1 1-2.2 2-3.5 2.6 0 0-.1.1-.1.2.5.2 1 .2 1.5 0s.9-.3 1.4-.5c.7-.2 1.4-.5 2.2-.7 1.7-.4 3.3-.8 4.8-1.6.2-.1.3-.1.5-.2 1.2-.5 2.5-1 3.7-1.5 1.1-.5 2.2-.9 3.4-1.4.4-.2.9-.3 1.3-.3.3 0 .6-.1.9-.2.5-.3 1.1-.5 1.6-.8.1-.1.3-.1.4-.1.4-.1.7.2.7.7 0 .4-.2.6-.5.8-.8.4-1.4 1-2 1.6-.3.3-.6.5-.9.6-.6.4-1.3.8-1.9 1.2-.5.3-1 .6-1.5 1-1.1.8-2.1 1.6-3.4 2.1-.1 0-.2.1-.3.2-1.1.8-2.3 1.5-3.5 2.1-.3.1-.5.3-.8.5-1.7 1.1-3.5 1.9-5.5 2.4-1.3.3-2.6.7-3.9 1.1-.3.1-.6.1-.8.4.3-.1.7-.1 1-.2 1.3-.4 2.6-.7 4-1.1 1-.3 2-.5 3-.7.9-.2 1.9-.4 2.8-.5 1-.1 1.9-.3 2.8-.7 1.8-.6 3.6-1.1 5.4-1.2.8-.1 1.7-.1 2.6-.1.2 0 .4 0 .5.4-.2.2-.3.4-.5.7-.2.2-.4.5-.6.7-.5.7-1.1 1.3-1.8 1.8-.8.5-1.6 1-2.4 1.6-1 .7-2 1.1-3.2 1.3-1 .2-2 .5-2.9 1.1-.1.1-.2.1-.3.1-.8.1-1.6.2-2.4.3-.5 0-1 .1-1.5.3-.7.2-1.3.5-2 .8-.1.1-.3.1-.3.3.9.1 1.8.2 2.6.4s1.6.2 2.5.1c.6-.1 1.3-.1 1.9-.1 1.5-.1 3-.2 4.6-.3.3 0 .6-.1.9-.2.6-.1 1.1-.2 1.7-.2 1 0 2.1.1 3.1.2.3 0 .6.2.9.3s.4.4.2.6c-.5 1-1 1.9-2.1 2.4-.6.3-1.2.6-1.8.9-.5.2-1.1.4-1.6.6-.3.1-.6.2-1 .3-1.1.4-2.3.6-3.5.8-.2 0-.5.1-.7 0-1.3-.3-2.5-.1-3.7.1-1.4.3-2.7.6-4.1.8-.1 0-.2.1-.4.1-.3.1-.7.1-1 .2-.4.1-.8.2-1.1.4-.7.3-1.4.6-2.2.7-.5.1-.9.1-1.4.2-.6.1-1 .3-1.4.6.1 0 .3.1.4.1.7 0 1.3 0 2-.3.6-.2 1.1-.2 1.7-.3h1.1c1.1-.1 2.1-.1 3.2-.2.7-.1 1.4-.2 2.1-.2 2 0 4-.1 6 .3.2 0 .4.1.6 0 2-.1 3.9.4 5.9.6.4 0 .7.2.8.6-.4.5-.9 1-1.4 1.3-.3.2-.7.4-.9.7-.5.5-1.2.9-1.9 1.1-1.6.5-1.2.5-3 .2-.9-.2-1.9-.3-2.8-.5-.1 0-.2 0-.3 0-1.8 0-3.6.1-5.4.1-1.4.1-2.9.1-4.3.2-.7 0-1.4.2-2.1.5-1.1.5-2.2.8-3.3 1.1-.6.1-1.2.4-1.8.6-.1 0-.2.1-.1.3 1.5-.1 3-.1 4.5-.2 4.7-.4 9.4-.2 14 .6l1.5.3c1 .3 2.1.5 3.1.5.5 0 .9.1 1.3.3.2.1.4.2.4.5-.3.6-.9 1-1.4 1.4-.7.6-1.4 1.2-2.2 1.6-.3.1-.6.2-.9.2-.5-.1-1-.2-1.5-.2-.8 0-1.6-.1-2.5-.1-1.2.1-2.4 0-3.5-.1-1-.1-2-.3-3-.5-.7-.1-1.5-.3-2.3-.3-1.1 0-2.2.1-3.3.1-.2 0-.4 0-.6.1-.1 0-.2.1-.4.3 1.9.1 3.6.4 5.3.7 2.4.5 4.7.9 7.1 1.3 1.4.2 2.8.7 4.1 1.2.1 0 .2.1.3.1.3.2.5.5.5.9s-.2.6-.5.8c-.2.1-.5.2-.8.3-.5.2-1 .3-1.5.5s-1.1.4-1.7.5c-1.8.1-3.6.2-5.4.2-.6 0-1.1 0-1.7 0 0 .2.2.3.3.3 1.1.4 2.2.8 3.4 1.1 1.2.4 2.3.9 3.4 1.6.9.6 1.9 1.3 2.8 1.8.6.4 1.1.8 1.5 1.3.1.1.2.3.3.5-.3.1-.6.2-.8.3-.6.2-1.2.2-1.7-.3-.1-.1-.2-.1-.3-.2-1.2-.6-2.4-1.2-3.7-1.6-1.4-.5-2.7-1-4.1-1.4-.8-.2-1.5-.4-2.3-.5-.6-.1-1.1-.3-1.7-.4-.1 0-.3 0-.4 0 .1.1.1.2.1.2.5.3 1 .5 1.5.7 1.2.5 2.3 1.1 3.5 1.6.8.4 1.5.7 2.3 1.1 1.4.7 2.7 1.4 4 2.2.4.3.8.6 1 1 .3.6.6 1.1.9 1.7.1.1.1.2.1.3-.1 0-.1.1-.2.1-1-.2-2-.2-3-.7-1.5-.7-3-1.3-4.5-1.9-.4-.2-.9-.3-1.3-.5-.4-.1-.4 0-.6.5.5.5 1.1.9 1.6 1.4.7.7 1.4 1.2 2.3 1.7 1.1.6 2.2 1.4 3.1 2.3.3.3.6.5.9.8.6.6 1.3 1.2 1.8 1.9.1.1.1.3.1.4-.6 0-1 .1-1.5.1-.7.1-1.3-.1-1.8-.4-.8-.4-1.6-.8-2.4-1.1-.5-.2-1-.3-1.5-.4-.2-.1-.4-.1-.6-.2-1.8-1-3.8-1.8-5.7-2.5-.2-.1-.3-.1-.6-.2.1.4.2.7.6.8 1.2.4 2.3.9 3.4 1.6 1.5 1 3.1 1.9 4.7 2.8 2 1.2 3.4 3 4.3 5.1.1.2.1.3.1.6-.6-.2-1.1-.5-1.6-.6-.6-.1-1.1-.2-1.7-.3h-.1c-1.4-.4-2.9-.8-4.3-1.3-1.3-.4-2.7-.9-4-1.3-.3-.1-.5-.2-.9-.2.3.2.5.3.8.4 1.6.8 3.2 1.6 4.7 2.7.6.4 1.2.8 1.8 1.1 1.6.8 3 1.9 4.3 3.1.4.3.7.8.9 1.2.1.2.2.4.2.7 0 .4-.3.7-.7.6-.3-.1-.5-.2-.8-.3-.9-.5-1.8-.9-2.8-1.4-.5-.2-.9-.5-1.4-.7-1.7-.7-3.3-1.3-4.9-2.2-.2-.1-.4-.2-.7-.3-.1 0-.3 0-.4-.1.4.4.9.6 1.3.9s.8.5 1.2.8c.9.8 1.8 1.5 2.7 2.1.5.3 1 .7 1.4 1.2.7 1 1.5 1.9 2.3 2.7.2.2.3.4.4.6.1.3-.1.6-.5.6-.2 0-.5-.1-.7-.3-.7-.5-1.4-.8-2.2-1.1-.5-.2-.9-.4-1.4-.6-1.2-.5-2.3-1.1-3.6-1.4-1.7-.5-3.4-1-5-1.6-.1 0-.2 0-.4-.1-.1.2-.1.3-.1.4 0 0 0 0 .1.1.2.1.5.2.8.3.9.3 1.7.6 2.6.9 1.5.6 2.8 1.5 4.1 2.5.8.6 1.6 1.3 2.5 1.8s1.6 1.2 2.2 2c.1.2.3.3.3.5.5 1.2.9 2.4 1.3 3.7.1.4.2.9.1 1.4-.2 0-.4 0-.5-.1-.6-.3-1.2-.5-1.7-.8-.2-.1-.5-.3-.7-.4-1.1-.8-2.3-1.4-3.6-1.9-1.1-.4-2.2-.8-3.2-1.2-.7-.3-1.5-.5-2.2-.8.1.2.2.3.3.3.5.3 1.1.6 1.6.9.8.5 1.6 1 2.2 1.8.4.5.8.9 1.4 1.2.3.2.7.4 1 .6.7.5 1.4.9 1.9 1.7.1.2.3.3.5.4 1 .7 1.7 1.8 2.1 2.9.1.1.1.3.1.5-.2 0-.4.1-.5.1-.6.1-1.2.1-1.8.2s-1.3.1-1.9 0c-.6-.2-1.2-.3-1.8-.6-.8-.3-1.7-.7-2.6-.9-.1 0-.3-.1-.4-.2-1.3-.6-2.6-1.2-3.7-2.2-.3-.3-.6-.6-1-.8-.5-.5-1.1-.9-1.8-1.1-.5-.2-1-.5-1.5-.7-.5-.3-1-.5-1.6-.7-1-.4-2-.8-2.8-1.5-.2-.1-.4-.2-.6-.3-.1-.1-.2-.2-.4 0 .2.2.4.3.7.5 1 .7 2.1 1.4 3.1 2.1.6.4 1.3.9 1.6 1.6.1.2.2.3.4.4.9.9 1.9 1.7 2.8 2.6 1 .9 1.9 1.9 2.7 3.1.3.5.7.9 1 1.4.2.3.4.5.6.8.5 1 1 2.1 1.3 3.2.1.2.1.5.2.7-.2 0-.3 0-.4 0-.6-.2-1.1-.2-1.7-.2-.4 0-.9 0-1.3-.1-2.2-.7-4.4-1.5-6.3-2.9-.3-.2-.5-.4-.8-.7-.7-.9-1.6-1.6-2.4-2.4-1-.9-2-1.6-3.2-2.2-.6-.3-1.2-.6-1.8-.9-.9-.5-1.9-.9-2.9-1.2-.1 0-.2 0-.3 0 .1.1.1.2.2.2.3.1.5.3.8.4 1.7.9 3.3 1.9 4.6 3.3.8.8 1.6 1.6 2.6 2.3.8.5 1.3 1.2 1.7 2.1.6 1.4 1.4 2.8 2.3 4.1.3.5.7.9 1.1 1.2.4.4 1 .7 1.5 1.1.2.1.3.2.6.4-.3.1-.4.1-.6.2-1 .3-2.1.1-3.1 0-.4 0-.7-.1-1.1-.2-.8-.3-1.7-.4-2.5-.9-.1-.1-.3-.2-.5-.3-1-.6-1.9-1.3-2.6-2.3-.3-.4-.6-.8-.9-1.2-.9-1.2-2-2.3-3.2-3.2-.3-.2-.6-.5-.9-.8-1.7-1.7-3.8-2.8-6-3.6-.2.2-.2.4 0 .5.3.3.5.5.8.7.5.4 1 .7 1.5 1 .9.7 1.7 1.4 2.3 2.4.2.4.6.7.9 1 .2.2.3.3.5.5s.4.4.6.7c.5.6 1.1 1.2 1.5 1.9.3.5.5 1 .8 1.4.5.7.9 1.4 1.5 2.1 1.3 1.4 2.8 2.5 4.6 3.3 1 .5 2 .9 3 1.3.6.2 1.2.4 1.9.3 1-.1 2.1.1 3.1.3.4.1.8.1 1.2 0 .8-.1 1.6-.3 2.4-.5 1.2-.3 2.3-.7 3.4-.9s2.2-.5 3.2-.9c.3-.1.7-.2 1.1-.3.3-.1.6-.1.9-.2 1.6-.5 3.3-.8 4.9-.8.8 0 1.5.1 2.2.5.5.3 1.1.7 1.6 1 .6.4.8 1.1 1.1 1.8-.2 0-.4 0-.5 0-1.2-.3-2.4-.2-3.5-.2-.2 0-.4 0-.6 0-.9-.1-1.8.1-2.7.3-1 .2-2 .4-3.1.6-1.5.2-3 .4-4.4.5-.2 0-.4.1-.5.2-.1 0-.2.2-.2.3.1.1.1.1.2.1 1 .1 2.1.3 3.1.4.8.1 1.6.1 2.3.5.7.3 1.5.5 2.3.6 2.2.3 4.3 1.1 6.2 2.3.8.5 1.6.9 2.4 1.4.2.1.3.2.5.3.6.5 1.2.8 1.9 1.1.4.2.7.3 1.1.5-.7-.8-.6-.7-.6-.5h.1c.1 0 0 0-.1 0 .1 0 .1-.1 0 0zm-121.0998 3.6c-.5.1-1 .2-1.4.3-1 .2-2 .4-2.9.9-.2.1-.4.2-.5.3-.8.9-1.7 1.7-2.5 2.7-.7.9-1.6 1.5-2.6 2.1-.3.2-.7.3-1 .4s-.7 0-.9-.3-.3-.6-.1-.9.5-.5.7-.8c.2-.2.4-.3.5-.5.8-1.6 1.7-3.1 2.6-4.7.5-.8.9-1.6 1.7-2.1.1-.1.1-.1.2-.2.3-.3.3-.6.2-.9s-.4-.5-.8-.5c-1.6 0-3.2.2-4.7.6-.7.2-1.3.4-2 .5-.5-.8-.5-.8 0-1.5.6-.7 1.2-1.2 2-1.7.4-.2.8-.5 1.2-.9-.2-.1-.3-.1-.4-.1-1.4-.1-2.7-.5-4-.9-.3-.1-.6-.1-.9-.2-.5-.3-1.1-.4-1.7-.4-.1 0-.2-.1-.4-.2.4-.4.7-.6 1.1-.7.8-.3 1.5-.6 2.4-.9 1.4-.4 2.8-.6 4.2-1 1-.2 2-.4 3-.8.9-.4 1.9-.7 2.8-1.1.2-.1.3-.1.5-.1 1.5-.4 3.1-.5 4.6-.5 1.4 0 2.7-.1 4.1-.3.7-.1 1.4-.2 2.1-.2 1.5-.1 3.1-.3 4.6-.9 1-.3 2-.6 2.9-1.1.2-.1.4-.1.6-.2 1.4-.4 2.8-.6 4.2-.7 2.2-.1 4.5-.2 6.7-.4.4 0 .8-.1 1.3-.1s1-.1 1.5 0c1 .2 2 .2 2.9.6.2.1.4.1.5.3.6.6 1.2 1.3 1.8 1.9 1.1 1.1 1.8 2.5 2.7 3.8.1.1.2.3.2.5.3 1 .9 1.8 1.6 2.5.3.3.6.6.8.9l.3.6c.2 1.3.8 2.4 1.4 3.5.8 1.5 1.7 3.1 2.2 4.8.2.6.3 1.3.5 1.9.2.7.3 1.4.1 2.1v.3c0 .7-.3 1.4-.5 2-.1.3-.3.5-.6.6-.5.1-.9 0-1.3-.3-.7-.4-1.2-.9-1.7-1.5-.4-.5-.9-1.1-1.3-1.6-.3-.3-.5-.7-.9-.9-.1.4-.1.7 0 1 .1.9.1 1.9.2 2.8 0 .5-.1.9-.3 1.4-.2.6-.6.9-1.2.9-.7 0-1.2-.2-1.6-.7-.2-.3-.5-.6-.8-.9-.2-.3-.5-.6-.7-.9-.3-.5-.6-1-1-1.4-.1-.1-.2-.2-.4-.4-.2.4-.2.4-.2.6.1.6.2 1.1.2 1.7 0 1.4-.2 2.7-.5 4-.1.6-.5 1.1-.9 1.5-.4.3-.9.4-1.4.2-.6-.3-1.1-.7-1.4-1.3-.4-.7-.8-1.4-1.2-2.1-.1-.2-.2-.3-.3-.4s-.3-.1-.4 0c-.1 0-.1.2-.2.3v.6c.1.8 0 1.6-.3 2.4-.3 1-1 1.6-2.1 1.7-.2 0-.4 0-.6-.1-.4-.3-.9-.5-1.1-1-.4-.9-.8-1.8-.9-2.8 0-.2 0-.4-.2-.5-.3.2-.4.5-.6.8-.7 1.3-1.7 2.3-2.9 3.1-.8.5-1.9.3-2.4-.4-.4-.6-.7-1.2-.8-1.9-.2-1.2-.3-2.3-.4-3.5 0-.2-.1-.4-.1-.6-.4-.1-.6 0-.7.3-.2.8-.7 1.4-1.1 2.1-.2.4-.5.7-.9 1-.7.6-1.4 1.1-2.2 1.7-.2.2-.5.3-.8.4-.2.1-.4 0-.5-.1-.6-.5-1-1.1-1.1-1.9-.1-.6-.2-1.1-.3-1.7-.1-.4-.1-.7-.2-1.1-.1-1-.2-2-.3-3 0-.2 0-.4-.1-.6-.1-.3-.4-.4-.6-.2s-.4.5-.6.7c-.4.6-.8 1.1-1.3 1.5-.6.5-1.1.9-1.7 1.3-.8.6-1.7 1-2.6 1.5-.4-.4-.4-.5-.3-.9.4-1.4.5-2.7.5-4.1 0-.1 0-.1 0-.2 0-.8.1-1.6.4-2.4.8-.8 1-1.6 1.3-2.4zm61.2998 6.5c0 .1-.1.3-.1.4-.2.3-.3.6-.5.8-.4998.7-.7998 1.5-1.4998 2.2-.2.6-.6 1-.9 1.4-.5.7-1.1 1.4-1.3 2.4 0 .2-.2.4-.3.6-.4.6-1 .9-1.7.9-.6 0-1-.4-1.4-.9-.1-.2-.2-.4-.2-.7-.1-.2-.1-.4-.1-.6-.1-.2-.1-.5 0-.7.3-.6.5-1.3.7-2 .2-.5.4-1.1.5-1.6.2-.9 0-1.3-.8-1.7-.6-.3-1.1-.6-1.6-1.1-.8-.7-1.7-1.5-2.5-2.2-.9-.8-1.7-1.8-2.3-2.8-.1-.1-.2-.2 0-.4.7.4 1.4.8 2.2 1.2 1.1.6 2.3 1.3 3.4 1.9.7.4 1.3.7 2.1.9.3.1.5.2.7.3.5.3 1 .5 1.5.5 1.3.2 2.6.8 3.8998 1 .1.1.2.1.2.2zm-40.9998-47c.5-.2.9-.1 1.2-.1.8 0 1.5.4 2.1.9s.7 1 .5 1.6c-.8 2-2.7 3-5.1 2.1-.1 0-.2-.1-.3-.2-.3-.3-.7-.6-1-.9-.4-.4-.5-1-.4-1.6.3-.8.9-1.2 1.7-1.4 0 .1-.1.1-.2.2s-.2.2-.3.3c-.7.9-.7 1.6.1 2.4l.1.1c.3.3.7.5 1.2.4.3-.1.7-.1 1-.1 1.3-.3 1.3-.3 1.9-1.4.4-.6.3-1.1-.2-1.6-.6-.5-1.3-.9-2.1-.8.1.2 0 .1-.2.1zm-10.5 3.5c0-.2-.1-.4-.1-.5-.1-.6.1-1.1.7-1.3.1 0 .2-.1.3-.2.3-.2.6-.3.9-.2s.5.1.8.2c.4.1.7.4.8.8.1.2.1.5.1.7.1.9-.2 1.2-1.1 1.2-.1 0-.1 0-.2-.1-.2-.6-.3-.7-.6-.7-.4 0-.6.3-.6.7-.3-.2-.6-.4-1-.6zm1.7 6.7c.3-.9.9-1.6 1.6-2 .3-.1.6-.3.8-.3.4-.1.8.1 1 .4.3.6.4 1.2.1 1.8-.1.2-.2.4-.5.4-1 .3-2 .4-3-.3zm-2.5-1.2c.1-.5.1-.8.1-1.1.2-.8.5-1.6 1-2.3.2-.3.4-.4.8-.3h2 .3v.2c-.5.8-1.2 1.5-2 1.9-.6.3-1.2.7-1.7 1.2-.1.1-.2.2-.5.4zm12.3-7.6c-.2.4-.4.4-.7.5-.1 0-.2 0-.3-.1-.1 0-.1-.1-.1-.2 0 0 0-.1.1-.1.3-.2.6-.3 1-.1z" fill="#000"/><path d="m237 317v-21.7c0-6.2-3.3-9.1-8.9-9.1-4.6 0-8.6 2.7-10.4 5.4-1.1-3.4-3.9-5.4-8.4-5.4-4.6 0-8.6 2.9-9.9 4.6v-3.8h-7.9v30h7.9v-20.3c1.2-1.6 3.5-3.5 6.2-3.5 3.2 0 4.5 2 4.5 4.8v19h8v-20.3c1.1-1.6 3.4-3.5 6.2-3.5 3.2 0 4.5 2 4.5 4.8v19zm32.7 0v-19.4c0-8.6-6.3-11.4-13.2-11.4-4.7 0-9.5 1.4-13.2 4.7l3.1 5.5c2.5-2.3 5.5-3.5 8.7-3.5 4 0 6.6 2 6.6 5v3.8c-2-2.4-5.5-3.7-9.6-3.7-4.8 0-10.4 2.6-10.4 9.7 0 6.7 5.6 9.9 10.4 9.9 3.9 0 7.5-1.4 9.6-3.9v3.2zm-14.4-4.6c-3.1 0-5.7-1.6-5.7-4.5s2.6-4.5 5.7-4.5c2.6 0 5.1.9 6.4 2.7v3.7c-1.3 1.7-3.8 2.6-6.4 2.6zm37.3 4.6 12.1-30h-8.5l-7.9 20.9-7.9-20.9h-8.5l12.1 30zm28.7.7c4.7 0 9.4-1.4 12.4-4.2l-3.6-5.2c-1.9 1.9-5.4 2.9-8 2.9-5.1 0-8.1-3-8.7-6.7h22.4v-1.9c0-9.8-6.1-16.5-15.1-16.5-9.1 0-15.6 7-15.6 15.7 0 9.8 7 15.9 16.2 15.9zm6.9-18.6h-14.9c.3-3 2.4-6.4 7.4-6.4 5.3 0 7.3 3.5 7.5 6.4zm20.1 17.9v-19.8c1.3-1.9 4.8-3.4 7.4-3.4.9 0 1.6.1 2.2.2v-7.7c-3.8 0-7.4 2.2-9.6 4.8v-4h-7.9v30zm17.3-33.3c2.6 0 4.8-2.1 4.8-4.7s-2.1-4.7-4.8-4.7c-2.6 0-4.7 2.1-4.7 4.7s2.1 4.7 4.7 4.7zm4 33.3v-30h-7.9v30zm20.6.7c6.2 0 9.9-2.7 11.9-5.5l-5.2-4.8c-1.4 2.1-3.6 3.3-6.4 3.3-4.8 0-8.2-3.5-8.2-8.8s3.4-8.7 8.2-8.7c2.7 0 4.9 1.1 6.4 3.2l5.2-4.8c-2-2.7-5.7-5.4-11.9-5.4-9.2 0-16 6.5-16 15.7 0 9.3 6.8 15.8 16 15.8zm45.4-.7-12.3-16.4 11.9-13.6h-9.7l-11.5 13.3v-24.8h-7.9v41.5h7.9v-7.7l3.6-3.9 8 11.6zm29.4 0v-41.5h-3.3v16.3c-2.4-3.4-6.2-5.6-10.5-5.6-8 0-13.4 6.3-13.4 15.8 0 9.6 5.4 15.7 13.4 15.7 4.5 0 8.4-2.4 10.5-5.5v4.8zm-13.2-2.2c-6.7 0-10.6-5.5-10.6-12.8s3.9-12.9 10.6-12.9c4.3 0 8.2 2.5 9.9 5.5v14.9c-1.7 2.8-5.7 5.3-9.9 5.3zm23.7-32.6c1.4 0 2.5-1.1 2.5-2.5s-1.1-2.4-2.5-2.4c-1.3 0-2.5 1.1-2.5 2.4 0 1.4 1.2 2.5 2.5 2.5zm1.7 34.8v-30h-3.2v30zm20.8 12.2c7.3 0 13.6-3.3 13.6-12.4v-29.8h-3.3v4.8c-2.4-3.4-6.2-5.6-10.5-5.6-8 0-13.4 6.2-13.4 15.7 0 9.6 5.4 15.7 13.4 15.7 4.5 0 8.4-2.5 10.5-5.7v4.8c0 6.8-4.8 9.5-10.2 9.5-4.6 0-7.4-1.1-10.1-4.2l-1.9 2.6c3.5 3.6 6.8 4.6 11.9 4.6zm.3-14.5c-6.7 0-10.6-5.5-10.6-12.7s3.9-12.8 10.6-12.8c4.2 0 8.2 2.5 9.9 5.5v14.6c-1.7 2.8-5.7 5.4-9.9 5.4zm23.7-32.5c1.4 0 2.5-1.1 2.5-2.5s-1.1-2.4-2.5-2.4c-1.3 0-2.5 1.1-2.5 2.4 0 1.4 1.2 2.5 2.5 2.5zm1.6 34.8v-30h-3.2v30zm15.5.7c2.5 0 3.9-.7 5.1-1.9l-1.2-2.5c-.7.7-1.9 1.4-3.4 1.4-2.1 0-3.1-1.7-3.1-4.1v-20.9h6.1v-2.7h-6.1v-8.2h-3.3v8.2h-5v2.9h5v21.4c-.1 4 1.9 6.4 5.9 6.4zm31.8-.7v-21.1c0-6.7-4.9-9.6-11-9.6-5 0-8.5 1.7-11.6 5l1.8 2.2c2.8-3.1 5.7-4.4 9.5-4.4 4.4 0 8.1 2.4 8.1 6.9v6.1c-2.6-2.9-6.1-4.3-10.2-4.3-5.2 0-10.6 3.4-10.6 9.9s5.4 10 10.6 10c4.2 0 7.6-1.4 10.2-4.3v3.5zm-12.4-1.8c-4.9 0-8.2-3.2-8.2-7.4 0-4.3 3.3-7.5 8.2-7.5 3.6 0 7 1.4 9.1 4.2v6.6c-2.1 2.7-5.5 4.1-9.1 4.1zm24.5 1.8v-41.5h-3.2v41.5z" fill="#fff"/><path d="m196.9 346.4c2.4 0 4.3-1 5.6-2.5v-5h-6.1v2.9h2.9v1c-.5.4-1.4.8-2.3.8-2.1 0-3.5-1.6-3.5-3.7s1.5-3.7 3.5-3.7c1.2 0 2.2.8 2.7 1.6l2.7-1.4c-.9-1.6-2.6-3.1-5.4-3.1-3.8 0-6.9 2.5-6.9 6.5-.1 4.1 3 6.6 6.8 6.6zm21.6-.3-4.8-12.6h-4.1l-4.8 12.6h3.7l.6-1.8h5l.6 1.8zm-5.3-4.6h-3.2l1.6-4.8zm22.5 4.6v-12.6h-4.5l-2.6 7-2.7-7h-4.5v12.6h3.3v-8.3l3.2 8.3h1.4l3.2-8.3v8.3zm13.5 0v-2.8h-6v-2.1h5.9v-2.8h-5.9v-2h6v-2.8h-9.3v12.6zm16.8.3c3.1 0 4.7-1.8 5.5-3.4l-2.8-1.3c-.4 1-1.5 1.8-2.7 1.8-2.1 0-3.5-1.6-3.5-3.7s1.5-3.7 3.5-3.7c1.2 0 2.3.8 2.7 1.8l2.8-1.3c-.8-1.6-2.5-3.4-5.5-3.4-3.9 0-6.9 2.6-6.9 6.5 0 4 3 6.7 6.9 6.7zm20.7-.3v-12.6h-3.3v4.7h-5.3v-4.7h-3.3v12.6h3.3v-5.1h5.3v5.1zm16.5 0-4.8-12.6h-4.1l-4.8 12.6h3.7l.6-1.8h5l.6 1.8zm-5.3-4.6h-3.2l1.6-4.8zm19.9 4.6v-12.6h-3.3v6.9l-5.1-6.9h-3.4v12.6h3.3v-7.3l5.4 7.3zm10.4.3c2.4 0 4.3-1 5.6-2.5v-5h-6.1v2.9h2.9v1c-.5.4-1.4.8-2.3.8-2.1 0-3.5-1.6-3.5-3.7s1.5-3.7 3.5-3.7c1.2 0 2.2.8 2.7 1.6l2.7-1.4c-.9-1.6-2.6-3.1-5.4-3.1-3.8 0-6.9 2.5-6.9 6.5 0 4.1 3 6.6 6.8 6.6zm18.8-.3v-2.8h-6v-2.1h5.9v-2.8h-5.9v-2h6v-2.8h-9.3v12.6zm14.6 0-2.6-4.6c1.2-.4 2.5-1.6 2.5-3.8 0-2.3-1.6-4.2-4.4-4.2h-6.4v12.6h3.3v-4.2h1.7l2.1 4.2zm-5-7h-2.6v-2.7h2.6c.9 0 1.6.5 1.6 1.3 0 .9-.7 1.4-1.6 1.4z" fill="#fff"/></g></svg>