<svg width="281" height="78" viewBox="0 0 281 78" fill="none" xmlns="http://www.w3.org/2000/svg">
<g clip-path="url(#clip0_10_102)">
<path d="M36.59 77.9262V73.8675H31.8528V77.9262H31.1619V69.3169H31.8528V73.3018H36.59V69.3169H37.2808V77.9262H36.59Z" fill="#C7C9CB"/>
<path d="M51.6158 77.9262V69.3169H57.1425V69.9072H52.3066V73.3018H56.427V73.8921H52.3066V77.3604H57.1425V77.9508H51.6158V77.9262Z" fill="#C7C9CB"/>
<path d="M70.7867 77.9262V69.3169H71.4775V77.3358H76.3134V77.9262H70.7867V77.9262Z" fill="#C7C9CB"/>
<path d="M89.6121 77.9262V69.3169H90.3029V77.9262H89.6121Z" fill="#C7C9CB"/>
<path d="M107.401 78C106.538 78 105.724 77.6803 105.131 77.1145C104.292 76.3274 104.292 75.5648 104.292 73.6216C104.292 71.6784 104.292 70.9158 105.131 70.1287C105.724 69.5629 106.562 69.2432 107.401 69.2432C109.03 69.2432 110.214 70.2025 110.485 71.7522H109.77C109.498 70.5715 108.61 69.8089 107.377 69.8089C106.735 69.8089 106.118 70.0303 105.649 70.4731C105.008 71.088 104.934 71.7522 104.934 73.597C104.934 75.4418 104.983 76.106 105.649 76.7209C106.118 77.1637 106.735 77.3851 107.377 77.3851C108.61 77.3851 109.523 76.6471 109.795 75.4418H110.461C110.165 76.9915 108.956 77.9508 107.377 77.9508L107.401 78Z" fill="#C7C9CB"/>
<path d="M129.41 77.1145C128.817 77.6803 127.978 78 127.14 78C126.301 78 125.462 77.6803 124.87 77.1145C124.031 76.3274 124.031 75.5648 124.031 73.6216C124.031 71.6784 124.031 70.9158 124.87 70.1287C125.462 69.5629 126.301 69.2432 127.14 69.2432C127.978 69.2432 128.817 69.5629 129.41 70.1287C130.248 70.9158 130.248 71.6784 130.248 73.6216C130.248 75.5648 130.248 76.3274 129.41 77.1145ZM128.867 70.4977C128.398 70.0549 127.781 69.8335 127.14 69.8335C126.498 69.8335 125.881 70.0549 125.413 70.4977C124.771 71.1126 124.697 71.7768 124.697 73.6216C124.697 75.4664 124.746 76.1306 125.413 76.7455C125.881 77.1883 126.498 77.4097 127.14 77.4097C127.781 77.4097 128.398 77.1883 128.867 76.7455C129.508 76.1306 129.582 75.4664 129.582 73.6216C129.582 71.7768 129.533 71.1126 128.867 70.4977Z" fill="#C7C9CB"/>
<path d="M147.569 74.2613H144.929V77.9018H144.238V69.2925H147.569C149.148 69.2925 150.308 70.2026 150.308 71.7769C150.308 73.3511 149.123 74.2613 147.569 74.2613V74.2613ZM147.495 69.8828H144.929V73.6709H147.495C148.753 73.6709 149.641 73.056 149.641 71.7769C149.641 70.4978 148.753 69.8828 147.495 69.8828Z" fill="#C7C9CB"/>
<path d="M166.197 69.8828V77.9018H165.506V69.8828H162.792V69.2925H168.911V69.8828H166.197V69.8828Z" fill="#C7C9CB"/>
<path d="M182.234 77.9262V69.3169H187.761V69.9072H182.925V73.3018H187.045V73.8921H182.925V77.3604H187.761V77.9508H182.234V77.9262Z" fill="#C7C9CB"/>
<path d="M206.759 77.9262L204.588 73.9659H202.071V77.9262H201.38V69.3169H204.859C206.34 69.3169 207.475 70.1286 207.475 71.6291C207.475 72.9082 206.66 73.7445 205.377 73.9413L207.573 77.9262H206.759V77.9262ZM204.761 69.9072H202.071V73.4001H204.761C205.92 73.4001 206.759 72.8344 206.759 71.6537C206.759 70.473 205.92 69.9072 204.761 69.9072Z" fill="#C7C9CB"/>
<path d="M223.586 78C222.229 78 221.39 77.6557 220.551 76.8685L221.045 76.4012C221.859 77.1637 222.525 77.4097 223.635 77.4097C225.066 77.4097 225.979 76.7455 225.979 75.6386C225.979 75.1221 225.807 74.7039 225.486 74.4333C225.14 74.1627 224.918 74.089 224.178 73.966L223.117 73.8184C222.426 73.72 221.884 73.4986 221.489 73.1788C220.995 72.7853 220.773 72.2687 220.773 71.6046C220.773 70.1779 221.859 69.2432 223.611 69.2432C224.746 69.2432 225.461 69.5383 226.226 70.1779L225.782 70.5961C225.214 70.1287 224.647 69.8089 223.561 69.8089C222.254 69.8089 221.439 70.4977 221.439 71.58C221.439 72.0719 221.588 72.4409 221.908 72.7115C222.229 72.9574 222.747 73.1788 223.265 73.2526L224.252 73.4002C225.116 73.5232 225.486 73.6708 225.881 73.966C226.374 74.3595 226.67 74.9499 226.67 75.6386C226.67 77.0899 225.486 78.0246 223.611 78.0246L223.586 78Z" fill="#C7C9CB"/>
<path d="M261.064 77.9262L255.809 70.4484V77.9262H255.118V69.3169H255.809L261.064 76.7701V69.3169H261.755V77.9262H261.064Z" fill="#C7C9CB"/>
<path d="M275.473 77.9262V77.2374L280.26 69.9072H275.646V69.3169H281V69.9072L276.164 77.3604H281V77.9508H275.473V77.9262Z" fill="#C7C9CB"/>
<path d="M149.395 40.7832H162.471C167.677 40.7832 169.355 44.0055 169.355 47.4492C169.355 50.7208 167.307 54.0661 162.521 54.0661H153.86V62.2326H149.395V40.7832V40.7832ZM153.86 50.6962H161.016C163.532 50.6962 164.914 50.0074 164.914 47.4492C164.914 44.8911 163.063 44.1531 161.361 44.1531H153.885V50.6962H153.86Z" fill="#C7C9CB"/>
<path d="M178.385 40.7832H183.665L193.115 62.2326H188.156L185.935 56.9194H175.967L173.771 62.2326H168.96L178.41 40.7832H178.385ZM184.603 53.5495L180.976 44.4975L177.3 53.5495H184.603Z" fill="#C7C9CB"/>
<path d="M212.459 48.7283C212.015 45.4814 209.375 43.5628 205.624 43.5628C201.529 43.5628 198.469 46.3178 198.469 51.9261C198.469 56.4029 201.529 59.5022 205.92 59.5022C210.559 59.5022 212.089 56.3291 212.459 54.0661H217.27C216.653 58.3215 213.89 62.8722 205.155 62.8722C197.482 62.8722 193.831 57.5836 193.831 51.5325C193.831 45.4814 197.334 40.1929 205.674 40.1929C212.977 40.1929 216.776 44.1039 217.245 48.7283H212.434H212.459Z" fill="#C7C9CB"/>
<path d="M220.847 40.7832H225.313V62.2326H220.847V40.7832Z" fill="#C7C9CB"/>
<path d="M229.631 40.7832H247.272V44.1531H234.097V49.5647H246.581V52.9346H234.097V62.2572H229.631V40.8078V40.7832Z" fill="#C7C9CB"/>
<path d="M249.986 40.7832H254.452V62.2326H249.986V40.7832Z" fill="#C7C9CB"/>
<path d="M276.214 48.7283C275.769 45.4814 273.129 43.5628 269.379 43.5628C265.283 43.5628 262.224 46.3178 262.224 51.9261C262.224 56.4029 265.283 59.5022 269.675 59.5022C274.314 59.5022 275.843 56.3291 276.214 54.0661H281.025C280.408 58.3215 277.645 62.8722 268.91 62.8722C261.237 62.8722 257.585 57.5836 257.585 51.5325C257.585 45.4814 261.089 40.1929 269.428 40.1929C276.732 40.1929 280.531 44.1039 281 48.7283H276.189H276.214Z" fill="#C7C9CB"/>
<path d="M45.7683 46.8341C45.4722 43.169 42.5361 42.2097 39.1313 42.2097C35.7264 42.2097 33.1604 43.5626 33.1604 45.9978C33.1604 48.7774 35.7264 49.4415 40.8831 50.3024C44.732 50.9666 48.581 51.8521 48.581 55.96C48.581 61.1993 43.8685 62.6506 39.7481 62.6506C34.3941 62.6506 30.4711 60.7811 30.1503 55.0498H32.3462C32.741 59.5512 35.7017 60.6336 39.7481 60.6336C42.9062 60.6336 46.2124 59.7726 46.2124 56.3781C46.2124 52.9836 42.3634 52.713 38.5145 52.0981C33.4812 51.2863 30.7918 49.8597 30.7918 46.416C30.7918 41.7424 35.0602 40.2173 39.1313 40.2173C43.449 40.2173 47.8161 41.767 47.9642 46.8587H45.7683V46.8341Z" fill="#C7C9CB"/>
<path d="M61.8797 40.1929C67.8999 40.1929 73.3773 43.8826 73.3773 51.4341C73.3773 58.9857 67.8999 62.6754 61.8797 62.6754C55.8595 62.6754 50.3821 58.9857 50.3821 51.4341C50.3821 43.8826 55.8595 40.1929 61.8797 40.1929ZM61.8797 60.6337C66.5182 60.6337 71.0087 57.8788 71.0087 51.4341C71.0087 44.9895 66.5429 42.2345 61.8797 42.2345C57.2165 42.2345 52.7507 44.9895 52.7507 51.4341C52.7507 57.8788 57.2165 60.6337 61.8797 60.6337Z" fill="#C7C9CB"/>
<path d="M95.4596 53.8692C95.4596 57.7556 94.3986 62.6752 86.0099 62.6752C77.6211 62.6752 76.5601 57.7556 76.5601 53.8692V40.7339H78.756V53.8692C78.756 59.4775 82.3336 60.6336 86.0099 60.6336C89.6861 60.6336 93.2637 59.4529 93.2637 53.8692V40.7339H95.4596V53.8692Z" fill="#C7C9CB"/>
<path d="M105.748 42.7755H97.4581V40.7339H116.234V42.7755H107.944V62.1341H105.748V42.7755Z" fill="#C7C9CB"/>
<path d="M118.134 40.7339H120.33V49.7859H135.602V40.7339H137.798V62.1341H135.602V51.8275H120.33V62.1341H118.134V40.7339Z" fill="#C7C9CB"/>
<path d="M54.5025 0C54.5025 0 53.8116 27.3283 36.5406 32.9366V33.0104C57.9814 40.0454 68.4674 9.76537 68.4674 9.76537L54.5025 0Z" fill="#5EB3E4"/>
<path fill-rule="evenodd" clip-rule="evenodd" d="M0 54.5827L13.4467 60.7813C13.4467 60.7813 17.0243 37.1182 35.8744 33.1333C13.4961 25.6555 0 54.5827 0 54.5827Z" fill="#80BC00"/>
<path fill-rule="evenodd" clip-rule="evenodd" d="M2.73869 59.8467L8.85758 62.4295C8.85758 62.4295 6.80973 64.6433 5.97085 68.087C5.13197 71.5307 1.06093 63.4872 2.73869 59.8467V59.8467Z" fill="#80BC00"/>
</g>
<defs>
<clipPath id="clip0_10_102">
<rect width="281" height="78" fill="white"/>
</clipPath>
</defs>
</svg>
