<?xml version="1.0" encoding="utf-8"?>
<!-- Generator: Adobe Illustrator 16.0.0, SVG Export Plug-In . SVG Version: 6.00 Build 0)  -->
<!DOCTYPE svg PUBLIC "-//W3C//DTD SVG 1.1//EN" "http://www.w3.org/Graphics/SVG/1.1/DTD/svg11.dtd">
<svg version="1.1" id="Layer_1" xmlns="http://www.w3.org/2000/svg" xmlns:xlink="http://www.w3.org/1999/xlink" x="0px" y="0px"
	 width="376.667px" height="366.062px" viewBox="0 0 376.667 366.062" enable-background="new 0 0 376.667 366.062"
	 xml:space="preserve">
<g>
	<defs>
		<rect id="SVGID_1_" width="376.667" height="366.062"/>
	</defs>
	<clipPath id="SVGID_2_">
		<use xlink:href="#SVGID_1_"  overflow="visible"/>
	</clipPath>
	<path clip-path="url(#SVGID_2_)" fill="#231F20" d="M243.729,0c-6.912,0.153-12.412,5.942-12.239,12.87
		c0.171,6.908,5.922,12.408,12.864,12.216c6.912-0.161,12.416-5.927,12.236-12.846C256.427,5.316,250.642-0.184,243.729,0
		 M244.312,23.612c-6.099,0.148-11.184-4.698-11.329-10.782c-0.148-6.114,4.688-11.192,10.778-11.345
		c6.114-0.141,11.188,4.691,11.341,10.778C255.25,18.377,250.402,23.459,244.312,23.612"/>
</g>
<polygon fill="#231F20" points="235.848,10.003 238.307,10.003 238.307,17.701 239.94,17.701 239.94,10.003 242.42,10.003 
	242.42,8.507 235.848,8.507 "/>
<polygon fill="#231F20" points="247.204,13.725 244.507,8.502 242.857,8.502 242.857,17.701 244.507,17.701 244.507,11.696 
	246.462,15.551 247.983,15.551 249.906,11.696 249.906,17.701 251.576,17.701 251.576,8.502 249.906,8.502 "/>
<g>
	<defs>
		<rect id="SVGID_3_" width="376.667" height="366.062"/>
	</defs>
	<clipPath id="SVGID_4_">
		<use xlink:href="#SVGID_3_"  overflow="visible"/>
	</clipPath>
	<path clip-path="url(#SVGID_4_)" fill="#231F20" d="M181.487,67.533c-1.982-5.708-9.258-9.124-15.779-9.354
		c2.85-1.83,5.501-3.769,5.447-3.758c0.946,2.213,6.536,7.545,19.503,3.979c-4.168-8.159-14.812-7.149-14.922-7.106
		c2.556-1.896,3.311-2.568,5.297-4.121c0.2,0.109,6.219,8.487,16.727,2.654c-3.181-4.831-7.841-7.411-12.661-6.11
		c1.422-1.411,2.626-2.424,3.82-3.749c-0.473,1.205,7.813,5.575,15.104-0.074c-3.507-3.397-7.318-4.226-11.442-3.975
		c0.836-1.197,1.059-1.103,2.177-2.584c0,0,6.505,4.871,12.666-1.168c-5.008-3.741-10.813-1.361-10.841-1.361l2.389-3.655
		c1.04,1.396,8.07,2.729,10.524-1.99c-2.041-1.962-8.335-1.293-8.996-0.828c0.196-0.173,0.767-1.525,1.154-2.244
		c13.006,1.586,8.542-13.558,5.621-22.092C158.265,74.577,93.122,21.809,13.452,68.697C9.746,78.388,8.37,88.508,9.354,99.043
		c0.102,1.045,0.102,1.858,0.52,4.188c-0.164,0.721,0.884,6.502,2.999,12.901c1.58,4.569,3.347,7.646,5.309,12.353
		c1.149-0.871,2.479-1.877,3.377-2.662c-3.557-5.047-15.539-35.769-0.656-53.686c14.112-0.238,15.711,40.194,13.346,44.479
		c0.102-0.007,6.58-4.357,9.07-5.906c-3.018-1.2-13.694-36.336,4.136-50.937c0,0,15.902,6.098,9.288,43.16
		c2.709-1.773,6.501-3.389,10.238-5.3c-2.029-3.534-12.897-30.059,4.503-43.904c9.359,3.843,8.886,32.821,5.215,39.154
		c2.986-1.396,6.224-3.084,9.233-4.452c-5.492-2.537-5.069-29.812,4.202-37.247c10.302,9.71,7.792,26.008,5.22,33.154
		c0,0,7.79-3.237,7.735-3.23c-6.146-11.586-3.284-25.62,3.28-31.155c5.039,3.236,6.415,12.576,4.117,28.049
		c2.198-0.884,3.456-1.529,5.582-2.33c-1.329-2.541-4.867-18.354,4.195-26.86c8.104,3.866,5.227,21.445,4.629,23.221
		c0.074-0.121,4.749-1.853,4.687-1.99c-1.603-3.417-2.709-16.411,4.754-22.686c2.975,2.132,6.109,8.05,3.295,19.246
		c1.727-0.841,3.596-1.587,5.374-2.408c-2.532-2.831-0.707-14.241,3.137-18.796c4.549,2.021,6.516,11.884,4.878,15.172
		c1.125-0.579,2.596-1.294,4.463-2.35c-1.458-2.314-1.931-12.947,2.546-15.848c4.385,3.026,3.932,10.802,3.772,12.541
		c1.258-0.809,4.933-2.693,4.848-2.751c-2.44-2.174-3.589-9.309,1.619-13.605c4.515,1.009,4.612,9.472,4.214,10.028
		c1.768-1.154,4.558-3.19,5.981-4.246c-4.132-0.892-3.652-7.568-1.409-10.536c2.749,0.567,4.684,2.24,5.587,7.155
		c1.071-0.978,3.584-3.022,4.354-3.944c-2.501-0.192-5.625-5.649-1.771-9.246c1.161,0.481,4.747,2.001,5.09,5.864
		c0.512-0.359,2.413-2.745,2.71-3.179c-1.74-0.637-3.656-5.871-1.874-8.154c2.374-0.211,4.488,2.999,4.839,4.355l2.307-3.374
		c-1.333-1.09-4.081-4.233-1.649-6.997c2.662,0.133,3.611,2.154,4.199,4.061C173.906,73.297,64.963,82.387,8.112,146.093
		c0,0-5.911,6.185-5.911,9.159l-0.024,21.492h1.181c2.87-8.076,12.064-28.65,30.563-43.658c0.375-0.442,8.029,30.434,50.613,25.148
		c-8.339-20.118-34.383-33.272-40.391-33.64c1.149-0.883,8.647-6.474,9.847-7.146c-1.625,5.431,22.818,28.132,41.723,21.85
		c-5.034-15.379-25.804-28.389-31.168-28.592c2.245-1.158,4.5-2.933,6.841-4.054c-1.227,2.943,16.729,20.514,35.942,19.095
		c0.184-9.111-20.617-26.528-24.628-25.146c1.916-1.009,4.848-2.74,5.734-3.18c2.746,6.282,20.461,19.7,32.658,17.515
		c-9.975-21.141-22.693-22.404-22.821-22.417c3.393-1.595,5.385-2.635,5.984-2.889c0.027,5.672,17.509,18.469,29.687,15.474
		c-2.467-9.417-12.057-18.588-21.494-19.464c2.237-1.044,4.738-2.232,6.442-3.057c-0.989,1.777,13.765,14.089,27.744,13.318
		c-6.758-16.38-16.005-16.731-19.319-17.354c1.876-0.837,3.905-1.978,5.894-3.014c0.787,2.095,8.413,12.909,26.818,10.172
		c-4.636-9.978-14.367-13.315-19.457-13.667c2.628-1.548,4.574-2.201,6.487-3.261c1.292,1.521,5.875,11.259,24.573,7.705
		c-3.956-9.468-12.537-11.712-15.887-12.372c1.574-0.97,3.459-1.979,4.703-2.714C161.697,63.564,171.222,70.382,181.487,67.533"/>
	<path clip-path="url(#SVGID_4_)" fill="#231F20" d="M40.973,213.813c0-13.792-7.517-21.172-20.488-21.172
		c-12.963,0-20.48,7.38-20.48,21.172c0,11.518,5.304,18.624,14.616,20.556c1.451,8.827,7.107,13.245,18.901,13.378l2.553-12.063
		c-0.896,0.265-2.275,0.546-4.136,0.546c-2.689,0-5.453-0.758-6.485-2.204C34.968,232.507,40.973,225.472,40.973,213.813
		 M20.484,223.125c-4.273,0-5.723-3.377-5.723-9.312c0-5.997,1.45-9.381,5.723-9.381c4.276,0,5.727,3.384,5.727,9.381
		C26.211,219.749,24.761,223.125,20.484,223.125"/>
	<path clip-path="url(#SVGID_4_)" fill="#231F20" d="M62.415,193.462v24.901c0,12.557,8.002,16.56,18.694,16.56
		c10.688,0,18.69-4.003,18.69-16.56v-24.901H85.66v23.455c0,3.237-0.692,6.481-4.551,6.481c-3.866,0-4.554-3.244-4.554-6.481
		v-23.455H62.415z"/>
	<path clip-path="url(#SVGID_4_)" fill="#231F20" d="M130.675,193.469l-13.309,40.617h14.07l1.653-5.512h13.382l1.794,5.512h14.62
		l-13.38-40.617H130.675z M136.264,218.02l1.448-5.59c1.171-4.409,1.793-7.928,1.793-7.928h0.275c0,0,0.828,3.519,2.001,7.928
		l1.45,5.59H136.264z"/>
	<polygon clip-path="url(#SVGID_4_)" fill="#231F20" points="182.945,193.462 182.945,234.095 211.229,234.095 211.229,221.953 
		197.084,221.953 197.084,193.462 	"/>
	<path clip-path="url(#SVGID_4_)" fill="#231F20" d="M25.887,276.096c-1.864,3.378-2.345,5.237-2.345,5.237h-0.277
		c0,0-0.551-1.859-2.346-5.237l-9.034-17.107H3.811v40.633h7.385v-21.797c0-4.763-0.415-7.179-0.415-7.179h0.278
		c0,0,0.825,2.689,3.1,6.755l6.966,12.487h4.276l6.971-12.487c2.274-4.065,3.033-6.755,3.033-6.755h0.273
		c0,0-0.344,2.416-0.344,7.179v21.797h7.385v-40.633h-7.87L25.887,276.096z"/>
	<path clip-path="url(#SVGID_4_)" fill="#231F20" d="M78.588,258.989l-14.766,40.633h7.658l3.589-10.219h16.208l3.584,10.219h7.937
		l-14.765-40.633H78.588z M77.137,283.273l2.689-7.661c2.205-6.412,3.174-10.899,3.174-10.899h0.277c0,0,0.892,4.558,3.17,10.97
		l2.62,7.591H77.137z"/>
	<path clip-path="url(#SVGID_4_)" fill="#231F20" d="M151.999,287.479c-1.105-4.143-3.169-5.801-6.965-6.349v-0.14
		c5.172-0.406,9.238-3.793,9.238-10.142c0-8.138-4.962-11.86-14.207-11.86h-14.691v40.625h7.382v-15.792h4.963
		c3.656,0,5.797,0.828,6.9,5.175l1.583,6.686c0.349,1.656,0.83,2.899,1.935,3.932h8.07c-1.106-1.306-1.725-2.688-2.138-4.277
		L151.999,287.479z M139.72,277.752h-6.965v-12.555h6.965c4.692,0,6.9,2.274,6.9,6.278
		C146.62,275.822,144.34,277.752,139.72,277.752"/>
	<polygon clip-path="url(#SVGID_4_)" fill="#231F20" points="211.572,258.989 203.019,258.989 191.705,275.822 188.672,275.822 
		188.672,258.989 181.291,258.989 181.291,299.614 188.672,299.614 188.672,282.164 191.568,282.164 203.71,299.614 
		212.675,299.614 197.847,278.716 	"/>
	<rect x="3.815" y="323.398" clip-path="url(#SVGID_4_)" fill="#C69723" width="209.696" height="39.483"/>
	<path clip-path="url(#SVGID_4_)" fill="#231F20" d="M271.931,291.592c7.74-19.867,27.068-33.995,49.644-33.995
		c22.571,0,41.898,14.128,49.639,33.995h2.08c-7.834-20.962-28.057-35.926-51.719-35.926c-23.663,0-43.889,14.964-51.723,35.926
		H271.931z"/>
	<path clip-path="url(#SVGID_4_)" fill="#231F20" d="M369.716,333.616c-8.55,18.015-26.91,30.509-48.146,30.509
		c-21.231,0-39.592-12.494-48.142-30.509h-2.128c8.687,19.118,27.947,32.446,50.27,32.446c22.326,0,41.587-13.328,50.272-32.446
		H369.716z"/>
	<path clip-path="url(#SVGID_4_)" fill="#231F20" d="M301.559,302.125c0.379,1.759,0.587,3.502,0.587,3.502h0.086
		c0,0,0.164-1.768,0.521-3.479l1.387-6.816h2.889l-2.701,12.345h-4.151l-1.399-6.091c-0.403-1.743-0.485-3.464-0.485-3.464h-0.082
		c0,0-0.105,1.721-0.527,3.479l-1.465,6.075h-4.004l-2.721-12.345h3.018l1.428,6.794c0.375,1.759,0.562,3.502,0.562,3.502h0.082
		c0,0,0.191-1.768,0.547-3.479l1.51-6.816h3.393L301.559,302.125z"/>
	<path clip-path="url(#SVGID_4_)" fill="#231F20" d="M318.228,305.102h-4.67l-0.885,2.58h-2.975l4.46-12.346h3.526l4.504,12.346
		h-3.062L318.228,305.102z M314.354,302.734h3.032l-0.5-1.385c-0.716-2.032-0.965-3.518-0.965-3.518h-0.087
		c0,0-0.309,1.51-1.004,3.502L314.354,302.734z"/>
	<path clip-path="url(#SVGID_4_)" fill="#231F20" d="M333.501,307.675c-0.376-0.29-0.524-0.751-0.652-1.275l-0.461-1.844
		c-0.251-1.049-0.73-1.236-1.677-1.236h-1.212v4.355h-2.851v-12.339h4.86c2.766,0,4.486,1.001,4.486,3.77
		c0,1.906-1.114,2.932-2.701,3.104v0.039c1.129,0.195,1.735,0.673,2.053,1.799l0.625,2.313c0.13,0.478,0.297,0.899,0.691,1.314
		H333.501z M329.499,300.975h1.825c1.13,0,1.755-0.447,1.755-1.619c0-1.048-0.587-1.611-1.755-1.611h-1.825V300.975z"/>
	<path clip-path="url(#SVGID_4_)" fill="#231F20" d="M346.844,304.829l-1.697-2.831c-0.649-1.031-0.946-1.883-0.946-1.883h-0.082
		c0,0,0.127,0.688,0.127,2.095v5.466h-2.851v-12.345h2.896l2.322,4.175c0.715,1.21,0.879,1.798,0.879,1.798h0.082
		c0,0,0.191-0.588,0.885-1.798l2.345-4.175h2.85v12.345h-2.83v-5.466c0-1.406,0.109-2.095,0.109-2.095h-0.087
		c0,0-0.292,0.852-0.922,1.883l-1.72,2.831H346.844z"/>
	<path clip-path="url(#SVGID_4_)" fill="#231F20" d="M279.835,321.583c0.376,1.76,0.583,3.495,0.583,3.495h0.09
		c0,0,0.164-1.759,0.52-3.472l1.385-6.817h2.889l-2.701,12.345h-4.152l-1.398-6.098c-0.403-1.736-0.485-3.456-0.485-3.456h-0.082
		c0,0-0.105,1.72-0.527,3.48l-1.467,6.073h-4.002l-2.723-12.345h3.02l1.426,6.794c0.375,1.76,0.563,3.495,0.563,3.495h0.085
		c0,0,0.188-1.759,0.545-3.472l1.508-6.817h3.393L279.835,321.583z"/>
	<polygon clip-path="url(#SVGID_4_)" fill="#231F20" points="298.538,327.134 290.262,327.134 290.262,314.79 298.538,314.79 
		298.538,317.26 293.111,317.26 293.111,319.715 297.884,319.715 297.884,322.083 293.111,322.083 293.111,324.664 298.538,324.664 
			"/>
	<polygon clip-path="url(#SVGID_4_)" fill="#231F20" points="307.791,314.79 307.791,324.664 312.609,324.664 312.609,327.134 
		304.94,327.134 304.94,314.79 	"/>
	<path clip-path="url(#SVGID_4_)" fill="#231F20" d="M327.376,324.554c-1.111,1.909-2.558,2.831-5.302,2.831
		c-3.351,0-5.66-2.322-5.66-6.427c0-4.112,2.264-6.419,6.036-6.419c2.537,0,4.129,1.158,5.026,3.127l-2.74,1.337
		c-0.379-1.211-1.047-1.946-2.393-1.946c-1.864,0-2.995,1.485-2.995,3.965c0,2.431,1.01,3.845,3.043,3.845
		c1.129,0,2.028-0.562,2.572-1.75L327.376,324.554z"/>
	<path clip-path="url(#SVGID_4_)" fill="#231F20" d="M331.836,320.973c0-4.144,2.201-6.427,5.845-6.427
		c3.647,0,5.867,2.283,5.867,6.427c0,4.129-2.22,6.412-5.867,6.412C334.037,327.385,331.836,325.102,331.836,320.973
		 M334.792,321.022c0,2.423,0.938,3.916,2.889,3.916c1.95,0,2.912-1.493,2.912-3.916c0-2.456-0.962-3.941-2.912-3.941
		C335.753,317.081,334.792,318.566,334.792,321.022"/>
	<path clip-path="url(#SVGID_4_)" fill="#231F20" d="M354.181,324.281l-1.695-2.822c-0.649-1.031-0.946-1.884-0.946-1.884h-0.084
		c0,0,0.127,0.688,0.127,2.096v5.464h-2.85V314.79h2.896l2.322,4.174c0.716,1.213,0.879,1.801,0.879,1.801h0.082
		c0,0,0.193-0.588,0.885-1.801l2.345-4.174h2.85v12.345h-2.829v-5.464c0-1.407,0.109-2.096,0.109-2.096h-0.086
		c0,0-0.293,0.853-0.927,1.884l-1.713,2.822H354.181z"/>
	<polygon clip-path="url(#SVGID_4_)" fill="#231F20" points="375.381,327.134 367.104,327.134 367.104,314.79 375.381,314.79 
		375.381,317.26 369.951,317.26 369.951,319.715 374.732,319.715 374.732,322.083 369.951,322.083 369.951,324.664 375.381,324.664 
			"/>
	<rect x="266.508" y="301.194" clip-path="url(#SVGID_4_)" fill="#231F20" width="15.074" height="1.673"/>
	<rect x="361.554" y="301.194" clip-path="url(#SVGID_4_)" fill="#231F20" width="15.083" height="1.673"/>
	<path clip-path="url(#SVGID_4_)" fill="#231F20" d="M271.931,164.465c7.74-19.87,27.068-33.994,49.644-33.994
		c22.571,0,41.898,14.124,49.639,33.994h2.08c-7.834-20.965-28.057-35.933-51.719-35.933c-23.663,0-43.889,14.968-51.723,35.933
		H271.931z"/>
	<path clip-path="url(#SVGID_4_)" fill="#231F20" d="M369.716,206.488c-8.55,18.015-26.91,30.509-48.146,30.509
		c-21.231,0-39.592-12.494-48.142-30.509h-2.128c8.687,19.109,27.947,32.439,50.27,32.439c22.326,0,41.587-13.33,50.272-32.439
		H369.716z"/>
	<path clip-path="url(#SVGID_4_)" fill="#231F20" d="M295.773,176.632c0.233,1.215,1.134,1.985,2.302,1.985
		c0.945,0,1.634-0.372,1.634-1.212c0-0.798-0.437-1.174-2.047-1.677c-2.831-0.9-4.005-1.971-4.005-4.081
		c0-2.792,2.18-3.714,4.341-3.714c2.532,0,4.417,0.858,4.67,3.205l-2.829,0.715c-0.105-1.091-0.922-1.576-1.782-1.576
		c-0.798,0-1.423,0.36-1.423,1.154c0,0.859,0.671,1.195,2.114,1.635c2.601,0.819,3.92,1.695,3.92,4.068
		c0,2.681-2.181,3.666-4.8,3.666c-2.432,0-4.062-0.797-4.69-3.021L295.773,176.632z"/>
	<path clip-path="url(#SVGID_4_)" fill="#231F20" d="M316.708,177.972h-4.672l-0.88,2.577h-2.979l4.465-12.346h3.522l4.503,12.346
		h-3.062L316.708,177.972z M312.833,175.602h3.034l-0.5-1.383c-0.712-2.032-0.967-3.522-0.967-3.522h-0.082
		c0,0-0.312,1.509-1.004,3.504L312.833,175.602z"/>
	<polygon clip-path="url(#SVGID_4_)" fill="#231F20" points="326.985,180.549 326.985,168.204 335.029,168.204 335.029,170.677 
		329.83,170.677 329.83,173.633 334.377,173.633 334.377,176.001 329.83,176.001 329.83,180.549 	"/>
	<polygon clip-path="url(#SVGID_4_)" fill="#231F20" points="349.972,180.549 341.692,180.549 341.692,168.204 349.972,168.204 
		349.972,170.677 344.542,170.677 344.542,173.128 349.317,173.128 349.317,175.499 344.542,175.499 344.542,178.073 
		349.972,178.073 	"/>
	<path clip-path="url(#SVGID_4_)" fill="#231F20" d="M278.55,200.303l-1.451-1.392c-1.107,0.924-2.345,1.346-4.21,1.346
		c-2.03,0-4.082-0.924-4.082-3.308c0-1.446,0.881-2.768,2.85-3.253l-0.671-0.673c-0.755-0.703-1.216-1.562-1.216-2.571
		c0-2.034,1.738-3.034,3.96-3.034c2.119,0,3.771,1.024,3.771,2.986c0,1.533-1.216,2.394-2.681,2.706l2.407,2.306
		c0.273-0.461,0.442-1.149,0.48-1.845l2.288,0.813c-0.148,0.97-0.649,2.017-1.131,2.58l1.692,1.531L278.55,200.303z M273.411,198.2
		c0.903,0,1.596-0.226,2.119-0.812l-2.811-2.705c-0.667,0.461-1.128,0.97-1.128,1.931C271.592,197.575,272.306,198.2,273.411,198.2
		 M272.614,190.304c0,0.484,0.215,0.782,0.552,1.134l0.751,0.797c0.648-0.484,1.004-1.109,1.004-1.782
		c0-0.712-0.434-1.149-1.212-1.149C273.038,189.303,272.614,189.716,272.614,190.304"/>
	<path clip-path="url(#SVGID_4_)" fill="#231F20" d="M292.341,196.089c0.23,1.212,1.126,1.985,2.302,1.985
		c0.946,0,1.635-0.367,1.635-1.211c0-0.799-0.438-1.173-2.053-1.673c-2.829-0.908-4.003-1.971-4.003-4.09
		c0-2.783,2.181-3.705,4.339-3.705c2.534,0,4.423,0.853,4.672,3.196l-2.829,0.721c-0.105-1.088-0.924-1.572-1.782-1.572
		c-0.794,0-1.425,0.352-1.425,1.148c0,0.861,0.673,1.197,2.119,1.635c2.596,0.821,3.917,1.697,3.917,4.065
		c0,2.683-2.181,3.668-4.8,3.668c-2.428,0-4.062-0.798-4.692-3.02L292.341,196.089z"/>
	<path clip-path="url(#SVGID_4_)" fill="#231F20" d="M307.087,193.845c0-4.144,2.199-6.434,5.844-6.434
		c3.647,0,5.868,2.29,5.868,6.434c0,4.129-2.221,6.412-5.868,6.412C309.286,200.257,307.087,197.974,307.087,193.845
		 M310.041,193.893c0,2.423,0.939,3.917,2.89,3.917c1.955,0,2.913-1.494,2.913-3.917c0-2.455-0.958-3.94-2.913-3.94
		C311.005,189.953,310.041,191.438,310.041,193.893"/>
	<path clip-path="url(#SVGID_4_)" fill="#231F20" d="M336.538,187.661v8.219c0,3.329-2.349,4.378-5.093,4.378
		c-2.726,0-5.087-1.049-5.087-4.378v-8.219h2.847v7.421c0,1.759,0.457,2.814,2.24,2.814c1.807,0,2.268-1.056,2.268-2.831v-7.404
		H336.538z"/>
	<path clip-path="url(#SVGID_4_)" fill="#231F20" d="M351.797,193.633c0.688,0.946,1.024,1.658,1.024,1.658h0.086
		c0,0-0.063-1.047-0.063-2.619v-5.012h2.85v12.346h-2.595l-4.359-5.864c-0.801-1.046-1.177-1.828-1.177-1.828h-0.086
		c0,0,0.129,1.007,0.129,2.79v4.902h-2.851v-12.346h2.683L351.797,193.633z"/>
	<path clip-path="url(#SVGID_4_)" fill="#231F20" d="M363.778,200.006v-12.346h4.546c3.417,0,6.014,1.697,6.014,6.036
		c0,4.574-2.658,6.31-6.202,6.31H363.778z M367.863,197.598c2.197,0,3.499-0.922,3.499-3.729c0-2.94-1.302-3.793-3.33-3.793h-1.403
		v7.521H367.863z"/>
	<rect x="266.508" y="174.067" clip-path="url(#SVGID_4_)" fill="#231F20" width="15.074" height="1.669"/>
	<rect x="361.554" y="174.067" clip-path="url(#SVGID_4_)" fill="#231F20" width="15.083" height="1.669"/>
	<path clip-path="url(#SVGID_4_)" fill="#231F20" d="M271.935,35.934c7.736-19.875,27.064-33.995,49.636-33.995
		c22.58,0,41.899,14.12,49.643,33.995h2.08C365.459,14.969,345.233,0,321.57,0s-43.89,14.969-51.719,35.934H271.935z"/>
	<path clip-path="url(#SVGID_4_)" fill="#231F20" d="M369.716,77.95c-8.55,18.019-26.91,30.508-48.146,30.508
		c-21.231,0-39.592-12.489-48.142-30.508h-2.128c8.687,19.117,27.947,32.447,50.27,32.447c22.326,0,41.587-13.33,50.272-32.447
		H369.716z"/>
	<polygon clip-path="url(#SVGID_4_)" fill="#231F20" points="295.867,39.667 295.867,49.542 300.688,49.542 300.688,52.008 
		293.021,52.008 293.021,39.667 	"/>
	<rect x="304.702" y="39.671" clip-path="url(#SVGID_4_)" fill="#231F20" width="2.85" height="12.342"/>
	<path clip-path="url(#SVGID_4_)" fill="#231F20" d="M322.337,45.433v6.581h-1.764l-0.461-1.385c-0.63,1.11-1.885,1.635-3.393,1.635
		c-3.207,0-5.512-2.029-5.512-6.369c0-4.128,2.259-6.474,6.03-6.474c2.475,0,4.214,1.149,5.032,3.124l-2.746,1.34
		c-0.4-1.302-1.237-1.951-2.392-1.951c-1.316,0-2.993,0.9-2.993,3.999c0,2.221,0.816,4.008,3.041,4.008
		c1.652,0,2.428-0.778,2.428-1.825v-0.423h-2.597v-2.26H322.337z"/>
	<polygon clip-path="url(#SVGID_4_)" fill="#231F20" points="326.755,52.013 326.755,39.671 329.604,39.671 329.604,44.511 
		334.338,44.511 334.338,39.671 337.185,39.671 337.185,52.013 334.338,52.013 334.338,46.985 329.604,46.985 329.604,52.013 	"/>
	<polygon clip-path="url(#SVGID_4_)" fill="#231F20" points="343.885,52.013 343.885,42.142 340.507,42.142 340.507,39.671 
		350.127,39.671 350.127,42.142 346.691,42.142 346.691,52.013 	"/>
	<polygon clip-path="url(#SVGID_4_)" fill="#231F20" points="266.614,71.469 266.614,59.127 274.66,59.127 274.66,61.598 
		269.464,61.598 269.464,64.557 274.006,64.557 274.006,66.922 269.464,66.922 269.464,71.469 	"/>
	<path clip-path="url(#SVGID_4_)" fill="#231F20" d="M277.813,65.307c0-4.147,2.206-6.43,5.845-6.43c3.647,0,5.872,2.282,5.872,6.43
		c0,4.129-2.225,6.412-5.872,6.412C280.02,71.719,277.813,69.436,277.813,65.307 M280.77,65.351c0,2.432,0.942,3.921,2.889,3.921
		c1.955,0,2.917-1.489,2.917-3.921c0-2.448-0.962-3.937-2.917-3.937C281.735,61.415,280.77,62.903,280.77,65.351"/>
	<path clip-path="url(#SVGID_4_)" fill="#231F20" d="M292.45,65.307c0-4.147,2.208-6.43,5.852-6.43c3.645,0,5.869,2.282,5.869,6.43
		c0,4.129-2.225,6.412-5.869,6.412C294.658,71.719,292.45,69.436,292.45,65.307 M295.409,65.351c0,2.432,0.943,3.921,2.893,3.921
		c1.947,0,2.913-1.489,2.913-3.921c0-2.448-0.966-3.937-2.913-3.937C296.371,61.415,295.409,62.903,295.409,65.351"/>
	<polygon clip-path="url(#SVGID_4_)" fill="#231F20" points="310.062,71.469 310.062,61.598 306.688,61.598 306.688,59.127 
		316.308,59.127 316.308,61.598 312.869,61.598 312.869,71.469 	"/>
	<path clip-path="url(#SVGID_4_)" fill="#231F20" d="M319.846,71.469V59.124h4.398c3.166,0,4.487,1.45,4.487,4.171
		c0,2.623-1.555,4.194-4.214,4.194h-1.825v3.98H319.846z M322.692,65.159h1.47c1.238,0,1.74-0.602,1.74-1.759
		c0-1.274-0.548-1.884-1.74-1.884h-1.47V65.159z"/>
	<path clip-path="url(#SVGID_4_)" fill="#231F20" d="M338.955,71.469c-0.376-0.294-0.524-0.751-0.652-1.279l-0.458-1.845
		c-0.251-1.048-0.73-1.235-1.677-1.235h-1.216v4.359h-2.847V59.127h4.86c2.763,0,4.483,1.005,4.483,3.772
		c0,1.907-1.106,2.932-2.701,3.1v0.048c1.129,0.187,1.735,0.668,2.053,1.793l0.628,2.308c0.125,0.48,0.294,0.902,0.688,1.321
		H338.955z M334.952,64.764h1.825c1.134,0,1.759-0.441,1.759-1.614c0-1.048-0.586-1.611-1.759-1.611h-1.825V64.764z"/>
	<rect x="345.758" y="59.127" clip-path="url(#SVGID_4_)" fill="#231F20" width="2.85" height="12.342"/>
	<path clip-path="url(#SVGID_4_)" fill="#231F20" d="M359.88,65.101c0.688,0.941,1.025,1.653,1.025,1.653h0.085
		c0,0-0.066-1.048-0.066-2.619v-5.008h2.85v12.342h-2.596l-4.354-5.864c-0.801-1.052-1.182-1.825-1.182-1.825h-0.082
		c0,0,0.13,1.008,0.13,2.783v4.906h-2.85V59.127h2.681L359.88,65.101z"/>
	<polygon clip-path="url(#SVGID_4_)" fill="#231F20" points="370.425,71.469 370.425,61.598 367.047,61.598 367.047,59.127 
		376.667,59.127 376.667,61.598 373.227,61.598 373.227,71.469 	"/>
	<rect x="266.505" y="45.531" clip-path="url(#SVGID_4_)" fill="#231F20" width="15.077" height="1.669"/>
	<rect x="361.562" y="45.531" clip-path="url(#SVGID_4_)" fill="#231F20" width="15.077" height="1.669"/>
	<path clip-path="url(#SVGID_4_)" fill="#FFFFFF" d="M35.523,342.781v11.585H32.74l-0.461-2.893
		c-0.911,2.206-3.582,3.355-6.177,3.355c-5.754,0-9.758-4.004-9.758-11.596c0-7.506,4.23-11.782,10.481-11.782
		c4.273,0,7.017,1.798,8.428,5.418l-3.28,1.604c-0.91-2.713-2.896-4.011-5.336-4.011c-3.929,0-6.633,3.096-6.633,8.771
		c0,5.074,2.056,8.694,6.442,8.694c3.01,0,5.605-1.406,5.605-4.426v-1.673h-5.454v-3.048H35.523z"/>
	<path clip-path="url(#SVGID_4_)" fill="#FFFFFF" d="M51.035,343.163c0-7.513,3.968-11.712,10.145-11.712
		s10.105,4.199,10.105,11.712c0,7.475-3.928,11.666-10.105,11.666S51.035,350.637,51.035,343.163 M54.733,343.163
		c0,5.372,2.213,8.616,6.447,8.616c4.229,0,6.403-3.244,6.403-8.616c0-5.339-2.209-8.624-6.403-8.624
		C56.946,334.539,54.733,337.824,54.733,343.163"/>
	<polygon clip-path="url(#SVGID_4_)" fill="#FFFFFF" points="91.069,331.912 91.069,351.318 101.137,351.318 101.137,354.375 
		87.563,354.375 87.563,331.912 	"/>
	<path clip-path="url(#SVGID_4_)" fill="#FFFFFF" d="M116.578,354.375v-22.463h6.979c6.289,0,10.833,3.089,10.833,10.985
		c0,8.312-4.962,11.478-10.947,11.478H116.578z M123.099,351.434c4.421,0,7.586-2.359,7.586-8.389c0-6.294-3.278-8.193-7.243-8.193
		h-3.357v16.582H123.099z"/>
</g>
<g>
</g>
<g>
</g>
<g>
</g>
<g>
</g>
<g>
</g>
<g>
</g>
<g>
</g>
<g>
</g>
<g>
</g>
<g>
</g>
<g>
</g>
<g>
</g>
<g>
</g>
<g>
</g>
<g>
</g>
</svg>
