<svg width="212" height="120" viewBox="0 0 212 120" fill="none" xmlns="http://www.w3.org/2000/svg">
<path d="M38.2549 119.907V116.81H34.9024V119.907H34.4202V113.32H34.9024V116.371H38.2549V113.32H38.7371V119.907H38.2549Z" fill="white"/>
<path d="M48.8635 119.907V113.32H52.7671V113.759H49.3457V116.348H52.2619V116.787H49.3457V119.445H52.7671V119.884H48.8635V119.907Z" fill="white"/>
<path d="M62.4113 119.907V113.32H62.8935V119.445H66.3149V119.884H62.4113V119.907Z" fill="white"/>
<path d="M75.7063 119.907V113.32H76.1886V119.907H75.7063Z" fill="white"/>
<path d="M88.2668 119.954C87.6698 119.954 87.0728 119.722 86.6595 119.283C86.0625 118.682 86.0625 118.105 86.0625 116.602C86.0625 115.1 86.0625 114.522 86.6595 113.921C87.0728 113.482 87.6698 113.251 88.2668 113.251C89.415 113.251 90.2416 113.991 90.4483 115.169H89.9431C89.7594 114.268 89.1165 113.69 88.2439 113.69C87.7846 113.69 87.3484 113.875 87.0269 114.199C86.5676 114.661 86.5217 115.169 86.5217 116.602C86.5217 118.035 86.5676 118.521 87.0269 119.006C87.3484 119.33 87.7846 119.514 88.2439 119.514C89.1165 119.514 89.7594 118.937 89.9431 118.035H90.4253C90.2186 119.237 89.369 119.954 88.2439 119.954H88.2668Z" fill="white"/>
<path d="M103.835 119.283C103.422 119.722 102.825 119.954 102.228 119.954C101.631 119.954 101.034 119.722 100.62 119.283C100.023 118.682 100.023 118.105 100.023 116.602C100.023 115.1 100.023 114.522 100.62 113.921C101.057 113.482 101.631 113.251 102.228 113.251C102.825 113.251 103.422 113.482 103.835 113.921C104.432 114.522 104.432 115.1 104.432 116.602C104.432 118.105 104.432 118.682 103.835 119.283ZM103.445 114.222C103.123 113.898 102.687 113.713 102.228 113.713C101.769 113.713 101.332 113.898 101.011 114.222C100.552 114.684 100.506 115.192 100.506 116.625C100.506 118.058 100.552 118.544 101.011 119.029C101.332 119.353 101.769 119.538 102.228 119.538C102.687 119.538 103.123 119.353 103.445 119.029C103.904 118.567 103.95 118.058 103.95 116.625C103.95 115.192 103.904 114.707 103.445 114.222Z" fill="white"/>
<path d="M116.671 117.111H114.811V119.907H114.329V113.32H116.694C117.796 113.32 118.646 114.014 118.646 115.216C118.646 116.417 117.819 117.111 116.694 117.111H116.671ZM116.625 113.759H114.811V116.672H116.625C117.521 116.672 118.141 116.209 118.141 115.216C118.141 114.222 117.521 113.759 116.625 113.759Z" fill="white"/>
<path d="M129.829 113.759V119.884H129.346V113.759H127.44V113.32H131.78V113.759H129.851H129.829Z" fill="white"/>
<path d="M141.149 119.907V113.32H145.053V113.759H141.631V116.348H144.547V116.787H141.631V119.445H145.053V119.884H141.149V119.907Z" fill="white"/>
<path d="M158.486 119.907L156.947 116.88H155.179V119.907H154.697V113.32H157.154C158.21 113.32 158.991 113.944 158.991 115.077C158.991 116.048 158.417 116.695 157.498 116.857L159.06 119.907H158.486ZM157.085 113.783H155.179V116.44H157.085C157.911 116.44 158.508 116.024 158.508 115.1C158.508 114.175 157.911 113.759 157.085 113.759V113.783Z" fill="white"/>
<path d="M170.38 119.954C169.416 119.954 168.819 119.676 168.244 119.075L168.589 118.729C169.163 119.33 169.645 119.515 170.403 119.515C171.413 119.515 172.056 119.006 172.056 118.151C172.056 117.758 171.941 117.434 171.712 117.226C171.482 117.018 171.298 116.949 170.77 116.88L170.013 116.764C169.53 116.695 169.14 116.533 168.864 116.279C168.52 115.978 168.359 115.585 168.359 115.077C168.359 113.968 169.117 113.274 170.357 113.274C171.161 113.274 171.666 113.505 172.217 113.991L171.895 114.314C171.505 113.944 171.092 113.713 170.334 113.713C169.393 113.713 168.842 114.245 168.842 115.077C168.842 115.447 168.956 115.747 169.186 115.932C169.416 116.117 169.783 116.279 170.15 116.348L170.839 116.464C171.436 116.556 171.712 116.672 171.987 116.903C172.332 117.203 172.538 117.642 172.538 118.174C172.538 119.283 171.712 120 170.38 120V119.954Z" fill="white"/>
<path d="M196.855 119.907L193.136 114.199V119.907H192.653V113.32H193.136L196.855 119.029V113.32H197.338V119.907H196.855Z" fill="white"/>
<path d="M207.051 119.907V119.376L210.449 113.759H207.188V113.32H210.977V113.759L207.556 119.445H210.977V119.884H207.074L207.051 119.907Z" fill="white"/>
<path d="M64.3404 0C64.3404 0 63.5137 32.5886 43.1232 39.2681V39.3605C68.4277 47.7503 80.8043 11.6487 80.8043 11.6487L64.3404 0Z" fill="white"/>
<path fill-rule="evenodd" clip-rule="evenodd" d="M0 65.0382L15.8669 72.4342C15.8669 72.4342 20.069 44.2139 42.3424 39.4759C15.9129 30.5776 0 65.0382 0 65.0382Z" fill="white"/>
<path fill-rule="evenodd" clip-rule="evenodd" d="M3.23761 71.3481L10.4478 74.4452C10.4478 74.4452 8.01376 77.08 7.04935 81.1709C6.06197 85.2618 1.26285 75.6702 3.23761 71.3481Z" fill="white"/>
<path d="M34.3516 76.1086H51.8947C58.8753 76.1086 61.1485 80.4769 61.1485 85.1456C61.1485 89.5832 58.3931 94.1132 51.9866 94.1132H40.3447V105.184H34.3745V76.1086H34.3516ZM40.3217 89.5601H49.92C53.3184 89.5601 55.1324 88.6125 55.1324 85.1687C55.1324 81.725 52.6525 80.6849 50.3563 80.6849H40.2988V89.5601H40.3217Z" fill="white"/>
<path d="M73.2957 76.1086H80.391L93.0662 105.184H86.4071L83.422 97.973H70.035L67.0958 105.184H60.6434L73.3186 76.1086H73.2957ZM81.631 93.4199L76.763 81.1703L71.8261 93.4199H81.631Z" fill="white"/>
<path d="M119.036 86.8792C118.439 82.4879 114.88 79.8762 109.874 79.8762C104.364 79.8762 100.253 83.6204 100.253 91.2013C100.253 97.2798 104.364 101.463 110.265 101.463C116.488 101.463 118.554 97.1411 119.036 94.0903H125.489C124.662 99.8684 120.942 106.016 109.232 106.016C98.9444 106.016 94.0305 98.8515 94.0305 90.6697C94.0305 82.4879 98.7378 75.323 109.943 75.323C119.748 75.323 124.846 80.6157 125.489 86.9023H119.036V86.8792Z" fill="white"/>
<path d="M130.311 76.1086H136.281V105.184H130.311V76.1086Z" fill="white"/>
<path d="M142.091 76.1086H165.765V80.6617H148.061V87.9884H164.8V92.5415H148.061V105.161H142.091V76.0854V76.1086Z" fill="white"/>
<path d="M169.416 76.1086H175.386V105.184H169.416V76.1086Z" fill="white"/>
<path d="M204.617 86.8792C204.02 82.4879 200.461 79.8762 195.455 79.8762C189.944 79.8762 185.857 83.6204 185.857 91.2013C185.857 97.2798 189.967 101.463 195.868 101.463C202.091 101.463 204.158 97.1411 204.64 94.0903H211.092C210.243 99.8684 206.546 106.016 194.835 106.016C184.548 106.016 179.634 98.8515 179.634 90.6697C179.634 82.4879 184.341 75.323 195.547 75.323C205.352 75.323 210.449 80.6157 211.092 86.9023H204.64L204.617 86.8792Z" fill="white"/>
<path d="M48.6342 56.3025C48.3586 52.8587 45.6261 51.9573 42.4573 51.9573C39.2885 51.9573 36.9004 53.2285 36.9004 55.5166C36.9004 58.1283 39.2885 58.7524 44.0876 59.5613C47.6697 60.1853 51.2519 61.0174 51.2519 64.8772C51.2519 69.8001 46.8661 71.1638 43.0314 71.1638C38.0485 71.1638 34.3975 69.4072 34.099 64.022H36.1427C36.5101 68.2516 39.2655 69.2685 43.0314 69.2685C45.9705 69.2685 49.0475 68.4596 49.0475 65.2701C49.0475 62.0806 45.4654 61.8263 41.8833 61.2485C37.1989 60.4858 34.6961 59.1453 34.6961 55.9095C34.6961 51.5182 38.6685 50.0852 42.4573 50.0852C46.4757 50.0852 50.54 51.5413 50.6778 56.3256H48.6342V56.3025Z" fill="white"/>
<path d="M63.6285 50.0391C69.2313 50.0391 74.3289 53.5059 74.3289 60.6015C74.3289 67.697 69.2313 71.1638 63.6285 71.1638C58.0257 71.1638 52.9281 67.697 52.9281 60.6015C52.9281 53.5059 58.0257 50.0391 63.6285 50.0391ZM63.6285 69.2455C67.9454 69.2455 72.1245 66.6569 72.1245 60.6015C72.1245 54.546 67.9684 51.9574 63.6285 51.9574C59.2886 51.9574 55.1325 54.546 55.1325 60.6015C55.1325 66.6569 59.2886 69.2455 63.6285 69.2455Z" fill="white"/>
<path d="M94.8573 62.8894C94.8573 66.5412 93.8699 71.1637 86.0627 71.1637C78.2555 71.1637 77.2681 66.5412 77.2681 62.8894V50.5474H79.3118V62.8894C79.3118 68.159 82.6413 69.2453 86.0627 69.2453C89.4841 69.2453 92.8136 68.1359 92.8136 62.8894V50.5474H94.8573V62.8894Z" fill="white"/>
<path d="M104.456 52.4657H96.7402V50.5474H114.215V52.4657H106.499V70.6552H104.456V52.4657Z" fill="white"/>
<path d="M115.96 50.5474H118.003V59.0527H132.217V50.5474H134.261V70.6552H132.217V60.9711H118.003V70.6552H115.96V50.5474Z" fill="white"/>
</svg>
