<svg xmlns="http://www.w3.org/2000/svg" viewBox="0 0 1061.89 213.93"><defs><style>.cls-1{fill:#fff;}</style></defs><g id="Layer_2" data-name="Layer 2"><g id="Layer_1-2" data-name="Layer 1"><path class="cls-1" d="M718.44,205.49h-2.62v-1.75H723v1.75h-2.62v6.86h-1.9Z"/><path class="cls-1" d="M726.59,203.74h1.89v8.61h-1.89Z"/><path class="cls-1" d="M735.67,203.68h1.75l3.69,8.67h-2l-.79-1.93H734.7l-.79,1.93H732Zm2,5.07L736.52,206l-1.14,2.79Z"/><path class="cls-1" d="M744.53,203.74h1.89v3.77l3.49-3.77h2.29l-3.5,3.66,3.66,4.95h-2.27l-2.67-3.66-1,1v2.63h-1.89Z"/><path class="cls-1" d="M755.68,203.74h1.89v8.61h-1.89Z"/><path class="cls-1" d="M761.82,203.74h1.74l4,5.3v-5.3h1.87v8.61h-1.61l-4.17-5.47v5.47h-1.87Z"/><path class="cls-1" d="M773.62,203.74h6.5v1.69H775.5v1.75h4.06v1.68H775.5v1.81h4.68v1.68h-6.56Z"/><path class="cls-1" d="M783.29,203.74h2l1.78,5.83,1.93-5.85h1.63l1.93,5.85,1.78-5.83h2l-2.94,8.67h-1.65l-1.94-5.63-1.94,5.63h-1.65Z"/><path class="cls-1" d="M799.46,210.91l4.73-5.51h-4.58v-1.66h7v1.44l-4.74,5.51h4.74v1.66h-7.17Z"/><path class="cls-1" d="M810.52,203.74H817v1.69H812.4v1.75h4.05v1.68H812.4v1.81h4.67v1.68h-6.55Z"/><path class="cls-1" d="M823.8,203.68h1.74l3.69,8.67h-2l-.79-1.93h-3.64l-.78,1.93h-1.93Zm2,5.07L824.64,206l-1.14,2.79Z"/><path class="cls-1" d="M832.65,203.74h1.89v6.89h4.3v1.72h-6.19Z"/><path class="cls-1" d="M845.3,203.68h1.75l3.69,8.67h-2l-.79-1.93h-3.64l-.78,1.93h-1.94Zm2,5.07L846.15,206,845,208.75Z"/><path class="cls-1" d="M854.16,203.74h1.74l4,5.3v-5.3h1.87v8.61H860.2L856,206.88v5.47h-1.87Z"/><path class="cls-1" d="M866,203.74h3.36A4.29,4.29,0,0,1,873.9,208v0a4.31,4.31,0,0,1-4.58,4.3H866Zm1.9,1.71v5.19h1.46a2.45,2.45,0,0,0,2.6-2.57v0a2.48,2.48,0,0,0-2.6-2.6Z"/><path class="cls-1" d="M876.91,210.39h2v2h-2Z"/><path class="cls-1" d="M881.91,208.07v0a4.38,4.38,0,0,1,4.49-4.45,4.47,4.47,0,0,1,3.4,1.32l-1.21,1.39a3.18,3.18,0,0,0-2.2-1,2.56,2.56,0,0,0-2.5,2.68v0a2.56,2.56,0,0,0,2.5,2.7,3.11,3.11,0,0,0,2.26-1l1.21,1.21a4.4,4.4,0,0,1-3.53,1.54A4.35,4.35,0,0,1,881.91,208.07Z"/><path class="cls-1" d="M892.83,208.07v0a4.45,4.45,0,0,1,4.59-4.45A4.4,4.4,0,0,1,902,208v0a4.58,4.58,0,0,1-9.15,0Zm7.17,0v0a2.61,2.61,0,0,0-2.6-2.71,2.58,2.58,0,0,0-2.59,2.68v0a2.62,2.62,0,0,0,2.61,2.7A2.57,2.57,0,0,0,900,208.07Z"/><path class="cls-1" d="M905.76,203.74h2l2.26,3.64,2.27-3.64h2v8.61h-1.88v-5.62l-2.43,3.68h0l-2.4-3.64v5.58h-1.85Z"/><path class="cls-1" d="M924.68,202.54h1.48v11.39h-1.48Z"/><path class="cls-1" d="M943.19,210.51h-1.36l-.31,1.84H939.9l.3-1.84h-1.77l-.32,1.84h-1.62l.31-1.84h-.93v-1.58h1.2l.32-1.82H936.3v-1.57h1.36l.3-1.8h1.63l-.31,1.8h1.78l.31-1.8H943l-.31,1.8h.93v1.57h-1.2l-.32,1.82h1.09ZM938.65,209h1.86l.32-1.92H939Z"/><path class="cls-1" d="M949.18,205.49h-2.62v-1.75h7.13v1.75h-2.62v6.86h-1.89Z"/><path class="cls-1" d="M957.32,203.74h1.9v8.61h-1.9Z"/><path class="cls-1" d="M966.41,203.68h1.75l3.69,8.67h-2l-.78-1.93h-3.64l-.79,1.93h-1.93Zm2,5.07L967.26,206l-1.15,2.79Z"/><path class="cls-1" d="M975.26,203.74h1.9v3.77l3.49-3.77h2.29l-3.51,3.66,3.67,4.95h-2.28l-2.67-3.66-1,1v2.63h-1.9Z"/><path class="cls-1" d="M986.42,203.74h1.89v8.61h-1.89Z"/><path class="cls-1" d="M992.55,203.74h3.52c2,0,3.3,1.22,3.3,3v0c0,2-1.55,3-3.48,3h-1.44v2.58h-1.9Zm3.4,4.35a1.34,1.34,0,0,0,1.5-1.31v0c0-.85-.59-1.31-1.54-1.31h-1.46v2.64Z"/><path class="cls-1" d="M1002.86,203.74h3.93a3.4,3.4,0,0,1,2.51.88,2.69,2.69,0,0,1,.74,2v0a2.68,2.68,0,0,1-1.84,2.67l2.1,3.07h-2.21l-1.85-2.75h-1.49v2.75h-1.89Zm3.81,4.19c.92,0,1.45-.5,1.45-1.22v0c0-.81-.56-1.23-1.49-1.23h-1.88v2.48Z"/><path class="cls-1" d="M1013.46,208.07v0a4.58,4.58,0,0,1,9.15,0v0a4.58,4.58,0,0,1-9.15,0Zm7.17,0v0a2.62,2.62,0,0,0-2.61-2.71,2.58,2.58,0,0,0-2.58,2.68v0a2.61,2.61,0,0,0,2.61,2.7A2.57,2.57,0,0,0,1020.63,208.07Z"/><path class="cls-1" d="M1026.38,203.74h2l2.26,3.64,2.26-3.64h2v8.61h-1.88v-5.62l-2.42,3.68h0l-2.4-3.64v5.58h-1.86Z"/><path class="cls-1" d="M1039.23,203.74h1.9v8.61h-1.9Z"/><path class="cls-1" d="M1044.78,211.1l1.12-1.34a3.94,3.94,0,0,0,2.57,1c.77,0,1.24-.3,1.24-.81v0c0-.48-.29-.73-1.73-1.1-1.74-.44-2.86-.92-2.86-2.63v0c0-1.57,1.26-2.6,3-2.6a5,5,0,0,1,3.2,1.1l-1,1.42a4,4,0,0,0-2.24-.85c-.72,0-1.1.34-1.1.75v0c0,.56.36.75,1.85,1.13,1.75.46,2.73,1.08,2.73,2.58v0c0,1.71-1.3,2.67-3.16,2.67A5.49,5.49,0,0,1,1044.78,211.1Z"/><path class="cls-1" d="M1055.33,203.74h6.5v1.69h-4.62v1.75h4.06v1.68h-4.06v1.81h4.68v1.68h-6.56Z"/><rect class="cls-1" y="0.29" width="97.88" height="10.91"/><path class="cls-1" d="M48.94,57c2.81,1.49,5.94,3,9.11,4.49C69.6,67,83.31,72.71,97.88,79.34V66.79c-4-1.81-7.93-3.55-11.8-5.26-13.3-5.85-25.9-11.19-37.14-17C37.7,50.34,25.33,55.68,12,61.53,8.09,63.27,4.08,65.05,0,66.9V79.45c14.65-6.68,28.44-12.39,40.06-17.92C43.23,60,46.12,58.53,48.94,57Z"/><path class="cls-1" d="M97.88,93.48c-16.81-1.78-32.43-8-44.77-18l-4.17-3.4-4.22,3.4c-12.33,10-27.93,16.23-44.72,18v10.81A99.93,99.93,0,0,0,48.94,86.43a99.69,99.69,0,0,0,48.94,17.86Z"/><path class="cls-1" d="M97.88,45.7V33A122.93,122.93,0,0,0,48.94,23,118.94,118.94,0,0,0,0,33.44V46.2A107.55,107.55,0,0,1,48.94,34.49,111,111,0,0,1,97.88,45.7ZM49.18,32l-.12.06L48.93,32Z"/><polygon class="cls-1" points="23.98 158.11 24.76 158.11 24.76 156.21 26.27 156.21 26.27 155.47 24.76 155.47 24.76 154.51 26.62 154.51 26.62 153.78 23.98 153.78 23.98 158.11"/><path class="cls-1" d="M30.34,153.74a2.21,2.21,0,1,0,2.2,2.21A2.21,2.21,0,0,0,30.34,153.74Zm0,3.68A1.48,1.48,0,1,1,31.76,156,1.43,1.43,0,0,1,30.34,157.42Z"/><polygon class="cls-1" points="16.41 158.11 19.05 158.11 19.05 157.37 17.19 157.37 17.19 156.21 18.7 156.21 18.7 155.47 17.19 155.47 17.19 154.51 19.05 154.51 19.05 153.78 16.41 153.78 16.41 158.11"/><path class="cls-1" d="M2.2,157.42a1.48,1.48,0,1,1,1-2.5l.66-.37A2.2,2.2,0,0,0,0,156a2.22,2.22,0,0,0,2.2,2.21A2.25,2.25,0,0,0,4,157.27l-.67-.37A1.39,1.39,0,0,1,2.2,157.42Z"/><path class="cls-1" d="M14,156a1.25,1.25,0,0,0,.39-.91,1.27,1.27,0,0,0-1.26-1.26H11.35v4.33h.77v-1.8h.67l1,1.8h.91l-1.12-1.89A1.41,1.41,0,0,0,14,156Zm-1-.37h-.92v-1.07h1a.53.53,0,0,1,.53.53A.56.56,0,0,1,13,155.58Z"/><path class="cls-1" d="M7.22,153.78l-1.74,4.33h.86L6.77,157H8.29l.44,1.11h.86l-1.74-4.33Zm-.16,2.48L7.54,155,8,156.26Z"/><polygon class="cls-1" points="67.89 158.11 70.53 158.11 70.53 157.37 68.67 157.37 68.67 156.21 70.18 156.21 70.18 155.47 68.67 155.47 68.67 154.51 70.53 154.51 70.53 153.78 67.89 153.78 67.89 158.11"/><polygon class="cls-1" points="48.38 158.11 51.02 158.11 51.02 157.37 49.16 157.37 49.16 156.21 50.67 156.21 50.67 155.47 49.16 155.47 49.16 154.51 51.02 154.51 51.02 153.78 48.38 153.78 48.38 158.11"/><polygon class="cls-1" points="56.66 156.71 55.8 153.78 55.14 153.78 54.27 156.71 53.47 153.78 52.66 153.78 53.93 158.11 54.59 158.11 55.47 155.25 56.35 158.11 57.01 158.11 58.28 153.78 57.46 153.78 56.66 156.71"/><polygon class="cls-1" points="65.81 154.37 65.81 153.78 62.81 153.78 62.81 154.51 64.78 154.51 62.67 157.53 62.67 158.11 65.92 158.11 65.92 157.37 63.7 157.37 65.81 154.37"/><path class="cls-1" d="M84.14,153.78l-1.75,4.33h.86l.44-1.11h1.52l.43,1.11h.86l-1.73-4.33ZM84,156.26l.47-1.22.48,1.22Z"/><polygon class="cls-1" points="78.87 153.78 78.09 153.78 78.09 158.11 80.7 158.11 80.7 157.37 78.87 157.37 78.87 153.78"/><path class="cls-1" d="M74,153.78l-1.74,4.33h.86l.43-1.11H75l.44,1.11h.86l-1.74-4.33Zm-.16,2.48.47-1.22.48,1.22Z"/><polygon class="cls-1" points="45.35 156.65 43.13 153.78 42.48 153.78 42.48 158.11 43.26 158.11 43.26 155.23 45.48 158.11 46.13 158.11 46.13 153.78 45.35 153.78 45.35 156.65"/><polygon class="cls-1" points="91.13 156.65 88.91 153.78 88.26 153.78 88.26 158.11 89.04 158.11 89.04 155.23 91.26 158.11 91.91 158.11 91.91 153.78 91.13 153.78 91.13 156.65"/><path class="cls-1" d="M95.72,153.78H94.16v4.33h1.42a2.19,2.19,0,0,0,2.3-2.16A2.15,2.15,0,0,0,95.72,153.78Zm-.19,3.59h-.59v-2.84h.73A1.39,1.39,0,0,1,97.09,156,1.48,1.48,0,0,1,95.53,157.37Z"/><path class="cls-1" d="M37.16,156a1.22,1.22,0,0,0,.4-.91,1.27,1.27,0,0,0-1.27-1.26H34.48v4.33h.78v-1.8h.66l1,1.8h.91l-1.12-1.89A1.36,1.36,0,0,0,37.16,156Zm-1-.37h-.92v-1.07h1a.53.53,0,0,1,.53.53A.55.55,0,0,1,36.18,155.58Z"/><path class="cls-1" d="M33.24,140c0,3.73,2.68,6.07,7.2,6.07,3.05,0,5.61-1.82,6-3.09a5.13,5.13,0,0,1-3.46,1.2c-2.34,0-3.94-1.92-3.94-4.68,0-4.32,3.64-6,7.73-6.44v-.71C39.24,132.5,33.24,135,33.24,140Z"/><path class="cls-1" d="M53.22,146a7.5,7.5,0,0,0,2.63-.34c-1.89-1.38-2.25-3.67-2.38-8.4,0-1.11,0-3.25,0-4.46,0-5.54-2.55-10.15-9.75-10.15-7.7,0-9,3.67-9,5.37a3.21,3.21,0,0,0,3.49,3.12,5.07,5.07,0,0,0,1.56-.25,4.49,4.49,0,0,1,3.34-7.4c2.31,0,3.82,1.42,4.6,4.12,1,3.44.35,8,.18,11C47.64,143.57,49.3,146,53.22,146Z"/><path class="cls-1" d="M26.23,139.5c0-.23,0-.48-.05-.73s0-.51,0-.78v0c0-.34,0-.68-.05-1-.15-4.67-.15-9.35.14-13.95H19.14c.72.63,1.43,1.78,1.79,5.18l.18.28.38.58.55.86-.92,1.42c0,2-.06,4-.13,5.92,0,1.13-.12,2.17-.19,3.1-.35,3.69-1.08,4.9-1.83,5.55h9.16C27.32,145.22,26.54,143.88,26.23,139.5Z"/><path class="cls-1" d="M20,115.24A3.21,3.21,0,1,0,23.21,112,3.21,3.21,0,0,0,20,115.24Z"/><rect class="cls-1" x="9.42" y="123.02" width="5.23" height="0.89"/><path class="cls-1" d="M96.3,145.92h1.58c-.81-.7-1.59-2-1.9-6.42,0-.23,0-.48,0-.73s0-.51,0-.78v0c0-.34,0-.68,0-1-.15-4.67-.15-9.35.14-13.95H88.89c.72.63,1.43,1.78,1.79,5.18l.18.28.38.58.55.86-.92,1.42c0,2-.06,4-.13,5.92,0,1.13-.12,2.17-.19,3.1-.35,3.69-1.08,4.9-1.83,5.55H96.3Z"/><path class="cls-1" d="M89.75,115.24A3.21,3.21,0,1,0,93,112,3.21,3.21,0,0,0,89.75,115.24Z"/><path class="cls-1" d="M84.77,145.92h.77a24.56,24.56,0,0,1-6.08-6.07,58.67,58.67,0,0,1-5.64-9.67c1.12-1.11,2.3-2.19,3.47-3.16a24.59,24.59,0,0,1,7.09-4H74.74a2.14,2.14,0,0,1,1.48,2c0,1.47-1.69,3-3.59,5l.07-.07a45.5,45.5,0,0,0-5.51,6.6v-.07c-.08-4.51,0-9.18,0-13.53v-.06A72.55,72.55,0,0,1,68,113.5H60.2c.89.78,1.76,2.34,2,7.94v0c0,.49.05,1,.06,1.53,0,1.81.06,3.62.07,5.42l1,1.56-1,1.56c0,1.66,0,3.32-.06,5,0,.78-.06,1.51-.09,2.21-.27,5-1.1,6.5-1.95,7.24h9c-.88-.76-1.73-2.29-2-7.68a28.81,28.81,0,0,1,2.84-4,37.43,37.43,0,0,1,3.63,5.8c1.32,2.58,2.16,5,.65,5.89H84.77Z"/><path class="cls-1" d="M14.3,144.37c-3.16,0-4.86-1.67-5.43-5-.81-4.76-.74-13.35-.44-19.92l.26-4.52-.21.36A22,22,0,0,1,0,123.91H3c.09,1.49.1,2.89.08,4.38l1.07,1.64-1.14,1.75c0,1.78-.09,3.78-.09,6.21,0,5.41,2.16,8.29,6.58,8.29A6.36,6.36,0,0,0,14.3,144.37Z"/><path class="cls-1" d="M989.07,19.31a9.66,9.66,0,1,0-9.59-9.65A9.62,9.62,0,0,0,989.07,19.31Z"/><polygon class="cls-1" points="996.33 65.14 990.43 64.92 990.43 102.41 998.58 102.41 996.33 65.14"/><path class="cls-1" d="M1045.29,19.31a9.66,9.66,0,1,0-9.59-9.65A9.62,9.62,0,0,0,1045.29,19.31Z"/><polygon class="cls-1" points="1054.48 24.1 1039.97 24.66 1027.14 46.53 1017.18 49.15 1007.22 46.53 994.39 24.66 979.88 24.1 978.5 59.66 978.53 102.28 985.82 102.28 985.82 60.58 993.07 60.86 993.91 37.52 1003.89 51.81 1017.18 55.5 1030.46 51.81 1040.45 37.52 1041.29 60.86 1048.54 60.58 1048.54 102.41 1055.83 102.41 1055.91 59.66 1054.48 24.1"/><polygon class="cls-1" points="1035.78 102.41 1043.93 102.41 1043.93 64.92 1038.03 65.14 1035.78 102.41"/><polygon class="cls-1" points="1002.29 30.72 1033.17 30.67 1036.23 24.7 998.13 24.7 1002.29 30.72"/><path class="cls-1" d="M997.27,135c-1.66-.43-2.07-.63-2.07-1.26v0c0-.47.42-.84,1.23-.84a4.52,4.52,0,0,1,2.5.95l1.1-1.59a5.59,5.59,0,0,0-3.57-1.22c-2,0-3.36,1.15-3.36,2.89v0c0,1.91,1.24,2.44,3.18,2.94,1.61.41,1.94.68,1.94,1.22v0c0,.56-.53.9-1.39.9a4.43,4.43,0,0,1-2.87-1.16l-1.25,1.49a6.11,6.11,0,0,0,4.08,1.54c2.07,0,3.53-1.07,3.53-3v0C1000.32,136.21,999.22,135.51,997.27,135Z"/><polygon class="cls-1" points="1009.53 134.94 1005.63 134.94 1005.63 131.14 1003.51 131.14 1003.51 140.75 1005.63 140.75 1005.63 136.9 1009.53 136.9 1009.53 140.75 1011.64 140.75 1011.64 131.14 1009.53 131.14 1009.53 134.94"/><path class="cls-1" d="M1025.11,135.92a5.11,5.11,0,0,0-10.21,0v0a4.92,4.92,0,0,0,5.09,4.95,5,5,0,0,0,5.12-5Zm-2.21.05a2.88,2.88,0,0,1-2.89,3,2.92,2.92,0,0,1-2.9-3v0a2.87,2.87,0,0,1,2.88-3,2.92,2.92,0,0,1,2.91,3Z"/><polygon class="cls-1" points="1036.53 140.82 1038.37 140.82 1041.65 131.14 1039.44 131.14 1037.45 137.65 1035.29 131.12 1033.48 131.12 1031.33 137.65 1029.34 131.14 1027.07 131.14 1030.35 140.82 1032.19 140.82 1034.36 134.53 1036.53 140.82"/><path class="cls-1" d="M989.25,151.29v0a3,3,0,0,0-.82-2.19,3.84,3.84,0,0,0-2.8-1h-4.4v9.61h2.12v-3.07H985l2.06,3.07h2.47l-2.35-3.43A3,3,0,0,0,989.25,151.29Zm-2.14.11c0,.81-.59,1.36-1.62,1.36h-2.14V150h2.1c1,0,1.66.47,1.66,1.37Z"/><polygon class="cls-1" points="994.63 153.8 999.16 153.8 999.16 151.92 994.63 151.92 994.63 149.97 999.78 149.97 999.78 148.09 992.53 148.09 992.53 157.7 999.85 157.7 999.85 155.82 994.63 155.82 994.63 153.8"/><path class="cls-1" d="M1007,152c-1.66-.43-2.07-.63-2.07-1.26v0c0-.47.42-.84,1.23-.84a4.52,4.52,0,0,1,2.5,1l1.1-1.59a5.52,5.52,0,0,0-3.57-1.23c-2,0-3.36,1.16-3.36,2.9v0c0,1.91,1.25,2.44,3.18,2.94,1.61.41,1.94.68,1.94,1.22v0c0,.57-.52.91-1.39.91a4.39,4.39,0,0,1-2.87-1.17l-1.25,1.5a6.15,6.15,0,0,0,4.08,1.54c2.07,0,3.53-1.07,3.53-3v0C1010.05,153.16,1009,152.46,1007,152Z"/><path class="cls-1" d="M1017.17,148.09h-3.92v9.61h2.11v-2.88H1017c2.15,0,3.88-1.16,3.88-3.38v0C1020.85,149.45,1019.46,148.09,1017.17,148.09Zm1.54,3.39a1.49,1.49,0,0,1-1.67,1.46h-1.68V150H1017c1.06,0,1.72.51,1.72,1.45Z"/><polygon class="cls-1" points="1025.89 153.8 1030.42 153.8 1030.42 151.92 1025.89 151.92 1025.89 149.97 1031.04 149.97 1031.04 148.09 1023.79 148.09 1023.79 157.7 1031.11 157.7 1031.11 155.82 1025.89 155.82 1025.89 153.8"/><path class="cls-1" d="M1038.92,155.92a2.86,2.86,0,0,1-2.79-3v0a2.85,2.85,0,0,1,2.79-3,3.54,3.54,0,0,1,2.45,1.08l1.35-1.55a5,5,0,0,0-3.79-1.48,4.88,4.88,0,0,0-5,5v0a4.85,4.85,0,0,0,4.93,4.94,4.91,4.91,0,0,0,3.94-1.71l-1.35-1.36A3.43,3.43,0,0,1,1038.92,155.92Z"/><polygon class="cls-1" points="1045.16 150.04 1048.09 150.04 1048.09 157.7 1050.2 157.7 1050.2 150.04 1053.13 150.04 1053.13 148.09 1045.16 148.09 1045.16 150.04"/><path class="cls-1" d="M902.8,5.3a.6.6,0,0,0-.07.3.85.85,0,0,0,1.69,0,2.64,2.64,0,0,0,.85-.2,4.85,4.85,0,0,0-1,3.3,6.43,6.43,0,0,0,.1,1.1.5.5,0,0,0,0,.12,5.4,5.4,0,0,0,.24.92l.06.14a6.4,6.4,0,0,0,.38.79l.08.12a7.4,7.4,0,0,0,.51.7l.07.07a6.25,6.25,0,0,0,.64.62h0a7.3,7.3,0,0,0,.72.52l.1.06q.36.23.75.42l.13.06c.25.12.51.23.78.34l.13,0,.81.28.1,0c.28.08.55.16.83.22h0l.14,0,.68.14h.1c.25,0,.5.08.74.11l.12,0,.67.07h.11l.58,0h1.31a16.54,16.54,0,0,1-.36,5,42.09,42.09,0,0,1-3.19,9.05h7.89a39.32,39.32,0,0,0,.14-9.32,30.63,30.63,0,0,0-.73-4,25.08,25.08,0,0,0-2.69-6.78,14.87,14.87,0,0,0-4.42-5A13.2,13.2,0,0,0,907,2.67a2.82,2.82,0,0,0-5.64.17,2.45,2.45,0,0,0,0,.38,7.68,7.68,0,0,0-2.5,3.22A7,7,0,0,1,902,4.6,2.86,2.86,0,0,0,902.8,5.3Z"/><path class="cls-1" d="M877.51,102.42h7.37V57.48c19-15.74,38.86-16.68,39.06-16.68l-.25-7.36c-.8,0-16.77.71-34.56,11.89,7.54-10.51,14.83-15.41,19.69-17.69a34,34,0,0,0,2.36-9.29c-5.49,1.42-17.94,6.43-30,24.06-15.87-23.24-31.67-24.56-32.4-24.61l-.56,7.91c.14,0,12.8,1.38,26.09,20.31-18.22-11.83-34.82-12.55-35.63-12.58l-.25,7.36c.2,0,19.94.85,39.06,16.68Z"/><path class="cls-1" d="M851.77,134.27v0c0-2-1.38-3.33-3.68-3.33h-3.92v9.61h2.11v-2.88h1.61C850,137.65,851.77,136.5,851.77,134.27Zm-2.14,0a1.49,1.49,0,0,1-1.67,1.46h-1.68v-2.94h1.64c1.05,0,1.71.51,1.71,1.46Z"/><path class="cls-1" d="M860.65,137.1a3,3,0,0,0,2.06-3v0a3,3,0,0,0-.82-2.19,3.84,3.84,0,0,0-2.8-1H854.7v9.61h2.11v-3.07h1.66l2.06,3.07H863Zm-.08-2.87c0,.81-.59,1.36-1.62,1.36h-2.14v-2.76h2.1c1,0,1.66.47,1.66,1.37Z"/><path class="cls-1" d="M865.57,135.73v0a5.11,5.11,0,0,0,10.21,0v0a5.11,5.11,0,0,0-10.21,0Zm8,0v0a2.87,2.87,0,0,1-2.88,3,2.92,2.92,0,0,1-2.91-3v0a2.87,2.87,0,0,1,2.88-3A2.92,2.92,0,0,1,873.57,135.73Z"/><polygon class="cls-1" points="882.98 140.53 882.98 132.87 885.9 132.87 885.9 130.92 877.94 130.92 877.94 132.87 880.86 132.87 880.86 140.53 882.98 140.53"/><polygon class="cls-1" points="896.13 132.81 896.13 130.92 888.88 130.92 888.88 140.53 896.19 140.53 896.19 138.65 890.98 138.65 890.98 136.63 895.51 136.63 895.51 134.75 890.98 134.75 890.98 132.81 896.13 132.81"/><path class="cls-1" d="M907.89,139l-1.34-1.36a3.47,3.47,0,0,1-2.53,1.13,2.85,2.85,0,0,1-2.79-3v0a2.85,2.85,0,0,1,2.79-3,3.56,3.56,0,0,1,2.46,1.08l1.34-1.55a4.94,4.94,0,0,0-3.79-1.48,4.89,4.89,0,0,0-5,5v0A4.85,4.85,0,0,0,904,140.7,4.91,4.91,0,0,0,907.89,139Z"/><polygon class="cls-1" points="910.27 132.87 913.19 132.87 913.19 140.53 915.3 140.53 915.3 132.87 918.23 132.87 918.23 130.92 910.27 130.92 910.27 132.87"/><polygon class="cls-1" points="855.75 154.01 851.24 148.09 849.29 148.09 849.29 157.7 851.38 157.7 851.38 151.59 856.03 157.7 857.83 157.7 857.83 148.09 855.75 148.09 855.75 154.01"/><path class="cls-1" d="M864.79,148l-4.11,9.67h2.15l.88-2.15h4.06l.88,2.15h2.21L866.74,148Zm-.33,5.65,1.28-3.11,1.28,3.11Z"/><polygon class="cls-1" points="871.79 150.04 874.72 150.04 874.72 157.7 876.83 157.7 876.83 150.04 879.75 150.04 879.75 148.09 871.79 148.09 871.79 150.04"/><path class="cls-1" d="M888.84,153.6c0,1.52-.78,2.31-2.07,2.31s-2.07-.81-2.07-2.38V148.1h-2.12v5.49c0,2.82,1.58,4.26,4.16,4.26s4.22-1.42,4.22-4.33V148.1h-2.12Z"/><path class="cls-1" d="M902.5,151.29v0a3,3,0,0,0-.82-2.2,3.83,3.83,0,0,0-2.8-1h-4.39v9.6h2.11v-3.07h1.66l2.06,3.07h2.47l-2.35-3.43A3,3,0,0,0,902.5,151.29Zm-2.14.11c0,.81-.59,1.36-1.62,1.36H896.6V150h2.1c1,0,1.66.47,1.66,1.38Z"/><polygon class="cls-1" points="907.88 153.81 912.41 153.81 912.41 151.93 907.88 151.93 907.88 149.98 913.03 149.98 913.03 148.09 905.78 148.09 905.78 157.7 913.1 157.7 913.1 155.82 907.88 155.82 907.88 153.81"/><polygon class="cls-1" points="751.9 60.75 744.39 60.75 744.39 102.4 782.34 102.4 782.34 60.75 774.99 60.75 774.99 95.14 751.9 95.14 751.9 60.75"/><path class="cls-1" d="M727.52,19.31a9.66,9.66,0,1,0-9.59-9.66A9.63,9.63,0,0,0,727.52,19.31Z"/><polygon class="cls-1" points="724.26 102.4 724.25 60.5 731.5 60.78 732.36 37.42 741.64 50.72 762.99 45.26 761.2 38.15 744.75 42.36 732.84 24.56 718.33 24 716.96 59.58 716.98 102.4 724.26 102.4"/><polygon class="cls-1" points="728.87 102.4 737.03 102.4 734.78 63.58 728.87 63.35 728.87 102.4"/><polygon class="cls-1" points="759.91 67.81 765.63 69.89 770.01 60.1 762.85 57.49 759.91 67.81"/><polygon class="cls-1" points="720.06 135.39 723.99 131.31 721.39 131.31 717.52 135.51 717.52 131.31 715.41 131.31 715.41 140.92 717.52 140.92 717.52 137.98 718.63 136.83 721.61 140.92 724.15 140.92 720.06 135.39"/><polygon class="cls-1" points="728.9 137.02 733.43 137.02 733.43 135.14 728.9 135.14 728.9 133.19 734.05 133.19 734.05 131.31 726.8 131.31 726.8 140.92 734.12 140.92 734.12 139.04 728.9 139.04 728.9 137.02"/><polygon class="cls-1" points="739.47 137.02 744 137.02 744 135.14 739.47 135.14 739.47 133.19 744.62 133.19 744.62 131.31 737.37 131.31 737.37 140.92 744.69 140.92 744.69 139.04 739.47 139.04 739.47 137.02"/><path class="cls-1" d="M755.53,134.63c0-2-1.38-3.32-3.68-3.32h-3.92v9.61H750V138h1.61c2.15,0,3.88-1.15,3.88-3.38Zm-2.14.07a1.49,1.49,0,0,1-1.67,1.46H750v-2.94h1.64c1.05,0,1.71.51,1.71,1.46Z"/><polygon class="cls-1" points="772.5 140.92 772.5 131.31 770.41 131.31 770.41 137.23 765.91 131.31 763.96 131.31 763.96 140.92 766.05 140.92 766.05 134.81 770.7 140.92 772.5 140.92"/><polygon class="cls-1" points="783.89 131.31 776.06 131.31 776.06 133.17 781.18 133.17 775.89 139.31 775.89 140.92 783.89 140.92 783.89 139.07 778.61 139.07 783.89 132.92 783.89 131.31"/><path class="cls-1" d="M728.09,155.92a2.85,2.85,0,0,1-2.79-3v0a2.85,2.85,0,0,1,2.79-3,3.56,3.56,0,0,1,2.46,1.08l1.34-1.55a4.94,4.94,0,0,0-3.79-1.48,4.89,4.89,0,0,0-5,5v0a5.07,5.07,0,0,0,8.87,3.22l-1.34-1.36A3.47,3.47,0,0,1,728.09,155.92Z"/><polygon class="cls-1" points="737.14 148.09 735.02 148.09 735.02 157.7 741.93 157.7 741.93 155.78 737.14 155.78 737.14 148.09"/><polygon class="cls-1" points="746.99 153.8 751.52 153.8 751.52 151.92 746.99 151.92 746.99 149.97 752.14 149.97 752.14 148.09 744.89 148.09 744.89 157.7 752.21 157.7 752.21 155.82 746.99 155.82 746.99 153.8"/><path class="cls-1" d="M758.74,148l-4.11,9.67h2.15l.88-2.15h4.06l.88,2.15h2.21L760.69,148Zm-.32,5.65,1.27-3.12,1.28,3.12Z"/><polygon class="cls-1" points="774.12 154.01 769.62 148.09 767.67 148.09 767.67 157.7 769.75 157.7 769.75 151.59 774.41 157.7 776.21 157.7 776.21 148.09 774.12 148.09 774.12 154.01"/><rect class="cls-1" x="608.01" y="88.16" width="7.38" height="14.25"/><polygon class="cls-1" points="660.85 23.03 660.85 14.18 639.34 0 611.38 18.62 583.75 0.2 562.54 14.2 562.54 23.12 583.68 9.12 628.08 38.57 562.54 38.57 562.54 45.92 608 45.92 608 54.79 615.39 54.79 615.39 45.92 660.85 45.92 660.85 38.57 641.52 38.57 618.05 23.02 639.34 8.86 660.85 23.03"/><polygon class="cls-1" points="581.38 102.4 588.76 102.4 588.76 68.59 593.42 68.59 585.07 58.81 576.72 68.59 581.38 68.59 581.38 102.4"/><rect class="cls-1" x="608.01" y="64.22" width="7.38" height="14.25"/><path class="cls-1" d="M596.37,136.13v0a4.8,4.8,0,0,0-5.11-4.78h-3.74v9.61h3.74A4.81,4.81,0,0,0,596.37,136.13Zm-6.74-2.9h1.63a2.76,2.76,0,0,1,2.9,2.9v0a2.74,2.74,0,0,1-2.9,2.87h-1.63Z"/><path class="cls-1" d="M607.64,134.52v0a3,3,0,0,0-.82-2.19,3.85,3.85,0,0,0-2.8-1h-4.4v9.61h2.12v-3.07h1.66l2.06,3.07h2.47l-2.35-3.43A3,3,0,0,0,607.64,134.52Zm-2.14.11c0,.81-.59,1.36-1.62,1.36h-2.14v-2.76h2.1c1,0,1.66.47,1.66,1.37Z"/><rect class="cls-1" x="611.02" y="131.32" width="2.11" height="9.61"/><polygon class="cls-1" points="625.7 131.32 623.43 131.32 620.91 138.09 618.4 131.32 616.07 131.32 619.95 141 621.82 141 625.7 131.32"/><polygon class="cls-1" points="635.81 133.2 635.81 131.32 628.56 131.32 628.56 140.93 635.88 140.93 635.88 139.05 630.66 139.05 630.66 137.03 635.19 137.03 635.19 135.15 630.66 135.15 630.66 133.2 635.81 133.2"/><path class="cls-1" d="M569.67,155.92a2.86,2.86,0,0,1-2.78-3v0a2.84,2.84,0,0,1,2.78-3,3.54,3.54,0,0,1,2.46,1.08l1.35-1.55a5,5,0,0,0-3.79-1.48,4.89,4.89,0,0,0-5,5v0a4.86,4.86,0,0,0,4.93,5,4.91,4.91,0,0,0,3.94-1.72l-1.35-1.36A3.46,3.46,0,0,1,569.67,155.92Z"/><path class="cls-1" d="M579.9,148l-4.12,9.68h2.16l.88-2.15h4.06l.88,2.15H586L581.85,148Zm-.33,5.66,1.28-3.12,1.28,3.12Z"/><path class="cls-1" d="M596.84,151.29v0a3,3,0,0,0-.82-2.19,3.84,3.84,0,0,0-2.8-1h-4.39v9.61h2.11v-3.07h1.66l2.06,3.07h2.47l-2.35-3.43A3,3,0,0,0,596.84,151.29Zm-2.14.11c0,.81-.59,1.36-1.62,1.36h-2.14V150H593c1,0,1.66.47,1.66,1.37Z"/><polygon class="cls-1" points="602.22 153.8 606.75 153.8 606.75 151.92 602.22 151.92 602.22 149.97 607.37 149.97 607.37 148.09 600.12 148.09 600.12 157.7 607.44 157.7 607.44 155.82 602.22 155.82 602.22 153.8"/><polygon class="cls-1" points="610.68 157.7 612.79 157.7 612.79 153.98 617.38 153.98 617.38 152.06 612.79 152.06 612.79 150.01 618 150.01 618 148.09 610.68 148.09 610.68 157.7"/><path class="cls-1" d="M627.17,153.6c0,1.52-.79,2.3-2.08,2.3s-2.07-.81-2.07-2.37v-5.44h-2.11v5.49c0,2.83,1.57,4.27,4.15,4.27s4.22-1.43,4.22-4.34v-5.42h-2.11Z"/><polygon class="cls-1" points="634.55 148.09 632.44 148.09 632.44 157.7 639.34 157.7 639.34 155.78 634.55 155.78 634.55 148.09"/><polygon class="cls-1" points="644.22 148.09 642.11 148.09 642.11 157.7 649.01 157.7 649.01 155.78 644.22 155.78 644.22 148.09"/><polygon class="cls-1" points="653.98 151.95 651.69 148.09 649.22 148.09 652.91 153.91 652.91 157.7 655.02 157.7 655.02 153.87 658.71 148.09 656.31 148.09 653.98 151.95"/><polygon class="cls-1" points="505.83 67.46 505.83 58.16 478.65 75.61 451.38 57.49 414.04 82.72 414.04 91.56 451.39 66.33 494.29 95.09 414.04 95.09 414.04 102.48 507.98 102.48 507.98 95.09 485.66 80.3 505.83 67.46"/><polygon class="cls-1" points="493 34.13 484.89 34.13 473.82 58.62 481.85 58.62 493 34.13"/><polygon class="cls-1" points="462.34 50.68 470.45 50.68 478.06 34.13 469.95 34.13 462.34 50.68"/><polygon class="cls-1" points="507.99 34.13 499.88 34.13 491.02 53.38 499.53 53.38 507.99 34.13"/><path class="cls-1" d="M460.13,40.72l3-6.59h-9.4a17.06,17.06,0,0,1,.75-2.61A13.51,13.51,0,0,1,461,24.09a23,23,0,0,1,10.66-2.22c.42,0,3,.08,3,.08l1.19,0,.26-1.15a35.48,35.48,0,0,1,1.67-5.51c1.52-3,3.63-4.9,7.29-6.56a26.9,26.9,0,0,1,11.09-2.08h9.67V.08h-9.67A33.4,33.4,0,0,0,482.3,2.76a22.39,22.39,0,0,0-8.15,6.14,21,21,0,0,0-3.64,6.4,33.33,33.33,0,0,0-7.69,1.08c-1.24.38-3.58,1.26-3.68,1.3l-.09,0c-.39.18-.77.35-1.13.55a20,20,0,0,0-7.73,7.05,23.22,23.22,0,0,0-3.47,11.87v3.53Z"/><path class="cls-1" d="M459.88,138.26a2.35,2.35,0,0,0-1.8-2.36,2.23,2.23,0,0,0,1.26-2.07v0a2.22,2.22,0,0,0-.66-1.64,3.5,3.5,0,0,0-2.51-.85h-4.46v9.61h4.57c2.17,0,3.6-.88,3.6-2.63Zm-6.11-5.09h2.09c.89,0,1.38.35,1.38,1v0c0,.72-.59,1-1.52,1h-2Zm4,4.86c0,.71-.56,1-1.5,1h-2.51V137h2.44c1.09,0,1.57.4,1.57,1.05Z"/><polygon class="cls-1" points="465.1 137.02 469.63 137.02 469.63 135.14 465.1 135.14 465.1 133.19 470.24 133.19 470.24 131.31 463 131.31 463 140.92 470.31 140.92 470.31 139.04 465.1 139.04 465.1 137.02"/><path class="cls-1" d="M422.49,148.18h-3.92v9.6h2.11V154.9h1.61c2.15,0,3.88-1.15,3.88-3.38v0C426.17,149.53,424.78,148.18,422.49,148.18Zm1.54,3.39a1.49,1.49,0,0,1-1.68,1.45h-1.67v-2.94h1.63c1.06,0,1.72.51,1.72,1.46Z"/><path class="cls-1" d="M437.11,151.37v0a3,3,0,0,0-.82-2.2,3.83,3.83,0,0,0-2.8-1H429.1v9.6h2.11v-3.07h1.66l2.06,3.07h2.47l-2.35-3.43A3,3,0,0,0,437.11,151.37Zm-2.14.11c0,.81-.59,1.36-1.62,1.36h-2.14v-2.76h2.1c1,0,1.66.47,1.66,1.38Z"/><polygon class="cls-1" points="442.49 153.88 447.02 153.88 447.02 152 442.49 152 442.49 150.06 447.64 150.06 447.64 148.18 440.39 148.18 440.39 157.78 447.71 157.78 447.71 155.9 442.49 155.9 442.49 153.88"/><path class="cls-1" d="M454.88,148.18H451v9.6h2.11V154.9h1.61c2.15,0,3.88-1.15,3.88-3.38v0C458.55,149.53,457.17,148.18,454.88,148.18Zm1.53,3.39a1.48,1.48,0,0,1-1.67,1.45h-1.68v-2.94h1.64c1.05,0,1.71.51,1.71,1.46Z"/><path class="cls-1" d="M463.83,148.11l-4.12,9.67h2.15l.88-2.15h4.06l.88,2.15h2.21l-4.11-9.67Zm-.33,5.65,1.27-3.11,1.28,3.11Z"/><path class="cls-1" d="M480.75,151.37v0a3,3,0,0,0-.82-2.2,3.83,3.83,0,0,0-2.8-1h-4.39v9.6h2.11v-3.07h1.66l2.06,3.07H481l-2.35-3.43A3,3,0,0,0,480.75,151.37Zm-2.14.11c0,.81-.59,1.36-1.62,1.36h-2.14v-2.76H477c1,0,1.66.47,1.66,1.38Z"/><polygon class="cls-1" points="486.13 153.88 490.66 153.88 490.66 152 486.13 152 486.13 150.06 491.28 150.06 491.28 148.18 484.03 148.18 484.03 157.78 491.35 157.78 491.35 155.9 486.13 155.9 486.13 153.88"/><path class="cls-1" d="M498.35,148.18H494.6v9.6h3.75a4.81,4.81,0,0,0,5.11-4.8v0A4.79,4.79,0,0,0,498.35,148.18Zm2.9,4.83a2.74,2.74,0,0,1-2.9,2.87h-1.63v-5.8h1.63a2.77,2.77,0,0,1,2.9,2.9Z"/><line class="cls-1" x1="141.79" y1="158.16" x2="141.79" y2="0.29"/><rect class="cls-1" x="141.11" y="0.29" width="1.37" height="157.87"/><path class="cls-1" d="M187.11,3.54h-2.73V2.14h7v1.4h-2.73v7.2h-1.52Z"/><path class="cls-1" d="M194.64,2.14h1.52v8.6h-1.52Z"/><path class="cls-1" d="M203.1,2.07h1.41l3.79,8.67h-1.6l-.88-2.07h-4.07l-.88,2.07h-1.55Zm2.17,5.26-1.49-3.45-1.47,3.45Z"/><path class="cls-1" d="M211.37,2.14h1.51V6.47L217,2.14h1.85l-3.57,3.7,3.73,4.9h-1.83l-2.94-3.87-1.34,1.38v2.49h-1.51Z"/><path class="cls-1" d="M222,2.14h1.51v8.6H222Z"/><path class="cls-1" d="M232.67,2.14h1.61l2.62,4.07,2.62-4.07h1.61v8.6h-1.51V4.57L236.9,8.63h-.05l-2.69-4v6.14h-1.49Z"/><path class="cls-1" d="M244.94,2.14h6.38V3.49h-4.87V5.73h4.32V7.08h-4.32V9.39h4.93v1.35h-6.44Z"/><path class="cls-1" d="M257.83,2.07h1.4L263,10.74h-1.6l-.87-2.07h-4.07l-.89,2.07H254ZM260,7.33,258.5,3.88,257,7.33Z"/><path class="cls-1" d="M266.09,2.14h1.4l4.62,5.95V2.14h1.48v8.6h-1.26l-4.75-6.12v6.12h-1.49Z"/><path class="cls-1" d="M276.83,9.49l.91-1.08a4,4,0,0,0,2.72,1.12c.93,0,1.52-.43,1.52-1.08v0c0-.61-.34-1-1.94-1.32-1.84-.44-2.87-1-2.87-2.57v0c0-1.48,1.23-2.5,2.94-2.5a4.75,4.75,0,0,1,3.13,1.09l-.82,1.14a3.89,3.89,0,0,0-2.33-.89c-.89,0-1.41.46-1.41,1v0c0,.66.4,1,2.05,1.35,1.82.45,2.76,1.1,2.76,2.52v0c0,1.61-1.26,2.57-3.07,2.57A5.3,5.3,0,0,1,276.83,9.49Z"/><path class="cls-1" d="M294.28,3.54h-2.73V2.14h7v1.4H295.8v7.2h-1.52Z"/><path class="cls-1" d="M300.88,6.47v0A4.41,4.41,0,0,1,305.39,2a4.37,4.37,0,0,1,4.49,4.43v0a4.41,4.41,0,0,1-4.51,4.45A4.36,4.36,0,0,1,300.88,6.47Zm7.42,0v0a3,3,0,0,0-2.93-3.06,2.9,2.9,0,0,0-2.9,3v0a2.94,2.94,0,0,0,2.92,3.06A2.91,2.91,0,0,0,308.3,6.47Z"/><path class="cls-1" d="M318.22,6.47v0A4.35,4.35,0,0,1,322.66,2,4.48,4.48,0,0,1,326,3.33l-1,1.12a3.43,3.43,0,0,0-2.41-1.07,2.89,2.89,0,0,0-2.84,3v0a2.9,2.9,0,0,0,2.84,3.06,3.38,3.38,0,0,0,2.47-1.12l1,1a4.45,4.45,0,0,1-3.49,1.52A4.33,4.33,0,0,1,318.22,6.47Z"/><path class="cls-1" d="M332.32,2.07h1.41l3.78,8.67h-1.59L335,8.67H331l-.88,2.07h-1.55Zm2.17,5.26L333,3.88l-1.48,3.45Z"/><path class="cls-1" d="M340.59,2.14h3.84a3.46,3.46,0,0,1,2.48.86,2.59,2.59,0,0,1,.71,1.85v0a2.6,2.6,0,0,1-2.05,2.61l2.32,3.25h-1.78l-2.11-3h-1.9v3h-1.51Zm3.72,4.26c1.09,0,1.78-.56,1.78-1.44v0c0-.92-.67-1.43-1.79-1.43h-2.2V6.4Z"/><path class="cls-1" d="M351.08,2.14h6.38V3.49h-4.87V5.73h4.32V7.08h-4.32V9.39h4.93v1.35h-6.44Z"/><path class="cls-1" d="M185,21.42h6.41V22.8h-4.9v2.35h4.35v1.38H186.5V30H185Z"/><path class="cls-1" d="M193.89,25.75v0a4.51,4.51,0,0,1,9,0v0a4.51,4.51,0,0,1-9,0Zm7.42,0v0a3,3,0,0,0-2.93-3.07,2.91,2.91,0,0,0-2.9,3v0a3,3,0,0,0,2.93,3.06A2.91,2.91,0,0,0,201.31,25.75Z"/><path class="cls-1" d="M206,21.42h3.84a3.46,3.46,0,0,1,2.48.86,2.63,2.63,0,0,1,.71,1.86v0A2.58,2.58,0,0,1,211,26.77L213.32,30h-1.78l-2.11-3h-1.9v3H206Zm3.73,4.27c1.08,0,1.77-.57,1.77-1.44v0c0-.93-.67-1.43-1.79-1.43h-2.2v2.89Z"/><path class="cls-1" d="M220.93,21.42h3.4c2,0,3.27,1.15,3.27,2.88v0c0,1.94-1.55,2.94-3.44,2.94h-1.71V30h-1.52Zm3.28,4.48c1.14,0,1.85-.64,1.85-1.54v0c0-1-.72-1.54-1.85-1.54h-1.76v3.1Z"/><path class="cls-1" d="M230.44,21.42h6.38v1.36H232V25h4.32v1.36H232v2.31h4.94V30h-6.45Z"/><path class="cls-1" d="M239.59,25.75v0a4.5,4.5,0,0,1,9,0v0a4.5,4.5,0,0,1-9,0Zm7.42,0v0a3,3,0,0,0-2.93-3.07,2.91,2.91,0,0,0-2.9,3v0a2.92,2.92,0,1,0,5.83,0Z"/><path class="cls-1" d="M251.72,21.42h3.39c2,0,3.27,1.15,3.27,2.88v0c0,1.94-1.55,2.94-3.44,2.94h-1.71V30h-1.51ZM255,25.9c1.14,0,1.85-.64,1.85-1.54v0c0-1-.72-1.54-1.85-1.54h-1.76v3.1Z"/><path class="cls-1" d="M261.22,21.42h1.51v7.23h4.53V30h-6Z"/><path class="cls-1" d="M270.12,21.42h6.39v1.36h-4.87V25H276v1.36h-4.31v2.31h4.93V30h-6.45Z"/><path class="cls-1" d="M287,21.36h1.4L292.14,30h-1.6L289.67,28h-4.08L284.71,30h-1.55Zm2.16,5.25-1.49-3.44-1.47,3.44Z"/><path class="cls-1" d="M294.9,21.42h1.41l4.61,5.95V21.42h1.49V30h-1.27l-4.75-6.12V30H294.9Z"/><path class="cls-1" d="M305.91,21.42h3.21a4.29,4.29,0,0,1,4.57,4.28v0a4.3,4.3,0,0,1-4.57,4.3h-3.21Zm3.21,7.23a2.8,2.8,0,0,0,3-2.9v0a2.82,2.82,0,0,0-3-2.93h-1.7v5.85Z"/><path class="cls-1" d="M321.06,21.42h3.39c2,0,3.28,1.15,3.28,2.88v0c0,1.94-1.55,2.94-3.45,2.94h-1.71V30h-1.51Zm3.27,4.48c1.15,0,1.86-.64,1.86-1.54v0c0-1-.73-1.54-1.86-1.54h-1.76v3.1Z"/><path class="cls-1" d="M330.57,21.42h1.51v7.23h4.52V30h-6Z"/><path class="cls-1" d="M342.52,21.36h1.4L347.71,30h-1.6L345.24,28h-4.07L340.28,30h-1.55Zm2.16,5.25-1.48-3.44-1.48,3.44Z"/><path class="cls-1" d="M349.57,25.75v0A4.36,4.36,0,0,1,354,21.27a4.46,4.46,0,0,1,3.36,1.35l-1,1.11A3.41,3.41,0,0,0,354,22.66a2.89,2.89,0,0,0-2.84,3v0A2.91,2.91,0,0,0,354,28.79a3.35,3.35,0,0,0,2.47-1.12l1,1a4.45,4.45,0,0,1-3.5,1.53A4.33,4.33,0,0,1,349.57,25.75Z"/><path class="cls-1" d="M360.31,21.42h6.39v1.36h-4.87V25h4.31v1.36h-4.31v2.31h4.93V30h-6.45Z"/><path class="cls-1" d="M369.57,28.35h1.64V30h-1.64Z"/><path class="cls-1" d="M187.11,42.11h-2.73v-1.4h7v1.4h-2.73v7.21h-1.52Z"/><path class="cls-1" d="M194.25,40.71h1.51v3.58h4.11V40.71h1.51v8.61h-1.51V45.69h-4.11v3.63h-1.51Z"/><path class="cls-1" d="M204.89,40.71h6.38v1.35H206.4V44.3h4.32v1.35H206.4V48h4.93v1.36h-6.44Z"/><path class="cls-1" d="M221.51,42.11h-2.73v-1.4h7v1.4H223v7.21h-1.53Z"/><path class="cls-1" d="M228.75,40.71h1.51v8.61h-1.51Z"/><path class="cls-1" d="M236.9,40.65h1.4l3.79,8.67h-1.6l-.87-2.08h-4.07l-.89,2.08h-1.55Zm2.16,5.25-1.48-3.45L236.1,45.9Z"/><path class="cls-1" d="M244.85,40.71h1.52V45l4.09-4.33h1.86l-3.58,3.7,3.74,4.91h-1.83l-2.94-3.88-1.34,1.38v2.5h-1.52Z"/><path class="cls-1" d="M255.15,40.71h1.51v8.61h-1.51Z"/><path class="cls-1" d="M265.23,40.71h3.4c2,0,3.27,1.14,3.27,2.88v0c0,1.93-1.55,2.94-3.45,2.94h-1.71v2.77h-1.51Zm3.27,4.47c1.15,0,1.86-.64,1.86-1.53v0c0-1-.73-1.53-1.86-1.53h-1.76v3.09Z"/><path class="cls-1" d="M274.74,40.71h3.83a3.49,3.49,0,0,1,2.49.86,2.63,2.63,0,0,1,.71,1.86v0a2.59,2.59,0,0,1-2,2.61L282,49.32h-1.78l-2.12-3h-1.89v3h-1.51ZM278.46,45c1.09,0,1.77-.57,1.77-1.44v0c0-.92-.66-1.42-1.78-1.42h-2.2V45Z"/><path class="cls-1" d="M284.54,45v0a4.5,4.5,0,0,1,9,0v0a4.5,4.5,0,0,1-9,0ZM292,45v0a2.92,2.92,0,1,0-5.83,0v0a3,3,0,0,0,2.93,3.06A2.9,2.9,0,0,0,292,45Z"/><path class="cls-1" d="M296.66,40.71h1.61l2.62,4.07,2.62-4.07h1.61v8.61h-1.51V43.14l-2.72,4.06h-.05l-2.69-4v6.15h-1.49Z"/><path class="cls-1" d="M308.71,40.71h1.52v8.61h-1.52Z"/><path class="cls-1" d="M313.24,48.06l.91-1.08a4,4,0,0,0,2.72,1.12c.93,0,1.52-.43,1.52-1.08v0c0-.61-.34-.94-1.94-1.31-1.83-.45-2.87-1-2.87-2.57v0c0-1.47,1.23-2.5,2.94-2.5a4.8,4.8,0,0,1,3.13,1.09l-.81,1.14a3.9,3.9,0,0,0-2.34-.88c-.89,0-1.4.45-1.4,1v0c0,.66.39,1,2,1.35,1.82.45,2.77,1.1,2.77,2.52v0c0,1.61-1.27,2.57-3.08,2.57A5.27,5.27,0,0,1,313.24,48.06Z"/><path class="cls-1" d="M323,40.71h6.38v1.35h-4.87V44.3h4.32v1.35h-4.32V48h4.93v1.36H323Z"/><path class="cls-1" d="M337.58,40.71h1.51v8.61h-1.51Z"/><path class="cls-1" d="M342.1,48.06,343,47a4,4,0,0,0,2.72,1.12c.93,0,1.52-.43,1.52-1.08v0c0-.61-.34-.94-1.94-1.31-1.83-.45-2.86-1-2.86-2.57v0c0-1.47,1.23-2.5,2.94-2.5a4.77,4.77,0,0,1,3.12,1.09l-.81,1.14a3.9,3.9,0,0,0-2.34-.88c-.88,0-1.4.45-1.4,1v0c0,.66.39,1,2,1.35,1.82.45,2.77,1.1,2.77,2.52v0c0,1.61-1.27,2.57-3.08,2.57A5.27,5.27,0,0,1,342.1,48.06Z"/><path class="cls-1" d="M359.87,40.65h1.4l3.79,8.67h-1.6l-.87-2.08h-4.07l-.89,2.08h-1.55ZM362,45.9l-1.49-3.45-1.48,3.45Z"/><path class="cls-1" d="M184.61,64.32v0a4.35,4.35,0,0,1,4.44-4.45,4.46,4.46,0,0,1,3.37,1.34l-1,1.12A3.43,3.43,0,0,0,189,61.24a2.88,2.88,0,0,0-2.84,3v0A2.91,2.91,0,0,0,189,67.36a3.37,3.37,0,0,0,2.47-1.12l1,1A4.45,4.45,0,0,1,189,68.75,4.33,4.33,0,0,1,184.61,64.32Z"/><path class="cls-1" d="M195,64.32v0a4.41,4.41,0,0,1,4.51-4.45A4.36,4.36,0,0,1,204,64.27v0a4.41,4.41,0,0,1-4.51,4.45A4.37,4.37,0,0,1,195,64.32Zm7.41,0v0a2.94,2.94,0,0,0-2.92-3.06,2.91,2.91,0,0,0-2.91,3v0a3,3,0,0,0,2.93,3.06A2.9,2.9,0,0,0,202.45,64.32Z"/><path class="cls-1" d="M207.47,60h1.61l2.62,4.08L214.32,60h1.61V68.6h-1.51V62.43l-2.72,4.06h0l-2.69-4V68.6h-1.49Z"/><path class="cls-1" d="M219.74,60h1.61L224,64.07,226.59,60h1.61V68.6h-1.51V62.43L224,66.49h-.05l-2.69-4V68.6h-1.49Z"/><path class="cls-1" d="M232.1,60h1.51V68.6H232.1Z"/><path class="cls-1" d="M239.63,61.4H236.9V60h7V61.4h-2.73v7.2h-1.52Z"/><path class="cls-1" d="M247.08,60h1.61l2.62,4.08L253.93,60h1.61V68.6H254V62.43l-2.72,4.06h-.05l-2.69-4V68.6h-1.49Z"/><path class="cls-1" d="M259.35,60h6.39v1.36h-4.87v2.23h4.31v1.36h-4.31v2.31h4.93V68.6h-6.45Z"/><path class="cls-1" d="M269.19,60h1.4l4.61,6V60h1.49V68.6h-1.26l-4.75-6.12V68.6h-1.49Z"/><path class="cls-1" d="M282.62,61.4h-2.73V60h7V61.4h-2.74v7.2h-1.52Z"/><path class="cls-1" d="M297.48,61.4h-2.74V60h7V61.4H299v7.2h-1.52Z"/><path class="cls-1" d="M304.08,64.32v0a4.41,4.41,0,0,1,4.51-4.45,4.36,4.36,0,0,1,4.49,4.42v0a4.41,4.41,0,0,1-4.51,4.45A4.37,4.37,0,0,1,304.08,64.32Zm7.41,0v0a2.94,2.94,0,0,0-2.92-3.06,2.91,2.91,0,0,0-2.91,3v0a3,3,0,0,0,2.93,3.06A2.9,2.9,0,0,0,311.49,64.32Z"/><path class="cls-1" d="M321.42,64.32v0a4.35,4.35,0,0,1,4.44-4.45,4.5,4.5,0,0,1,3.37,1.34l-1,1.12a3.39,3.39,0,0,0-2.41-1.07,2.89,2.89,0,0,0-2.84,3v0a2.92,2.92,0,0,0,2.84,3.06,3.39,3.39,0,0,0,2.48-1.12l1,1a4.46,4.46,0,0,1-3.5,1.52A4.33,4.33,0,0,1,321.42,64.32Z"/><path class="cls-1" d="M335.52,59.93h1.4l3.79,8.67h-1.6l-.87-2.08h-4.07l-.89,2.08h-1.55Zm2.17,5.25-1.49-3.44-1.48,3.44Z"/><path class="cls-1" d="M343.79,60h3.83a3.46,3.46,0,0,1,2.49.87,2.59,2.59,0,0,1,.71,1.85v0a2.58,2.58,0,0,1-2.05,2.6l2.32,3.26h-1.78l-2.12-3H345.3v3h-1.51Zm3.72,4.27c1.08,0,1.77-.56,1.77-1.44v0c0-.92-.66-1.43-1.78-1.43h-2.2v2.89Z"/><path class="cls-1" d="M354.28,60h6.38v1.36h-4.87v2.23h4.31v1.36h-4.31v2.31h4.93V68.6h-6.44Z"/><path class="cls-1" d="M185,79.28h6.41v1.38h-4.9V83h4.35v1.37H186.5v3.51H185Z"/><path class="cls-1" d="M193.89,83.61v0a4.51,4.51,0,0,1,9,0v0a4.51,4.51,0,0,1-9,0Zm7.42,0v0a3,3,0,0,0-2.93-3.06,2.91,2.91,0,0,0-2.9,3v0a3,3,0,0,0,2.93,3.07A2.91,2.91,0,0,0,201.31,83.61Z"/><path class="cls-1" d="M206,79.28h3.84a3.46,3.46,0,0,1,2.48.86,2.63,2.63,0,0,1,.71,1.86v0A2.59,2.59,0,0,1,211,84.63l2.32,3.26h-1.78l-2.11-3h-1.9v3H206Zm3.73,4.27c1.08,0,1.77-.57,1.77-1.44v0c0-.92-.67-1.42-1.79-1.42h-2.2v2.89Z"/><path class="cls-1" d="M221.18,79.28h1.4l4.61,6v-6h1.49v8.61h-1.26l-4.75-6.13v6.13h-1.49Z"/><path class="cls-1" d="M232.19,79.28h6.38v1.35H233.7v2.24H238v1.35H233.7v2.32h4.93v1.35h-6.44Z"/><path class="cls-1" d="M241.05,79.28h1.64l2.05,6.38,2.12-6.41h1.28l2.11,6.41,2.06-6.38h1.58l-3,8.67h-1.3l-2.12-6.19L245.36,88h-1.31Z"/><path class="cls-1" d="M259.44,86.77l5.08-6.15H259.6V79.28h6.89V80.4l-5.08,6.15h5.08v1.34h-7.05Z"/><path class="cls-1" d="M269.67,79.28h6.38v1.35h-4.87v2.24h4.32v1.35h-4.32v2.32h4.93v1.35h-6.44Z"/><path class="cls-1" d="M282.25,79.22h1.4l3.79,8.67h-1.6L285,85.81H280.9L280,87.89h-1.55Zm2.16,5.25L282.93,81l-1.48,3.44Z"/><path class="cls-1" d="M290.21,79.28h1.51v7.23h4.52v1.38h-6Z"/><path class="cls-1" d="M302.16,79.22h1.4l3.79,8.67h-1.6l-.87-2.08h-4.07l-.89,2.08h-1.55Zm2.16,5.25L302.84,81l-1.48,3.44Z"/><path class="cls-1" d="M310.12,79.28h1.4l4.61,6v-6h1.49v8.61h-1.27l-4.75-6.13v6.13h-1.48Z"/><path class="cls-1" d="M321.12,79.28h3.21a4.29,4.29,0,0,1,4.58,4.28v0a4.31,4.31,0,0,1-4.58,4.31h-3.21Zm3.21,7.23a2.81,2.81,0,0,0,3-2.9v0a2.82,2.82,0,0,0-3-2.92h-1.7v5.85Z"/><path class="cls-1" d="M330.85,89c.75-.14,1.1-.52,1-1.15h-.62V86.2h1.63v1.43a1.79,1.79,0,0,1-1.89,2Z"/><path class="cls-1" d="M338.41,79.28h6.41v1.38h-4.9V83h4.35v1.37h-4.35v3.51h-1.51Z"/><path class="cls-1" d="M347.31,83.61v0a4.51,4.51,0,0,1,9,0v0a4.51,4.51,0,0,1-9,0Zm7.42,0v0a3,3,0,0,0-2.93-3.06,2.91,2.91,0,0,0-2.9,3v0a3,3,0,0,0,2.93,3.07A2.91,2.91,0,0,0,354.73,83.61Z"/><path class="cls-1" d="M359.44,79.28h3.84a3.46,3.46,0,0,1,2.48.86,2.63,2.63,0,0,1,.71,1.86v0a2.59,2.59,0,0,1-2.05,2.61l2.32,3.26H365l-2.11-3H361v3h-1.51Zm3.72,4.27c1.09,0,1.78-.57,1.78-1.44v0c0-.92-.67-1.42-1.79-1.42H361v2.89Z"/><path class="cls-1" d="M185,98.57h1.4l4.62,6v-6h1.48v8.6h-1.26l-4.75-6.12v6.12H185Z"/><path class="cls-1" d="M195.8,102.9v0a4.41,4.41,0,0,1,4.51-4.45,4.37,4.37,0,0,1,4.49,4.43v0a4.41,4.41,0,0,1-4.51,4.45A4.36,4.36,0,0,1,195.8,102.9Zm7.42,0v0a3,3,0,0,0-2.93-3.06,2.9,2.9,0,0,0-2.9,3v0a2.94,2.94,0,0,0,2.92,3.06A2.91,2.91,0,0,0,203.22,102.9Z"/><path class="cls-1" d="M207,98.57h1.63l2.06,6.38,2.11-6.41h1.28l2.12,6.41,2-6.38h1.59l-3,8.67h-1.31l-2.11-6.19-2.12,6.19H210Z"/><path class="cls-1" d="M231.06,98.5h1.4l3.79,8.67h-1.6l-.88-2.07H229.7l-.88,2.07h-1.55Zm2.16,5.26-1.49-3.45-1.47,3.45Z"/><path class="cls-1" d="M239.2,98.57h1.4l4.61,6v-6h1.49v8.6h-1.27l-4.75-6.12v6.12H239.2Z"/><path class="cls-1" d="M250.39,98.57h3.21a4.29,4.29,0,0,1,4.57,4.28v0a4.31,4.31,0,0,1-4.57,4.3h-3.21Zm3.21,7.23a2.81,2.81,0,0,0,3-2.9v0a2.83,2.83,0,0,0-3-2.93h-1.7v5.86Z"/><path class="cls-1" d="M266.64,98.57h6.41v1.37h-4.89v2.35h4.34v1.38h-4.34v3.5h-1.52Z"/><path class="cls-1" d="M275.73,102.9v0a4.41,4.41,0,0,1,4.51-4.45,4.37,4.37,0,0,1,4.49,4.43v0a4.5,4.5,0,0,1-9,0Zm7.42,0v0a3,3,0,0,0-2.93-3.06,2.9,2.9,0,0,0-2.9,3v0a3,3,0,0,0,2.92,3.06A2.91,2.91,0,0,0,283.15,102.9Z"/><path class="cls-1" d="M288,98.57h3.84a3.46,3.46,0,0,1,2.48.86,2.56,2.56,0,0,1,.72,1.85v0a2.59,2.59,0,0,1-2.06,2.61l2.33,3.25h-1.79l-2.11-3h-1.9v3H288Zm3.73,4.26c1.08,0,1.77-.56,1.77-1.44v0c0-.92-.67-1.43-1.79-1.43h-2.2v2.89Z"/><path class="cls-1" d="M303.57,98.57H310v1.37h-4.9v2.35h4.35v1.38h-4.35v3.5h-1.51Z"/><path class="cls-1" d="M313,103.52v-5h1.51v4.89c0,1.6.83,2.46,2.18,2.46s2.16-.81,2.16-2.4v-5h1.52v4.88c0,2.57-1.46,3.86-3.71,3.86S313,106,313,103.52Z"/><path class="cls-1" d="M326,100h-2.73v-1.4h7V100h-2.73v7.2H326Z"/><path class="cls-1" d="M333.21,103.52v-5h1.51v4.89c0,1.6.82,2.46,2.18,2.46s2.16-.81,2.16-2.4v-5h1.52v4.88c0,2.57-1.46,3.86-3.71,3.86S333.21,106,333.21,103.52Z"/><path class="cls-1" d="M344.13,98.57H348a3.46,3.46,0,0,1,2.48.86,2.55,2.55,0,0,1,.71,1.85v0a2.6,2.6,0,0,1-2.05,2.61l2.32,3.25h-1.78l-2.11-3h-1.9v3h-1.51Zm3.73,4.26c1.08,0,1.77-.56,1.77-1.44v0c0-.92-.67-1.43-1.79-1.43h-2.2v2.89Z"/><path class="cls-1" d="M354.5,98.57h6.38v1.35H356v2.24h4.31v1.35H356v2.31h4.93v1.35H354.5Z"/><path class="cls-1" d="M184.61,122.18v0a4.39,4.39,0,0,1,4.44-4.46,4.66,4.66,0,0,1,3.31,1.17l-1,1.15a3.38,3.38,0,0,0-2.41-.93,2.91,2.91,0,0,0-2.79,3v0a2.87,2.87,0,0,0,2.92,3.07,3.55,3.55,0,0,0,2.08-.65V123H189v-1.32h3.67v3.62a5.54,5.54,0,0,1-3.6,1.34A4.27,4.27,0,0,1,184.61,122.18Z"/><path class="cls-1" d="M196.11,117.85h6.38v1.35h-4.87v2.24h4.32v1.36h-4.32v2.31h4.93v1.35h-6.44Z"/><path class="cls-1" d="M205.82,117.85h1.41l4.61,6v-6h1.49v8.61h-1.27l-4.75-6.12v6.12h-1.49Z"/><path class="cls-1" d="M217,117.85h6.39v1.35h-4.87v2.24h4.31v1.36h-4.31v2.31h4.93v1.35H217Z"/><path class="cls-1" d="M226.73,117.85h3.84a3.46,3.46,0,0,1,2.48.86,2.63,2.63,0,0,1,.71,1.86v0a2.58,2.58,0,0,1-2,2.61l2.32,3.26h-1.78l-2.11-3h-1.9v3h-1.51Zm3.72,4.27c1.09,0,1.78-.57,1.78-1.44v0c0-.93-.67-1.43-1.79-1.43h-2.2v2.89Z"/><path class="cls-1" d="M240.14,117.79h1.41l3.79,8.67h-1.6l-.88-2.08h-4.07l-.88,2.08h-1.55Zm2.17,5.25-1.49-3.44L239.35,123Z"/><path class="cls-1" d="M249.29,119.25h-2.73v-1.4h7v1.4h-2.73v7.21h-1.53Z"/><path class="cls-1" d="M256.71,117.85h1.51v8.61h-1.51Z"/><path class="cls-1" d="M261.61,122.18v0a4.51,4.51,0,0,1,9,0v0a4.51,4.51,0,0,1-9,0Zm7.42,0v0a3,3,0,0,0-2.93-3.07,2.91,2.91,0,0,0-2.9,3v0a3,3,0,0,0,2.93,3.06A2.91,2.91,0,0,0,269,122.18Z"/><path class="cls-1" d="M273.92,117.85h1.41l4.61,6v-6h1.49v8.61h-1.27l-4.75-6.12v6.12h-1.49Z"/><path class="cls-1" d="M284.54,125.21l.91-1.09a3.93,3.93,0,0,0,2.71,1.12c.94,0,1.53-.43,1.53-1.08v0c0-.62-.34-1-1.94-1.32-1.84-.44-2.87-1-2.87-2.57v0c0-1.48,1.23-2.5,2.94-2.5a4.75,4.75,0,0,1,3.12,1.08l-.81,1.14a3.94,3.94,0,0,0-2.33-.88c-.89,0-1.41.45-1.41,1v0c0,.67.4,1,2.05,1.36,1.82.44,2.76,1.09,2.76,2.52v0c0,1.61-1.26,2.57-3.07,2.57A5.29,5.29,0,0,1,284.54,125.21Z"/><path class="cls-1" d="M294.19,124.78h1.64v1.68h-1.64Z"/><path class="cls-1" d="M184.92,149.45h1.89v3.4h3.49v-3.4h1.9v8.61h-1.9V154.6h-3.49v3.46h-1.89Z"/><path class="cls-1" d="M195.48,153.78v0a4.58,4.58,0,0,1,9.15,0v0a4.58,4.58,0,0,1-9.15,0Zm7.17,0v0A2.62,2.62,0,0,0,200,151a2.58,2.58,0,0,0-2.58,2.69v0a2.62,2.62,0,0,0,2.61,2.71A2.58,2.58,0,0,0,202.65,153.78Z"/><path class="cls-1" d="M206.76,149.45h2l1.78,5.83,1.93-5.86h1.62l1.94,5.86,1.78-5.83h2l-2.94,8.67h-1.65l-1.94-5.64-1.94,5.64H209.7Z"/><path class="cls-1" d="M230.11,151.19h-2.62v-1.74h7.13v1.74H232v6.87h-1.89Z"/><path class="cls-1" d="M236.92,153.78v0a4.58,4.58,0,0,1,9.15,0v0a4.58,4.58,0,0,1-9.15,0Zm7.17,0v0a2.62,2.62,0,0,0-2.6-2.71,2.58,2.58,0,0,0-2.59,2.69v0a2.62,2.62,0,0,0,2.61,2.71A2.57,2.57,0,0,0,244.09,153.78Z"/><path class="cls-1" d="M254.26,153.78v0a4.38,4.38,0,0,1,4.49-4.45,4.45,4.45,0,0,1,3.4,1.33L260.94,152a3.15,3.15,0,0,0-2.2-1,2.56,2.56,0,0,0-2.5,2.69v0a2.56,2.56,0,0,0,2.5,2.71,3.12,3.12,0,0,0,2.26-1l1.21,1.22a4.42,4.42,0,0,1-3.53,1.53A4.34,4.34,0,0,1,254.26,153.78Z"/><path class="cls-1" d="M268.27,149.38H270l3.68,8.68h-2l-.78-1.94H267.3l-.79,1.94h-1.93Zm2,5.07-1.14-2.79L268,154.45Z"/><path class="cls-1" d="M276.63,149.45h3.94a3.43,3.43,0,0,1,2.51.87,2.7,2.7,0,0,1,.73,2v0A2.68,2.68,0,0,1,282,155l2.1,3.08h-2.21L280,155.3h-1.48v2.76h-1.9Zm3.81,4.18c.93,0,1.45-.49,1.45-1.22v0c0-.82-.56-1.23-1.48-1.23h-1.88v2.47Z"/><path class="cls-1" d="M287.12,149.45h6.49v1.68H289v1.75h4.06v1.68H289v1.81h4.68v1.69h-6.56Z"/><path class="cls-1" d="M302.25,149.45h6.55v1.72h-4.66V153h4.11v1.72h-4.11v3.34h-1.89Z"/><path class="cls-1" d="M311.53,153.78v0a4.58,4.58,0,0,1,9.15,0v0a4.58,4.58,0,0,1-9.15,0Zm7.17,0v0a2.62,2.62,0,0,0-2.61-2.71,2.58,2.58,0,0,0-2.58,2.69v0a2.62,2.62,0,0,0,2.61,2.71A2.58,2.58,0,0,0,318.7,153.78Z"/><path class="cls-1" d="M324,149.45h3.94a3.43,3.43,0,0,1,2.51.87,2.71,2.71,0,0,1,.74,2v0A2.68,2.68,0,0,1,329.3,155l2.1,3.08h-2.21l-1.84-2.76h-1.49v2.76H324Zm3.82,4.18c.92,0,1.45-.49,1.45-1.22v0c0-.82-.57-1.23-1.49-1.23h-1.88v2.47Z"/><path class="cls-1" d="M339.74,149.45h1.75l4,5.3v-5.3h1.87v8.61h-1.61l-4.17-5.48v5.48h-1.87Z"/><path class="cls-1" d="M350.8,156.62l4.73-5.51h-4.59v-1.66h7v1.44l-4.74,5.51H358v1.66H350.8Z"/><path class="cls-1" d="M361.15,151.46h2v2h-2Zm0,4.63h2v2h-2Z"/></g></g></svg>