<?xml version="1.0" encoding="utf-8"?>
<!-- Generator: Adobe Illustrator 16.0.0, SVG Export Plug-In . SVG Version: 6.00 Build 0)  -->
<!DOCTYPE svg PUBLIC "-//W3C//DTD SVG 1.1//EN" "http://www.w3.org/Graphics/SVG/1.1/DTD/svg11.dtd">
<svg version="1.1" id="Layer_1" xmlns="http://www.w3.org/2000/svg" xmlns:xlink="http://www.w3.org/1999/xlink" x="0px" y="0px"
	 width="467.819px" height="559.034px" viewBox="246.09 0.966 467.819 559.034"
	 enable-background="new 246.09 0.966 467.819 559.034" xml:space="preserve">
<path fill="#FFFFFF" stroke="#221F1F" stroke-width="1.8991" stroke-miterlimit="10" d="M479.665,50.03"/>
<path fill="#FFFFFF" stroke="#221F1F" stroke-width="1.8991" stroke-miterlimit="10" d="M254.268,274.759"/>
<g>
	<g>
		<path fill="#FFFFFF" d="M479.963,203.839c-70.474,0-127.567,57.093-127.567,127.567c0,70.474,57.093,127.566,127.567,127.566
			c70.474,0,127.566-57.093,127.566-127.566C607.529,260.932,550.437,203.839,479.963,203.839z M479.963,444.773
			c-62.594,0-113.293-50.773-113.293-113.293c0-62.52,50.774-113.294,113.293-113.294S593.256,268.96,593.256,331.48
			C593.256,394,542.557,444.773,479.963,444.773z M451.565,340.104c0,8.623-6.988,15.611-15.611,15.611
			c-8.624,0-15.612-6.988-15.612-15.611s6.988-15.611,15.612-15.611C444.577,324.492,451.565,331.48,451.565,340.104z
			 M539.583,340.104c0,8.623-6.987,15.611-15.611,15.611c-8.623,0-15.611-6.988-15.611-15.611s6.988-15.611,15.611-15.611
			C532.596,324.492,539.583,331.48,539.583,340.104z M553.708,307.543l14.422-15.686h-31.967
			c-15.982-10.928-35.311-17.321-56.2-17.321s-40.069,6.394-56.052,17.321h-32.041l14.422,15.686
			c-8.847,8.028-14.348,19.625-14.348,32.561c0,24.309,19.7,44.009,44.009,44.009c11.522,0,22.078-4.46,29.884-11.745l14.125,15.388
			l14.124-15.313c7.88,7.285,18.362,11.745,29.885,11.745c24.31,0,44.009-19.699,44.009-44.009
			C568.055,327.243,562.479,315.646,553.708,307.543z M435.954,369.914c-16.429,0-29.811-13.307-29.811-29.811
			c0-16.503,13.307-29.811,29.811-29.811c16.429,0,29.81,13.308,29.81,29.811C465.764,356.607,452.383,369.914,435.954,369.914z
			 M479.963,339.212c0-19.626-14.273-36.427-33.081-43.638c10.185-4.237,21.335-6.616,33.081-6.616s22.896,2.379,33.081,6.616
			C494.236,302.785,479.963,319.66,479.963,339.212z M523.972,369.914c-16.429,0-29.81-13.307-29.81-29.811
			c0-16.503,13.307-29.811,29.81-29.811c16.429,0,29.811,13.308,29.811,29.811C553.782,356.607,540.476,369.914,523.972,369.914z"/>
		<g>
			<g>
				<g>
					<path fill="#FFFFFF" d="M408.969,472.502c0,0-15.463-11.894-43.266-15.165c-27.58-3.196-48.172,11.448-48.172,11.448
						s18.585,7.657,46.834,10.482C392.614,482.166,408.969,472.502,408.969,472.502z"/>
					<path fill="#FFFFFF" d="M365.703,448.119c0,0-13.902-14.348-39.772-24.234c-25.87-9.888-50.997-3.792-50.997-3.792
						s15.909,15.091,43.489,25.647C345.929,456.296,365.703,448.119,365.703,448.119z"/>
					<path fill="#FFFFFF" d="M324.296,414.146c0,0-8.103-19.774-29.662-39.697s-48.544-23.343-48.544-23.343
						s9.739,21.336,32.709,42.522C301.771,414.814,324.296,414.146,324.296,414.146z"/>
					<path fill="#FFFFFF" d="M316.193,376.158c0,0-2.676-21.335-18.288-46.165c-15.611-24.829-40.664-35.088-40.664-35.088
						s3.866,23.269,20.518,49.733C294.411,371.104,316.193,376.158,316.193,376.158z"/>
					<path fill="#FFFFFF" d="M317.233,325.31c0,0-0.743-21.781-13.827-48.395c-13.083-26.54-36.724-39.251-36.724-39.251
						s1.784,23.863,15.686,52.186C296.27,318.099,317.233,325.31,317.233,325.31z"/>
				</g>
			</g>
			<g>
				<g>
					<path fill="#FFFFFF" d="M379.01,433.623c0,0-6.468-16.206-23.938-32.636c-17.47-16.429-39.474-19.402-39.474-19.402
						s7.806,17.47,26.391,34.939C360.648,434.068,379.01,433.623,379.01,433.623z"/>
					<path fill="#FFFFFF" d="M423.093,457.857c0,0-8.995-8.772-25.35-15.165c-16.354-6.394-31.892-3.271-31.892-3.271
						s10.259,9.293,27.729,16.058C410.901,462.243,423.093,457.857,423.093,457.857z"/>
					<path fill="#FFFFFF" d="M465.838,466.48c0,0-9.366-3.865-23.268-3.345s-24.235,8.103-24.235,8.103s10.408,3.792,25.275,3.346
						C458.404,473.989,465.838,466.48,465.838,466.48z"/>
					<path fill="#FFFFFF" d="M359.756,394.371c0,0-3.048-17.246-16.727-36.946c-13.679-19.626-34.494-26.985-34.494-26.985
						s4.089,18.808,18.659,39.771C341.766,391.101,359.756,394.371,359.756,394.371z"/>
					<path fill="#FFFFFF" d="M342.583,341.739c0,0,3.345-17.544-2.305-41.036c-5.65-23.491-22.153-37.913-22.153-37.913
						s-2.899,19.329,3.048,44.38C327.195,332.298,342.583,341.739,342.583,341.739z"/>
				</g>
			</g>
		</g>
		<g>
			<g>
				<g>
					<path fill="#FFFFFF" d="M551.031,472.502c0,0,15.463-11.894,43.266-15.165c27.58-3.196,48.172,11.448,48.172,11.448
						s-18.584,7.657-46.834,10.482C567.312,482.166,551.031,472.502,551.031,472.502z"/>
					<path fill="#FFFFFF" d="M594.297,448.119c0,0,13.901-14.348,39.771-24.234c25.871-9.888,50.997-3.792,50.997-3.792
						s-15.908,15.091-43.488,25.647C614.071,456.296,594.297,448.119,594.297,448.119z"/>
					<path fill="#FFFFFF" d="M635.704,414.146c0,0,8.104-19.774,29.661-39.697c21.559-19.923,48.544-23.343,48.544-23.343
						s-9.738,21.336-32.709,42.522S635.704,414.146,635.704,414.146z"/>
					<path fill="#FFFFFF" d="M643.808,376.158c0,0,2.676-21.335,18.287-46.165c15.611-24.829,40.664-35.088,40.664-35.088
						s-3.866,23.269-20.518,49.733C665.589,371.029,643.808,376.158,643.808,376.158z"/>
					<path fill="#FFFFFF" d="M642.767,325.31c0,0,0.743-21.781,13.827-48.395c13.084-26.54,36.724-39.251,36.724-39.251
						s-1.784,23.863-15.686,52.186C663.73,318.099,642.767,325.31,642.767,325.31z"/>
				</g>
			</g>
			<g>
				<g>
					<path fill="#FFFFFF" d="M580.916,433.623c0,0,6.468-16.206,23.938-32.636c17.47-16.429,39.475-19.402,39.475-19.402
						s-7.807,17.47-26.391,34.939C599.353,434.068,580.916,433.623,580.916,433.623z"/>
					<path fill="#FFFFFF" d="M536.907,457.857c0,0,8.995-8.772,25.35-15.165c16.354-6.394,31.892-3.271,31.892-3.271
						s-10.259,9.293-27.729,16.058C549.099,462.243,536.907,457.857,536.907,457.857z"/>
					<path fill="#FFFFFF" d="M494.162,466.48c0,0,9.366-3.865,23.268-3.345s24.235,8.103,24.235,8.103s-10.408,3.792-25.275,3.346
						C501.596,473.989,494.162,466.48,494.162,466.48z"/>
					<path fill="#FFFFFF" d="M600.244,394.371c0,0,3.048-17.246,16.727-36.946c13.679-19.626,34.568-27.06,34.568-27.06
						s-4.089,18.808-18.66,39.771C618.234,391.101,600.244,394.371,600.244,394.371z"/>
					<path fill="#FFFFFF" d="M617.417,341.739c0,0-3.346-17.544,2.304-41.036c5.65-23.491,22.153-37.913,22.153-37.913
						s2.899,19.329-3.048,44.38C632.805,332.298,617.417,341.739,617.417,341.739z"/>
				</g>
			</g>
		</g>
		<circle fill="#FFFFFF" cx="479.963" cy="472.726" r="7.062"/>
	</g>
	<g>
		<path fill="#FFFFFF" d="M339.907,516.586v-6.468h-9.962v38.508h9.962v-23.045c0-4.163,2.676-6.245,6.839-6.245h5.427v-9.218
			h-4.609C343.921,510.118,340.725,512.051,339.907,516.586z"/>
		<rect x="356.559" y="510.118" fill="#FFFFFF" width="9.887" height="38.508"/>
		<path fill="#FFFFFF" d="M393.729,509.449c-4.46,0-8.475,1.486-11.671,3.939v-3.271h-9.887V560h9.887v-14.57
			c3.197,2.453,7.285,3.939,11.671,3.939c11.002,0,19.923-8.921,19.923-19.923C413.652,518.37,404.731,509.449,393.729,509.449z
			 M392.837,540.226c-5.947,0-10.854-4.832-10.854-10.854s4.832-10.854,10.854-10.854c5.947,0,10.854,4.832,10.854,10.854
			S398.858,540.226,392.837,540.226z"/>
		<path fill="#FFFFFF" d="M585.896,526.026l-5.798-1.561c-3.792-0.967-5.278-2.156-5.278-4.163c0-1.933,2.081-3.346,5.055-3.346
			c2.825,0,5.056,1.859,5.056,4.237v0.224h9.144v-0.224c0-6.987-5.725-11.671-14.199-11.671c-8.4,0-14.496,4.684-14.496,11.151
			c0,5.055,3.346,8.846,9.144,10.407l5.501,1.486c4.238,1.189,5.799,2.453,5.799,4.758c0,2.453-2.23,4.089-5.649,4.089
			c-3.494,0-5.873-2.23-5.873-5.501v-0.223h-9.664v0.223c0,7.88,6.393,13.455,15.462,13.455c8.772,0,15.166-5.427,15.166-12.86
			C595.264,532.866,593.628,528.108,585.896,526.026z"/>
		<path fill="#FFFFFF" d="M448.814,513.389c-3.196-2.453-7.285-3.939-11.671-3.939c-11.003,0-19.923,8.921-19.923,19.923
			s8.92,19.923,19.923,19.923c4.46,0,8.475-1.486,11.671-3.939v3.271h9.888v-38.508h-9.888V513.389z M437.961,540.226
			c-5.947,0-10.854-4.832-10.854-10.854s4.832-10.854,10.854-10.854c5.947,0,10.854,4.832,10.854,10.854l0,0
			C448.814,535.394,443.982,540.226,437.961,540.226z"/>
		<path fill="#FFFFFF" d="M494.459,513.389c-3.196-2.453-7.285-3.939-11.671-3.939c-11.003,0-19.923,8.921-19.923,19.923
			s8.92,19.923,19.923,19.923c4.46,0,8.475-1.486,11.671-3.939v3.271h9.887v-52.261h-9.887V513.389z M483.68,540.226
			c-5.947,0-10.854-4.832-10.854-10.854s4.832-10.854,10.854-10.854c5.947,0,10.854,4.832,10.854,10.854
			S489.627,540.226,483.68,540.226z"/>
		<rect x="550.362" y="510.118" fill="#FFFFFF" width="9.888" height="38.508"/>
		<path fill="#FFFFFF" d="M618.16,509.449c-11.002,0-19.923,8.921-19.923,19.923s8.921,19.923,19.923,19.923
			s19.923-8.921,19.923-19.923S629.162,509.449,618.16,509.449z M618.16,540.226c-5.947,0-10.854-4.832-10.854-10.854
			s4.832-10.854,10.854-10.854c5.947,0,10.854,4.832,10.854,10.854S624.182,540.226,618.16,540.226z"/>
		<path fill="#FFFFFF" d="M652.579,516.586v-6.468h-9.961v38.508h9.961v-23.045c0-4.163,2.677-6.245,6.84-6.245h5.427v-9.218h-4.609
			C656.668,510.118,653.472,512.051,652.579,516.586z"/>
		<polygon fill="#FFFFFF" points="334.778,496.439 296.79,496.439 296.79,505.286 310.84,505.286 310.84,548.7 320.728,548.7 
			320.728,505.286 334.778,505.286 		"/>
		<polygon fill="#FFFFFF" points="527.02,538.145 518.248,510.118 507.84,510.118 520.998,548.7 532.967,548.7 546.273,510.118 
			535.866,510.118 		"/>
		<circle fill="#FFFFFF" cx="361.465" cy="500.975" r="6.021"/>
		<circle fill="#FFFFFF" cx="555.418" cy="500.975" r="6.021"/>
	</g>
</g>
<g>
	<g>
		<path fill="#FFFFFF" d="M345.26,62.668h-16.578v48.99h-12.86v-48.99h-16.652v-11.82h46.091V62.668z"/>
		<path fill="#FFFFFF" d="M367.933,68.764v11.522h-6.468c-4.683,0-6.988,2.23-6.988,6.988v24.458h-12.191V68.764h11.299v8.029
			c0.966-5.724,4.832-8.029,8.921-8.029H367.933z"/>
		<path fill="#FFFFFF" d="M369.42,90.248c0-12.638,8.921-22.673,21.261-22.673c6.096,0,10.63,1.933,13.456,4.832v-3.643h11.299
			v42.968h-11.299v-5.204c-2.751,3.717-6.839,6.467-13.828,6.467C378.341,112.922,369.42,102.812,369.42,90.248z M404.211,90.248
			c0-6.839-5.055-11.374-11.3-11.374s-11.3,4.535-11.3,11.374c0,6.839,5.055,11.374,11.3,11.374S404.211,97.087,404.211,90.248z"/>
		<path fill="#FFFFFF" d="M420.268,68.764h13.009l6.542,22.673c0.817,2.602,1.189,4.312,1.636,6.319
			c0.446-2.007,0.892-3.717,1.636-6.319l6.541-22.673h13.01l-14.273,42.968h-13.901L420.268,68.764z"/>
		<path fill="#FFFFFF" d="M506.428,93.073h-31.892c0.521,5.947,4.98,9.738,10.259,9.738c4.98,0,8.623-2.602,9.664-6.542h11.672
			c-2.082,10.482-9.813,16.578-21.262,16.578c-13.455,0-22.302-9.887-22.302-22.674c0-13.381,10.185-22.673,22.228-22.673
			c13.529,0,21.707,8.251,21.707,23.64v1.933H506.428z M475.131,83.929h19.923c-1.189-4.237-4.609-7.062-10.185-7.062
			C480.409,76.941,476.691,79.618,475.131,83.929z"/>
		<path fill="#FFFFFF" d="M512.003,50.848h12.192v60.81h-12.192V50.848z"/>
		<path fill="#FFFFFF" d="M573.259,93.073h-31.892c0.521,5.947,4.98,9.738,10.259,9.738c4.981,0,8.624-2.602,9.664-6.542h11.672
			c-2.082,10.482-9.813,16.578-21.262,16.578c-13.455,0-22.302-9.887-22.302-22.674c0-13.381,10.185-22.673,22.228-22.673
			c13.53,0,21.707,8.251,21.707,23.64v1.933H573.259z M541.962,83.929h19.923c-1.189-4.237-4.608-7.062-10.185-7.062
			C547.24,76.941,543.523,79.618,541.962,83.929z"/>
		<path fill="#FFFFFF" d="M604.407,68.764v11.522h-6.468c-4.684,0-6.987,2.23-6.987,6.988v24.458H578.76V68.764h11.3v8.029
			c0.967-5.724,4.832-8.029,8.921-8.029H604.407z"/>
		<path fill="#FFFFFF" d="M607.753,97.608h12.34c0,2.974,1.858,4.981,4.758,4.981s4.609-1.413,4.609-3.568
			c0-2.379-1.933-3.643-5.799-4.758l-5.649-1.636c-5.65-1.635-9.59-5.649-9.59-11.894c0-7.88,7.137-13.158,15.982-13.158
			c10.11,0,15.611,5.724,15.611,13.753h-11.448c0-2.082-1.636-4.089-4.237-4.089c-2.453,0-4.089,1.413-4.089,3.048
			c0,2.007,1.562,2.974,4.981,3.94l6.244,1.71c5.725,1.561,9.738,5.501,9.738,11.895c0,8.103-6.318,15.091-16.503,15.091
			C615.261,112.922,607.753,107.049,607.753,97.608z"/>
		<path fill="#FFFFFF" d="M645.963,70.548h1.115c2.974,0,5.65-1.561,6.17-6.021c-0.52,0.297-1.04,0.372-1.709,0.372
			c-4.238,0-7.583-3.197-7.583-7.657c0-4.237,3.419-7.657,7.657-7.657c5.501,0,8.549,5.055,8.549,11.671
			c0,10.63-5.13,15.537-12.341,15.537h-1.858V70.548z"/>
		<path fill="#FFFFFF" d="M344.516,159.458c0-18.659,13.901-31.669,30.702-31.669c16.355,0,26.614,9.07,28.918,23.492h-13.084
			c-1.933-7.137-7.657-11.448-15.834-11.448c-9.813,0-17.841,8.028-17.841,19.625c0,11.671,8.028,19.625,17.841,19.625
			c8.103,0,13.902-4.163,15.834-11.522h13.381c-2.602,14.57-14.125,23.491-29.215,23.491
			C358.194,191.053,344.516,178.118,344.516,159.458z"/>
		<path fill="#FFFFFF" d="M409.786,129.054h12.191v23.714c1.934-3.568,6.766-7.062,13.679-7.062c8.549,0,14.496,6.021,14.496,15.834
			v28.323h-12.191v-24.83c0-5.055-3.42-8.549-8.028-8.549c-4.609,0-8.029,3.494-8.029,8.549v24.83h-12.191L409.786,129.054
			L409.786,129.054z"/>
		<path fill="#FFFFFF" d="M454.836,168.379c0-12.638,9.218-22.673,23.194-22.673c13.976,0,23.193,10.11,23.193,22.673
			c0,12.638-9.218,22.674-23.193,22.674C464.054,191.053,454.836,181.017,454.836,168.379z M489.106,168.379
			c0-6.839-4.758-11.374-11.002-11.374c-6.245,0-11.003,4.535-11.003,11.374c0,6.839,4.758,11.374,11.003,11.374
			C484.274,179.753,489.106,175.293,489.106,168.379z"/>
		<path fill="#FFFFFF" d="M504.495,133.811c0-4.237,3.419-7.657,7.657-7.657c4.237,0,7.656,3.419,7.656,7.657
			c0,4.238-3.42,7.657-7.656,7.657C507.914,141.468,504.495,138.049,504.495,133.811z M506.056,146.895h12.192v42.968h-12.192
			V146.895z"/>
		<path fill="#FFFFFF" d="M523.154,168.379c0-12.638,9.144-22.673,22.674-22.673c13.529,0,20.889,7.211,22.152,17.321h-12.638
			c-1.189-3.568-4.237-6.021-9.44-6.021c-5.502,0-10.482,4.535-10.482,11.374c0,6.839,4.98,11.374,10.482,11.374
			c5.129,0,8.103-2.23,9.44-6.021h12.712c-2.007,10.482-9.069,17.321-22.152,17.321
			C532.298,191.053,523.154,181.017,523.154,168.379z"/>
		<path fill="#FFFFFF" d="M614.369,171.278h-31.893c0.521,5.947,4.981,9.738,10.26,9.738c4.98,0,8.623-2.602,9.664-6.542h11.671
			c-2.081,10.482-9.812,16.578-21.261,16.578c-13.456,0-22.302-9.887-22.302-22.674c0-13.381,10.185-22.673,22.228-22.673
			c13.529,0,21.707,8.251,21.707,23.64v1.933H614.369z M583.072,162.135h19.849c-1.189-4.237-4.609-7.062-10.185-7.062
			C588.35,155.072,584.633,157.823,583.072,162.135z"/>
	</g>
	<g>
		<polygon fill="#FFFFFF" points="610.206,132.473 617.417,132.473 617.417,133.96 614.666,133.96 614.666,142.137 612.956,142.137 
			612.956,133.96 610.206,133.96 		"/>
		<path fill="#FFFFFF" d="M623.513,139.758l-2.677-7.285h-2.007v9.738h1.636v-5.427c0-0.52-0.074-0.966-0.074-1.487l2.527,6.914
			h1.189l2.527-6.914c-0.074,0.521-0.074,0.967-0.074,1.487v5.427h1.636v-9.738h-2.008L623.513,139.758z"/>
	</g>
</g>
<g>
	<path fill="#FFFFFF" d="M409.266,32.338l11.671-10.482c4.609-4.163,6.319-6.468,6.319-9.664c0-3.494-2.379-5.576-5.501-5.576
		s-5.204,1.784-7.806,5.353l-4.237-3.494c3.271-4.758,6.468-7.434,12.489-7.434c6.616,0,11.15,4.312,11.15,10.705v0.074
		c0,5.65-2.824,8.698-8.771,13.827l-6.988,6.096h16.132v5.501h-24.458V32.338z"/>
	<path fill="#FFFFFF" d="M443.462,19.551v-0.074c0-10.185,5.873-18.511,14.794-18.511c8.846,0,14.719,8.177,14.719,18.362v0.075
		c0,10.184-5.873,18.51-14.793,18.51C449.261,37.913,443.462,29.736,443.462,19.551z M466.805,19.551v-0.074
		c0-7.062-3.42-12.787-8.623-12.787c-5.204,0-8.55,5.65-8.55,12.712v0.074c0,7.062,3.42,12.786,8.624,12.786
		C463.534,32.263,466.805,26.539,466.805,19.551z"/>
	<path fill="#FFFFFF" d="M482.713,32.338l11.672-10.482c4.609-4.163,6.318-6.468,6.318-9.664c0-3.494-2.379-5.576-5.501-5.576
		s-5.203,1.784-7.806,5.353l-4.237-3.494c3.271-4.758,6.468-7.434,12.489-7.434c6.616,0,11.151,4.312,11.151,10.705v0.074
		c0,5.65-2.825,8.698-8.772,13.827l-6.988,6.096h16.132v5.501h-24.458V32.338z"/>
	<path fill="#FFFFFF" d="M524.27,7.657l-6.096,1.784l-1.265-5.129l9.145-3.048h4.088v35.98h-5.872V7.657L524.27,7.657z"/>
</g>
</svg>
