<?xml version="1.0" encoding="utf-8"?>
<!-- Generator: Adobe Illustrator 25.0.0, SVG Export Plug-In . SVG Version: 6.00 Build 0)  -->
<svg version="1.1" id="Layer_1" xmlns="http://www.w3.org/2000/svg" xmlns:xlink="http://www.w3.org/1999/xlink" x="0px" y="0px"
	 viewBox="0 0 629.3 753.3" style="enable-background:new 0 0 629.3 753.3;" xml:space="preserve">
<style type="text/css">
	.st0{stroke:#221F1F;stroke-width:1.8991;stroke-miterlimit:10;}
	.st1{font-family:'MyriadPro-Regular';}
	.st2{font-size:12px;}
</style>
<path class="st0" d="M314.2,67.3"/>
<path class="st0" d="M11,369.6"/>
<g>
	<g>
		<path d="M314.6,274.2C219.8,274.2,143,351,143,445.8s76.8,171.6,171.6,171.6s171.6-76.8,171.6-171.6S409.4,274.2,314.6,274.2z
			 M314.6,598.3c-84.2,0-152.4-68.3-152.4-152.4s68.3-152.4,152.4-152.4S467,361.8,467,445.9S398.8,598.3,314.6,598.3z M276.4,457.5
			c0,11.6-9.4,21-21,21s-21-9.4-21-21s9.4-21,21-21S276.4,445.9,276.4,457.5z M394.8,457.5c0,11.6-9.4,21-21,21s-21-9.4-21-21
			s9.4-21,21-21S394.8,445.9,394.8,457.5z M413.8,413.7l19.4-21.1h-43c-21.5-14.7-47.5-23.3-75.6-23.3s-53.9,8.6-75.4,23.3h-43.1
			l19.4,21.1c-11.9,10.8-19.3,26.4-19.3,43.8c0,32.7,26.5,59.2,59.2,59.2c15.5,0,29.7-6,40.2-15.8l19,20.7l19-20.6
			c10.6,9.8,24.7,15.8,40.2,15.8c32.7,0,59.2-26.5,59.2-59.2C433.1,440.2,425.6,424.6,413.8,413.7z M255.4,497.6
			c-22.1,0-40.1-17.9-40.1-40.1s17.9-40.1,40.1-40.1c22.1,0,40.1,17.9,40.1,40.1S277.5,497.6,255.4,497.6z M314.6,456.3
			c0-26.4-19.2-49-44.5-58.7c13.7-5.7,28.7-8.9,44.5-8.9s30.8,3.2,44.5,8.9C333.8,407.3,314.6,430,314.6,456.3z M373.8,497.6
			c-22.1,0-40.1-17.9-40.1-40.1s17.9-40.1,40.1-40.1c22.1,0,40.1,17.9,40.1,40.1S396,497.6,373.8,497.6z"/>
		<g>
			<g>
				<g>
					<path d="M219.1,635.6c0,0-20.8-16-58.2-20.4c-37.1-4.3-64.8,15.4-64.8,15.4s25,10.3,63,14.1
						C197.1,648.6,219.1,635.6,219.1,635.6z"/>
					<path d="M160.9,602.8c0,0-18.7-19.3-53.5-32.6s-68.6-5.1-68.6-5.1s21.4,20.3,58.5,34.5C134.3,613.8,160.9,602.8,160.9,602.8z"
						/>
					<path d="M105.2,557.1c0,0-10.9-26.6-39.9-53.4S0,472.3,0,472.3s13.1,28.7,44,57.2S105.2,557.1,105.2,557.1z"/>
					<path d="M94.3,506c0,0-3.6-28.7-24.6-62.1S15,396.7,15,396.7s5.2,31.3,27.6,66.9S94.3,506,94.3,506z"/>
					<path d="M95.7,437.6c0,0-1-29.3-18.6-65.1c-17.6-35.7-49.4-52.8-49.4-52.8s2.4,32.1,21.1,70.2
						C67.5,427.9,95.7,437.6,95.7,437.6z"/>
				</g>
			</g>
			<g>
				<g>
					<path d="M178.8,583.3c0,0-8.7-21.8-32.2-43.9c-23.5-22.1-53.1-26.1-53.1-26.1s10.5,23.5,35.5,47
						C154.1,583.9,178.8,583.3,178.8,583.3z"/>
					<path d="M238.1,615.9c0,0-12.1-11.8-34.1-20.4c-22-8.6-42.9-4.4-42.9-4.4s13.8,12.5,37.3,21.6
						C221.7,621.8,238.1,615.9,238.1,615.9z"/>
					<path d="M295.6,627.5c0,0-12.6-5.2-31.3-4.5s-32.6,10.9-32.6,10.9s14,5.1,34,4.5C285.6,637.6,295.6,627.5,295.6,627.5z"/>
					<path d="M152.9,530.5c0,0-4.1-23.2-22.5-49.7C112,454.4,84,444.5,84,444.5s5.5,25.3,25.1,53.5
						C128.7,526.1,152.9,530.5,152.9,530.5z"/>
					<path d="M129.8,459.7c0,0,4.5-23.6-3.1-55.2s-29.8-51-29.8-51s-3.9,26,4.1,59.7C109.1,447,129.8,459.7,129.8,459.7z"/>
				</g>
			</g>
		</g>
		<g>
			<g>
				<g>
					<path d="M410.2,635.6c0,0,20.8-16,58.2-20.4c37.1-4.3,64.8,15.4,64.8,15.4s-25,10.3-63,14.1
						C432.1,648.6,410.2,635.6,410.2,635.6z"/>
					<path d="M468.4,602.8c0,0,18.7-19.3,53.5-32.6s68.6-5.1,68.6-5.1s-21.4,20.3-58.5,34.5C495,613.8,468.4,602.8,468.4,602.8z"/>
					<path d="M524.1,557.1c0,0,10.9-26.6,39.9-53.4c29-26.8,65.3-31.4,65.3-31.4s-13.1,28.7-44,57.2
						C554.4,558,524.1,557.1,524.1,557.1z"/>
					<path d="M535,506c0,0,3.6-28.7,24.6-62.1s54.7-47.2,54.7-47.2s-5.2,31.3-27.6,66.9C564.3,499.1,535,506,535,506z"/>
					<path d="M533.6,437.6c0,0,1-29.3,18.6-65.1c17.6-35.7,49.4-52.8,49.4-52.8s-2.4,32.1-21.1,70.2
						C561.8,427.9,533.6,437.6,533.6,437.6z"/>
				</g>
			</g>
			<g>
				<g>
					<path d="M450.4,583.3c0,0,8.7-21.8,32.2-43.9c23.5-22.1,53.1-26.1,53.1-26.1s-10.5,23.5-35.5,47
						C475.2,583.9,450.4,583.3,450.4,583.3z"/>
					<path d="M391.2,615.9c0,0,12.1-11.8,34.1-20.4c22-8.6,42.9-4.4,42.9-4.4s-13.8,12.5-37.3,21.6
						C407.6,621.8,391.2,615.9,391.2,615.9z"/>
					<path d="M333.7,627.5c0,0,12.6-5.2,31.3-4.5s32.6,10.9,32.6,10.9s-14,5.1-34,4.5C343.7,637.6,333.7,627.5,333.7,627.5z"/>
					<path d="M476.4,530.5c0,0,4.1-23.2,22.5-49.7c18.4-26.4,46.5-36.4,46.5-36.4s-5.5,25.3-25.1,53.5
						C500.6,526.1,476.4,530.5,476.4,530.5z"/>
					<path d="M499.5,459.7c0,0-4.5-23.6,3.1-55.2s29.8-51,29.8-51s3.9,26-4.1,59.7C520.2,447,499.5,459.7,499.5,459.7z"/>
				</g>
			</g>
		</g>
		<circle cx="314.6" cy="635.9" r="9.5"/>
	</g>
	<g>
		<path d="M126.2,694.9v-8.7h-13.4V738h13.4v-31c0-5.6,3.6-8.4,9.2-8.4h7.3v-12.4h-6.2C131.6,686.2,127.3,688.8,126.2,694.9z"/>
		<rect x="148.6" y="686.2" width="13.3" height="51.8"/>
		<path d="M198.6,685.3c-6,0-11.4,2-15.7,5.3v-4.4h-13.3v67.1h13.3v-19.6c4.3,3.3,9.8,5.3,15.7,5.3c14.8,0,26.8-12,26.8-26.8
			C225.4,697.3,213.4,685.3,198.6,685.3z M197.4,726.7c-8,0-14.6-6.5-14.6-14.6s6.5-14.6,14.6-14.6c8,0,14.6,6.5,14.6,14.6
			S205.5,726.7,197.4,726.7z"/>
		<path d="M457.1,707.6l-7.8-2.1c-5.1-1.3-7.1-2.9-7.1-5.6c0-2.6,2.8-4.5,6.8-4.5c3.8,0,6.8,2.5,6.8,5.7v0.3h12.3v-0.3
			c0-9.4-7.7-15.7-19.1-15.7c-11.3,0-19.5,6.3-19.5,15c0,6.8,4.5,11.9,12.3,14l7.4,2c5.7,1.6,7.8,3.3,7.8,6.4c0,3.3-3,5.5-7.6,5.5
			c-4.7,0-7.9-3-7.9-7.4v-0.3h-13v0.3c0,10.6,8.6,18.1,20.8,18.1c11.8,0,20.4-7.3,20.4-17.3C469.7,716.8,467.5,710.4,457.1,707.6z"
			/>
		<path d="M272.7,690.6c-4.3-3.3-9.8-5.3-15.7-5.3c-14.8,0-26.8,12-26.8,26.8s12,26.8,26.8,26.8c6,0,11.4-2,15.7-5.3v4.4H286v-51.8
			h-13.3V690.6z M258.1,726.7c-8,0-14.6-6.5-14.6-14.6s6.5-14.6,14.6-14.6c8,0,14.6,6.5,14.6,14.6l0,0
			C272.7,720.2,266.2,726.7,258.1,726.7z"/>
		<path d="M334.1,690.6c-4.3-3.3-9.8-5.3-15.7-5.3c-14.8,0-26.8,12-26.8,26.8s12,26.8,26.8,26.8c6,0,11.4-2,15.7-5.3v4.4h13.3v-70.3
			h-13.3V690.6z M319.6,726.7c-8,0-14.6-6.5-14.6-14.6s6.5-14.6,14.6-14.6c8,0,14.6,6.5,14.6,14.6S327.6,726.7,319.6,726.7z"/>
		<rect x="409.3" y="686.2" width="13.3" height="51.8"/>
		<path d="M500.5,685.3c-14.8,0-26.8,12-26.8,26.8s12,26.8,26.8,26.8s26.8-12,26.8-26.8S515.3,685.3,500.5,685.3z M500.5,726.7
			c-8,0-14.6-6.5-14.6-14.6s6.5-14.6,14.6-14.6c8,0,14.6,6.5,14.6,14.6S508.6,726.7,500.5,726.7z"/>
		<path d="M546.8,694.9v-8.7h-13.4V738h13.4v-31c0-5.6,3.6-8.4,9.2-8.4h7.3v-12.4h-6.2C552.3,686.2,548,688.8,546.8,694.9z"/>
		<polygon points="119.3,667.8 68.2,667.8 68.2,679.7 87.1,679.7 87.1,738.1 100.4,738.1 100.4,679.7 119.3,679.7 		"/>
		<polygon points="377.9,723.9 366.1,686.2 352.1,686.2 369.8,738.1 385.9,738.1 403.8,686.2 389.8,686.2 		"/>
		<circle cx="155.2" cy="673.9" r="8.1"/>
		<circle cx="416.1" cy="673.9" r="8.1"/>
	</g>
</g>
<g>
	<g>
		<path d="M133.4,84.3h-22.3v65.9H93.8V84.3H71.4V68.4h62V84.3z"/>
		<path d="M163.9,92.5V108h-8.7c-6.3,0-9.4,3-9.4,9.4v32.9h-16.4V92.5h15.2v10.8c1.3-7.7,6.5-10.8,12-10.8H163.9z"/>
		<path d="M165.9,121.4c0-17,12-30.5,28.6-30.5c8.2,0,14.3,2.6,18.1,6.5v-4.9h15.2v57.8h-15.2v-7c-3.7,5-9.2,8.7-18.6,8.7
			C177.9,151.9,165.9,138.3,165.9,121.4z M212.7,121.4c0-9.2-6.8-15.3-15.2-15.3s-15.2,6.1-15.2,15.3s6.8,15.3,15.2,15.3
			S212.7,130.6,212.7,121.4z"/>
		<path d="M234.3,92.5h17.5l8.8,30.5c1.1,3.5,1.6,5.8,2.2,8.5c0.6-2.7,1.2-5,2.2-8.5l8.8-30.5h17.5l-19.2,57.8h-18.7L234.3,92.5z"/>
		<path d="M350.2,125.2h-42.9c0.7,8,6.7,13.1,13.8,13.1c6.7,0,11.6-3.5,13-8.8h15.7c-2.8,14.1-13.2,22.3-28.6,22.3
			c-18.1,0-30-13.3-30-30.5c0-18,13.7-30.5,29.9-30.5c18.2,0,29.2,11.1,29.2,31.8v2.6H350.2z M308.1,112.9h26.8
			c-1.6-5.7-6.2-9.5-13.7-9.5C315.2,103.5,310.2,107.1,308.1,112.9z"/>
		<path d="M357.7,68.4h16.4v81.8h-16.4V68.4z"/>
		<path d="M440.1,125.2h-42.9c0.7,8,6.7,13.1,13.8,13.1c6.7,0,11.6-3.5,13-8.8h15.7c-2.8,14.1-13.2,22.3-28.6,22.3
			c-18.1,0-30-13.3-30-30.5c0-18,13.7-30.5,29.9-30.5c18.2,0,29.2,11.1,29.2,31.8v2.6H440.1z M398,112.9h26.8
			c-1.6-5.7-6.2-9.5-13.7-9.5C405.1,103.5,400.1,107.1,398,112.9z"/>
		<path d="M482,92.5V108h-8.7c-6.3,0-9.4,3-9.4,9.4v32.9h-16.4V92.5h15.2v10.8c1.3-7.7,6.5-10.8,12-10.8H482z"/>
		<path d="M486.5,131.3h16.6c0,4,2.5,6.7,6.4,6.7c3.9,0,6.2-1.9,6.2-4.8c0-3.2-2.6-4.9-7.8-6.4l-7.6-2.2c-7.6-2.2-12.9-7.6-12.9-16
			c0-10.6,9.6-17.7,21.5-17.7c13.6,0,21,7.7,21,18.5h-15.4c0-2.8-2.2-5.5-5.7-5.5c-3.3,0-5.5,1.9-5.5,4.1c0,2.7,2.1,4,6.7,5.3
			l8.4,2.3c7.7,2.1,13.1,7.4,13.1,16c0,10.9-8.5,20.3-22.2,20.3C496.6,151.9,486.5,144,486.5,131.3z"/>
		<path d="M537.9,94.9h1.5c4,0,7.6-2.1,8.3-8.1c-0.7,0.4-1.4,0.5-2.3,0.5c-5.7,0-10.2-4.3-10.2-10.3c0-5.7,4.6-10.3,10.3-10.3
			c7.4,0,11.5,6.8,11.5,15.7c0,14.3-6.9,20.9-16.6,20.9h-2.5V94.9z"/>
		<path d="M132.4,214.5c0-25.1,18.7-42.6,41.3-42.6c22,0,35.8,12.2,38.9,31.6H195c-2.6-9.6-10.3-15.4-21.3-15.4
			c-13.2,0-24,10.8-24,26.4c0,15.7,10.8,26.4,24,26.4c10.9,0,18.7-5.6,21.3-15.5h18c-3.5,19.6-19,31.6-39.3,31.6
			C150.8,257,132.4,239.6,132.4,214.5z"/>
		<path d="M220.2,173.6h16.4v31.9c2.6-4.8,9.1-9.5,18.4-9.5c11.5,0,19.5,8.1,19.5,21.3v38.1h-16.4V222c0-6.8-4.6-11.5-10.8-11.5
			s-10.8,4.7-10.8,11.5v33.4h-16.4L220.2,173.6L220.2,173.6z"/>
		<path d="M280.8,226.5c0-17,12.4-30.5,31.2-30.5c18.8,0,31.2,13.6,31.2,30.5c0,17-12.4,30.5-31.2,30.5
			C293.2,257,280.8,243.5,280.8,226.5z M326.9,226.5c0-9.2-6.4-15.3-14.8-15.3s-14.8,6.1-14.8,15.3s6.4,15.3,14.8,15.3
			C320.4,241.8,326.9,235.8,326.9,226.5z"/>
		<path d="M347.6,180c0-5.7,4.6-10.3,10.3-10.3c5.7,0,10.3,4.6,10.3,10.3s-4.6,10.3-10.3,10.3S347.6,185.7,347.6,180z M349.7,197.6
			h16.4v57.8h-16.4V197.6z"/>
		<path d="M372.7,226.5c0-17,12.3-30.5,30.5-30.5s28.1,9.7,29.8,23.3h-17c-1.6-4.8-5.7-8.1-12.7-8.1c-7.4,0-14.1,6.1-14.1,15.3
			s6.7,15.3,14.1,15.3c6.9,0,10.9-3,12.7-8.1h17.1c-2.7,14.1-12.2,23.3-29.8,23.3C385,257,372.7,243.5,372.7,226.5z"/>
		<path d="M495.4,230.4h-42.9c0.7,8,6.7,13.1,13.8,13.1c6.7,0,11.6-3.5,13-8.8H495c-2.8,14.1-13.2,22.3-28.6,22.3
			c-18.1,0-30-13.3-30-30.5c0-18,13.7-30.5,29.9-30.5c18.2,0,29.2,11.1,29.2,31.8v2.6H495.4z M453.3,218.1H480
			c-1.6-5.7-6.2-9.5-13.7-9.5C460.4,208.6,455.4,212.3,453.3,218.1z"/>
	</g>
	<g>
		<polygon points="489.8,178.2 499.5,178.2 499.5,180.2 495.8,180.2 495.8,191.2 493.5,191.2 493.5,180.2 489.8,180.2 		"/>
		<path d="M507.7,188l-3.6-9.8h-2.7v13.1h2.2V184c0-0.7-0.1-1.3-0.1-2l3.4,9.3h1.6l3.4-9.3c-0.1,0.7-0.1,1.3-0.1,2v7.3h2.2v-13.1
			h-2.7L507.7,188z"/>
	</g>
</g>
<g>
	<path d="M219.5,43.5l15.7-14.1c6.2-5.6,8.5-8.7,8.5-13c0-4.7-3.2-7.5-7.4-7.5c-4.2,0-7,2.4-10.5,7.2l-5.7-4.7
		c4.4-6.4,8.7-10,16.8-10c8.9,0,15,5.8,15,14.4v0.1c0,7.6-3.8,11.7-11.8,18.6l-9.4,8.2h21.7v7.4h-32.9V43.5z"/>
	<path d="M265.5,26.3v-0.1c0-13.7,7.9-24.9,19.9-24.9c11.9,0,19.8,11,19.8,24.7v0.1c0,13.7-7.9,24.9-19.9,24.9
		C273.3,51,265.5,40,265.5,26.3z M296.9,26.3v-0.1c0-9.5-4.6-17.2-11.6-17.2c-7,0-11.5,7.6-11.5,17.1v0.1c0,9.5,4.6,17.2,11.6,17.2
		C292.5,43.4,296.9,35.7,296.9,26.3z"/>
	<path d="M318.3,43.5L334,29.4c6.2-5.6,8.5-8.7,8.5-13c0-4.7-3.2-7.5-7.4-7.5c-4.2,0-7,2.4-10.5,7.2l-5.7-4.7
		c4.4-6.4,8.7-10,16.8-10c8.9,0,15,5.8,15,14.4v0.1c0,7.6-3.8,11.7-11.8,18.6l-9.4,8.2h21.7v7.4h-32.9V43.5z"/>
	<path d="M374.2,10.3l-8.2,2.4l-1.7-6.9l12.3-4.1h5.5v48.4h-7.9V10.3z"/>
</g>
</svg>
