<svg width="764" height="661" viewBox="0 0 764 661" fill="none" xmlns="http://www.w3.org/2000/svg">
<mask id="mask0_21_326" style="mask-type:alpha" maskUnits="userSpaceOnUse" x="0" y="0" width="764" height="661">
<rect width="764" height="661" fill="#D9D9D9"/>
</mask>
<g mask="url(#mask0_21_326)">
<path d="M387.775 331.974C362.674 242.065 414.608 103.742 631 0C595.512 7.78065 303.815 46.6839 347.959 288.748C83.9603 228.232 0 536 0 536C0 536 162.727 302.581 387.775 331.974V331.974Z" fill="#80BC42"/>
<path d="M1757.03 407.135C1757.03 407.135 1985.4 86.2241 1598.72 36.9197C1212.05 -12.3847 861.706 325.826 599.598 297.281C337.49 268.737 670.532 45.5696 709.459 80.1691C748.386 114.769 684.372 183.103 655.826 178.778C631.605 175.318 623.819 156.288 645.445 124.284C614.304 147.638 595.273 195.213 641.12 203.863C699.943 215.972 780.392 132.068 735.41 71.5192C673.992 -12.3847 349.6 255.762 484.547 347.451C642.85 455.574 1109.97 88.819 1577.96 143.313C1755.3 164.073 1792.49 311.121 1756.16 408L1757.03 407.135Z" fill="#60B3E4"/>
</g>
</svg>
