<svg width="208" height="65" viewBox="0 0 208 65" fill="none" xmlns="http://www.w3.org/2000/svg">
<g clip-path="url(#clip0_404_1320)">
<path d="M4.24282 64.9036L2.16957 61.2416L0.626682 63.1208V64.9036H0.144531V58.3506H0.626682V62.4462L3.90531 58.3506H4.48389L2.50707 60.8561L4.8214 64.9036H4.24282Z" fill="white"/>
<path d="M21.8898 64.9036L21.3112 63.3135H18.3218L17.7433 64.9036H17.2129L19.5754 58.3506H20.0094L22.3719 64.9036H21.8415H21.8898ZM19.8165 59.0252L18.4665 62.8799H21.1665L19.8165 59.0252Z" fill="white"/>
<path d="M35.6787 64.9036V58.3506H36.1609V64.9036H35.6787Z" fill="white"/>
<path d="M54.3864 64.9036L52.3131 61.2416L50.7702 63.1208V64.9036H50.2881V58.3506H50.7702V62.4462L54.0489 58.3506H54.6274L52.6506 60.8561L54.9649 64.9036H54.3864Z" fill="white"/>
<path d="M72.3228 62.6871C72.3228 62.9281 72.3228 63.169 72.2745 63.3135C72.2745 63.5063 72.1781 63.699 72.0817 63.8435C71.9853 63.9881 71.8888 64.1808 71.7442 64.3254C71.5513 64.5181 71.3102 64.7109 71.0209 64.8072C70.7317 64.9036 70.4424 65 70.1531 65C69.8638 65 69.5745 64.9518 69.2852 64.8072C68.9959 64.7109 68.7548 64.5181 68.562 64.3254C68.4173 64.1808 68.3209 64.0363 68.2245 63.8435C68.128 63.699 68.0798 63.5063 68.0316 63.3135C68.0316 63.1208 67.9834 62.9281 67.9834 62.6871C67.9834 62.4462 67.9834 62.1089 67.9834 61.6753C67.9834 61.2416 67.9834 60.9043 67.9834 60.6634C67.9834 60.4225 67.9834 60.1816 68.0316 60.037C68.0316 59.8443 68.128 59.6516 68.2245 59.507C68.3209 59.3625 68.4173 59.1697 68.562 59.0252C68.7548 58.8324 68.9959 58.6397 69.2852 58.5433C69.5745 58.447 69.8638 58.3506 70.1531 58.3506C70.4424 58.3506 70.7317 58.3988 71.0209 58.5433C71.3102 58.6879 71.5513 58.8324 71.7442 59.0252C71.8888 59.1697 71.9853 59.3143 72.0817 59.507C72.1781 59.6516 72.2263 59.8443 72.2745 60.037C72.2745 60.2298 72.3228 60.4225 72.3228 60.6634C72.3228 60.9043 72.3228 61.2416 72.3228 61.6753C72.3228 62.1089 72.3228 62.4462 72.3228 62.6871ZM71.8406 60.7116C71.8406 60.7116 71.8406 60.2779 71.7924 60.0852C71.7924 59.8925 71.696 59.7479 71.6477 59.6516C71.5995 59.5552 71.5031 59.4106 71.3585 59.2661C71.0209 58.9288 70.6352 58.7361 70.1531 58.7361C69.6709 58.7361 69.2852 58.9288 68.9477 59.2661C68.8513 59.3624 68.7548 59.507 68.6584 59.6516C68.6102 59.7961 68.562 59.9407 68.5138 60.0852C68.5138 60.2779 68.4655 60.4707 68.4655 60.7116C68.4655 60.9525 68.4655 61.2416 68.4655 61.6753C68.4655 62.1089 68.4655 62.398 68.4655 62.6389C68.4655 62.8799 68.4655 63.0726 68.5138 63.2653C68.5138 63.4581 68.6102 63.6026 68.6584 63.699C68.7066 63.8435 68.8031 63.9399 68.9477 64.0845C69.2852 64.4218 69.6709 64.6145 70.1531 64.6145C70.6352 64.6145 71.0209 64.4218 71.3585 64.0845C71.4549 63.9881 71.5513 63.8435 71.6477 63.699C71.696 63.5544 71.7442 63.4099 71.7924 63.2653C71.7924 63.0726 71.8406 62.8799 71.8406 62.6389C71.8406 62.398 71.8406 62.1089 71.8406 61.6753C71.8406 61.2416 71.8406 60.9525 71.8406 60.7116Z" fill="white"/>
<path d="M90.3549 63.6508C90.2584 63.9399 90.1138 64.1326 89.9209 64.3254C89.7281 64.5181 89.487 64.6627 89.1977 64.759C88.9084 64.8554 88.6191 64.9036 88.3298 64.9036C88.0405 64.9036 87.703 64.8554 87.462 64.759C87.1727 64.6627 86.9798 64.5181 86.7387 64.3254C86.5459 64.1326 86.4012 63.8917 86.3048 63.6508C86.2084 63.3617 86.1602 63.0726 86.1602 62.7835V58.3506H86.6423V62.7353C86.6423 63.2653 86.7869 63.699 87.1245 64.0363C87.4137 64.3736 87.8477 64.5181 88.378 64.5181C88.9084 64.5181 89.2941 64.3736 89.6316 64.0363C89.9209 63.699 90.1138 63.2653 90.1138 62.7353V58.3506H90.5959V62.7835C90.5959 63.1208 90.5477 63.4099 90.4513 63.6508H90.3549Z" fill="white"/>
<path d="M108.339 64.9036L106.796 61.868H105.012V64.9036H104.53V58.3506H106.989C107.52 58.3506 107.954 58.4951 108.339 58.8324C108.677 59.1215 108.87 59.5552 108.87 60.1334C108.87 60.6152 108.725 61.0007 108.484 61.338C108.243 61.6753 107.857 61.8198 107.375 61.9162L108.918 64.9518H108.339V64.9036ZM107.954 59.1215C107.712 58.8806 107.327 58.7842 106.941 58.7842H105.061V61.4344H106.941C107.375 61.4344 107.712 61.338 107.954 61.0971C108.195 60.8561 108.339 60.5189 108.339 60.0852C108.339 59.6516 108.195 59.3143 107.954 59.0733V59.1215Z" fill="white"/>
<path d="M126.42 64.9036L125.841 63.3135H122.852L122.274 64.9036H121.743L124.106 58.3506H124.54L126.902 64.9036H126.372H126.42ZM124.347 59.0252L122.997 62.8799H125.697L124.347 59.0252V59.0252Z" fill="white"/>
<path d="M158.869 64.9036L156.796 61.7716L155.108 59.2179V64.9036H154.626V58.3506H155.108L157.133 61.4825L158.821 64.0363V58.3506H159.303V64.9036H158.821H158.869Z" fill="white"/>
<path d="M173.044 64.9036V64.3736L176.419 58.7842H173.141V58.3506H176.902V58.7842L173.478 64.4699H176.902V64.9036H172.996H173.044Z" fill="white"/>
<path d="M27.8201 9.87769H30.038L23.3361 29.7294H20.9254L14.9467 12.7687H14.8985L9.01623 29.7294H6.60547L0 9.87769H2.36254L7.85906 27.0311H7.90728L13.7895 9.87769H16.3449L22.2272 27.0311H22.2754L27.8683 9.87769H27.8201Z" fill="white"/>
<path d="M31.8223 9.87769H33.8955V29.7294H31.8223V9.87769Z" fill="white"/>
<path d="M37.7523 9.87769H40.2113L54.0972 26.8384H54.1455V9.87769H56.2187V29.7294H53.8079L39.8256 12.7687H39.7774V29.7294H37.7041V9.87769H37.7523Z" fill="white"/>
<path d="M78.1088 25.9712H78.0606C76.0356 28.9104 73.673 30.2113 69.8158 30.2113C63.0657 30.2113 59.4014 25.9712 59.4014 19.7555C59.4014 13.5397 63.4514 9.29956 70.0569 9.29956C75.6016 9.29956 79.1214 12.4315 79.6517 16.0935H77.4338C76.6142 12.7206 73.6248 11.1787 70.0569 11.1787C64.6086 11.1787 61.6675 14.5034 61.6675 19.7073C61.6675 24.9111 64.4157 28.2358 69.6712 28.2358C75.6499 28.2358 77.5302 24.8629 78.157 21.2973H70.8766V19.4182H80.0857V29.6813H78.4946L78.2053 25.923L78.1088 25.9712Z" fill="white"/>
<path d="M97.1056 15.5635C96.8163 12.1906 94.0681 11.2751 90.8859 11.2751C87.7037 11.2751 85.2447 12.5279 85.2447 14.7925C85.2447 17.3944 87.6555 17.9727 92.5252 18.7918C96.1413 19.4182 99.7575 20.2373 99.7575 24.0438C99.7575 28.9104 95.3217 30.2595 91.4645 30.2595C86.4019 30.2595 82.7375 28.5249 82.4482 23.1765H84.5215C84.9072 27.3685 87.6555 28.3322 91.4645 28.3322C94.4538 28.3322 97.5396 27.5131 97.5396 24.3811C97.5396 21.2492 93.9234 21.0082 90.3073 20.3818C85.5822 19.6109 83.0268 18.3099 83.0268 15.0816C83.0268 10.7451 87.0287 9.29956 90.8859 9.29956C94.936 9.29956 99.0342 10.7451 99.1789 15.4671H97.1056V15.5635Z" fill="white"/>
<path d="M0 42.8835C0 38.6915 2.45897 35.0295 8.72694 35.0295C14.9949 35.0295 17.4539 38.6915 17.4539 42.8835C17.4539 47.0755 14.9949 50.7375 8.72694 50.7375C2.45897 50.7375 0 47.0755 0 42.8835V42.8835ZM14.2235 42.8835C14.2235 39.607 12.2466 37.3906 8.72694 37.3906C5.20723 37.3906 3.23041 39.6552 3.23041 42.8835C3.23041 46.1118 5.20723 48.3765 8.72694 48.3765C12.2466 48.3765 14.2235 46.1118 14.2235 42.8835Z" fill="white"/>
<path d="M17.8398 35.4631H21.3595L26.2293 47.3645L30.9544 35.4631H34.3294L27.7722 50.3038H24.4453L17.8398 35.4631V35.4631Z" fill="white"/>
<path d="M35.4863 35.4632H48.408V37.776H38.6203V41.5344H48.0223V43.8472H38.6203V47.9428H48.5526V50.2557H35.4863V35.415V35.4632Z" fill="white"/>
<path d="M50.915 35.4631H60.317C64.126 35.4631 65.3314 37.1978 65.3314 39.5106C65.3314 41.4379 64.2706 42.6425 62.8724 43.0762C64.6563 43.5098 65.0421 45.0517 65.0421 47.1236C65.0421 47.8464 65.0421 49.4846 65.6689 50.3038H62.2938C62.0527 49.8701 61.9081 49.1473 61.9081 48.0391C61.9081 45.919 61.6188 44.4253 59.3527 44.4253H54.049V50.3038H50.915V35.4631V35.4631ZM59.4491 42.1125C61.1849 42.1125 62.1009 41.5825 62.1009 39.9442C62.1009 38.4023 61.0884 37.8241 59.4491 37.8241H54.049V42.1607H59.4491V42.1125Z" fill="white"/>
<path d="M73.5281 35.4631H76.9031L80.23 46.9791L83.9425 35.4631H87.173L90.8855 46.9791L94.3088 35.4631H97.5392L92.5248 50.3038H89.1498L85.4372 38.8842L81.7246 50.3038H78.3496L73.4316 35.4631H73.5281Z" fill="white"/>
<path d="M99.082 35.4631H102.216V41.2452H111.425V35.4631H114.559V50.3038H111.425V43.558H102.216V50.3038H99.082V35.4631V35.4631Z" fill="white"/>
<path d="M122.515 35.4631H126.227L132.833 50.3038H129.361L127.818 46.6418H120.827L119.284 50.3038H115.909L122.515 35.4631V35.4631ZM126.854 44.2808L124.299 38.0169L121.695 44.2808H126.806H126.854Z" fill="white"/>
<path d="M134.135 35.4631H137.269V47.8464H146.285V50.3038H134.135V35.4631V35.4631Z" fill="white"/>
<path d="M148.021 35.4632H160.942V37.776H151.154V41.5344H160.556V43.8472H151.154V47.9428H161.087V50.2557H148.021V35.415V35.4632Z" fill="white"/>
<path d="M169.235 35.0776C171.501 35.0776 176.081 35.5113 176.515 39.7997H173.14C173.044 38.6432 171.983 37.3905 169.379 37.3905C167.306 37.3905 165.908 38.0169 165.908 39.4142C165.908 42.9316 176.997 39.5587 176.997 45.919C176.997 49.7255 173.044 50.7374 169.861 50.7374C164.51 50.7374 162.388 48.6173 162.34 45.5335H165.715C165.811 47.5091 167.402 48.4246 169.958 48.4246C171.838 48.4246 173.622 47.8464 173.622 46.2563C173.622 42.5943 162.677 45.7744 162.677 39.7033C162.677 36.3786 165.618 35.1258 169.235 35.1258V35.0776Z" fill="white"/>
<path d="M127.915 18.5026C126.517 13.4915 129.409 5.78206 141.463 0C139.486 0.433655 123.238 2.60193 125.697 16.0934C110.991 12.7205 106.314 29.874 106.314 29.874C106.314 29.874 115.379 16.8643 127.915 18.5026V18.5026Z" fill="#80BC42"/>
<path d="M204.24 22.6946C204.24 22.6946 216.968 4.81838 195.416 2.0719C173.864 -0.674579 154.337 18.1653 139.728 16.5752C125.118 14.9852 143.681 2.55374 145.851 4.48109C148.021 6.40845 144.453 10.215 142.862 9.97405C141.512 9.78131 141.078 8.72127 142.283 6.93847C140.547 8.23943 139.487 10.8895 142.042 11.3714C145.321 12.046 149.805 7.37212 147.297 3.99925C143.874 -0.67458 125.794 14.2624 133.315 19.3699C142.138 25.3929 168.175 4.96293 194.259 7.99851C204.143 9.15492 206.216 17.3462 204.191 22.7428L204.24 22.6946Z" fill="#60B3E4"/>
</g>
<defs>
<clipPath id="clip0_404_1320">
<rect width="208" height="65" fill="white"/>
</clipPath>
</defs>
</svg>
