<svg fill="none" height="65" viewBox="0 0 208 65" width="208" xmlns="http://www.w3.org/2000/svg"><g fill="#fff"><path d="m4.24282 64.9036-2.07325-3.662-1.542888 1.8792v1.7828h-.482151v-6.553h.482151v4.0956l3.278628-4.0956h.57858l-1.97682 2.5055 2.31433 4.0475z"/><path d="m21.8898 64.9036-.5786-1.5901h-2.9894l-.5785 1.5901h-.5304l2.3625-6.553h.434l2.3625 6.553h-.5304zm-2.0733-5.8784-1.35 3.8547h2.7z"/><path d="m35.6787 64.9036v-6.553h.4822v6.553z"/><path d="m54.3864 64.9036-2.0733-3.662-1.5429 1.8792v1.7828h-.4821v-6.553h.4821v4.0956l3.2787-4.0956h.5785l-1.9768 2.5055 2.3143 4.0475z"/><path d="m72.3228 62.6871c0 .241 0 .4819-.0483.6264 0 .1928-.0964.3855-.1928.53-.0964.1446-.1929.3373-.3375.4819-.1929.1927-.434.3855-.7233.4818-.2892.0964-.5785.1928-.8678.1928s-.5786-.0482-.8679-.1928c-.2893-.0963-.5304-.2891-.7232-.4818-.1447-.1446-.2411-.2891-.3375-.4819-.0965-.1445-.1447-.3372-.1929-.53 0-.1927-.0482-.3854-.0482-.6264 0-.2409 0-.5782 0-1.0118 0-.4337 0-.771 0-1.0119s0-.4818.0482-.6264c0-.1927.0964-.3854.1929-.53.0964-.1445.1928-.3373.3375-.4818.1928-.1928.4339-.3855.7232-.4819.2893-.0963.5786-.1927.8679-.1927s.5786.0482.8678.1927c.2893.1446.5304.2891.7233.4819.1446.1445.2411.2891.3375.4818.0964.1446.1446.3373.1928.53 0 .1928.0483.3855.0483.6264v1.0119zm-.4822-1.9755s0-.4337-.0482-.6264c0-.1927-.0964-.3373-.1447-.4336-.0482-.0964-.1446-.241-.2892-.3855-.3376-.3373-.7233-.53-1.2054-.53-.4822 0-.8679.1927-1.2054.53-.0964.0963-.1929.2409-.2893.3855-.0482.1445-.0964.2891-.1446.4336 0 .1927-.0483.3855-.0483.6264v.9637.9636c0 .241 0 .4337.0483.6264 0 .1928.0964.3373.1446.4337.0482.1445.1447.2409.2893.3855.3375.3373.7232.53 1.2054.53.4821 0 .8678-.1927 1.2054-.53.0964-.0964.1928-.241.2892-.3855.0483-.1446.0965-.2891.1447-.4337 0-.1927.0482-.3854.0482-.6264 0-.2409 0-.53 0-.9636 0-.4337 0-.7228 0-.9637z"/><path d="m90.3549 63.6508c-.0965.2891-.2411.4818-.434.6746-.1928.1927-.4339.3373-.7232.4336-.2893.0964-.5786.1446-.8679.1446s-.6268-.0482-.8678-.1446c-.2893-.0963-.4822-.2409-.7233-.4336-.1928-.1928-.3375-.4337-.4339-.6746-.0964-.2891-.1446-.5782-.1446-.8673v-4.4329h.4821v4.3847c0 .53.1446.9637.4822 1.301.2892.3373.7232.4818 1.2535.4818.5304 0 .9161-.1445 1.2536-.4818.2893-.3373.4822-.771.4822-1.301v-4.3847h.4821v4.4329c0 .3373-.0482.6264-.1446.8673z"/><path d="m108.339 64.9036-1.543-3.0356h-1.784v3.0356h-.482v-6.553h2.459c.531 0 .965.1445 1.35.4818.338.2891.531.7228.531 1.301 0 .4818-.145.8673-.386 1.2046s-.627.4818-1.109.5782l1.543 3.0356h-.579zm-.385-5.7821c-.242-.2409-.627-.3373-1.013-.3373h-1.88v2.6502h1.88c.434 0 .771-.0964 1.013-.3373.241-.241.385-.5782.385-1.0119 0-.4336-.144-.7709-.385-1.0119z"/><path d="m126.42 64.9036-.579-1.5901h-2.989l-.578 1.5901h-.531l2.363-6.553h.434l2.362 6.553h-.53zm-2.073-5.8784-1.35 3.8547h2.7z"/><path d="m158.869 64.9036-2.073-3.132-1.688-2.5537v5.6857h-.482v-6.553h.482l2.025 3.1319 1.688 2.5538v-5.6857h.482v6.553h-.482z"/><path d="m173.044 64.9036v-.53l3.375-5.5894h-3.278v-.4336h3.761v.4336l-3.424 5.6857h3.424v.4337h-3.906z"/><path d="m27.8201 9.87769h2.2179l-6.7019 19.85171h-2.4107l-5.9787-16.9607h-.0482l-5.88227 16.9607h-2.41076l-6.60547-19.85171h2.36254l5.49652 17.15341h.04822l5.88222-17.15341h2.5554l5.8823 17.15341h.0482l5.5929-17.15341z"/><path d="m31.8223 9.87769h2.0732v19.85171h-2.0732z"/><path d="m37.7523 9.87769h2.459l13.8859 16.96071h.0483v-16.96071h2.0732v19.85171h-2.4108l-13.9823-16.9607h-.0482v16.9607h-2.0733v-19.85171z"/><path d="m78.1088 25.9712h-.0482c-2.025 2.9392-4.3876 4.2401-8.2448 4.2401-6.7501 0-10.4144-4.2401-10.4144-10.4558 0-6.2158 4.05-10.45594 10.6555-10.45594 5.5447 0 9.0645 3.13194 9.5948 6.79394h-2.2179c-.8196-3.3729-3.809-4.9148-7.3769-4.9148-5.4483 0-8.3894 3.3247-8.3894 8.5286 0 5.2038 2.7482 8.5285 8.0037 8.5285 5.9787 0 7.859-3.3729 8.4858-6.9385h-7.2804v-1.8791h9.2091v10.2631h-1.5911l-.2893-3.7583z"/><path d="m97.1056 15.5635c-.2893-3.3729-3.0375-4.2884-6.2197-4.2884s-5.6412 1.2528-5.6412 3.5174c0 2.6019 2.4108 3.1802 7.2805 3.9993 3.6161.6264 7.2323 1.4455 7.2323 5.252 0 4.8666-4.4358 6.2157-8.293 6.2157-5.0626 0-8.727-1.7346-9.0163-7.083h2.0733c.3857 4.192 3.134 5.1557 6.943 5.1557 2.9893 0 6.0751-.8191 6.0751-3.9511 0-3.1319-3.6162-3.3729-7.2323-3.9993-4.7251-.7709-7.2805-2.0719-7.2805-5.3002 0-4.3365 4.0019-5.78204 7.8591-5.78204 4.0501 0 8.1483 1.44554 8.293 6.16754h-2.0733z"/><path d="m0 42.8835c0-4.192 2.45897-7.854 8.72694-7.854 6.26796 0 8.72696 3.662 8.72696 7.854s-2.459 7.854-8.72696 7.854c-6.26797 0-8.72694-3.662-8.72694-7.854zm14.2235 0c0-3.2765-1.9769-5.4929-5.49656-5.4929-3.51971 0-5.49653 2.2646-5.49653 5.4929s1.97682 5.493 5.49653 5.493c3.51966 0 5.49656-2.2647 5.49656-5.493z"/><path d="m17.8398 35.4631h3.5197l4.8698 11.9014 4.7251-11.9014h3.375l-6.5572 14.8407h-3.3269z"/><path d="m35.4863 35.4632h12.9217v2.3128h-9.7877v3.7584h9.402v2.3128h-9.402v4.0956h9.9323v2.3129h-13.0663v-14.8407z"/><path d="m50.915 35.4631h9.402c3.809 0 5.0144 1.7347 5.0144 4.0475 0 1.9273-1.0608 3.1319-2.459 3.5656 1.7839.4336 2.1697 1.9755 2.1697 4.0474 0 .7228 0 2.361.6268 3.1802h-3.3751c-.2411-.4337-.3857-1.1565-.3857-2.2647 0-2.1201-.2893-3.6138-2.5554-3.6138h-5.3037v5.8785h-3.134zm8.5341 6.6494c1.7358 0 2.6518-.53 2.6518-2.1683 0-1.5419-1.0125-2.1201-2.6518-2.1201h-5.4001v4.3366h5.4001z"/><path d="m73.5281 35.4631h3.375l3.3269 11.516 3.7125-11.516h3.2305l3.7125 11.516 3.4233-11.516h3.2304l-5.0144 14.8407h-3.375l-3.7126-11.4196-3.7126 11.4196h-3.375l-4.918-14.8407z"/><path d="m99.082 35.4631h3.134v5.7821h9.209v-5.7821h3.134v14.8407h-3.134v-6.7458h-9.209v6.7458h-3.134z"/><path d="m122.515 35.4631h3.712l6.606 14.8407h-3.472l-1.543-3.662h-6.991l-1.543 3.662h-3.375zm4.339 8.8177-2.555-6.2639-2.604 6.2639h5.111z"/><path d="m134.135 35.4631h3.134v12.3833h9.016v2.4574h-12.15z"/><path d="m148.021 35.4632h12.921v2.3128h-9.788v3.7584h9.402v2.3128h-9.402v4.0956h9.933v2.3129h-13.066v-14.8407z"/><path d="m169.235 35.0776c2.266 0 6.846.4337 7.28 4.7221h-3.375c-.096-1.1565-1.157-2.4092-3.761-2.4092-2.073 0-3.471.6264-3.471 2.0237 0 3.5174 11.089.1445 11.089 6.5048 0 3.8065-3.953 4.8184-7.136 4.8184-5.351 0-7.473-2.1201-7.521-5.2039h3.375c.096 1.9756 1.687 2.8911 4.243 2.8911 1.88 0 3.664-.5782 3.664-2.1683 0-3.662-10.945-.4819-10.945-6.553 0-3.3247 2.941-4.5775 6.558-4.5775z"/></g><path d="m127.915 18.5026c-1.398-5.0111 1.494-12.72054 13.548-18.5026-1.977.433655-18.225 2.60193-15.766 16.0934-14.706-3.3729-19.383 13.7806-19.383 13.7806s9.065-13.0097 21.601-11.3714z" fill="#80bc42"/><path d="m204.24 22.6946s12.728-17.87622-8.824-20.6227c-21.552-2.746479-41.079 16.0934-55.688 14.5033-14.61-1.59 3.953-14.02146 6.123-12.09411 2.17 1.92736-1.398 5.73391-2.989 5.49296-1.35-.19274-1.784-1.25278-.579-3.03558-1.736 1.30096-2.796 3.95103-.241 4.43293 3.279.6746 7.763-3.99928 5.255-7.37215-3.423-4.67383-21.503 10.26315-13.982 15.37065 8.823 6.023 34.86-14.40697 60.944-11.37139 9.884 1.15641 11.957 9.34769 9.932 14.74429z" fill="#60b3e4"/></svg>