<svg width="150" height="44" viewBox="0 0 150 44" fill="none" xmlns="http://www.w3.org/2000/svg">
<path d="M32.6136 27.0088C30.541 19.7134 34.767 8.4218 52.5055 0C49.6253 0.616883 25.8035 3.80858 29.4105 23.522C7.8497 18.587 0.958862 43.6646 0.958862 43.6646C0.958862 43.6646 14.256 24.6485 32.6136 27.0088Z" fill="#80BC42"/>
<path d="M144.509 33.1506C144.509 33.1506 163.216 6.97327 131.589 3.00376C99.9607 -0.965751 71.3745 26.5794 49.9214 24.246C28.4684 21.9126 55.6818 3.72793 58.9118 6.54413C62.1419 9.36034 56.8661 14.9391 54.5512 14.5904C52.5593 14.2954 51.9672 12.7934 53.663 10.1113C51.1058 11.9888 49.5985 15.8778 53.34 16.602C58.1851 17.5676 64.6991 10.7818 61.0383 5.79314C56.0048 -1.07304 29.5451 20.7861 40.5273 28.2423C53.4745 37.0128 91.6702 7.18784 129.92 11.5865C144.401 13.2494 147.443 25.2384 144.482 33.1238L144.509 33.1506Z" fill="#60B3E4"/>
</svg>
