<svg xmlns="http://www.w3.org/2000/svg" width="59" height="59" viewBox="0 0 59 59"><defs><clipPath id="j20ba"><path fill="#fff" d="M29.5 0C45.792 0 59 13.208 59 29.5S45.792 59 29.5 59 0 45.793 0 29.5 13.208 0 29.5 0z"/></clipPath></defs><g><g opacity="-1"><path fill="#fff" d="M29.5 0C45.792 0 59 13.208 59 29.5S45.792 59 29.5 59 0 45.793 0 29.5 13.208 0 29.5 0z"/><path fill="none" stroke="#ffc80a" stroke-miterlimit="20" stroke-width="6" d="M29.5 0C45.792 0 59 13.208 59 29.5S45.792 59 29.5 59 0 45.793 0 29.5 13.208 0 29.5 0z" clip-path="url(&quot;#j20ba&quot;)"/></g><g opacity="-1"><path fill="#4d4d4d" d="M19.265 27.694h17.526l-7.55-7.55a1.232 1.232 0 0 1 1.74-1.742l9.576 9.576c.132.132.228.287.287.452a1.2 1.2 0 0 1-.009.957c-.06.156-.153.302-.278.428l-9.575 9.575a1.231 1.231 0 0 1-1.741-1.74l7.547-7.548H19.265a1.204 1.204 0 1 1 0-2.408z"/><path fill="#fff" d="M19.265 27.694h17.526l-7.55-7.55a1.232 1.232 0 0 1 1.74-1.742l9.576 9.576c.132.132.228.287.287.452a1.2 1.2 0 0 1-.009.957c-.06.156-.153.302-.278.428l-9.575 9.575a1.231 1.231 0 0 1-1.741-1.74l7.547-7.548H19.265a1.204 1.204 0 1 1 0-2.408z"/></g></g></svg>