<svg enable-background="new 0 0 29.5 26" viewBox="0 0 29.5 26" xmlns="http://www.w3.org/2000/svg"><path d="m25 17.5c.5 0 .9-.3 1-.8l3.4-11.9c.1-.3 0-.7-.2-.9-.2-.3-.5-.4-.9-.4h-20.5l-.6-2.7c-.1-.5-.5-.8-1-.8h-5.1c-.6 0-1.1.5-1.1 1.1s.5 1.1 1.1 1.1h4.2c.4 1.5 2.7 11.8 3 13.4-.9.5-1.5 1.4-1.5 2.5 0 1.5 1.2 2.8 2.8 2.8h.2c-.8.5-1.3 1.4-1.3 2.3 0 1.5 1.2 2.8 2.8 2.8s2.8-1.2 2.8-2.8c0-1-.5-1.8-1.3-2.3h9c-.8.5-1.3 1.4-1.3 2.3 0 1.5 1.2 2.8 2.8 2.8 1.5 0 2.8-1.2 2.8-2.8 0-1-.5-1.8-1.3-2.3h.2c.6 0 1.1-.5 1.1-1.1s-.5-1.1-1.1-1.1h-15.4c-.3 0-.6-.3-.6-.6s.3-.6.6-.6v-.2.2zm-1.7 6.3c-.3 0-.6-.3-.6-.6s.3-.6.6-.6.6.3.6.6-.2.6-.6.6zm-12 0c-.3 0-.6-.3-.6-.6s.3-.6.6-.6.6.3.6.6-.3.6-.6.6zm-.8-8.5-2.2-9.7h18.7l-2.8 9.8h-13.7z" fill="#fff"/></svg>