<?xml version="1.0" encoding="UTF-8"?>
<svg width="752pt" height="752pt" version="1.1" viewBox="0 0 752 752" xmlns="http://www.w3.org/2000/svg">
 <path fill="#ffffff" d="m572.11 511.82-67.012-66.965 40.207-40.207c2.2734-2.2734 3.2188-5.5391 2.5586-8.7148-0.71094-3.125-2.9375-5.7305-5.9688-6.8672l-224.33-83.727c-3.5039-1.2773-7.3867-0.42578-10.039 2.1797-2.6055 2.6523-3.457 6.5352-2.1797 10.039l83.73 224.34c1.1367 3.0312 3.7422 5.2578 6.8672 5.9688 3.125 0.71094 6.4414-0.28516 8.7148-2.5586l40.207-40.207 66.965 67.012c1.8477 1.8477 4.2617 2.7461 6.6758 2.7461 2.4141 0 4.8789-0.89844 6.7266-2.7461l46.883-46.883c3.6914-3.7461 3.6914-9.7109-0.003906-13.406zm-53.609 40.16-66.961-66.965c-1.8008-1.7539-4.168-2.793-6.6758-2.793-2.5586 0-4.9258 1.043-6.7266 2.793l-36.465 36.465-71.324-191.14 191.14 71.32-36.465 36.465c-1.7539 1.8008-2.793 4.168-2.793 6.7266 0 2.5117 1.043 4.8789 2.793 6.6758l66.965 66.965zm-208.8-299.11v-66.301c0-5.2109 4.2617-9.4727 9.4727-9.4727s9.4727 4.2617 9.4727 9.4727v66.301c0 5.2109-4.2617 9.4727-9.4727 9.4727s-9.4727-4.2656-9.4727-9.4727zm-56.828 75.773h-66.301c-5.2109 0-9.4727-4.2617-9.4727-9.4727s4.2617-9.4727 9.4727-9.4727h66.301c5.2109 0 9.4727 4.2617 9.4727 9.4727s-4.2656 9.4727-9.4727 9.4727zm106.51-49.68c-3.6953-3.6953-3.6953-9.707 0-13.402l46.883-46.883c3.6953-3.6953 9.707-3.6953 13.402 0 3.6953 3.6953 3.6953 9.707 0 13.402l-46.883 46.883c-1.8477 1.8477-4.2617 2.793-6.6758 2.793-2.418 0-4.8789-0.89844-6.7266-2.793zm-80.414 80.414c3.6953 3.6953 3.6953 9.707 0 13.402l-46.883 46.883c-1.8477 1.8477-4.2617 2.793-6.6758 2.793s-4.832-0.94531-6.6758-2.793c-3.6953-3.6953-3.6953-9.707 0-13.402l46.883-46.883c3.6914-3.7422 9.6562-3.7422 13.352 0zm0-93.77c3.6953 3.6953 3.6953 9.707 0 13.402-1.8477 1.8477-4.2617 2.793-6.6758 2.793-2.4141 0-4.832-0.94531-6.6758-2.793l-46.883-46.883c-3.6953-3.6953-3.6953-9.707 0-13.402 3.6953-3.6953 9.707-3.6953 13.402 0z"/>
</svg>
