<svg enable-background="new 0 0 469.333 469.333" viewBox="0 0 469.333 469.333" xmlns="http://www.w3.org/2000/svg">
<path  fill="#0f2751"  d="m234.667 170.667c-35.307 0-64 28.693-64 64s28.693 64 64 64 64-28.693 64-64-28.694-64-64-64z"/>
<path  fill="#0f2751"  d="m234.667 74.667c-106.667 0-197.76 66.346-234.667 160 36.907 93.653 128 160 234.667 160 106.773 0 197.76-66.347 234.667-160-36.907-93.654-127.894-160-234.667-160zm0 266.666c-58.88 0-106.667-47.787-106.667-106.667s47.787-106.666 106.667-106.666 106.667 47.787 106.667 106.667-47.787 106.666-106.667 106.666z"/>
</svg>