<?xml version="1.0" encoding="utf-8"?><svg fill="none" height="64" viewBox="0 0 64 64" width="64" xmlns="http://www.w3.org/2000/svg" xmlns:xlink="http://www.w3.org/1999/xlink"><clipPath id="a"><path d="m0 0h64v63.1795h-64z"/></clipPath><g clip-path="url(#a)" fill="#fff"><path d="m32 0c-17.6444 0-32 14.172-32 31.5904s14.3556 31.5891 32 31.5891 32-14.172 32-31.5891-14.3492-31.5904-32-31.5904zm0 59.8552c-15.7917 0-28.64-12.6789-28.64-28.2648 0-15.586 12.8483-28.26483 28.64-28.26483s28.64 12.67883 28.64 28.26483c0 15.5859-12.8483 28.2648-28.64 28.2648z"/><path d="m45.8641 16.7309-18.0317 10.4405-.0178.0138c-.0276.0174-.0539.0368-.0787.0578-.0253.0183-.0494.038-.0724.0591-.0217.0231-.042.0475-.0609.0729-.0191.0251-.0394.0477-.0559.0741-.0055.0064-.0106.0131-.0153.0201l-10.5485 17.847c-.0938.1587-.1318.3437-.1081.5261.0237.1823.1077.3518.239.4819s.3024.2134.4866.2371c.1843.0236.3712-.0138.5317-.1064l18.0317-10.4405.0178-.0138c.0274-.0177.0536-.037.0787-.0578.0249-.0183.0486-.0381.0711-.0591.0221-.0231.0429-.0475.0623-.0729.02-.0236.0387-.0484.0558-.0741l.014-.0189 10.5486-17.8469c.0918-.1582.1286-.3418.1046-.5227-.0239-.1808-.1072-.3489-.2371-.4783s-.2991-.213-.4817-.2378c-.1825-.0249-.3683.0102-.5287.1001zm-25.8082 26.68 8.3809-14.1733 1.6864 1.6691c-.1331.3551-.1605.7405-.0788 1.1106.0817.37.269.709.5397.9768.2707.2677.6133.453.9872.5336.3739.0807.7633.0535 1.122-.0785l1.6864 1.6691z"/></g></svg>