<?xml version="1.0" encoding="utf-8"?><svg fill="none" height="64" viewBox="0 0 64 64" width="64" xmlns="http://www.w3.org/2000/svg" xmlns:xlink="http://www.w3.org/1999/xlink"><clipPath id="a"><path d="m0 0h64v64h-64z"/></clipPath><g clip-path="url(#a)" fill="#fff"><path d="m60.5492 46.9557-14.2945-11.7895c2.3382-4.7504 3.0637-10.1326 2.0668-15.3319-.9969-5.1992-3.6621-9.93238-7.5919-13.48302-3.9299-3.55065-8.9105-5.725427-14.188-6.19513s-10.5645.791244-15.0606 3.59196c-4.49611 2.80072-7.95661 6.98869-9.85763 11.92999-1.90102 4.9414-2.139064 10.367-.678098 15.4555 1.460968 5.0886 4.541398 9.5631 8.774998 12.7461 4.23363 3.1831 9.38983 4.9015 14.68823 4.895 3.7468-.0004 7.4414-.8771 10.7883-2.56l11.7322 14.2821c.8529 1.0312 1.9103 1.8748 3.1056 2.4777 1.1952.6029 2.5024.952 3.8394 1.0254h.4719c1.2659.0009 2.5194-.2487 3.6882-.7344 1.1689-.4856 2.2299-1.1977 3.1219-2.0951.9486-.9522 1.6898-2.09 2.1771-3.3421.4874-1.2521.7103-2.5914.6549-3.9336-.0383-1.336-.3654-2.648-.959-3.8457-.5935-1.1978-1.4395-2.253-2.4798-3.0933zm-56.63845-22.5684c0-11.2505 9.23745-20.48002 20.49775-20.48002 11.2602 0 20.5025 9.22952 20.5025 20.48002s-9.2423 20.4848-20.5025 20.4848c-11.2603 0-20.49775-9.2343-20.49775-20.4848zm54.54345 34.021c-.5627.565-1.237 1.0066-1.98 1.2966s-1.5384.422-2.3354.3876c-.7962-.0286-1.5767-.2302-2.287-.5909s-1.3335-.8717-1.826-1.4975l-11.3951-13.8105c2.1566-1.5484 4.0467-3.4369 5.5964-5.5916l13.8225 11.3853c.6263.4921 1.1378 1.1147 1.4988 1.8244.3609.7097.5628 1.4895.5914 2.2851.0344.7962-.0977 1.5909-.388 2.3333-.2902.7423-.7322 1.4161-1.2976 1.9782z"/><path d="m22.7228 16.64h3.4388c.3815-.0029.7598.0701 1.1129.2146.3531.1446.6739.3579.9437.6274.2698.2696.4832.5901.6279.9429.1447.3527.2177.7307.2148 1.1119h3.9108c.0083-1.7609-.6698-3.4559-1.8906-4.7259-1.2208-1.2701-2.8885-2.0155-4.6498-2.0783v-3.57049h-3.9156v3.57049c-3.7036.1396-6.6704 3.099-6.6704 6.8042-.0032.8947.1708 1.7812.5118 2.6084.3411.8272.8425 1.5789 1.4754 2.2117.633.6329 1.385 1.1344 2.2127 1.4757.8277.3414 1.7148.5158 2.6102.5133h3.4388c.3856-.0079.7689.0612 1.1275.2032.3586.1421.6852.3541.9607.6239.2755.2697.4944.5916.6438.9469s.2264.7368.2264 1.1222-.077.7669-.2264 1.1222-.3683.6772-.6438.947c-.2755.2697-.6021.4818-.9607.6238s-.7419.2111-1.1275.2032h-3.4388c-.3823.0029-.7613-.0703-1.1149-.2154-.3536-.145-.6748-.3591-.9447-.6295-.2699-.2705-.4832-.592-.6274-.9457-.1442-.3538-.2164-.7327-.2124-1.1146h-3.9107c-.0083 1.7609.6697 3.4559 1.8905 4.7259 1.2209 1.2701 2.8886 2.0155 4.6499 2.0783v3.5032h3.9107v-3.4984c1.7791-.0746 3.4582-.8423 4.6778-2.1385 1.2196-1.2963 1.8828-3.0181 1.8475-4.7969-.0352-1.7787-.7661-3.473-2.0361-4.72-1.2701-1.247-2.9783-1.9476-4.7589-1.9518h-3.4387c-.3815.0027-.7598-.0704-1.1128-.215s-.6737-.3579-.9435-.6274c-.2697-.2696-.4832-.59-.6279-.9427-.1448-.3527-.2179-.7306-.2152-1.1118 0-1.618 1.416-2.898 3.0342-2.898z"/></g></svg>