<svg width="82" height="78" viewBox="0 0 82 78" fill="none" xmlns="http://www.w3.org/2000/svg">
<path d="M31.6758 14.5332C24.9375 15.8027 20.2012 20.6855 17.4668 29.1816C16.0996 33.3809 15.416 37.5312 15.416 41.6328C15.416 42.1211 15.416 42.5605 15.416 42.9512C15.5137 43.2441 15.6113 43.9766 15.709 45.1484H31.6758V77.082H0.474609V47.6387C0.474609 33.1855 3.35547 22.0527 9.11719 14.2402C14.8789 6.42773 22.3984 1.93555 31.6758 0.763672V14.5332ZM81.041 14.5332C75.6699 15.4121 71.5684 18.4395 68.7363 23.6152C66.002 28.791 64.6348 34.748 64.6348 41.4863C64.6348 42.0723 64.6348 42.6582 64.6348 43.2441C64.7324 43.8301 64.8789 44.4648 65.0742 45.1484H81.041V77.082H49.6934V47.6387C49.6934 36.0176 52.1348 25.666 57.0176 16.584C61.9004 7.4043 69.9082 2.13086 81.041 0.763672V14.5332Z" fill="#333435"/>
</svg>
