<?xml version="1.0" encoding="utf-8"?>
<svg width="20" height="26" viewBox="0 0 20 26" fill="none" xmlns="http://www.w3.org/2000/svg">
<path fill-rule="evenodd" clip-rule="evenodd" d="M10 0C14.6244 0 18.3738 3.70707 18.3738 8.28088C18.3738 11.9185 12.4374 18.7703 10 22.5229C7.5626 18.7716 1.62749 11.9185 1.62749 8.28088C1.62749 3.70707 5.37557 0 10 0ZM1.93919 23.497H18.0595L19.9987 26H0L1.93919 23.497ZM10 5.76907C11.8664 5.76907 13.3789 7.26504 13.3789 9.11099C13.3789 10.9569 11.8664 12.4529 10 12.4529C8.13362 12.4529 6.6211 10.9569 6.6211 9.11099C6.6211 7.26504 8.13362 5.76907 10 5.76907Z" fill="white"/>
</svg>
