<?xml version="1.0" encoding="utf-8"?><svg fill="none" height="59" viewBox="0 0 110 59" width="110" xmlns="http://www.w3.org/2000/svg"><g fill="#fff" stroke="#fff"><path d="m32.1749 29.919c1.4186.9399 3.0861 1.4413 4.7915 1.4413 2.2869 0 4.4808-.9007 6.0992-2.5052 1.6184-1.6047 2.5284-3.782 2.5284-6.0533 0-1.6936-.5065-3.3489-1.4551-4.7564-.9485-1.4075-2.2962-2.5038-3.8722-3.1511-1.576-.6472-3.3099-.8165-4.9826-.4866-1.6728.3299-3.2099 1.1443-4.4168 2.3409-1.2069 1.1967-2.0293 2.7218-2.3625 4.3828s-.1622 3.3826.4914 4.947c.6535 1.5643 1.7599 2.9007 3.1787 3.8406zm1.7564-11.6139c.8979-.5949 1.9541-.9127 3.0349-.9128 1.4491.0015 2.8376.5729 3.861 1.5876 1.0233 1.0146 1.5981 2.3894 1.5995 3.8224-.0001 1.0688-.3198 2.1139-.9191 3.0033-.5995.8895-1.452 1.5835-2.4502 1.9934-.9983.41-2.097.5173-3.157.3083-1.06-.2091-2.0331-.725-2.7964-1.4819-.7633-.7568-1.2827-1.7205-1.493-2.769-.2104-1.0485-.1024-2.1354.3103-3.1233.4127-.988 1.112-1.8331 2.01-2.428z"/><path d="m68.6097 29.919c1.4187.9399 3.0861 1.4413 4.7916 1.4413 2.2868 0 4.4808-.9007 6.0991-2.5052 1.6184-1.6047 2.5284-3.782 2.5284-6.0533 0-1.6936-.5065-3.3489-1.4551-4.7564-.9485-1.4075-2.2962-2.5038-3.8722-3.1511-1.576-.6472-3.3099-.8165-4.9826-.4866-1.6728.3299-3.2099 1.1443-4.4167 2.3409-1.2069 1.1967-2.0294 2.7218-2.3626 4.3828s-.1621 3.3826.4914 4.947c.6535 1.5643 1.7599 2.9007 3.1787 3.8406zm1.7564-11.6139c.898-.5949 1.9541-.9127 3.0349-.9128 1.4491.0015 2.8376.5729 3.861 1.5876 1.0234 1.0146 1.5981 2.3894 1.5995 3.8224-.0001 1.0688-.3198 2.1139-.9191 3.0033-.5995.8895-1.452 1.5835-2.4502 1.9934-.9983.41-2.097.5173-3.157.3083-1.06-.2091-2.0331-.725-2.7964-1.4819-.7633-.7568-1.2826-1.7205-1.493-2.769s-.1024-2.1354.3103-3.1233c.4127-.988 1.112-1.8331 2.01-2.428z"/><path d="m55.1839 16.5424h.0005c2.1423-.0021 4.1971-.8469 5.7132-2.3501 1.5163-1.5033 2.3698-3.5426 2.372-5.67058v-.00051c0-1.5874-.4748-3.1388-1.3638-4.45798-.889-1.31914-2.152-2.34664-3.629-2.95322-1.477-.60657-3.1019-.76521-4.6696-.45604-1.5676.309176-3.0082 1.07242-4.1393 2.19388-1.1311 1.12151-1.9019 2.55091-2.2142 4.1077-.3124 1.5568-.152 3.17045.4605 4.63665s1.6495 2.7186 2.9791 3.5995c1.3296.8808 2.8923 1.3507 4.4906 1.3507zm-2.7342-12.07126c.809-.53592 1.7605-.82222 2.7342-.82222.6465 0 1.2865.12626 1.8836.37146.597.24519 1.1392.60447 1.5957 1.05711.4565.45263.8184.98975 1.0653 1.58057.2468.59082.3738 1.22391.3738 1.86315 0 .96269-.2879 1.90409-.8278 2.70529-.54.8012-1.3078 1.4263-2.207 1.7955-.8993.3694-1.889.4661-2.8439.2777-.9549-.1883-1.8315-.653-2.519-1.3348-.6876-.6816-1.1553-1.5496-1.3448-2.49396-.1894-.94428-.0922-1.92311.2795-2.81288.3717-.88981 1.0015-1.65103 1.8104-2.18692z"/><path d="m36.9904 58.5001h-.5-2.1673-.5v-.5-1.2029c0-.0001 0-.0001 0-.0001-.0006-2.1716-.8708-4.2549-2.4208-5.7917-1.5501-1.5369-3.6533-2.4014-5.8473-2.4019zm0 0v-.5m0 .5v-.5m0 0v-1.203-.0001c-.0005-3.0093-1.2066-5.8942-3.3516-8.0206-2.1448-2.1262-5.0527-3.3199-8.0838-3.3199h-13.6215-.0001c-3.03076.0006-5.93813 1.1945-8.08252 3.3207-2.14453 2.1262-3.350343 5.0109-3.35088 8.0198v.0001 1.203.5h.5 2.16735.5m33.32305-.5-33.32305.5m0 0v-.5m0 .5v-.5m0 0v-1.2029c0-.0001 0-.0001 0-.0001.00052-2.1712.87048-4.2543 2.42008-5.791 1.54972-1.5369 3.6524-2.4015 5.84607-2.4026h.0002m-8.26635 9.3966 8.26635-9.3966m0 0h13.6211z"/><path d="m28.0114 35.7286v-.0006c.0004-1.8303-.5468-3.6192-1.5718-5.1405-1.0249-1.5212-2.4815-2.7062-4.1849-3.4056-1.7033-.6994-3.5774-.8822-5.3852-.5253-1.8079.3569-3.469 1.2376-4.7729 2.5313s-2.19206 2.9423-2.55134 4.7375-.1734 3.6557.53394 5.3459c.7073 1.6902 1.904 3.1337 3.4381 4.1484s3.3367 1.5551 5.18 1.5535h.0005c2.4683-.0048 4.8349-.9795 6.581-2.7119 1.7462-1.7325 2.7294-4.0815 2.7326-6.5327zm-12.7358-5.0771c.9397-.6221 2.0328-.975 3.159-1.0222l.2617.0003c1.6331.0019 3.1979.6461 4.3513 1.79 1.1531 1.1436 1.8007 2.6931 1.8023 4.3083-.0012 1.2049-.3626 2.3827-1.039 3.3847-.6765 1.0022-1.638 1.7836-2.7633 2.2448-1.1254.4612-2.3637.5814-3.5582.345-1.1944-.2364-2.2908-.8185-3.1507-1.6721-.8599-.8535-1.4447-1.9401-1.6812-3.1223-.2365-1.182-.1143-2.4072.3514-3.5206.4658-1.1135 1.2544-2.0658 2.2667-2.7359z"/><path d="m72.8806 58.5001h.496l.004-.496.0097-1.203v-.0041c-.0005-3.0089-1.2063-5.8936-3.3509-8.0198-2.1444-2.1262-5.0517-3.3201-8.0825-3.3207h-.0001-13.6214c-3.0312 0-5.9391 1.1937-8.0839 3.3199-2.145 2.1264-3.3511 5.0113-3.3516 8.0206v.0001 1.203.5h.5 2.1674.5v-.5-1.2029c0-.0001 0-.0001 0-.0001.0005-2.1716.8707-4.2549 2.4207-5.7917 1.5501-1.5369 3.6533-2.4014 5.8474-2.4019h.0001 13.6208c2.1921.0035 4.2924.8692 5.8401 2.4058 1.5477 1.5365 2.4164 3.6181 2.4169 5.7878v.0001 1.2029.5h.5z"/><path d="m64.419 35.7286v-.0006c.0004-1.8299-.5466-3.6186-1.5712-5.1397-1.0246-1.521-2.4807-2.7059-4.1836-3.4056-1.7028-.6997-3.5765-.8829-5.3841-.5267-1.8077.3563-3.4688 1.2362-4.773 2.529-1.3043 1.2929-2.193 2.9407-2.5532 4.7354-.3603 1.7947-.1755 3.6549.5305 5.3453.7061 1.6903 1.9015 3.1344 3.4345 4.1501 1.533 1.0156 3.3349 1.5574 5.1778 1.5574h.0005c2.4698-.0026 4.8385-.9764 6.5863-2.709 1.748-1.7327 2.7323-4.083 2.7355-6.5356zm-12.7429-5.0763c.9395-.6222 2.0324-.9754 3.1585-1.0229l.2617.0002c1.6334.0014 3.1987.6454 4.3524 1.7893 1.1535 1.1437 1.8014 2.6935 1.8029 4.309-.0011 1.2048-.3624 2.3826-1.0388 3.3845-.6764 1.0022-1.6378 1.7836-2.763 2.2448-1.1253.4613-2.3635.5815-3.5579.3453s-2.2908-.8182-3.1508-1.6716c-.8599-.8533-1.4449-1.9398-1.6816-3.1218-.2367-1.1819-.1147-2.407.3507-3.5205.4655-1.1135 1.2538-2.0659 2.2659-2.7363z"/><path d="m109.5 58.5001h-.5-2.167-.5v-.5-1.2029c0-.0001 0-.0001 0-.0001-.001-2.1716-.871-4.2549-2.421-5.7917-1.55-1.5369-3.653-2.4014-5.8474-2.4019zm0 0v-.5m0 .5v-.5m0 0v-1.203-.0001c0-3.0093-1.207-5.8942-3.352-8.0206-2.144-2.1262-5.052-3.3199-8.0834-3.3199h-13.6214-.0001c-3.0308.0006-5.9382 1.1945-8.0826 3.3207-2.1445 2.1262-3.3503 5.0109-3.3509 8.0198v.0001 1.203.5h.5 2.1674.5m33.323-.5-33.323.5m0 0v-.5m0 .5v-.5m0 0v-1.203c0-2.1714.8698-4.2547 2.4195-5.7916 1.5498-1.537 3.6528-2.4015 5.8467-2.402h.0001m-8.2663 9.3966 8.2663-9.3966m0 0h13.6212z"/><path d="m100.527 35.7286v-.0006c0-1.8299-.5468-3.6186-1.5714-5.1397-1.0246-1.521-2.4807-2.7059-4.1836-3.4056s-3.5765-.8829-5.3841-.5267c-1.8077.3563-3.4688 1.2362-4.773 2.529-1.3043 1.2929-2.1931 2.9407-2.5533 4.7354s-.1755 3.6549.5306 5.3453c.7061 1.6903 1.9015 3.1344 3.4345 4.1501 1.533 1.0156 3.3349 1.5574 5.1778 1.5574h.0005c2.4698-.0026 4.8384-.9764 6.5863-2.709 1.748-1.7327 2.7327-4.083 2.7357-6.5356zm-12.7431-5.0763c.9395-.6222 2.0324-.9754 3.1585-1.0229l.2617.0002c1.6334.0014 3.1987.6454 4.3524 1.7893 1.1535 1.1437 1.8014 2.6935 1.8029 4.309-.0011 1.2048-.3624 2.3826-1.0388 3.3845-.6764 1.0022-1.6378 1.7836-2.763 2.2448-1.1253.4613-2.3635.5815-3.558.3453-1.1944-.2362-2.2907-.8182-3.1507-1.6716-.8599-.8533-1.4449-1.9398-1.6816-3.1218-.2367-1.1819-.1148-2.407.3507-3.5205s1.2538-2.0659 2.2659-2.7363z"/></g></svg>