<?xml version="1.0" encoding="iso-8859-1"?>
<!-- Uploaded to: SVG Repo, www.svgrepo.com, Generator: SVG Repo Mixer Tools -->
<!DOCTYPE svg PUBLIC "-//W3C//DTD SVG 1.1//EN" "http://www.w3.org/Graphics/SVG/1.1/DTD/svg11.dtd">
<svg fill="#000000" height="800px" width="800px" version="1.1" id="Capa_1" xmlns="http://www.w3.org/2000/svg" xmlns:xlink="http://www.w3.org/1999/xlink" 
	 viewBox="0 0 187.937 187.937" xml:space="preserve">
<path d="M187.35,31.502c-1.522-5.317-5.48-8.634-7.262-9.229c-0.336-0.111-0.702-0.168-1.089-0.168
	c-4.393,0-20.577,10.658-22.408,11.873c-2.644,1.755-8.029,2.582-13.238,3.383c-5.288,0.813-10.755,1.652-14.359,3.611
	c-10.925,5.938-26.441,22.688-37.771,34.916c-3.762,4.06-7.01,7.566-9.542,10.099c-4.678,4.677-8.54,9.963-12.63,15.559
	c-5.088,6.963-10.351,14.163-17.648,20.755c-4.832,4.364-12.06,7.837-19.137,10.426l-6.79-7.904
	c-0.811-0.943-2.207-1.577-3.475-1.577l-6.453,0.343c-1.007,0.054-1.921,0.537-2.508,1.327c-0.588,0.79-0.788,1.806-0.55,2.787
	l2.432,9.961c-0.944,0.194-1.783,0.352-2.49,0.471c-3.774,0.639-4.163,4.964-4.31,6.592c-0.14,1.558,0.403,2.511,0.884,3.035
	c0.19,0.208,0.412,0.375,0.647,0.521l-8.659,8.576c-0.745,0.737-1.098,1.736-0.968,2.741c0.131,1.005,0.727,1.882,1.632,2.402
	l5.614,3.246c0.651,0.376,1.473,0.583,2.312,0.583c0.597,0,1.177-0.107,1.678-0.313l31.279-12.796l0.15-0.008
	c2.271,0.173,4.316,0.278,5.961,0.278c0.77,0,1.453-0.022,2.033-0.067c14.08-1.082,41.289-14.641,54.932-27.373
	c0.304-0.284,0.646-0.604,1.01-0.948l-12.818,31.36c-0.516,1.263-0.481,2.345,0.104,3.215c0.495,0.737,1.326,1.178,2.222,1.178
	c1.075,0,1.878-0.604,2.389-1.059l10.944-9.748c1.019-0.907,2.308-2.478,2.999-3.65l37.393-63.464
	c14.657-14.58,28.26-28.439,32.872-34.012C188.542,41.403,188.45,35.346,187.35,31.502z M9.741,163.332l0-0.015h0V163.332z
	 M96.154,104.389c-1.785,1.785-9.805-10.935-9.805-10.935c-1.259-1.796,1.461-4.527,2.141-5.295
	c0.172-0.194,3.399-3.833,8.092-8.892l12.347,12.347C103.798,96.745,99.288,101.255,96.154,104.389z M114.95,85.593l-12.532-12.532
	c4.871-5.109,10.399-10.714,15.549-15.496l12.506,12.506C125.409,75.135,120.036,80.507,114.95,85.593z M153.277,47.266
	c0,0-7.253,7.253-16.783,16.783l-12.13-12.13c3.171-2.614,5.944-4.56,7.973-5.396c4.555-1.877,14.869-0.806,20.849-1.165
	C154.6,45.273,153.277,47.266,153.277,47.266z"/>
</svg>