<svg width="29" height="37" viewBox="0 0 29 37" fill="none" xmlns="http://www.w3.org/2000/svg">
<path d="M28.5819 28.4206L19.8164 21.7103C19.3964 21.3887 18.7956 21.4693 18.4749 21.8883L15.5265 25.7403C10.6232 24.038 7.73886 18.9121 8.82821 13.8367L13.651 13.3157C14.1764 13.2587 14.5564 12.7868 14.4994 12.2614L13.313 1.28629C13.2708 0.897063 12.9963 0.572858 12.6196 0.467468C7.74183 -0.897465 2.69706 1.94777 1.33428 6.81788C-0.21198 12.3437 0.175392 18.7969 3.48558 24.6795C6.8013 30.5719 12.1226 34.2458 17.6365 35.7887C22.5143 37.1536 27.5591 34.3084 28.9219 29.4383C29.0273 29.0617 28.8927 28.6587 28.5819 28.4206Z" fill="#5EB3E4"/>
</svg>
