<?xml version="1.0" encoding="utf-8"?><svg fill="none" height="62" viewBox="0 0 64 62" width="64" xmlns="http://www.w3.org/2000/svg" xmlns:xlink="http://www.w3.org/1999/xlink"><clipPath id="a"><path d="m0 0h64v61.2898h-64z"/></clipPath><g clip-path="url(#a)"><g stroke="#fff" stroke-width="4"><path d="m48.0258 58.709v-.001-35.1373c0-.0931.0357-.275.303-.5615 4.8993-3.9565 8.7771-7.8153 11.8593-11.8521.2763-.2525.4527-.2867.5439-.2867h.6804c.2532 0 .3966.0866.4684.1556.0721.0694.1192.1637.1192.2954v47.3866.001c0 .0768-.0151.153-.0445.2241-.0294.071-.0725.1356-.1269.19-.0544.0543-.1189.0975-.19.1269s-.1472.0445-.2241.0445h-.0009-12.8002-.0019c-.0769 0-.1531-.0151-.2242-.0445s-.1356-.0725-.19-.1268c-.0544-.0544-.0976-.119-.127-.1901s-.0446-.1472-.0445-.2241z"/><path d="m25.2694 34.8906.022-.011.0218-.0116c4.3918-2.333 8.6777-4.8199 12.7061-7.5957.0664-.0422.1718-.081.3159-.0862.1533-.0055.2963.0299.3954.0795.0695.0347.2565.2492.2565.5267v30.9157.001c.0001.0769-.0151.153-.0445.2241s-.0726.1357-.127.19c-.0544.0544-.119.0975-.1901.1269-.071.0294-.1472.0445-.2242.0445h-.0018-12.799-.0018c-.077 0-.1531-.0151-.2242-.0445s-.1357-.0725-.1901-.1269c-.0544-.0543-.0976-.1189-.127-.19s-.0446-.1472-.0445-.2242v-.0009-23.2906c0-.2775.187-.4921.2565-.5268z"/><path d="m15.1207 37.6487.036-.0163.0354-.0177c.0447-.0223.1161-.0419.2224-.0334.0716.0058.1427.0234.2056.0478.1161.1101.2107.2283.2751.3372.0668.1131.0776.1747.0791.1821l-.0001 20.5596.0001.0018c0 .0769-.0151.1531-.0445.2242s-.0725.1357-.1269.1901c-.0543.0544-.1189.0975-.19.127-.0711.0294-.1473.0445-.2242.0445h-.0009-12.80021-.0018c-.07697.0001-.15318-.015-.22425-.0444-.0711-.0295-.13571-.0726-.19012-.127s-.09756-.119-.12697-.1901-.04452-.1473-.04445-.2243v-.0018-15.6656c0-.1394.04735-.2867.12118-.3933.06803-.0982.12142-.1142.13398-.1173l.04535-.0114.04477-.0134c4.18726-1.2562 8.49172-2.9243 12.77542-4.8583z"/></g><path d="m48.3402 14.9921 1.3621-10.75773c.1354-1.36207-.817-2.72298-2.1791-2.85954l-10.7577-1.3620718c-1.3621-.1365572-2.723.8170118-2.8596 2.1790818-.1365 1.36208.8171 2.72299 2.1791 2.85954l4.4936.5509c-6.2641 5.84982-20.1533 17.55992-38.53609 23.55092-1.362078.4085-2.0425317 1.906-1.634026 3.2681.408506 1.0889 1.362076 1.7764 2.451036 1.7764.27195 0 .54506 0 .81701-.1366 19.19977-6.27 33.49747-18.252 40.17007-24.65154l-.6804 4.76554c-.1366 1.362.817 2.7229 2.1779 2.8595h.2731c1.3609.1366 2.5864-.817 2.723-2.0425z" fill="#fff"/></g></svg>