<?xml version="1.0" encoding="utf-8"?>
<svg xmlns="http://www.w3.org/2000/svg" xmlns:xlink="http://www.w3.org/1999/xlink" version="1.1" x="0px" y="0px"
	 width="560px" height="559.998px" viewBox="200 0.001 560 559.998" enable-background="new 200 0.001 560 559.998"
	 xml:space="preserve">
<g>
	<path fill="#4eb450" d="M479.999,0.001C325.341,0.001,200,125.343,200,280s126.087,279.999,279.999,279.999
		c153.911,0,279.998-125.341,279.998-279.999C760.676,125.343,634.656,0.001,479.999,0.001z M479.999,532.786
		c-139.253,0-252.854-113.602-252.854-252.854S340.746,27.078,479.999,27.078c139.253,0,252.854,113.601,252.854,252.854
		C732.853,419.186,619.998,532.786,479.999,532.786z M622.916,279.932c0,7.33-5.836,13.166-13.166,13.166H394.968l76.209,76.209
		c5.157,5.157,5.157,13.911,0,19.069c-2.917,2.918-5.836,3.664-9.5,3.664c-3.665,0-6.583-1.493-9.501-3.664l-99.689-98.875
		c-0.746-0.747-1.493-1.493-1.493-2.172l-0.746-0.747c0-0.746-0.747-0.746-0.747-1.492c0-0.747,0-0.747-0.747-1.494
		c0-0.746,0-0.746,0-1.492c0-1.494,0-3.665,0-5.158c0-0.746,0-0.746,0-1.493s0-0.747,0.747-1.493c0-0.747,0.747-0.747,0.747-1.493
		c0,0,0-0.747,0.746-0.747c0.747-0.747,0.747-1.493,1.493-2.172l100.436-100.434c5.157-5.157,13.911-5.157,19.069,0
		c5.157,5.157,5.157,13.911,0,19.07l-77.023,77.837h214.716C617.012,266.021,622.916,272.604,622.916,279.932z"/>
</g>
</svg>
