<svg height="512" viewBox="0 0 128 128" width="512" xmlns="http://www.w3.org/2000/svg"><g id="number"><text fill="#24253a" font-family="MyriadPro-Regular, Myriad Pro" font-size="40" letter-spacing=".002em" transform="translate(53.938 -282.265)">2<tspan x="-10.3" y="228">12</tspan><tspan x="-10.3" y="456">22</tspan><tspan x="-10.3" y="684">32</tspan><tspan x="-10.3" y="912">42</tspan><tspan x="-10.3" y="1140">52</tspan><tspan x="-10.3" y="1368">62</tspan><tspan x="-10.3" y="1596">72</tspan><tspan x="-10.3" y="1824">82</tspan><tspan x="-10.3" y="2052">92</tspan><tspan x="-20.599" y="2280">102</tspan><tspan x="-20.599" y="2508">112</tspan><tspan x="-20.599" y="2736">122</tspan><tspan x="-20.599" y="2964">132</tspan><tspan x="-20.599" y="3192">142</tspan><tspan x="-20.599" y="3420">152</tspan><tspan x="-20.599" y="3648">162</tspan><tspan x="-20.599" y="3876">172</tspan><tspan x="-20.599" y="4104">182</tspan><tspan x="-20.599" y="4332">192</tspan><tspan x="-20.599" y="4560">202</tspan><tspan x="-20.599" y="4788">212</tspan><tspan x="-20.599" y="5016">222</tspan><tspan x="-20.599" y="5244">232</tspan><tspan x="-20.599" y="5472">242</tspan></text></g><g id="icon"><path d="m104.007 63.992a40.007 40.007 0 1 0 -40.007 40.008 40.006 40.006 0 0 0 40.007-40.008zm-61.942 0a21.936 21.936 0 1 1 21.935 21.936 21.951 21.951 0 0 1 -21.936-21.935z" fill="#eeefee"/><path d="m92.751 52.4a30.5 30.5 0 0 1 2.271 11.593 30.818 30.818 0 0 1 -2.254 11.593" fill="none"/><g fill="#ef5261"><path d="m84.73 55.686 15.941-6.53a1.643 1.643 0 0 1 2.166.934 41.111 41.111 0 0 1 .027 27.764 1.635 1.635 0 0 1 -2.153.946l-14.918-6.038c-1.884-.763-2.252-1.665-1.984-2.5a20.573 20.573 0 0 0 .969-6.265 20.313 20.313 0 0 0 -.966-6.229 1.664 1.664 0 0 1 .918-2.082z"/><path d="m43.27 55.686-15.941-6.53a1.643 1.643 0 0 0 -2.166.934 41.111 41.111 0 0 0 -.027 27.764 1.643 1.643 0 0 0 2.164.946l15.967-6.464a1.663 1.663 0 0 0 .926-2.075 20.573 20.573 0 0 1 -.969-6.265 20.313 20.313 0 0 1 .966-6.229 1.664 1.664 0 0 0 -.92-2.081z"/><path d="m72.288 84.7 6.53 15.941a1.643 1.643 0 0 1 -.934 2.166 41.111 41.111 0 0 1 -27.764.027 1.643 1.643 0 0 1 -.943-2.162l6.463-15.963a1.663 1.663 0 0 1 2.075-.926 20.573 20.573 0 0 0 6.265.969 20.313 20.313 0 0 0 6.229-.966 1.664 1.664 0 0 1 2.079.914z"/><path d="m72.288 43.244 6.53-15.944a1.643 1.643 0 0 0 -.934-2.166 41.111 41.111 0 0 0 -27.764-.027 1.635 1.635 0 0 0 -.946 2.153l6.038 14.92c.763 1.884 1.665 2.252 2.5 1.984a20.573 20.573 0 0 1 6.265-.969 20.313 20.313 0 0 1 6.229.966 1.664 1.664 0 0 0 2.082-.917z"/></g></g></svg>