<svg height="60" viewBox="0 0 44 60" width="44" xmlns="http://www.w3.org/2000/svg"><path fill="#f77a00" d="m21.6774194 0c-11.95299363 0-21.6774194 9.7479025-21.6774194 21.7296359 0 14.8697056 19.3991667 36.6993025 20.2251035 37.6213349.7757843.8661338 2.1302503.8646104 2.9046318 0 .8259367-.9220324 20.2251034-22.7516293 20.2251034-37.6213349-.0002338-11.9817334-9.7245427-21.7296359-21.6774193-21.7296359zm0 32.6624226c-6.0138481 0-10.9063395-4.90442-10.9063395-10.9327867 0-6.0283668 4.8926083-10.9326696 10.9063395-10.9326696 6.0137311 0 10.9062225 4.90442 10.9062225 10.9327867 0 6.0283668-4.8924914 10.9326696-10.9062225 10.9326696z" /></svg>