<svg width="348" height="452" viewBox="0 0 348 452" fill="none" xmlns="http://www.w3.org/2000/svg">
<path fill-rule="evenodd" clip-rule="evenodd" d="M174.011 0C254.481 0 319.724 64.4459 319.724 143.96C319.724 207.198 216.425 326.315 174.011 391.552C131.598 326.337 28.3202 207.198 28.3202 143.96C28.3202 64.4459 93.541 0 174.011 0ZM33.7441 408.487H314.256L348 452H0L33.7441 408.487ZM174.011 100.293C206.488 100.293 232.808 126.3 232.808 158.391C232.808 190.482 206.488 216.489 174.011 216.489C141.534 216.489 115.215 190.482 115.215 158.391C115.215 126.3 141.534 100.293 174.011 100.293Z" fill="white"/>
</svg>
