<?xml version="1.0" encoding="utf-8"?>
<!-- Generator: Adobe Illustrator 16.0.0, SVG Export Plug-In . SVG Version: 6.00 Build 0)  -->
<!DOCTYPE svg PUBLIC "-//W3C//DTD SVG 1.1//EN" "http://www.w3.org/Graphics/SVG/1.1/DTD/svg11.dtd">
<svg version="1.1" id="Layer_1" xmlns="http://www.w3.org/2000/svg" xmlns:xlink="http://www.w3.org/1999/xlink" x="0px" y="0px"
	 width="147.135px" height="154.341px" viewBox="0.713 5.659 147.135 154.341" enable-background="new 0.713 5.659 147.135 154.341"
	 xml:space="preserve">
<g>
	<polygon fill="#FFFFFF" points="89.818,9.44 90.747,9.44 90.747,12.349 91.365,12.349 91.365,9.44 92.301,9.44 92.301,8.875 
		89.818,8.875 	"/>
	<polygon fill="#FFFFFF" points="94.111,10.847 93.092,8.874 92.465,8.874 92.465,12.349 93.092,12.349 93.092,10.079 
		93.828,11.536 94.404,11.536 95.129,10.079 95.129,12.349 95.762,12.349 95.762,8.874 95.129,8.874 	"/>
	<path fill="#FFFFFF" d="M69.281,31.176c-0.75-2.157-3.499-3.45-5.962-3.534c1.076-0.691,2.077-1.425,2.058-1.419
		c0.356,0.836,2.47,2.851,7.368,1.502c-1.574-3.084-5.594-2.701-5.637-2.683c0.967-0.718,1.25-0.971,2.001-1.558
		c0.074,0.04,2.35,3.207,6.32,1.003c-1.202-1.825-2.964-2.8-4.784-2.31c0.537-0.53,0.992-0.913,1.441-1.416
		c-0.178,0.456,2.953,2.104,5.708-0.03c-1.322-1.281-2.764-1.594-4.324-1.5c0.316-0.451,0.401-0.418,0.824-0.976
		c0,0,2.458,1.841,4.785-0.442c-1.893-1.412-4.085-0.513-4.095-0.513l0.9-1.383c0.396,0.526,3.053,1.031,3.979-0.751
		c-0.772-0.741-3.15-0.489-3.398-0.312c0.076-0.064,0.29-0.575,0.436-0.85c4.914,0.601,3.225-5.121,2.123-8.345
		c-18.516,28.176-43.129,8.243-73.23,25.956c-1.4,3.662-1.918,7.485-1.547,11.466c0.039,0.392,0.039,0.701,0.196,1.582
		c-0.062,0.271,0.334,2.457,1.133,4.873c0.596,1.728,1.265,2.891,2.005,4.668c0.435-0.332,0.937-0.711,1.276-1.006
		C7.514,51.291,2.986,39.685,8.61,32.917c5.33-0.092,5.934,15.186,5.04,16.803c0.04-0.003,2.486-1.645,3.429-2.229
		c-1.143-0.456-5.175-13.73,1.561-19.247c0,0,6.01,2.305,3.511,16.306c1.022-0.668,2.456-1.28,3.867-2.001
		c-0.767-1.336-4.873-11.359,1.701-16.589c3.537,1.452,3.358,12.402,1.972,14.795c1.128-0.529,2.352-1.167,3.489-1.686
		c-2.077-0.957-1.917-11.263,1.587-14.07c3.891,3.667,2.944,9.826,1.971,12.525c0,0,2.942-1.223,2.923-1.219
		c-2.32-4.379-1.24-9.681,1.239-11.772c1.904,1.225,2.424,4.754,1.556,10.598c0.83-0.335,1.307-0.577,2.11-0.88
		c-0.502-0.96-1.841-6.934,1.584-10.149c3.062,1.462,1.976,8.103,1.748,8.774c0.03-0.046,1.796-0.699,1.771-0.753
		c-0.604-1.29-1.024-6.2,1.796-8.569c1.123,0.803,2.309,3.039,1.245,7.269c0.652-0.318,1.358-0.599,2.031-0.908
		c-0.958-1.069-0.269-5.382,1.184-7.102c1.719,0.761,2.461,4.489,1.841,5.732c0.428-0.218,0.983-0.49,1.69-0.889
		c-0.554-0.874-0.732-4.892,0.96-5.988c1.657,1.145,1.485,4.082,1.425,4.738c0.476-0.305,1.863-1.017,1.831-1.039
		c-0.92-0.82-1.355-3.514,0.612-5.139c1.706,0.38,1.741,3.58,1.591,3.787c0.668-0.436,1.722-1.203,2.262-1.602
		c-1.562-0.336-1.379-2.861-0.532-3.982c1.037,0.214,1.768,0.848,2.111,2.704c0.403-0.37,1.352-1.143,1.644-1.49
		c-0.945-0.072-2.126-2.136-0.67-3.495c0.439,0.184,1.795,0.758,1.924,2.217c0.194-0.138,0.911-1.039,1.023-1.202
		c-0.658-0.238-1.38-2.219-0.707-3.08c0.896-0.081,1.696,1.132,1.829,1.647l0.871-1.278c-0.504-0.411-1.543-1.601-0.624-2.644
		c1.005,0.052,1.364,0.813,1.587,1.537C66.416,33.353,25.256,36.788,3.776,60.857c0,0-2.231,2.337-2.231,3.46l-0.01,8.12H1.98
		c1.085-3.052,4.558-10.825,11.548-16.494c0.14-0.169,3.032,11.496,19.121,9.5c-3.15-7.6-12.989-12.569-15.261-12.708
		c0.435-0.334,3.268-2.446,3.722-2.702c-0.614,2.053,8.621,10.629,15.764,8.254c-1.903-5.81-9.75-10.722-11.776-10.8
		c0.847-0.437,1.699-1.108,2.583-1.533c-0.463,1.112,6.321,7.751,13.579,7.217c0.071-3.445-7.788-10.025-9.304-9.503
		c0.724-0.382,1.832-1.034,2.168-1.204c1.034,2.378,7.729,7.446,12.337,6.618c-3.768-7.987-8.573-8.464-8.621-8.467
		c1.28-0.604,2.033-0.995,2.259-1.092c0.013,2.143,6.616,6.976,11.217,5.845c-0.932-3.557-4.557-7.021-8.12-7.354
		c0.845-0.396,1.789-0.842,2.435-1.157c-0.376,0.675,5.2,5.327,10.482,5.037c-2.554-6.19-6.046-6.323-7.298-6.558
		c0.705-0.318,1.475-0.748,2.227-1.14c0.299,0.792,3.179,4.876,10.131,3.843c-1.751-3.771-5.427-5.031-7.351-5.163
		c0.992-0.587,1.728-0.834,2.449-1.233c0.49,0.574,2.223,4.253,9.286,2.911c-1.495-3.577-4.737-4.425-6.002-4.674
		c0.595-0.368,1.306-0.748,1.776-1.025C61.803,29.677,65.401,32.253,69.281,31.176"/>
	<path fill="#FFFFFF" d="M16.192,86.441c0-5.213-2.842-7.999-7.741-7.999c-4.899,0-7.738,2.786-7.738,7.999
		c0,4.354,2.004,7.039,5.523,7.768c0.548,3.336,2.684,5.004,7.141,5.057l0.964-4.562c-0.338,0.105-0.86,0.209-1.563,0.209
		c-1.016,0-2.058-0.286-2.45-0.832C13.923,93.505,16.192,90.848,16.192,86.441 M8.451,89.962c-1.616,0-2.163-1.276-2.163-3.521
		c0-2.267,0.547-3.543,2.163-3.543c1.616,0,2.164,1.276,2.164,3.543C10.615,88.686,10.067,89.962,8.451,89.962"/>
	<path fill="#FFFFFF" d="M24.292,78.756v9.406c0,4.744,3.023,6.255,7.062,6.255c4.04,0,7.063-1.511,7.063-6.255v-9.406h-5.343v8.859
		c0,1.226-0.26,2.449-1.72,2.449c-1.459,0-1.721-1.225-1.721-2.449v-8.859H24.292z"/>
	<path fill="#FFFFFF" d="M50.083,78.754l-5.031,15.352h5.317l0.625-2.086h5.055l0.679,2.086h5.523l-5.054-15.352H50.083z
		 M52.194,88.033l0.548-2.109c0.442-1.671,0.677-2.998,0.677-2.998h0.103c0,0,0.313,1.327,0.757,2.998l0.546,2.109H52.194z"/>
	<polygon fill="#FFFFFF" points="69.832,78.756 69.832,94.104 80.516,94.104 80.516,89.52 75.174,89.52 75.174,78.756 	"/>
	<path fill="#FFFFFF" d="M10.491,109.975c-0.704,1.276-0.886,1.982-0.886,1.982H9.501c0,0-0.209-0.706-0.886-1.982L5.2,103.512H2.15
		v15.35h2.79v-8.233c0-1.801-0.157-2.71-0.157-2.71h0.104c0,0,0.312,1.016,1.173,2.553l2.632,4.717h1.616l2.632-4.717
		c0.86-1.537,1.146-2.553,1.146-2.553h0.104c0,0-0.128,0.909-0.128,2.71v8.233h2.788v-15.35h-2.972L10.491,109.975z"/>
	<path fill="#FFFFFF" d="M30.402,103.512l-5.577,15.35h2.893l1.356-3.856h6.123l1.356,3.856h2.997l-5.576-15.35H30.402z
		 M29.855,112.686l1.016-2.894c0.835-2.423,1.2-4.117,1.2-4.117h0.104c0,0,0.338,1.722,1.198,4.146l0.99,2.865H29.855z"/>
	<path fill="#FFFFFF" d="M58.14,114.273c-0.417-1.562-1.198-2.189-2.632-2.396v-0.053c1.954-0.156,3.491-1.436,3.491-3.831
		c0-3.075-1.875-4.482-5.368-4.482h-5.55v15.349h2.788v-5.967h1.876c1.381,0,2.188,0.313,2.606,1.953l0.599,2.528
		c0.13,0.627,0.312,1.095,0.729,1.485h3.05c-0.417-0.494-0.652-1.017-0.808-1.617L58.14,114.273z M53.5,110.6h-2.632v-4.742H53.5
		c1.771,0,2.606,0.861,2.606,2.373C56.106,109.869,55.246,110.6,53.5,110.6"/>
	<polygon fill="#FFFFFF" points="80.646,103.512 77.414,103.512 73.141,109.869 71.994,109.869 71.994,103.512 69.206,103.512 
		69.206,118.859 71.994,118.859 71.994,112.268 73.088,112.268 77.678,118.859 81.064,118.859 75.46,110.964 	"/>
	<rect x="2.153" y="127.848" fill="#C69723" width="79.226" height="14.918"/>
	<path fill="#FFFFFF" d="M103.689,128.604c3.264-8.377,11.41-14.332,20.93-14.332c9.518,0,17.667,5.955,20.929,14.332h0.879
		c-3.304-8.838-11.831-15.15-21.808-15.15c-9.977,0-18.505,6.312-21.807,15.15H103.689z"/>
	<path fill="#FFFFFF" d="M144.918,146.318c-3.605,7.597-11.348,12.863-20.299,12.863s-16.695-5.268-20.301-12.863h-0.895
		c3.664,8.06,11.783,13.682,21.195,13.682c9.411,0,17.532-5.622,21.194-13.682H144.918z"/>
	<path fill="#FFFFFF" d="M116.18,133.043c0.159,0.741,0.249,1.477,0.249,1.477h0.034c0,0,0.072-0.742,0.223-1.467l0.582-2.871h1.219
		l-1.139,5.201h-1.751l-0.59-2.57c-0.169-0.733-0.203-1.455-0.203-1.455h-0.035c0,0-0.045,0.722-0.221,1.465l-0.619,2.562h-1.688
		l-1.146-5.2h1.271l0.601,2.86c0.159,0.741,0.238,1.476,0.238,1.476h0.035c0,0,0.079-0.742,0.23-1.466l0.636-2.87h1.43
		L116.18,133.043z"/>
	<path fill="#FFFFFF" d="M123.207,134.297h-1.969l-0.372,1.086h-1.253l1.88-5.203h1.485l1.897,5.203h-1.289L123.207,134.297z
		 M121.574,133.3h1.281l-0.215-0.585c-0.302-0.855-0.406-1.482-0.406-1.482h-0.035c0,0-0.131,0.637-0.422,1.476L121.574,133.3z"/>
	<path fill="#FFFFFF" d="M129.646,135.383c-0.158-0.122-0.221-0.316-0.273-0.537l-0.195-0.779c-0.104-0.441-0.307-0.521-0.705-0.521
		h-0.512v1.837h-1.203v-5.201h2.051c1.168,0,1.892,0.422,1.892,1.588c0,0.806-0.468,1.238-1.142,1.31v0.019
		c0.479,0.078,0.734,0.282,0.865,0.76l0.268,0.972c0.052,0.204,0.123,0.38,0.291,0.556h-1.336V135.383z M127.961,132.557h0.77
		c0.478,0,0.74-0.187,0.74-0.68c0-0.439-0.248-0.682-0.74-0.682h-0.77V132.557z"/>
	<path fill="#FFFFFF" d="M135.273,134.184l-0.715-1.192c-0.275-0.435-0.398-0.796-0.398-0.796h-0.035c0,0,0.053,0.291,0.053,0.884
		v2.305h-1.201v-5.202h1.219l0.98,1.758c0.301,0.513,0.373,0.761,0.373,0.761h0.031c0,0,0.083-0.248,0.373-0.761l0.99-1.758h1.203
		v5.202h-1.195v-2.305c0-0.593,0.045-0.884,0.045-0.884h-0.035c0,0-0.123,0.361-0.391,0.796l-0.721,1.192H135.273z"/>
	<path fill="#FFFFFF" d="M107.021,141.247c0.156,0.742,0.246,1.474,0.246,1.474h0.036c0,0,0.071-0.74,0.222-1.465l0.583-2.872h1.218
		l-1.141,5.205h-1.747l-0.591-2.571c-0.17-0.733-0.207-1.459-0.207-1.459h-0.033c0,0-0.046,0.726-0.223,1.467l-0.617,2.563h-1.688
		l-1.148-5.205h1.271l0.601,2.863c0.161,0.742,0.24,1.474,0.24,1.474h0.036c0,0,0.08-0.74,0.229-1.465l0.637-2.872h1.432
		L107.021,141.247z"/>
	<polygon fill="#FFFFFF" points="114.906,143.589 111.418,143.589 111.418,138.384 114.906,138.384 114.906,139.425 112.62,139.425 
		112.62,140.459 114.633,140.459 114.633,141.459 112.62,141.459 112.62,142.545 114.906,142.545 	"/>
	<polygon fill="#FFFFFF" points="118.809,138.384 118.809,142.545 120.838,142.545 120.838,143.589 117.605,143.589 
		117.605,138.384 	"/>
	<path fill="#FFFFFF" d="M127.064,142.501c-0.469,0.804-1.078,1.194-2.234,1.194c-1.412,0-2.387-0.982-2.387-2.713
		c0-1.733,0.953-2.703,2.545-2.703c1.07,0,1.74,0.484,2.121,1.314l-1.156,0.565c-0.161-0.513-0.443-0.823-1.01-0.823
		c-0.785,0-1.264,0.629-1.264,1.672c0,1.023,0.426,1.625,1.282,1.625c0.479,0,0.858-0.238,1.086-0.74L127.064,142.501z"/>
	<path fill="#FFFFFF" d="M128.945,140.991c0-1.751,0.928-2.712,2.463-2.712c1.541,0,2.475,0.961,2.475,2.712
		c0,1.739-0.934,2.702-2.475,2.702C129.873,143.693,128.945,142.73,128.945,140.991 M130.191,141.009
		c0,1.023,0.397,1.652,1.217,1.652c0.826,0,1.23-0.629,1.23-1.652c0-1.034-0.404-1.661-1.23-1.661
		C130.598,139.348,130.191,139.975,130.191,141.009"/>
	<path fill="#FFFFFF" d="M138.367,142.385l-0.715-1.191c-0.276-0.434-0.398-0.793-0.398-0.793h-0.037c0,0,0.057,0.289,0.057,0.884
		v2.306h-1.203v-5.205h1.22l0.979,1.758c0.301,0.514,0.373,0.76,0.373,0.76h0.031c0,0,0.084-0.246,0.373-0.76l0.99-1.758h1.201
		v5.205h-1.193v-2.306c0-0.595,0.045-0.884,0.045-0.884h-0.035c0,0-0.123,0.359-0.39,0.793l-0.724,1.191H138.367z"/>
	<polygon fill="#FFFFFF" points="147.307,143.589 143.816,143.589 143.816,138.384 147.307,138.384 147.307,139.425 
		145.018,139.425 145.018,140.459 147.031,140.459 147.031,141.459 145.018,141.459 145.018,142.545 147.307,142.545 	"/>
	<rect x="101.404" y="132.65" fill="#FFFFFF" width="6.355" height="0.705"/>
	<rect x="141.479" y="132.65" fill="#FFFFFF" width="6.357" height="0.705"/>
	<path fill="#FFFFFF" d="M103.689,75.002c3.264-8.377,11.41-14.333,20.93-14.333c9.518,0,17.667,5.956,20.929,14.333h0.879
		c-3.304-8.839-11.831-15.149-21.808-15.149c-9.977,0-18.505,6.311-21.807,15.149H103.689z"/>
	<path fill="#FFFFFF" d="M144.918,92.719c-3.605,7.596-11.348,12.863-20.299,12.863s-16.695-5.268-20.301-12.863h-0.895
		c3.664,8.061,11.783,13.68,21.195,13.68c9.411,0,17.532-5.619,21.194-13.68H144.918z"/>
	<path fill="#FFFFFF" d="M113.742,80.13c0.097,0.515,0.477,0.841,0.971,0.841c0.396,0,0.69-0.158,0.69-0.513
		c0-0.336-0.187-0.494-0.866-0.708c-1.191-0.38-1.689-0.829-1.689-1.721c0-1.174,0.92-1.563,1.83-1.563
		c1.068,0,1.865,0.361,1.972,1.351l-1.194,0.3c-0.045-0.459-0.387-0.663-0.752-0.663c-0.336,0-0.599,0.15-0.599,0.487
		c0,0.362,0.284,0.504,0.893,0.689c1.093,0.345,1.652,0.716,1.652,1.712c0,1.133-0.922,1.545-2.022,1.545
		c-1.026,0-1.717-0.332-1.98-1.271L113.742,80.13z"/>
	<path fill="#FFFFFF" d="M122.568,80.699h-1.971l-0.371,1.084h-1.256l1.881-5.203h1.485l1.897,5.203h-1.287L122.568,80.699z
		 M120.936,79.699h1.277l-0.211-0.583c-0.301-0.856-0.406-1.483-0.406-1.483h-0.035c0,0-0.131,0.637-0.424,1.474L120.936,79.699z"/>
	<polygon fill="#FFFFFF" points="126.898,81.784 126.898,76.58 130.293,76.58 130.293,77.622 128.104,77.622 128.104,78.868 
		130.02,78.868 130.02,79.867 128.104,79.867 128.104,81.784 	"/>
	<polygon fill="#FFFFFF" points="136.592,81.784 133.102,81.784 133.102,76.58 136.592,76.58 136.592,77.622 134.303,77.622 
		134.303,78.656 136.316,78.656 136.316,79.655 134.303,79.655 134.303,80.739 136.592,80.739 	"/>
	<path fill="#FFFFFF" d="M106.479,90.109l-0.609-0.58c-0.47,0.387-0.988,0.562-1.775,0.562c-0.857,0-1.723-0.387-1.723-1.395
		c0-0.61,0.373-1.168,1.201-1.37l-0.283-0.283c-0.317-0.299-0.514-0.66-0.514-1.088c0-0.854,0.734-1.276,1.671-1.276
		c0.894,0,1.59,0.432,1.59,1.262c0,0.645-0.511,1.009-1.131,1.14l1.015,0.974c0.116-0.195,0.188-0.486,0.206-0.777l0.962,0.344
		c-0.062,0.406-0.273,0.85-0.477,1.086l0.715,0.645L106.479,90.109z M104.314,89.227c0.381,0,0.67-0.098,0.891-0.345l-1.184-1.137
		c-0.281,0.192-0.475,0.405-0.475,0.812C103.547,88.964,103.846,89.227,104.314,89.227 M103.979,85.896
		c0,0.205,0.088,0.328,0.229,0.479l0.317,0.336c0.275-0.202,0.425-0.471,0.425-0.754c0-0.298-0.187-0.482-0.511-0.482
		C104.156,85.475,103.979,85.65,103.979,85.896"/>
	<path fill="#FFFFFF" d="M112.293,88.335c0.1,0.515,0.476,0.842,0.971,0.842c0.399,0,0.689-0.161,0.689-0.514
		c0-0.337-0.186-0.493-0.863-0.708c-1.195-0.38-1.689-0.829-1.689-1.721c0-1.176,0.919-1.566,1.83-1.566
		c1.068,0,1.863,0.361,1.969,1.354l-1.193,0.301c-0.043-0.457-0.389-0.662-0.751-0.662c-0.335,0-0.599,0.148-0.599,0.484
		c0,0.362,0.281,0.504,0.893,0.69c1.094,0.343,1.65,0.716,1.65,1.713c0,1.132-0.918,1.545-2.021,1.545
		c-1.025,0-1.715-0.333-1.98-1.271L112.293,88.335z"/>
	<path fill="#FFFFFF" d="M118.512,87.391c0-1.75,0.928-2.713,2.465-2.713s2.474,0.963,2.474,2.713c0,1.74-0.937,2.705-2.474,2.705
		S118.512,89.131,118.512,87.391 M119.758,87.407c0,1.024,0.396,1.655,1.219,1.655c0.823,0,1.228-0.631,1.228-1.655
		c0-1.034-0.404-1.659-1.228-1.659C120.164,85.748,119.758,86.373,119.758,87.407"/>
	<path fill="#FFFFFF" d="M130.93,84.783v3.464c0,1.403-0.99,1.846-2.147,1.846c-1.15,0-2.146-0.44-2.146-1.846v-3.464h1.201v3.129
		c0,0.742,0.193,1.184,0.943,1.184c0.76,0,0.955-0.441,0.955-1.191v-3.12L130.93,84.783L130.93,84.783z"/>
	<path fill="#FFFFFF" d="M137.361,87.301c0.291,0.398,0.432,0.699,0.432,0.699h0.039c0,0-0.029-0.441-0.029-1.105v-2.11h1.203v5.204
		h-1.095l-1.841-2.475c-0.334-0.441-0.494-0.769-0.494-0.769h-0.034c0,0,0.052,0.425,0.052,1.176v2.065h-1.199v-5.203h1.131
		L137.361,87.301z"/>
	<path fill="#FFFFFF" d="M142.414,89.986v-5.203h1.916c1.439,0,2.535,0.717,2.535,2.545c0,1.928-1.123,2.658-2.614,2.658H142.414z
		 M144.137,88.973c0.926,0,1.475-0.389,1.475-1.572c0-1.236-0.549-1.6-1.403-1.6h-0.592v3.172H144.137z"/>
	<rect x="101.404" y="79.05" fill="#FFFFFF" width="6.355" height="0.704"/>
	<rect x="141.479" y="79.05" fill="#FFFFFF" width="6.357" height="0.704"/>
	<path fill="#FFFFFF" d="M103.689,20.812c3.264-8.378,11.412-14.334,20.93-14.334c9.518,0,17.666,5.957,20.931,14.334h0.877
		c-3.305-8.839-11.831-15.151-21.808-15.151c-9.977,0-18.505,6.312-21.807,15.151H103.689z"/>
	<path fill="#FFFFFF" d="M144.918,38.528c-3.605,7.595-11.348,12.861-20.299,12.861s-16.695-5.266-20.301-12.861h-0.895
		c3.664,8.058,11.783,13.678,21.195,13.678c9.411,0,17.532-5.62,21.194-13.678H144.918z"/>
	<polygon fill="#FFFFFF" points="113.779,22.386 113.779,26.548 115.814,26.548 115.814,27.589 112.58,27.589 112.58,22.386 	"/>
	<rect x="117.506" y="22.386" fill="#FFFFFF" width="1.202" height="5.204"/>
	<path fill="#FFFFFF" d="M124.941,24.817v2.772h-0.743l-0.196-0.583c-0.266,0.47-0.793,0.691-1.43,0.691
		c-1.352,0-2.324-0.858-2.324-2.688c0-1.738,0.953-2.729,2.545-2.729c1.043,0,1.775,0.485,2.12,1.317l-1.157,0.565
		c-0.168-0.549-0.521-0.822-1.008-0.822c-0.557,0-1.264,0.379-1.264,1.688c0,0.934,0.346,1.687,1.283,1.687
		c0.694,0,1.022-0.327,1.022-0.769v-0.176h-1.097v-0.955L124.941,24.817L124.941,24.817z"/>
	<polygon fill="#FFFFFF" points="126.803,27.589 126.803,22.388 128.004,22.388 128.004,24.426 130.002,24.426 130.002,22.388 
		131.201,22.388 131.201,27.589 130.002,27.589 130.002,25.47 128.004,25.47 128.004,27.589 	"/>
	<polygon fill="#FFFFFF" points="134.025,27.589 134.025,23.429 132.602,23.429 132.602,22.388 136.658,22.388 136.658,23.429 
		135.211,23.429 135.211,27.589 	"/>
	<polygon fill="#FFFFFF" points="101.445,35.795 101.445,30.59 104.84,30.59 104.84,31.631 102.648,31.631 102.648,32.878 
		104.564,32.878 104.564,33.878 102.648,33.878 102.648,35.795 	"/>
	<path fill="#FFFFFF" d="M106.17,33.196c0-1.749,0.928-2.711,2.465-2.711c1.537,0,2.475,0.962,2.475,2.711
		c0,1.74-0.938,2.704-2.475,2.704C107.098,35.9,106.17,34.937,106.17,33.196 M107.416,33.215c0,1.023,0.396,1.65,1.219,1.65
		c0.823,0,1.229-0.627,1.229-1.65c0-1.035-0.407-1.663-1.229-1.663C107.82,31.552,107.416,32.181,107.416,33.215"/>
	<path fill="#FFFFFF" d="M112.342,33.196c0-1.749,0.928-2.711,2.465-2.711c1.537,0,2.475,0.962,2.475,2.711
		c0,1.74-0.938,2.704-2.475,2.704C113.27,35.9,112.342,34.937,112.342,33.196 M113.587,33.215c0,1.023,0.399,1.65,1.22,1.65
		c0.824,0,1.229-0.627,1.229-1.65c0-1.035-0.404-1.663-1.229-1.663C113.994,31.552,113.587,32.181,113.587,33.215"/>
	<polygon fill="#FFFFFF" points="119.766,35.795 119.766,31.631 118.344,31.631 118.344,30.59 122.398,30.59 122.398,31.631 
		120.949,31.631 120.949,35.795 	"/>
	<path fill="#FFFFFF" d="M123.891,35.793V30.59h1.855c1.336,0,1.889,0.61,1.889,1.758c0,1.105-0.65,1.768-1.775,1.768h-0.767v1.677
		H123.891z M125.093,33.134h0.618c0.521,0,0.732-0.255,0.732-0.742c0-0.537-0.232-0.794-0.732-0.794h-0.618V33.134z"/>
	<path fill="#FFFFFF" d="M131.947,35.795c-0.158-0.125-0.221-0.32-0.274-0.541l-0.194-0.777c-0.104-0.442-0.309-0.52-0.707-0.52
		h-0.512v1.837h-1.203V30.59h2.053c1.166,0,1.891,0.423,1.891,1.59c0,0.805-0.468,1.236-1.143,1.307v0.019
		c0.479,0.079,0.736,0.281,0.867,0.758l0.267,0.972c0.053,0.204,0.125,0.38,0.291,0.558L131.947,35.795L131.947,35.795z
		 M130.26,32.966h0.77c0.479,0,0.742-0.185,0.742-0.68c0-0.44-0.248-0.679-0.742-0.679h-0.77V32.966z"/>
	<rect x="134.816" y="30.59" fill="#FFFFFF" width="1.201" height="5.203"/>
	<path fill="#FFFFFF" d="M140.771,33.108c0.289,0.397,0.431,0.7,0.431,0.7h0.039c0,0-0.029-0.442-0.029-1.105V30.59h1.201v5.205
		h-1.093l-1.842-2.475c-0.334-0.442-0.494-0.769-0.494-0.769h-0.034c0,0,0.053,0.423,0.053,1.174v2.069h-1.201V30.59h1.132
		L140.771,33.108z"/>
	<polygon fill="#FFFFFF" points="145.215,35.795 145.215,31.631 143.792,31.631 143.792,30.59 147.848,30.59 147.848,31.631 
		146.398,31.631 146.398,35.795 	"/>
	<rect x="101.4" y="24.858" fill="#FFFFFF" width="6.359" height="0.703"/>
	<rect x="141.479" y="24.858" fill="#FFFFFF" width="6.357" height="0.703"/>
	<path fill="#FFFFFF" d="M14.132,135.167v4.382H13.08l-0.173-1.096c-0.345,0.835-1.354,1.268-2.333,1.268
		c-2.176,0-3.689-1.511-3.689-4.378c0-2.84,1.601-4.452,3.962-4.452c1.615,0,2.651,0.676,3.184,2.045l-1.239,0.604
		c-0.346-1.023-1.094-1.512-2.018-1.512c-1.483,0-2.505,1.168-2.505,3.314c0,1.916,0.778,3.283,2.435,3.283
		c1.137,0,2.116-0.534,2.116-1.672v-0.633h-2.059v-1.154L14.132,135.167L14.132,135.167z"/>
	<path fill="#FFFFFF" d="M19.995,135.312c0-2.842,1.498-4.424,3.831-4.424s3.819,1.582,3.819,4.424c0,2.822-1.486,4.41-3.819,4.41
		S19.995,138.136,19.995,135.312 M21.391,135.312c0,2.031,0.837,3.256,2.435,3.256c1.6,0,2.421-1.225,2.421-3.256
		c0-2.018-0.837-3.256-2.421-3.256C22.228,132.057,21.391,133.296,21.391,135.312"/>
	<polygon fill="#FFFFFF" points="35.119,131.062 35.119,138.396 38.922,138.396 38.922,139.549 33.792,139.549 33.792,131.062 	"/>
	<path fill="#FFFFFF" d="M44.756,139.549v-8.486h2.637c2.376,0,4.091,1.166,4.091,4.149c0,3.142-1.873,4.337-4.135,4.337H44.756z
		 M47.219,138.438c1.672,0,2.868-0.893,2.868-3.17c0-2.375-1.24-3.096-2.738-3.096h-1.268v6.266H47.219L47.219,138.438z"/>
	<polygon fill="#FFFFFF" points="7.112,149.12 5.94,152.727 2.153,152.727 5.218,154.953 4.042,158.561 7.112,156.336 
		10.178,158.561 9.009,154.953 12.075,152.727 8.288,152.727 	"/>
	<polygon fill="#FFFFFF" points="24.44,149.12 23.268,152.727 19.481,152.727 22.543,154.953 21.375,158.561 24.44,156.336 
		27.51,158.561 26.334,154.953 29.399,152.727 25.612,152.727 	"/>
	<polygon fill="#FFFFFF" points="41.769,149.12 40.593,152.727 36.806,152.727 39.871,154.953 38.699,158.561 41.769,156.336 
		44.834,158.561 43.662,154.953 46.728,152.727 42.94,152.727 	"/>
	<polygon fill="#FFFFFF" points="59.091,149.12 57.918,152.727 54.132,152.727 57.198,154.953 56.025,158.561 59.091,156.336 
		62.161,158.561 60.988,154.953 64.054,152.727 60.267,152.727 	"/>
	<polygon fill="#FFFFFF" points="76.42,149.12 75.246,152.727 71.46,152.727 74.526,154.953 73.35,158.561 76.42,156.336 
		79.486,158.561 78.316,154.953 81.379,152.727 77.59,152.727 	"/>
	<polygon fill="#FFFFFF" points="7.112,149.12 5.94,152.727 2.153,152.727 5.218,154.953 4.042,158.561 7.112,156.336 
		10.178,158.561 9.009,154.953 12.075,152.727 8.288,152.727 	"/>
	<polygon fill="#FFFFFF" points="24.44,149.12 23.268,152.727 19.481,152.727 22.543,154.953 21.375,158.561 24.44,156.336 
		27.51,158.561 26.334,154.953 29.399,152.727 25.612,152.727 	"/>
	<polygon fill="#FFFFFF" points="41.769,149.12 40.593,152.727 36.806,152.727 39.871,154.953 38.699,158.561 41.769,156.336 
		44.834,158.561 43.662,154.953 46.728,152.727 42.94,152.727 	"/>
	<polygon fill="#FFFFFF" points="59.091,149.12 57.918,152.727 54.132,152.727 57.198,154.953 56.025,158.561 59.091,156.336 
		62.161,158.561 60.988,154.953 64.054,152.727 60.267,152.727 	"/>
	<polygon fill="#FFFFFF" points="7.112,149.12 5.94,152.727 2.153,152.727 5.218,154.953 4.042,158.561 7.112,156.336 
		10.178,158.561 9.009,154.953 12.075,152.727 8.288,152.727 	"/>
	<polygon fill="#FFFFFF" points="24.44,149.12 23.268,152.727 19.481,152.727 22.543,154.953 21.375,158.561 24.44,156.336 
		27.51,158.561 26.334,154.953 29.399,152.727 25.612,152.727 	"/>
	<polygon fill="#FFFFFF" points="41.769,149.12 40.593,152.727 36.806,152.727 39.871,154.953 38.699,158.561 41.769,156.336 
		44.834,158.561 43.662,154.953 46.728,152.727 42.94,152.727 	"/>
	<polygon fill="#FFFFFF" points="7.112,149.12 5.94,152.727 2.153,152.727 5.218,154.953 4.042,158.561 7.112,156.336 
		10.178,158.561 9.009,154.953 12.075,152.727 8.288,152.727 	"/>
	<polygon fill="#FFFFFF" points="24.44,149.12 23.268,152.727 19.481,152.727 22.543,154.953 21.375,158.561 24.44,156.336 
		27.51,158.561 26.334,154.953 29.399,152.727 25.612,152.727 	"/>
	<polygon fill="#FFFFFF" points="7.112,149.12 5.94,152.727 2.153,152.727 5.218,154.953 4.042,158.561 7.112,156.336 
		10.178,158.561 9.009,154.953 12.075,152.727 8.288,152.727 	"/>
</g>
</svg>
