<?xml version="1.0" encoding="utf-8"?>
<!-- Generator: Adobe Illustrator 16.0.0, SVG Export Plug-In . SVG Version: 6.00 Build 0)  -->
<!DOCTYPE svg PUBLIC "-//W3C//DTD SVG 1.1//EN" "http://www.w3.org/Graphics/SVG/1.1/DTD/svg11.dtd">
<svg version="1.1" id="Capa_1" xmlns="http://www.w3.org/2000/svg" xmlns:xlink="http://www.w3.org/1999/xlink" x="0px" y="0px"
	 width="559.322px" height="560px" viewBox="200.339 0 559.322 560" enable-background="new 200.339 0 559.322 560"
	 xml:space="preserve">
<g>
	<path fill="#4eb450" d="M480,0C325.529,0,200.339,125.19,200.339,279.661C200.339,434.132,325.529,560,480,560
		c154.471,0,279.661-125.189,279.661-279.661C759.661,125.868,634.471,0,480,0z M480,532.888
		c-139.085,0-252.549-113.464-252.549-252.549S340.915,27.044,480,27.044c139.085,0,252.549,113.464,252.549,252.549
		C732.549,418.679,619.085,532.888,480,532.888z M610.273,286.168c0,0,0,0.746-0.746,0.746c-0.745,0.746-0.745,1.491-1.491,2.17
		L507.044,390.075c-2.914,2.914-5.829,3.66-9.488,3.66c-3.66,0-6.575-1.491-9.489-3.66c-5.151-5.151-5.151-13.895,0-19.047
		l77.608-77.608H351.149c-7.32,0-13.15-5.829-13.15-13.149c0-7.321,5.83-13.15,13.15-13.15h214.457l-76.796-76.795
		c-5.15-5.151-5.15-13.895,0-19.047c5.151-5.151,13.895-5.151,19.047,0l99.502,99.569c0.745,0.746,1.491,1.491,1.491,2.169
		l0.745,0.746c0,0.746,0.746,0.746,0.746,1.491s0,0.746,0.746,1.492c0,0.746,0,0.746,0,1.491c0,1.491,0,3.659,0,5.151
		c0,0.746,0,0.746,0,1.491C611.02,285.49,611.02,285.49,610.273,286.168C610.273,285.49,610.273,286.168,610.273,286.168z"/>
</g>
</svg>
