<svg width="92" height="70" viewBox="0 0 92 70" fill="none" xmlns="http://www.w3.org/2000/svg">
<path d="M84.5827 31.2907C86.626 29.2348 89.9304 29.2215 91.9868 31.2597L54.7685 68.7889H54.7641C53.8106 69.7415 52.4088 70.2156 50.9939 69.901C48.7881 69.4092 47.3995 67.2071 47.8873 64.9872C48.375 62.763 50.5589 61.3628 52.7648 61.8546C53.1603 61.9432 53.5162 62.1027 53.8501 62.2888L84.5827 31.2951V31.2907ZM84.5959 16.4163L53.8589 47.4101C53.5206 47.224 53.1646 47.0645 52.7735 46.9758C50.5677 46.484 48.3882 47.8886 47.9005 50.1085C47.4127 52.3283 48.8057 54.5305 51.0071 55.0223C52.422 55.3369 53.8194 54.8672 54.7773 53.9057V53.9146L92 16.3853C89.9435 14.3427 86.6391 14.356 84.5959 16.4163ZM51.0027 40.1612C52.4176 40.4758 53.815 40.0061 54.7729 39.0447H54.7773L91.9956 1.52426C89.9391 -0.518361 86.6348 -0.505065 84.5915 1.55528L53.8545 32.549C53.5206 32.3629 53.1602 32.2034 52.7691 32.1148C50.5633 31.623 48.3838 33.0276 47.8961 35.2474C47.4083 37.4717 48.8013 39.6738 51.0027 40.1612ZM39.2396 61.8546C38.8441 61.9432 38.4882 62.1027 38.1543 62.2888L7.4173 31.2951C5.37403 29.2392 2.06962 29.2259 0.0131685 31.2641L37.2315 68.7933H37.2359C38.1894 69.7459 39.5912 70.2201 41.0061 69.901C43.2119 69.4092 44.6005 67.2071 44.1127 64.9872C43.625 62.763 41.4411 61.3628 39.2396 61.8546ZM37.2271 53.9101C38.1806 54.8716 39.5824 55.3413 40.9929 55.0267C43.1987 54.5349 44.5873 52.3327 44.1039 50.1129C43.6162 47.8886 41.4323 46.4885 39.2264 46.9803C38.831 47.0689 38.475 47.2284 38.1411 47.4145L7.40411 16.4252C5.36523 14.3648 2.05646 14.356 0 16.3942L37.2183 53.9234H37.2227L37.2271 53.9101ZM37.2315 39.0402C38.185 40.0017 39.5868 40.4714 41.0017 40.1568C43.2075 39.665 44.5961 37.4628 44.1083 35.243C43.6206 33.0187 41.4367 31.6185 39.2352 32.1104C38.8397 32.199 38.4838 32.3585 38.1499 32.5446L7.4129 1.55084C5.37402 -0.50507 2.06523 -0.518365 0.00877003 1.51982L37.2271 39.0491V39.0402H37.2315Z" fill="#D22630"/>
</svg>
