<svg fill="none" height="26" viewBox="0 0 34 26" width="34" xmlns="http://www.w3.org/2000/svg"><path d="m31.2588 11.6223c.7551-.7637 1.9763-.7686 2.7363-.0116l-13.7546 13.9395h-.0016c-.3524.3538-.8704.5299-1.3933.413-.8152-.1826-1.3284-1.0006-1.1481-1.8251.1802-.8261.9873-1.3462 1.8025-1.1635.1462.0329.2777.0921.4011.1613l11.3577-11.512zm.0049-5.52481-11.3593 11.51201c-.1251-.0692-.2566-.1284-.4011-.1613-.8152-.1827-1.6207.339-1.801 1.1635-.1802.8245.3346 1.6425 1.1482 1.8251.5229.1169 1.0393-.0576 1.3933-.4147v.0033l13.7562-13.93943c-.76-.75868-1.9812-.75375-2.7363.01152zm-12.4149 8.81951c.5229.1169 1.0393-.0576 1.3933-.4147h.0017l13.7546-13.936147c-.76-.758687-1.9812-.753749-2.7363.011521l-11.3593 11.511926c-.1235-.0691-.2566-.1283-.4012-.1612-.8152-.1827-1.6206.339-1.8009 1.1635-.1802.8262.3345 1.6441 1.1481 1.8251zm-4.3472 8.0576c-.1462.0329-.2777.0921-.4011.1613l-11.35932-11.512c-.75513-.7636-1.976319-.7686-2.7363134-.0115l13.7546334 13.9394h.0016c.3524.3538.8704.5299 1.3933.4114.8152-.1826 1.3284-1.0006 1.1481-1.8251-.1802-.8261-.9873-1.3462-1.8009-1.1635zm-.7438-2.9508c.3524.3571.8705.5315 1.3917.4147.8152-.1827 1.3284-1.0006 1.1498-1.8251-.1803-.8262-.9874-1.3463-1.8026-1.1636-.1461.0329-.2777.0922-.4011.1613l-11.3593-11.51032c-.7535-.76527-1.976306-.76856-2.7363-.01152l13.7546 13.93944h.0016zm.0017-5.5231c.3524.3571.8704.5315 1.3933.4147.8152-.1827 1.3284-1.0006 1.1481-1.8251-.1803-.8262-.9873-1.3463-1.8009-1.1636-.1462.0329-.2777.0922-.4011.1613l-11.35935-11.511973c-.7535-.763624-1.976315-.768563-2.7363089-.011521l13.7545589 13.939394v-.0032z" fill="#ffdf00"/></svg>