<svg width="12" height="15" viewBox="0 0 12 15" fill="none" xmlns="http://www.w3.org/2000/svg">
<path d="M9.91833 6.61609C9.88939 6.66867 9.86698 6.72573 9.85312 6.78727C9.77732 7.13043 9.99373 7.46993 10.3369 7.54615C10.6801 7.62236 11.0196 7.40554 11.0958 7.06237C11.1447 6.84229 11.0725 6.62384 10.9242 6.47548L5.13194 0.682007C4.81689 1.00235 4.81893 1.51669 5.13642 1.83418L9.91833 6.61609Z" fill="white"/>
<path d="M7.62121 6.61438C7.59228 6.66696 7.56986 6.72402 7.556 6.78556C7.4802 7.12872 7.69661 7.46822 8.03978 7.54444C8.38295 7.62024 8.72244 7.40383 8.79866 7.06066C8.84716 6.84058 8.77543 6.62213 8.62707 6.47377H8.62748L2.83482 0.680298C2.51978 1.00064 2.52181 1.51498 2.8393 1.83247L7.62121 6.61438Z" fill="white"/>
<path d="M5.32719 6.61524C5.29825 6.66781 5.27583 6.72487 5.26198 6.78641C5.18617 7.12958 5.40259 7.46908 5.74575 7.54529C6.08892 7.6211 6.42882 7.40468 6.50463 7.06152C6.55354 6.84143 6.4814 6.62298 6.33305 6.47463L0.540385 0.681152C0.225341 1.0015 0.227378 1.51584 0.544868 1.83333L5.32678 6.61524H5.32719Z" fill="white"/>
<path d="M10.3373 8.13382C9.99413 8.20963 9.77771 8.54954 9.85352 8.8927C9.86697 8.95425 9.88939 9.0113 9.91873 9.06388L5.13682 13.8458C4.81933 14.1633 4.81688 14.678 5.13234 14.998L10.925 9.2049C11.0733 9.05573 11.1455 8.83768 11.0966 8.61719C11.0208 8.27403 10.6809 8.05761 10.3377 8.13342" fill="white"/>
<path d="M8.62707 9.2064C8.77543 9.05805 8.84757 8.83959 8.79866 8.61951C8.72285 8.27635 8.38294 8.05993 8.03978 8.13574C7.69661 8.21154 7.4802 8.55145 7.556 8.89461C7.56945 8.95616 7.59187 9.01322 7.62121 9.06579L2.8393 13.8477C2.52181 14.1652 2.51978 14.6799 2.83482 14.9999L8.62748 9.20681L8.62707 9.2064Z" fill="white"/>
<path d="M6.33313 9.20567C6.48148 9.05691 6.55362 8.83886 6.50471 8.61878C6.4289 8.27561 6.089 8.0592 5.74583 8.135C5.40266 8.21081 5.18625 8.55072 5.26206 8.89388C5.2755 8.95542 5.29792 9.01248 5.32727 9.06506L0.545356 13.847C0.227867 14.1645 0.225829 14.6792 0.540873 14.9991L6.33353 9.20607L6.33313 9.20567Z" fill="white"/>
</svg>
