<svg width="12" height="15" viewBox="0 0 12 15" fill="none" xmlns="http://www.w3.org/2000/svg">
<path d="M2.08167 6.61609C2.11061 6.66867 2.13302 6.72573 2.14688 6.78727C2.22268 7.13043 2.00627 7.46993 1.6631 7.54615C1.3199 7.62236 0.980398 7.40554 0.904198 7.06237C0.855298 6.84229 0.927499 6.62384 1.0758 6.47548L6.86806 0.682007C7.18311 1.00235 7.18107 1.51669 6.86358 1.83418L2.08167 6.61609Z" fill="white"/>
<path d="M4.37879 6.61438C4.40772 6.66696 4.43014 6.72402 4.444 6.78556C4.5198 7.12872 4.30339 7.46822 3.96022 7.54444C3.61705 7.62024 3.27756 7.40383 3.20134 7.06066C3.15284 6.84058 3.22457 6.62213 3.37293 6.47377H3.37252L9.16518 0.680298C9.48022 1.00064 9.47819 1.51498 9.1607 1.83247L4.37879 6.61438Z" fill="white"/>
<path d="M6.67281 6.61524C6.70175 6.66781 6.72417 6.72487 6.73802 6.78641C6.81383 7.12958 6.59741 7.46908 6.25425 7.54529C5.91108 7.6211 5.57118 7.40468 5.49537 7.06152C5.44646 6.84143 5.5186 6.62298 5.66695 6.47463L11.4596 0.681152C11.7747 1.0015 11.7726 1.51584 11.4551 1.83333L6.67322 6.61524H6.67281Z" fill="white"/>
<path d="M1.6627 8.13382C2.00587 8.20963 2.22229 8.54954 2.14648 8.8927C2.13303 8.95425 2.11061 9.0113 2.08127 9.06388L6.86318 13.8458C7.18067 14.1633 7.18312 14.678 6.86766 14.998L1.075 9.2049C0.926699 9.05573 0.8545 8.83768 0.9034 8.61719C0.9792 8.27403 1.3191 8.05761 1.6623 8.13342" fill="white"/>
<path d="M3.37293 9.2064C3.22457 9.05805 3.15243 8.83959 3.20134 8.61951C3.27715 8.27635 3.61706 8.05993 3.96022 8.13574C4.30339 8.21154 4.5198 8.55145 4.444 8.89461C4.43055 8.95616 4.40813 9.01322 4.37879 9.06579L9.1607 13.8477C9.47819 14.1652 9.48022 14.6799 9.16518 14.9999L3.37252 9.20681L3.37293 9.2064Z" fill="white"/>
<path d="M5.66687 9.20567C5.51852 9.05691 5.44638 8.83886 5.49529 8.61878C5.5711 8.27561 5.911 8.0592 6.25417 8.135C6.59734 8.21081 6.81375 8.55072 6.73794 8.89388C6.7245 8.95542 6.70208 9.01248 6.67273 9.06506L11.4546 13.847C11.7721 14.1645 11.7742 14.6792 11.4591 14.9991L5.66647 9.20607L5.66687 9.20567Z" fill="white"/>
</svg>
