<svg xmlns="http://www.w3.org/2000/svg" xmlns:xlink="http://www.w3.org/1999/xlink" width="165" height="27" viewBox="0 0 165 27"><defs><path id="9cota" d="M664.11 3095.27l-6.23 6.02 1.48 8.51c.02.12.02.22.02.34 0 .45-.2.85-.7.85a1.4 1.4 0 0 1-.7-.2l-7.7-4.02-7.7 4.02c-.23.12-.45.2-.69.2-.5 0-.72-.4-.72-.85 0-.12.02-.22.03-.34l1.48-8.5-6.25-6.03c-.2-.22-.43-.51-.43-.82 0-.5.54-.71.96-.78l8.62-1.24 3.86-7.74c.16-.33.45-.7.84-.7.4 0 .69.37.84.7l3.86 7.74 8.62 1.24c.41.07.96.27.96.78 0 .3-.22.6-.45.82zm32.47 0l-6.23 6.02 1.47 8.51c.02.12.02.22.02.34 0 .45-.2.85-.7.85a1.4 1.4 0 0 1-.7-.2l-7.7-4.02-7.7 4.02c-.23.12-.45.2-.69.2-.5 0-.72-.4-.72-.85 0-.12.02-.22.04-.34l1.47-8.5-6.25-6.03c-.2-.22-.42-.51-.42-.82 0-.5.53-.71.96-.78l8.61-1.24 3.86-7.74c.16-.33.45-.7.84-.7.4 0 .69.37.84.7l3.87 7.74 8.61 1.24c.41.07.96.27.96.78 0 .3-.22.6-.44.82zm34.65 0l-6.23 6.02 1.48 8.51c.02.12.02.22.02.34 0 .45-.2.85-.7.85a1.4 1.4 0 0 1-.7-.2l-7.7-4.02-7.7 4.02c-.23.12-.45.2-.69.2-.5 0-.72-.4-.72-.85 0-.12.02-.22.03-.34l1.48-8.5-6.25-6.03c-.2-.22-.43-.51-.43-.82 0-.5.54-.71.96-.78l8.62-1.24 3.86-7.74c.16-.33.45-.7.84-.7.4 0 .69.37.84.7l3.86 7.74 8.62 1.24c.41.07.96.27.96.78 0 .3-.22.6-.45.82zm34.66 0l-6.23 6.02 1.48 8.51c.02.12.02.22.02.34 0 .45-.21.85-.7.85a1.4 1.4 0 0 1-.7-.2l-7.7-4.02-7.7 4.02c-.23.12-.45.2-.7.2-.49 0-.71-.4-.71-.85 0-.12.01-.22.03-.34l1.48-8.5-6.25-6.03c-.2-.22-.43-.51-.43-.82 0-.5.53-.71.96-.78l8.62-1.24 3.86-7.74c.15-.33.45-.7.84-.7.4 0 .69.37.84.7l3.86 7.74 8.62 1.24c.4.07.96.27.96.78 0 .3-.23.6-.45.82zm34.66 0l-6.23 6.02 1.48 8.51.01.34c0 .45-.2.85-.7.85a1.4 1.4 0 0 1-.69-.2l-7.7-4.02-7.7 4.02c-.23.12-.45.2-.7.2-.5 0-.71-.4-.71-.85 0-.12.01-.22.03-.34l1.48-8.5-6.25-6.03c-.2-.22-.43-.51-.43-.82 0-.5.53-.71.96-.78l8.62-1.24 3.86-7.74c.15-.33.44-.7.84-.7.4 0 .68.37.84.7l3.86 7.74 8.62 1.24c.4.07.96.27.96.78 0 .3-.23.6-.45.82z"/></defs><g><g transform="translate(-636 -3084)"><use fill="#fee149" xlink:href="#9cota"/></g></g></svg>