<svg fill="none" height="109" viewBox="0 0 596 109" width="596" xmlns="http://www.w3.org/2000/svg" xmlns:xlink="http://www.w3.org/1999/xlink"><clipPath id="a"><path d="m0 .059998h595.275v108.94h-595.275z"/></clipPath><g clip-path="url(#a)"><path d="m361.788 20.837c2.487 3.904 1.345 9.0916-2.568 11.5881-3.904 2.4876-9.091 1.3456-11.579-2.5673-.442-.6993-.77-1.443-.991-2.2043h-89.155c-5.922 0-10.738-4.7715-10.782-10.6939h108.002c2.77.0088 5.47 1.3721 7.073 3.8774z" fill="#d22630"/><path d="m248.032 51.1926c-2.488-3.904-1.346-9.0916 2.567-11.5881 3.904-2.4876 9.092-1.3456 11.579 2.5673.452.6993.771 1.4429.992 2.2043h89.154c5.923 0 10.739 4.7715 10.783 10.6939h-108.002c-2.771-.0089-5.471-1.3722-7.073-3.8774z" fill="#d22630"/><g fill="#fff"><path d="m381.972.0599976v9.4280124h14.536v45.59089h10.614v-45.59089h14.545v-9.4280124zm69.147 41.6514024c-1.965 2.824-5.347 4.7096-9.198 4.7096-5.736 0-10.065-4.3997-10.065-10.3752 0-5.5063 3.851-10.4549 9.826-10.4549 3.931 0 7.313 1.8944 9.437 4.7184v11.3933zm.39 13.3586h9.826v-38.1104h-9.826v5.887c-.151-2.9037-3.931-6.6837-11.154-6.6837-10.376 0-18.706 8.6489-18.706 19.8917 0 5.1877 1.886 9.8972 4.869 13.3586 3.382 3.9306 8.729 6.4447 14.385 6.4447 6.843 0 10.615-3.7712 10.615-6.6837v5.8958zm48.707-8.649c-.7.1594-2.674.3984-4.17.3984-2.514 0-4.169-.7082-5.187-1.8856-.868-1.0269-1.258-2.4345-1.258-4.7981v-14.536h12.58v-8.6401h-12.58v-10.61426h-10.215v10.61426h-10.615v8.6401h10.615v13.3674c0 5.4178.858 8.7995 2.824 11.4022 2.593 3.4613 7.073 5.4974 13.208 5.4974 1.956 0 5.028-.3187 6.365-.7878l-1.567-8.649zm36.915-4.7096c-1.956 2.824-5.338 4.7096-9.198 4.7096-5.736 0-10.065-4.3997-10.065-10.3752 0-5.5063 3.851-10.4549 9.826-10.4549 3.922 0 7.312 1.8944 9.428 4.7184v11.3933zm.398 13.3586h9.827v-38.1104h-9.827v5.887c-.159-2.9037-3.93-6.6837-11.163-6.6837-10.375 0-18.705 8.6489-18.705 19.8917 0 5.1877 1.885 9.8972 4.878 13.3586 3.372 3.9306 8.719 6.4447 14.376 6.4447 6.843 0 10.614-3.7712 10.614-6.6837zm24.655-5.347c2.992 3.6916 7.702 6.1349 12.969 6.1349 6.126 0 10.136-3.541 10.296-6.6837v5.8958h9.826v-38.1104h-10.216v24.7607c-1.416 1.8059-4.559 4.7096-8.888 4.7096-1.956 0-4.161-.6197-5.736-2.3548-1.178-1.3368-1.886-3.063-1.886-6.5155v-20.6h-10.216v20.2016c0 5.6568 1.416 9.5874 3.851 12.5707"/><path d="m431.59 9.488c-1.389 0-2.753-.6905-3.558-1.94757-1.257-1.96528-.673-4.57679 1.292-5.83386 1.966-1.257068 4.577-.6728 5.834 1.29248.221.3541.39.72591.496 1.10657h19.387c2.983 0 5.409 2.39905 5.427 5.38238h-28.869"/><path d="m49.6188 9.488c-1.3899 0-2.7532-.6905-3.5588-1.94757-1.257-1.96528-.6728-4.57679 1.2925-5.83386 1.9653-1.257068 4.5768-.6728 5.8339 1.29248.2213.3541.3895.72591.4957 1.10657h19.3783c2.9834 0 5.409 2.39905 5.4267 5.38238z"/><path d="m39.695.0599976v9.4280124h-14.5448v45.59089h-10.6142v-45.59089h-14.536v-9.4280124z"/><path d="m69.5371 16.9596v5.887c-.1505-2.9037-3.9305-6.6837-11.1543-6.6837-10.3752 0-18.7055 8.649-18.7055 19.8829 0 5.1876 1.8856 9.8972 4.8689 13.3586 3.3817 3.9305 8.7287 6.4446 14.3855 6.4446 6.8342 0 10.6054-3.7712 10.6054-6.6837v5.8959h9.8264v-38.1016zm-.3895 24.7607c-1.9653 2.824-5.347 4.7096-9.2067 4.7096-5.7365 0-10.0566-4.3998-10.0566-10.3753 0-5.5063 3.8509-10.4549 9.8264-10.4549 3.9306 0 7.3123 1.8945 9.4369 4.7185v11.3933z"/><path d="m118.253 46.4299c-.708.1593-2.674.3983-4.17.3983-2.514 0-4.169-.7082-5.187-1.8856-.868-1.0269-1.257-2.4344-1.257-4.7981v-14.5448h12.579v-8.6401h-12.579v-10.61426h-10.2162v10.61426h-10.6143v8.6401h10.6143v13.3674c0 5.4178.8587 8.7995 2.8242 11.4022 2.594 3.4613 7.073 5.4974 13.208 5.4974 1.956 0 5.028-.3098 6.365-.7878z"/><path d="m155.567 16.9596v5.887c-.16-2.9037-3.931-6.6837-11.163-6.6837-10.376 0-18.706 8.649-18.706 19.8829 0 5.1876 1.894 9.8972 4.878 13.3586 3.373 3.9305 8.72 6.4446 14.376 6.4446 6.835 0 10.615-3.7712 10.615-6.6837v5.8959h9.826v-38.1016zm-.39 24.7607c-1.965 2.824-5.347 4.7096-9.198 4.7096-5.736 0-10.056-4.3998-10.056-10.3753 0-5.5063 3.851-10.4549 9.826-10.4549 3.931 0 7.312 1.8945 9.428 4.7185v11.3933z"/><path d="m180.221 49.7319c2.992 3.6915 7.702 6.1348 12.969 6.1348 6.126 0 10.136-3.541 10.296-6.6837v5.8959h9.826v-38.1193h-10.216v24.7607c-1.407 1.8059-4.559 4.7096-8.879 4.7096-1.956 0-4.161-.6197-5.736-2.3548-1.178-1.3368-1.886-3.063-1.886-6.5155v-20.6h-10.216v20.2016c0 5.6568 1.416 9.5874 3.851 12.5707"/><path d="m249.555 82.4954h13.394v2.6469h-5.303v16.8817h-2.789v-16.8817h-5.302z"/><path d="m268.508 99.7845c2.426 0 4.134-1.9211 4.134-4.329s-1.708-4.32-4.134-4.32-4.134 1.921-4.134 4.32c0 2.3991 1.708 4.329 4.134 4.329zm0-11.1543c3.877 0 6.781 2.9302 6.781 6.8342s-2.904 6.8346-6.781 6.8346-6.781-2.9306-6.781-6.8346 2.904-6.8342 6.781-6.8342z"/><path d="m288.497 93.0122c-.805-1.0623-2.142-1.8679-3.736-1.8679-2.54 0-4.214 2.0361-4.214 4.3201s1.806 4.3289 4.347 4.3289c1.337 0 2.709-.6728 3.603-1.8679zm-3.957 9.2948c-1.169 0-2.408-.336-3.293-.867-1.983-1.169-3.346-3.3464-3.346-5.9756s1.398-4.8247 3.372-5.9932c.895-.5223 1.983-.8322 3.214-.8322 1.478 0 2.904.4427 4.099 1.4784v-1.1951h2.567v12.5437c0 1.957-.248 3.267-.779 4.294-1.062 2.036-3.072 3.24-5.666 3.24-3.408 0-5.55-1.735-6.383-3.045l1.948-1.815c.947 1.257 2.178 2.346 4.32 2.346 1.425 0 2.541-.531 3.178-1.505.478-.726.726-1.735.726-3.373v-.726c-1.053.921-2.399 1.425-3.957 1.425z"/><path d="m296.845 93.7912h7.144c-.389-1.6731-1.903-2.8416-3.461-2.8416-1.7 0-3.231 1.142-3.683 2.8416zm-.221 2.2309c.141 2.2043 1.947 3.9571 4.24 3.9571 1.948 0 3.01-.9472 3.763-1.7882l1.726 1.6466c-.974 1.2574-2.842 2.4524-5.524 2.4524-3.825 0-6.781-2.9039-6.781-6.8345 0-3.9305 2.673-6.8342 6.391-6.8342s6.303 2.9568 6.303 6.8342c0 .1151 0 .3099-.026.5578h-10.101z"/><path d="m318.481 102.024c-.505.168-1.31.283-2.063.283-1.646 0-2.877-.593-3.709-1.531-.779-.8676-1.062-2.0627-1.062-3.488v-5.9932h-3.347v-2.3725h3.347v-3.6295h2.647v3.6295h4.178v2.3725h-4.178v6.1437c0 .6994.053 1.2836.389 1.6732.363.4426 1.115.6993 1.815.6993.389 0 1.062-.0531 1.452-.1682l.531 2.3992z"/><path d="m324.775 90.0555c.726-.6197 2.036-1.4253 3.851-1.4253 1.93 0 3.656.8941 4.771 2.3194.833 1.0623 1.284 2.399 1.284 4.6564v6.418h-2.647v-6.5596c0-1.6731-.31-2.4522-.779-3.0364-.62-.7879-1.62-1.2837-2.709-1.2837-1.735 0-2.983.9207-3.771 1.8679v9.0118h-2.647v-19.8031h2.647z"/><path d="m340.453 93.7912h7.144c-.389-1.6731-1.903-2.8416-3.461-2.8416-1.7 0-3.232 1.142-3.683 2.8416zm-.221 2.2309c.132 2.2043 1.947 3.9571 4.24 3.9571 1.948 0 3.01-.9472 3.762-1.7882l1.727 1.6466c-.974 1.2574-2.842 2.4524-5.524 2.4524-3.825 0-6.781-2.9039-6.781-6.8345 0-3.9305 2.673-6.8342 6.391-6.8342s6.303 2.9568 6.303 6.8342c0 .1151 0 .3099-.026.5578h-10.101z"/><path d="m360.61 91.2506c-.31-.0797-.611-.1063-1.027-.1063-1.363 0-2.824.9472-3.541 2.2043v8.6754h-2.655v-13.1105h2.567v1.5049c.637-.8941 2.009-1.7882 3.93-1.7882.284 0 .726.0265 1.036.0885z"/></g></g></svg>