<?xml version="1.0" encoding="utf-8"?>
<!-- Generator: Adobe Illustrator 16.0.0, SVG Export Plug-In . SVG Version: 6.00 Build 0)  -->
<!DOCTYPE svg PUBLIC "-//W3C//DTD SVG 1.1//EN" "http://www.w3.org/Graphics/SVG/1.1/DTD/svg11.dtd">
<svg version="1.1" id="tiakiLogo" xmlns="http://www.w3.org/2000/svg" xmlns:xlink="http://www.w3.org/1999/xlink" x="0px" y="0px"
	 width="96.201px" height="151.799px" viewBox="0 0 96.201 151.799" enable-background="new 0 0 96.201 151.799"
	 xml:space="preserve">
<g id="care">
	<path d="M4.8,151.2c0.2,0,0.3,0,0.5-0.1c0.1-0.101,0.3-0.201,0.4-0.302l0.5,0.302c-0.2,0.198-0.4,0.399-0.6,0.5
		c-0.2,0.1-0.5,0.198-0.8,0.198c-0.2,0-0.5,0-0.7-0.1c-0.2-0.101-0.4-0.199-0.5-0.4C3.3,151,3.1,150.5,3.1,150.101
		c0-0.5,0.2-0.9,0.5-1.201c0.2-0.199,0.3-0.299,0.5-0.398c0.2-0.102,0.4-0.102,0.7-0.102c0.3,0,0.5,0.102,0.8,0.201
		c0.2,0.1,0.4,0.299,0.6,0.5l-0.5,0.299c-0.1-0.101-0.2-0.199-0.4-0.299C5.2,149,5,149,4.9,149c-0.2,0-0.3,0-0.4,0.101
		c-0.1,0.1-0.3,0.1-0.4,0.198C4,149.399,3.9,149.5,3.9,149.7c-0.1,0.1-0.1,0.301-0.1,0.4c0,0.198,0,0.299,0.1,0.5
		C4,150.7,4,150.899,4.1,151s0.2,0.199,0.4,0.199C4.5,151.101,4.6,151.2,4.8,151.2"/>
	<path d="M9.9,149.299l0.4,1H9.5L9.9,149.299z M9.6,148.299l-1.4,3.4h0.7l0.3-0.9h1.2l0.3,0.9h0.7l-1.4-3.4H9.6z"/>
	<path d="M14.3,149.7H15c0.1,0,0.2,0,0.3-0.1c0.1-0.101,0.1-0.201,0.1-0.302c0-0.1,0-0.1,0-0.198c0-0.1,0-0.101-0.1-0.101
		l-0.1-0.101c-0.1,0-0.1,0-0.2,0h-0.8L14.3,149.7z M15.7,151.7l-0.8-1.4h-0.5v1.4h-0.6v-3.4h1.4c0.1,0,0.3,0,0.4,0.102
		c0.2,0.101,0.4,0.3,0.5,0.5c0.1,0.199,0.1,0.5,0,0.8c-0.1,0.1-0.1,0.2-0.2,0.301s-0.2,0.199-0.3,0.199l0.9,1.5L15.7,151.7
		L15.7,151.7z"/>
	<polygon points="18.6,148.299 18.6,151.7 20.7,151.7 20.7,151.101 19.2,151.101 19.2,150.2 20.4,150.2 20.4,149.601 19.2,149.601 
		19.2,148.899 20.7,148.899 20.7,148.299 	"/>
	<polygon points="26.3,148.299 26.3,151.7 26.9,151.7 26.9,150.2 28.1,150.2 28.1,149.601 26.9,149.601 26.9,148.899 28.4,148.899 
		28.4,148.299 	"/>
	<path d="M31.9,148.799c-0.2,0-0.3,0-0.4,0.101c-0.1,0.102-0.3,0.102-0.4,0.201c-0.1,0.099-0.2,0.198-0.2,0.399
		c-0.1,0.101-0.1,0.299-0.1,0.399c0,0.199,0,0.3,0.1,0.5c0.1,0.101,0.1,0.3,0.2,0.398c0.1,0.102,0.2,0.202,0.4,0.202
		c0.3,0.101,0.6,0.101,0.9,0c0.1-0.101,0.3-0.101,0.4-0.201c0.1-0.1,0.2-0.198,0.2-0.399c0-0.101,0.1-0.299,0-0.5
		c0-0.199,0-0.299-0.1-0.398c-0.1-0.102-0.1-0.301-0.2-0.4c-0.1-0.1-0.2-0.199-0.4-0.199C32.2,148.899,32,148.799,31.9,148.799
		 M31.9,151.799c-0.2,0-0.5,0-0.7-0.1c-0.2-0.101-0.4-0.199-0.5-0.4c-0.2-0.198-0.3-0.399-0.4-0.6c-0.1-0.199-0.1-0.4-0.1-0.699
		c0-0.201,0-0.5,0.1-0.701c0.1-0.198,0.2-0.399,0.4-0.6c0.2-0.199,0.3-0.3,0.5-0.4c0.2-0.1,0.4-0.1,0.7-0.1c0.2,0,0.5,0,0.7,0.1
		c0.2,0.101,0.4,0.201,0.5,0.4c0.2,0.2,0.3,0.301,0.4,0.6c0.1,0.201,0.1,0.4,0.1,0.701c0,0.199,0,0.5-0.1,0.699
		c-0.1,0.2-0.2,0.399-0.4,0.6C32.8,151.601,32.3,151.799,31.9,151.799"/>
	<path d="M36.7,149.7h0.7c0.1,0,0.2,0,0.3-0.1c0.1-0.101,0.1-0.201,0.1-0.302c0-0.1,0-0.1,0-0.198L37.7,149l-0.1-0.101
		c-0.1,0-0.1,0-0.2,0h-0.8L36.7,149.7z M38,151.7l-0.8-1.4h-0.5v1.4h-0.6v-3.4h1.4c0.1,0,0.3,0,0.4,0.102c0.1,0,0.2,0.101,0.3,0.199
		c0.1,0.101,0.2,0.199,0.2,0.301c0.1,0.199,0.1,0.5,0,0.8c-0.1,0.1-0.1,0.2-0.2,0.301c-0.1,0.101-0.2,0.199-0.3,0.199l0.9,1.5
		L38,151.7L38,151.7z"/>
	<polygon points="46.3,148.299 46.3,150.601 44.6,148.299 44.1,148.299 44.1,151.7 44.7,151.7 44.7,149.399 46.4,151.7 47,151.7 
		47,148.299 	"/>
	<polygon points="49.601,148.299 49.601,151.7 51.701,151.7 51.701,151.101 50.201,151.101 50.201,150.2 51.399,150.2 
		51.399,149.601 50.201,149.601 50.201,148.899 51.701,148.899 51.701,148.299 	"/>
	<polygon points="57.601,148.299 57,150.601 56.3,148.299 55.701,148.299 55.101,150.601 54.399,148.299 53.8,148.299 54.8,151.7 
		55.3,151.7 56,149.399 56.701,151.7 57.201,151.7 58.201,148.299 	"/>
	<polygon points="63.5,148.299 63.5,148.899 65,148.899 63.3,151.2 63.3,151.7 65.899,151.7 65.899,151.101 64.201,151.101 
		65.8,148.799 65.8,148.299 	"/>
	<polygon points="68.3,148.299 68.3,151.7 70.399,151.7 70.399,151.101 68.899,151.101 68.899,150.2 70.201,150.2 70.201,149.601 
		68.899,149.601 68.899,148.899 70.399,148.899 70.399,148.299 	"/>
	<path d="M74.201,149.299l0.399,1H73.8L74.201,149.299z M73.899,148.299l-1.399,3.4h0.701l0.299-0.9h1.201L75,151.7h0.701l-1.4-3.4
		L73.899,148.299L73.899,148.299z"/>
	<polygon points="78.101,148.299 78.101,151.7 80.101,151.7 80.101,151.101 78.701,151.101 78.701,148.299 	"/>
	<path d="M83.701,149.299l0.399,1H83.3L83.701,149.299z M83.5,148.299l-1.399,3.4h0.7l0.3-0.9h1.2l0.3,0.9h0.7l-1.399-3.4H83.5z"/>
	<polygon points="89.899,148.299 89.899,150.601 88.101,148.299 87.601,148.299 87.601,151.7 88.201,151.7 88.201,149.399 90,151.7 
		90.5,151.7 90.5,148.299 	"/>
	<path d="M94.701,151c0.099-0.101,0.299-0.101,0.399-0.201c0.199-0.198,0.398-0.5,0.299-0.799c0-0.201,0-0.301-0.1-0.399
		c-0.1-0.1-0.1-0.302-0.199-0.4c-0.101-0.1-0.201-0.2-0.399-0.2c-0.101-0.101-0.302-0.101-0.401-0.101h-0.6v2.201h0.5
		C94.399,151.101,94.601,151.101,94.701,151 M95,148.399c0.201,0.102,0.399,0.201,0.5,0.399c0.3,0.302,0.5,0.802,0.5,1.201
		c0,0.199,0,0.5-0.101,0.699c-0.1,0.2-0.198,0.399-0.399,0.6c-0.199,0.201-0.399,0.302-0.601,0.4c-0.198,0.1-0.5,0.1-0.698,0.1
		h-1.101v-3.399H94.3C94.601,148.2,94.8,148.299,95,148.399"/>
</g>
<g id="tiaki">
	<path d="M33.3,133.5c0,3.601,2.6,5.899,7,5.899c3,0,5.5-1.801,5.9-3c-0.9,0.8-2.1,1.199-3.4,1.199c-2.3,0-3.8-1.899-3.8-4.6
		c0-4.201,3.5-5.801,7.5-6.301V126C39.2,126.2,33.4,128.601,33.3,133.5"/>
	<path d="M53,130.899c0-1.101,0-3.199,0-4.299c0-5.4-2.5-9.9-9.5-9.9c-7.5,0-8.7,3.6-8.7,5.199c0.1,1.701,1.5,3.102,3.2,3
		c0.1,0,0.1,0,0.2,0c0.5,0,1-0.101,1.5-0.199c-1.6-1.801-1.3-4.6,0.5-6.199c0.8-0.701,1.7-1,2.8-1c2.2,0,3.7,1.398,4.5,4
		c1,3.299,0.3,7.799,0.2,10.699c-0.3,4.801,1.299,7.1,5.199,7.1c0.9,0,1.701-0.1,2.5-0.299C53.5,137.7,53.101,135.399,53,130.899"/>
	<path d="M26.5,133c0-0.201,0-0.5,0-0.701c0-0.198,0-0.5,0-0.799l0,0c0-0.301,0-0.701,0-1c-0.1-4.5-0.1-9.101,0.1-13.601h-6.9
		c0.7,0.601,1.4,1.699,1.7,5l0.2,0.3l0.4,0.6l0.5,0.802L21.6,125c0,1.899,0,3.799-0.1,5.799c0,1.101-0.1,2.101-0.2,3
		c-0.3,3.601-1,4.802-1.8,5.4h8.9C27.6,138.5,26.8,137.2,26.5,133"/>
	<path d="M23.6,112.601c1.7,0,3.1-1.4,3.1-3.101c0-1.701-1.4-3.101-3.1-3.101c-1.7,0-3.1,1.398-3.1,3.101
		C20.5,111.2,21.9,112.601,23.6,112.601L23.6,112.601"/>
	<path d="M9.5,109.101l-0.2,0.299C7.2,113.101,3.9,116,0,117.799h4c0.1,1.4,0.1,2.802,0.1,4.302l1,1.6L4,125.399
		c0,1.701-0.1,3.701-0.1,6c0,5.301,2.1,8.102,6.4,8.102c1.7,0.1,3.4-0.602,4.6-1.801c-3.1,0-4.7-1.6-5.3-4.9
		c-0.8-4.6-0.7-13-0.4-19.398L9.5,109.101z"/>
	<rect x="12.312" y="114.896" transform="matrix(0.0071 -1 1 0.0071 -104.7722 129.3783)" width="0.899" height="5.1"/>
	<path d="M94.399,133c0-0.201,0-0.5,0-0.701V131.5l0,0c0-0.301,0-0.701,0-1c-0.198-4.5-0.198-9.101,0.101-13.601h-7
		c0.701,0.601,1.399,1.699,1.701,5l0.198,0.3l0.4,0.6l0.5,0.802l-0.9,1.399c0,1.899,0,3.799-0.1,5.799c0,1.101-0.1,2.101-0.199,3
		c-0.301,3.601-1,4.802-1.801,5.4h8.9C95.5,138.5,94.701,137.2,94.399,133"/>
	<path d="M91.5,112.601c1.701,0,3.101-1.4,3.101-3.101c0-1.701-1.398-3.101-3.101-3.101c-1.699,0-3.101,1.398-3.101,3.101
		C88.399,111.2,89.8,112.601,91.5,112.601L91.5,112.601"/>
	<path d="M78.3,133.399c-2.1-3-4-6.101-5.5-9.398c1.1-1.102,2.199-2.102,3.4-3.102c2.1-1.699,4.398-3,6.898-3.898H73.7
		c0.898,0.299,1.398,1.1,1.398,2c0,1.398-1.601,2.898-3.5,4.799l0.102-0.1c-2,2-3.801,4.1-5.301,6.4V130
		c-0.101-4.399,0-8.899,0-13.201v-0.1c0.1-3.101,0.301-6.101,0.801-9.101h-7.6c0.898,0.801,1.699,2.301,1.898,7.699l0,0
		c0,0.5,0,1,0.102,1.5c0,1.801,0.101,3.5,0.101,5.301l1,1.5l-1,1.5c0,1.601,0,3.199-0.101,4.801c0,0.8,0,1.5-0.102,2.101
		c-0.299,4.899-1.1,6.299-1.898,7h8.799c-0.799-0.701-1.698-2.201-1.899-7.5c0.801-1.399,1.701-2.701,2.801-3.899
		c1.3,1.799,2.5,3.698,3.5,5.6c1.3,2.5,2.101,4.9,0.601,5.699h10.801C81.899,137.7,79.899,135.7,78.3,133.399"/>
</g>
<path id="shape4" d="M49.5,68.5l-4,3.2C33.7,81.299,18.8,87.2,2.8,88.899V99.2c16.8-1.4,32.9-7.301,46.7-17
	c13.801,9.699,29.899,15.6,46.701,17V88.899C80.201,87.2,65.301,81.2,53.5,71.7L49.5,68.5z"/>
<path id="shape3" d="M84.899,58.4c-12.698-5.6-24.6-10.7-35.299-16.3C38.9,47.8,27,52.9,14.3,58.4c-3.8,1.7-7.6,3.4-11.5,5.1v12
	c14-6.4,27.1-11.8,38.2-17.1c3-1.4,5.9-2.9,8.601-4.3c2.699,1.4,5.601,2.8,8.601,4.3c11,5.2,24.1,10.7,38,17v-12
	C92.399,61.7,88.601,60.1,84.899,58.4"/>
<path id="shape2" d="M49.5,30.2h0.201l-0.101,0.1L49.5,30.2 M96.201,43.3V31.2c-14.701-6.4-30.5-9.6-46.5-9.6
	C33.5,21.6,17.5,25,2.8,31.6v12.2c14.5-7.4,30.6-11.2,46.901-11.2C65.8,32.6,81.701,36.2,96.201,43.3"/>
<rect id="shape1" x="2.8" width="93.401" height="10.4"/>
</svg>
