<?xml version="1.0" encoding="UTF-8"?>
<svg width="266px" height="251px" viewBox="0 0 266 251" version="1.1" xmlns="http://www.w3.org/2000/svg" xmlns:xlink="http://www.w3.org/1999/xlink">
    <!-- Generator: Sketch 50.2 (55047) - http://www.bohemiancoding.com/sketch -->
    <title>Travelers Choice L and (1-color white no background)</title>
    <desc>Created with Sketch.</desc>
    <defs>
        <polygon id="path-1" points="0.06 0.192 265.649911 0.192 265.649911 136.021 0.06 136.021"></polygon>
        <polygon id="path-3" points="0.625 0.267 46.015 0.267 46.015 31.94 0.625 31.94"></polygon>
    </defs>
    <g id="Travelers-Choice-L-and-(1-color-white-no-background)" stroke="none" stroke-width="1" fill="none" fill-rule="evenodd">
        <path d="M149.917,79.728 L150.132,79.728 C150.393,79.728 150.523,79.636 150.523,79.442 C150.523,79.234 150.388,79.146 150.098,79.146 L149.917,79.146 L149.917,79.728 Z M150.198,78.767 C150.825,78.767 151.137,78.991 151.137,79.399 C151.137,79.683 150.968,79.899 150.677,79.989 L151.16,80.949 L150.503,80.949 L150.093,80.08 L149.917,80.08 L149.917,80.949 L149.32,80.949 L149.32,78.767 L150.198,78.767 Z M149.03,78.73 C148.708,79.055 148.543,79.467 148.543,79.899 C148.543,80.329 148.7,80.719 149.002,81.028 C149.31,81.349 149.722,81.523 150.154,81.523 C150.584,81.523 150.993,81.359 151.307,81.057 C151.619,80.754 151.79,80.348 151.79,79.899 C151.79,79.467 151.628,79.067 151.329,78.762 C151.012,78.444 150.611,78.272 150.166,78.272 C149.722,78.272 149.337,78.429 149.03,78.73 Z M151.589,78.514 C151.955,78.883 152.148,79.372 152.148,79.899 C152.148,80.453 151.942,80.949 151.558,81.313 C151.167,81.687 150.67,81.888 150.154,81.888 C149.627,81.888 149.13,81.679 148.747,81.285 C148.377,80.905 148.176,80.42 148.176,79.899 C148.176,79.372 148.391,78.858 148.778,78.473 C149.152,78.108 149.627,77.913 150.154,77.913 C150.707,77.913 151.208,78.119 151.589,78.514 Z" id="Fill-1" fill="#548C40"></path>
        <path d="M210.622,78.962 L210.929,78.962 C211.305,78.962 211.49,78.832 211.49,78.556 C211.49,78.258 211.297,78.131 210.883,78.131 L210.622,78.131 L210.622,78.962 Z M211.026,77.591 C211.921,77.591 212.369,77.913 212.369,78.494 C212.369,78.9 212.128,79.21 211.711,79.338 L212.4,80.708 L211.462,80.708 L210.876,79.467 L210.622,79.467 L210.622,80.708 L209.77,80.708 L209.77,77.591 L211.026,77.591 Z M209.355,77.537 C208.897,78.002 208.659,78.591 208.659,79.21 C208.659,79.823 208.882,80.383 209.317,80.823 C209.757,81.283 210.344,81.53 210.963,81.53 C211.576,81.53 212.162,81.296 212.611,80.864 C213.055,80.432 213.3,79.85 213.3,79.21 C213.3,78.591 213.07,78.02 212.641,77.584 C212.189,77.128 211.614,76.883 210.98,76.883 C210.344,76.883 209.793,77.109 209.355,77.537 Z M213.014,77.228 C213.537,77.756 213.813,78.456 213.813,79.21 C213.813,80 213.518,80.708 212.971,81.228 C212.412,81.763 211.7,82.051 210.963,82.051 C210.21,82.051 209.498,81.752 208.951,81.19 C208.421,80.646 208.134,79.954 208.134,79.21 C208.134,78.456 208.441,77.721 208.996,77.169 C209.532,76.65 210.21,76.37 210.963,76.37 C211.753,76.37 212.47,76.665 213.014,77.228 Z" id="Fill-2" fill="#FFFFFE"></path>
        <path d="M40.535,184.24 C35.311,184.24 32.185,187.295 32.185,192.414 C32.185,200.054 39.85,206.271 49.276,206.271 C49.276,206.271 92.656,205.868 93.394,205.59 C92.817,205.052 47.104,185.683 47.104,185.683 C44.795,184.727 42.584,184.24 40.535,184.24" id="Fill-3" fill="#FFFFFE"></path>
        <g id="Group-8" transform="translate(0.000000, 20.000000)">
            <mask id="mask-2" fill="white">
                <use xlink:href="#path-1"></use>
            </mask>
            <g id="Clip-5"></g>
            <path d="M46.04,0.192 C38.402,0.192 32.185,7.856 32.185,17.278 L32.866,61.394 L52.773,15.108 C54.685,10.487 54.706,6.213 52.822,3.389 C51.419,1.295 49.074,0.192 46.04,0.192" id="Fill-4" fill="#FFFFFE" mask="url(#mask-2)"></path>
            <path d="M256.482,80.775 C252.727,80.775 249.059,84.011 246.896,89.224 L228.244,136.021 L259.916,105.314 C263.176,102.053 265.187,97.941 265.582,93.725 C265.959,89.646 264.757,85.99 262.209,83.432 C260.464,81.692 258.485,80.775 256.482,80.775" id="Fill-6" fill="#FFFFFE" mask="url(#mask-2)"></path>
            <path d="M9.167,80.775 C7.166,80.775 5.185,81.692 3.445,83.432 C0.887,85.99 -0.31,89.646 0.069,93.725 C0.46,97.941 2.475,102.053 5.738,105.314 L37.41,136.021 L18.753,89.224 C16.593,84.011 12.924,80.775 9.167,80.775" id="Fill-7" fill="#FFFFFE" mask="url(#mask-2)"></path>
        </g>
        <path d="M172.259,205.59 L216.37,206.271 C225.796,206.271 233.461,200.054 233.461,192.414 C233.461,187.295 230.343,184.24 225.114,184.24 C223.067,184.24 220.856,184.727 218.54,185.683 L172.259,205.59" id="Fill-9" fill="#FFFFFE"></path>
        <path d="M219.611,20.192 C216.575,20.192 214.234,21.295 212.827,23.387 C210.947,26.213 210.962,30.482 212.878,35.108 L232.783,81.384 L233.461,37.278 C233.461,27.856 227.249,20.192 219.611,20.192" id="Fill-10" fill="#FFFFFE"></path>
        <path d="M15.982,145.605 C12.838,145.605 10.354,147.446 8.969,150.784 C7.586,154.122 7.876,157.959 9.787,161.581 C11.766,165.324 15.198,168.36 19.455,170.119 C19.455,170.119 59.69,186.347 60.465,186.378 C60.132,185.656 25.322,150.272 25.322,150.272 C22.317,147.265 18.999,145.605 15.982,145.605" id="Fill-11" fill="#FFFFFE"></path>
        <path d="M249.669,145.605 C246.65,145.605 243.336,147.265 240.327,150.272 L205.177,186.378 L246.199,170.119 C250.458,168.36 253.892,165.324 255.862,161.581 C257.783,157.959 258.065,154.122 256.687,150.784 C255.302,147.446 252.809,145.605 249.669,145.605" id="Fill-12" fill="#FFFFFE"></path>
        <path d="M191.284,0.417 C189.966,0.417 188.588,1.891 187.528,4.467 C184.526,11.719 187.724,23.585 194.52,30.374 L213.571,48.476 L197.314,7.454 C195.157,2.261 192.722,0.417 191.284,0.417" id="Fill-13" fill="#FFFFFE"></path>
        <path d="M74.365,0.417 C72.932,0.417 70.494,2.261 68.342,7.454 L52.083,48.466 L71.131,30.374 C77.923,23.585 81.127,11.719 78.123,4.467 C77.054,1.891 75.69,0.417 74.365,0.417" id="Fill-14" fill="#FFFFFE"></path>
        <path d="M20.111,56.787 C18.948,56.787 17.727,57.053 16.467,57.579 C13.122,58.959 10.62,61.877 9.406,65.794 C8.163,69.834 8.445,74.405 10.209,78.667 L27.711,119.15 L28.389,68.782 C28.389,61.609 25.063,56.787 20.111,56.787" id="Fill-15" fill="#FFFFFE"></path>
        <path d="M245.54,56.787 C240.585,56.787 237.26,61.607 237.26,68.779 L237.938,119.162 L255.442,78.667 C257.206,74.405 257.488,69.834 256.243,65.794 C255.027,61.877 252.524,58.959 249.182,57.579 C247.932,57.053 246.698,56.787 245.54,56.787" id="Fill-16" fill="#FFFFFE"></path>
        <path d="M164.732,213.282 C164.732,214.756 165.936,215.956 167.408,215.956 C168.888,215.956 170.082,214.756 170.082,213.282 C170.082,211.807 168.888,210.605 167.408,210.605 C165.936,210.605 164.732,211.807 164.732,213.282" id="Fill-17" fill="#FFFFFE"></path>
        <path d="M37.714,213.096 L33.664,214.496 C33.664,214.496 33.664,219.349 33.664,219.781 C33.23,219.781 29.168,219.781 29.168,219.781 L29.168,223.333 C29.168,223.333 33.104,223.333 33.532,223.333 C33.532,223.789 33.532,234.724 33.532,234.724 C33.532,240.137 35.378,242.35 39.9,242.35 C41.056,242.35 42.154,242.208 43.252,241.911 L43.431,241.868 L43.385,238.19 L43.069,238.298 C42.183,238.612 41.491,238.764 40.943,238.764 C38.817,238.764 38.028,237.562 38.028,234.333 C38.028,234.333 38.028,223.789 38.028,223.333 C38.462,223.333 43.216,223.333 43.216,223.333 L43.216,219.781 C43.216,219.781 38.462,219.781 38.028,219.781 C38.028,219.344 38.028,212.99 38.028,212.99 L37.714,213.096" id="Fill-18" fill="#FFFFFE"></path>
        <g id="Group-22" transform="translate(47.000000, 219.000000)">
            <mask id="mask-4" fill="white">
                <use xlink:href="#path-3"></use>
            </mask>
            <g id="Clip-20"></g>
            <path d="M4.738,4.377 C4.738,3.127 4.738,0.781 4.738,0.781 L0.625,0.781 L0.625,22.967 L5.119,22.967 L5.119,11.834 C5.119,7.162 7.081,4.596 10.633,4.596 C11.145,4.596 11.645,4.671 12.253,4.842 L12.542,4.922 L12.692,0.542 L10.764,0.395 C8.157,0.395 6.05,1.804 4.738,4.377" id="Fill-19" fill="#FFFFFE" mask="url(#mask-4)"></path>
            <path d="M35.577,19.677 C32.013,19.677 29.805,16.631 29.805,11.742 C29.805,7.031 32.141,3.988 35.746,3.988 C39.224,3.988 41.304,6.874 41.304,11.699 C41.304,16.622 39.111,19.677 35.577,19.677 Z M36.825,0.267 C33.746,0.267 31.144,1.734 29.414,4.386 C29.414,3.32 29.414,0.781 29.414,0.781 L25.309,0.781 L25.309,32 L29.805,32 C29.805,32 29.805,21.101 29.805,19.897 C31.431,22.098 33.765,23.304 36.661,23.304 C42.349,23.304 46.015,18.647 46.015,11.445 C46.015,4.763 42.328,0.267 36.825,0.267 Z" id="Fill-21" fill="#FFFFFE" mask="url(#mask-4)"></path>
        </g>
        <path d="M110.114,232.608 C110.114,236.43 107.811,238.897 104.254,238.897 C102.075,238.897 100.559,237.463 100.559,235.412 C100.559,232.726 103.125,231.247 107.797,231.247 C107.797,231.247 109.723,231.247 110.114,231.247 C110.114,231.589 110.114,232.608 110.114,232.608 Z M106.161,219.267 C103.412,219.267 100.998,219.781 98.788,220.848 L98.653,220.915 L98.703,224.755 L99.053,224.554 C101.167,223.372 103.163,222.768 104.99,222.768 C108.246,222.768 110.114,224.636 110.114,227.894 C110.114,227.894 110.114,227.993 110.114,228.083 C109.713,228.083 107.541,228.083 107.541,228.083 C100.137,228.083 96.058,230.766 96.058,235.631 C96.058,239.536 99.007,242.261 103.214,242.261 C106.317,242.261 108.707,241.049 110.418,238.759 C110.418,239.642 110.418,241.967 110.418,241.967 L114.479,241.967 L114.479,228.541 C114.479,222.387 111.685,219.267 106.161,219.267 Z" id="Fill-23" fill="#FFFFFE"></path>
        <path d="M127.726,238.59 C124.304,238.59 122.175,235.603 122.175,230.786 C122.175,225.973 124.318,222.853 127.646,222.853 C131.365,222.853 133.578,225.824 133.578,230.786 C133.578,235.525 131.283,238.59 127.726,238.59 Z M133.578,209.194 C133.578,209.194 133.578,221.559 133.578,222.8 C131.928,220.483 129.623,219.267 126.645,219.267 C121.15,219.267 117.465,223.789 117.465,230.525 C117.465,237.463 121.2,242.304 126.56,242.304 C129.741,242.304 132.205,240.905 133.931,238.168 C133.931,239.276 133.931,241.967 133.931,241.967 L138.086,241.967 L138.086,209.194 L133.578,209.194 Z" id="Fill-24" fill="#FFFFFE"></path>
        <polyline id="Fill-25" fill="#FFFFFE" points="158.18 219.781 151.799 232.583 145.903 219.781 140.833 219.781 151.707 241.967 162.881 219.781 158.18 219.781"></polyline>
        <polyline id="Fill-26" fill="#FFFFFE" points="169.428 219.781 165.166 219.781 165.166 241.967 169.665 241.967 169.665 219.781 169.428 219.781"></polyline>
        <path d="M174.935,225.467 C174.935,228.594 177.081,230.24 181.034,232.171 C183.536,233.397 184.835,234.118 184.835,235.844 C184.835,237.618 183.235,238.764 180.751,238.764 C178.992,238.764 177.042,238.267 175.109,237.318 L174.779,237.162 L174.631,241.066 L174.783,241.124 C176.627,241.853 178.58,242.225 180.585,242.225 C186.087,242.225 189.64,239.599 189.64,235.542 C189.64,232.156 187.381,230.445 183.486,228.621 C180.628,227.289 179.436,226.5 179.436,225.083 C179.436,223.729 180.768,222.853 182.827,222.853 C184.685,222.853 186.5,223.27 188.216,224.089 L188.537,224.236 L188.742,220.408 L188.556,220.35 C186.693,219.803 184.852,219.532 183.088,219.532 C178.213,219.532 174.935,221.914 174.935,225.467" id="Fill-27" fill="#FFFFFE"></path>
        <path d="M203.712,238.805 C199.974,238.805 197.466,235.603 197.466,230.834 C197.466,226.036 199.974,222.814 203.712,222.814 C207.508,222.814 209.958,225.956 209.958,230.834 C209.958,235.677 207.508,238.805 203.712,238.805 Z M203.661,219.267 C196.902,219.267 192.705,223.712 192.705,230.875 C192.705,238.033 196.902,242.481 203.661,242.481 C210.455,242.481 214.673,238.033 214.673,230.875 C214.673,223.712 210.455,219.267 203.661,219.267 Z" id="Fill-28" fill="#FFFFFE"></path>
        <path d="M222.968,223.377 C222.968,222.127 222.968,219.781 222.968,219.781 L218.863,219.781 L218.863,241.967 L223.354,241.967 L223.354,230.834 C223.354,226.162 225.318,223.596 228.868,223.596 C229.38,223.596 229.88,223.671 230.488,223.842 L230.785,223.922 L230.929,219.542 L228.999,219.395 C226.397,219.395 224.286,220.804 222.968,223.377" id="Fill-29" fill="#FFFFFE"></path>
        <polyline id="Fill-30" fill="#FFFFFE" points="67.712 219.781 63.45 219.781 63.45 241.967 67.95 241.967 67.95 219.781 67.712 219.781"></polyline>
        <path d="M63.013,213.282 C63.013,214.756 64.219,215.956 65.691,215.956 C67.164,215.956 68.363,214.756 68.363,213.282 C68.363,211.807 67.164,210.605 65.691,210.605 C64.219,210.605 63.013,211.807 63.013,213.282" id="Fill-31" fill="#FFFFFE"></path>
        <path d="M238.254,221.263 L238.688,221.263 C239.219,221.263 239.475,221.072 239.475,220.691 C239.475,220.259 239.205,220.08 238.616,220.08 L238.254,220.08 L238.254,221.263 Z M238.821,219.317 C240.078,219.317 240.727,219.771 240.727,220.594 C240.727,221.176 240.382,221.613 239.786,221.786 L240.773,223.724 L239.439,223.724 L238.611,221.975 L238.254,221.975 L238.254,223.724 L237.045,223.724 L237.045,219.317 L238.821,219.317 Z M236.458,219.24 C235.812,219.894 235.469,220.732 235.469,221.613 C235.469,222.467 235.79,223.258 236.403,223.886 C237.028,224.537 237.863,224.895 238.739,224.895 C239.598,224.895 240.426,224.559 241.07,223.946 C241.693,223.34 242.038,222.513 242.038,221.613 C242.038,220.732 241.712,219.928 241.106,219.305 C240.467,218.654 239.649,218.311 238.751,218.311 C237.863,218.311 237.079,218.639 236.458,219.24 Z M241.637,218.801 C242.381,219.554 242.759,220.539 242.759,221.613 C242.759,222.723 242.342,223.724 241.567,224.465 C240.778,225.223 239.777,225.631 238.739,225.631 C237.655,225.631 236.654,225.196 235.886,224.407 C235.141,223.64 234.733,222.657 234.733,221.613 C234.733,220.539 235.16,219.506 235.956,218.724 C236.704,217.983 237.655,217.587 238.739,217.587 C239.851,217.587 240.865,218.012 241.637,218.801 Z" id="Fill-32" fill="#FFFFFE"></path>
        <path d="M106.819,157.954 C106.819,161.04 104.312,163.555 101.225,163.555 C98.129,163.555 95.622,161.04 95.622,157.954 C95.622,154.858 98.129,152.357 101.225,152.357 C104.312,152.357 106.819,154.858 106.819,157.954" id="Fill-33" fill="#FFFFFE"></path>
        <path d="M174.32,157.954 C174.32,161.04 171.817,163.555 168.728,163.555 C165.622,163.555 163.129,161.04 163.129,157.954 C163.129,154.858 165.622,152.357 168.728,152.357 C171.817,152.357 174.32,154.858 174.32,157.954" id="Fill-34" fill="#FFFFFE"></path>
        <path d="M178.111,183.603 C171.373,186.091 164.068,185.804 157.535,182.792 C151.015,179.787 146.058,174.418 143.579,167.694 L143.579,167.687 C141.086,160.954 141.376,153.651 144.371,147.125 C147.375,140.607 152.743,135.64 159.478,133.155 C173.393,128.021 188.889,135.15 194.022,149.063 C199.156,162.962 192.019,178.457 178.111,183.603 Z M101.665,185.13 C86.832,185.13 74.773,173.073 74.773,158.26 C74.773,143.426 86.832,131.361 101.665,131.361 C116.49,131.361 128.544,143.426 128.544,158.26 C128.544,173.073 116.49,185.13 101.665,185.13 Z M167.724,124.727 C164.189,124.836 160.617,125.48 157.123,126.769 C148.681,129.882 141.96,136.106 138.188,144.278 C136.496,147.972 135.531,151.867 135.219,155.804 C133.972,138.592 119.777,124.944 102.338,124.597 C111.984,120.477 123.068,118.228 135.079,118.228 C147.163,118.228 158.088,120.412 167.724,124.727 Z M195.83,138.305 C197.418,131.562 202.459,124.836 202.459,124.836 L179.984,124.819 C167.367,116.674 152.052,112.352 135.079,112.352 C117.479,112.352 101.583,116.783 89.04,124.978 L67.95,124.993 C67.95,124.993 72.922,131.644 74.544,138.341 C70.429,143.928 67.967,150.801 67.967,158.26 C67.967,176.829 83.084,191.941 101.665,191.941 C112.273,191.941 121.748,186.993 127.922,179.297 L135.089,190.037 L142.334,179.206 C145.582,183.344 149.769,186.697 154.685,188.965 C162.869,192.732 172.023,193.102 180.467,189.983 C197.898,183.533 206.835,164.117 200.401,146.705 C199.264,143.619 197.698,140.819 195.83,138.305 Z" id="Fill-35" fill="#FFFFFE"></path>
        <path d="M158.759427,27.5498349 C157.292286,26.5289209 156.558726,25.3998474 156.558726,24.1625808 C156.558726,23.0267294 156.974522,22.103864 157.806128,21.3939569 C158.637733,20.6840498 159.722861,20.3291016 161.061543,20.3291016 C162.298809,20.3291016 163.301116,20.6299624 164.068491,21.2316932 C164.835867,21.833424 165.219549,22.6143101 165.219549,23.574375 C165.219549,25.0279943 164.286543,26.3531343 162.420501,27.5498349 C164.685443,28.6586422 165.817897,30.0885765 165.817897,31.8396807 C165.817897,33.0972304 165.342942,34.1215096 164.393019,34.9125489 C163.443095,35.7035883 162.217679,36.099102 160.716732,36.099102 C159.24283,36.099102 158.051218,35.7255613 157.141861,34.9784685 C156.232504,34.2313758 155.777832,33.2493524 155.777832,32.0323688 C155.777832,30.2339374 156.771687,28.7397744 158.759427,27.5498349 Z M161.304938,26.9210632 C162.704469,26.0015644 163.404225,24.9772853 163.404225,23.8481949 C163.404225,23.2464641 163.170973,22.7613682 162.704462,22.3928926 C162.237952,22.024417 161.622708,21.840182 160.858713,21.840182 C160.121762,21.840182 159.523421,22.0210366 159.063671,22.3827511 C158.603922,22.7444657 158.374051,23.2126593 158.374051,23.787346 C158.374051,24.3485107 158.581949,24.8505089 158.997752,25.2933557 C159.413554,25.7362025 160.182609,26.2787663 161.304938,26.9210632 Z M159.844565,28.3611532 C159.040004,28.9831671 158.49406,29.5257308 158.206716,29.9888607 C157.919373,30.4519906 157.775703,31.0283589 157.775703,31.7179829 C157.775703,32.5766325 158.052901,33.2713169 158.607305,33.8020569 C159.161708,34.332797 159.891888,34.5981631 160.797864,34.5981631 C161.670036,34.5981631 162.381623,34.3716723 162.932646,33.918684 C163.483669,33.4656956 163.759176,32.8774957 163.759176,32.1540665 C163.759176,31.5726188 163.588463,31.080762 163.247032,30.6784813 C162.9056,30.2762006 162.24472,29.7843438 161.264372,29.202896 L159.844565,28.3611532 Z" id="8" fill="#FFFFFF"></path>
        <path d="M101.242,168.862 C95.221,168.862 90.317,163.963 90.317,157.954 C90.317,151.94 95.221,147.053 101.242,147.053 C107.244,147.053 112.129,151.94 112.129,157.954 C112.129,163.963 107.244,168.862 101.242,168.862 Z M101.242,141.321 C92.055,141.321 84.595,148.786 84.595,157.954 C84.595,167.127 92.055,174.591 101.242,174.591 C110.406,174.591 117.858,167.127 117.858,157.954 C117.858,148.786 110.406,141.321 101.242,141.321 Z" id="Fill-36" fill="#FFFFFE"></path>
        <path d="M168.728,168.862 C162.707,168.862 157.815,163.963 157.815,157.954 C157.815,151.94 162.707,147.053 168.728,147.053 C174.735,147.053 179.627,151.94 179.627,157.954 C179.627,163.963 174.735,168.862 168.728,168.862 Z M168.728,141.321 C159.555,141.321 152.086,148.786 152.086,157.954 C152.086,167.127 159.555,174.591 168.728,174.591 C177.899,174.591 185.351,167.127 185.351,157.954 C185.351,148.786 177.899,141.321 168.728,141.321 Z" id="Fill-37" fill="#FFFFFE"></path>
        <polyline id="Fill-38" fill="#FFFFFE" points="75.625 52.322 75.625 55.194 70.657 55.194 70.657 70.958 66.978 70.958 66.978 55.194 62.064 55.194 62.064 52.322 75.625 52.322"></polyline>
        <path d="M81.597,60.539 L83.476,60.539 C85.894,60.539 87.21,59.491 87.21,57.719 C87.21,55.759 85.919,54.926 83.209,54.926 L81.597,54.926 L81.597,60.539 Z M84.065,52.322 C88.604,52.322 90.887,53.905 90.887,57.128 C90.887,59.491 89.517,61.129 86.993,61.666 C88.418,62.123 88.821,63.064 89.385,64.486 L91.963,70.958 L88.094,70.958 L86.001,65.319 C85.384,63.627 84.524,63.144 82.749,63.144 L81.597,63.144 L81.597,70.958 L77.971,70.958 L77.971,52.322 L84.065,52.322 Z" id="Fill-39" fill="#FFFFFE"></path>
        <path d="M98.445,63.814 L104.567,63.814 L101.558,55.436 L98.445,63.814 Z M103.841,52.322 L111.039,70.958 L107.092,70.958 L105.534,66.554 L97.422,66.554 L95.813,70.958 L92.159,70.958 L99.411,52.322 L103.841,52.322 Z" id="Fill-40" fill="#FFFFFE"></path>
        <polyline id="Fill-41" fill="#FFFFFE" points="114.255 52.322 119.143 67.708 124.085 52.322 127.818 52.322 121.183 70.958 116.726 70.958 110.361 52.322 114.255 52.322"></polyline>
        <polyline id="Fill-42" fill="#FFFFFE" points="141.364 52.322 141.364 55.007 133.658 55.007 133.658 59.947 140.961 59.947 140.961 62.687 133.658 62.687 133.658 68.138 141.632 68.138 141.632 70.958 129.978 70.958 129.978 52.322 141.364 52.322"></polyline>
        <polyline id="Fill-43" fill="#FFFFFE" points="148.948 52.322 148.948 68.111 156.412 68.111 156.412 70.958 145.268 70.958 145.268 52.322 148.948 52.322"></polyline>
        <polyline id="Fill-44" fill="#FFFFFE" points="170.197 52.322 170.197 55.007 162.491 55.007 162.491 59.947 169.794 59.947 169.794 62.687 162.491 62.687 162.491 68.138 170.465 68.138 170.465 70.958 158.811 70.958 158.811 52.322 170.197 52.322"></polyline>
        <path d="M177.727,60.539 L179.606,60.539 C182.024,60.539 183.34,59.491 183.34,57.719 C183.34,55.759 182.049,54.926 179.339,54.926 L177.727,54.926 L177.727,60.539 Z M180.195,52.322 C184.735,52.322 187.017,53.905 187.017,57.128 C187.017,59.491 185.647,61.129 183.123,61.666 C184.548,62.123 184.951,63.064 185.515,64.486 L188.093,70.958 L184.225,70.958 L182.131,65.319 C181.514,63.627 180.655,63.144 178.88,63.144 L177.727,63.144 L177.727,70.958 L174.101,70.958 L174.101,52.322 L180.195,52.322 Z" id="Fill-45" fill="#FFFFFE"></path>
        <path d="M201.044,55.732 C199.729,55.141 198.359,54.791 196.934,54.791 C194.894,54.791 193.792,55.597 193.792,56.859 C193.792,58.175 195.054,58.713 197.23,59.814 C200.346,61.398 202.064,62.768 202.064,65.533 C202.064,68.81 199.379,71.388 194.922,71.388 C193.471,71.388 191.778,70.824 190.005,70.286 L190.355,67.091 C191.941,67.87 193.496,68.514 194.922,68.514 C197.043,68.514 198.25,67.387 198.25,66.098 C198.25,64.647 196.962,64.03 194.947,62.928 C193.685,62.258 192.451,61.666 191.456,60.593 C190.597,59.68 190.141,58.498 190.141,57.209 C190.141,54.201 192.611,51.919 196.962,51.919 C198.466,51.919 199.915,52.429 201.366,52.805 L201.044,55.732" id="Fill-46" fill="#FFFFFE"></path>
        <polyline id="Fill-47" fill="#FFFFFE" points="210.237 52.322 207.848 58.927 205.056 58.927 206.746 52.322 210.237 52.322"></polyline>
        <path d="M84.392,83.523 C82.336,82.757 80.24,81.911 77.902,81.911 C71.731,81.911 67.781,86.063 67.781,92.354 C67.781,98.161 71.731,102.434 78.144,102.434 C80.24,102.434 82.336,101.467 84.473,100.821 L84.958,105.257 C82.497,105.902 80.159,106.748 77.66,106.748 C67.74,106.748 62.094,100.943 62.094,92.354 C62.094,83.725 67.942,77.596 77.377,77.596 C80.2,77.596 82.66,78.564 84.756,79.088 L84.392,83.523" id="Fill-48" fill="#FFFFFE"></path>
        <polyline id="Fill-49" fill="#FFFFFE" points="94.752 78.2 94.752 89.531 105.638 89.531 105.638 78.2 111.164 78.2 111.164 106.184 105.638 106.184 105.638 93.805 94.752 93.805 94.752 106.184 89.229 106.184 89.229 78.2 94.752 78.2"></polyline>
        <path d="M121.803,92.112 C121.803,98.563 124.947,102.515 129.425,102.515 C133.9,102.515 137.085,98.523 137.085,92.112 C137.085,85.7 133.9,81.749 129.425,81.749 C124.947,81.749 121.803,85.7 121.803,92.112 Z M142.69,92.192 C142.69,101.345 137.61,106.748 129.425,106.748 C121.239,106.748 116.198,101.345 116.198,92.192 C116.198,83.039 121.239,77.596 129.425,77.596 C137.61,77.596 142.69,83.08 142.69,92.192 Z" id="Fill-50" fill="#FFFFFE"></path>
        <polygon id="Fill-51" fill="#FFFFFE" points="147.685 106.184 153.209 106.184 153.209 78.2 147.685 78.2"></polygon>
        <path d="M180.542,83.523 C178.487,82.757 176.391,81.911 174.053,81.911 C167.882,81.911 163.932,86.063 163.932,92.354 C163.932,98.161 167.882,102.434 174.295,102.434 C176.391,102.434 178.487,101.467 180.624,100.821 L181.108,105.257 C178.648,105.902 176.309,106.748 173.81,106.748 C163.891,106.748 158.245,100.943 158.245,92.354 C158.245,83.725 164.092,77.596 173.527,77.596 C176.35,77.596 178.811,78.564 180.907,79.088 L180.542,83.523" id="Fill-52" fill="#FFFFFE"></path>
        <polyline id="Fill-53" fill="#FFFFFE" points="202.472 78.2 202.472 82.233 190.9 82.233 190.9 89.652 201.868 89.652 201.868 93.766 190.9 93.766 190.9 101.95 202.875 101.95 202.875 106.184 185.377 106.184 185.377 78.2 202.472 78.2"></polyline>
        <path d="M211.251,128.282 L211.681,128.282 C212.203,128.282 212.46,128.104 212.46,127.717 C212.46,127.302 212.191,127.124 211.617,127.124 L211.251,127.124 L211.251,128.282 Z M211.812,126.373 C213.061,126.373 213.689,126.82 213.689,127.631 C213.689,128.198 213.351,128.63 212.769,128.808 L213.732,130.722 L212.422,130.722 L211.605,128.989 L211.251,128.989 L211.251,130.722 L210.06,130.722 L210.06,126.373 L211.812,126.373 Z M209.482,126.296 C208.84,126.943 208.511,127.766 208.511,128.63 C208.511,129.486 208.821,130.266 209.429,130.881 C210.042,131.523 210.86,131.868 211.727,131.868 C212.583,131.868 213.399,131.545 214.024,130.939 C214.645,130.336 214.987,129.525 214.987,128.63 C214.987,127.766 214.666,126.969 214.066,126.361 C213.436,125.724 212.634,125.381 211.748,125.381 C210.86,125.381 210.093,125.697 209.482,126.296 Z M214.592,125.864 C215.32,126.602 215.704,127.58 215.704,128.63 C215.704,129.732 215.292,130.722 214.524,131.448 C213.749,132.194 212.753,132.597 211.727,132.597 C210.676,132.597 209.68,132.18 208.917,131.393 C208.179,130.635 207.778,129.67 207.778,128.63 C207.778,127.58 208.206,126.552 208.98,125.784 C209.731,125.058 210.676,124.669 211.727,124.669 C212.827,124.669 213.829,125.08 214.592,125.864 Z" id="Fill-54" fill="#FFFFFE"></path>
        <path d="M109.086,34.032 L109.086,35.774 L99.535,35.774 L99.535,33.987 C104.012,29.531 106.527,26.707 106.527,24.48 C106.527,23.09 105.401,22.053 103.682,22.053 C102.556,22.053 101.366,22.428 100.262,23.156 L100.02,21.193 C101.476,20.531 102.888,20.222 104.3,20.222 C106.902,20.222 108.645,21.965 108.645,24.37 C108.645,27.039 106.307,29.906 102.093,34.032 L109.086,34.032" id="Fill-55" fill="#FFFFFE"></path>
        <path d="M120.801,28.098 C120.801,32.245 121.905,34.385 123.867,34.385 C125.787,34.385 126.891,32.245 126.891,28.142 C126.891,23.928 125.81,21.788 123.846,21.788 C121.883,21.788 120.801,23.928 120.801,28.098 Z M129.053,28.119 C129.053,33.347 127.177,36.061 123.846,36.061 C120.493,36.061 118.64,33.347 118.64,28.119 C118.64,22.891 120.515,20.178 123.846,20.178 C127.199,20.178 129.053,22.891 129.053,28.119 Z" id="Fill-56" fill="#FFFFFE"></path>
        <polyline id="Fill-57" fill="#FFFFFE" points="144.164 20.465 144.164 35.774 142.157 35.774 142.157 22.759 139.621 24.943 138.517 23.553 142.4 20.465 144.164 20.465"></polyline>
    </g>
</svg>