<svg width="560px" height="560px" viewBox="0 0 560 560" version="1.1" xmlns="http://www.w3.org/2000/svg" xmlns:xlink="http://www.w3.org/1999/xlink">
    <g id="Page-1" stroke="none" stroke-width="1" fill="none" fill-rule="evenodd">
        <g id="up-arrow" transform="translate(0.000000, -1.000000)" fill="#FFFFFF" fill-rule="nonzero">
            <path d="M279.999,1.001 C125.341,1.001 0,126.343 0,281 C0,435.657 126.087,560.999 279.999,560.999 C433.91,560.999 559.999731,435.658 559.999731,281 C560.676,126.343 434.656,1.001 279.999,1.001 Z M279.999,533.786 C140.746,533.786 27.145,420.184 27.145,280.932 C27.145,141.68 140.746,28.078 279.999,28.078 C419.252,28.078 532.853,141.679 532.853,280.932 C532.853,420.186 419.998,533.786 279.999,533.786 Z M422.916,280.932 C422.916,288.262 417.08,294.098 409.75,294.098 L194.968,294.098 L271.177,370.307 C276.334,375.464 276.334,384.218 271.177,389.376 C268.26,392.294 265.341,393.04 261.677,393.04 C258.012,393.04 255.094,391.547 252.176,389.376 L152.487,290.501 C151.741,289.754 150.994,289.008 150.994,288.329 L150.248,287.582 C150.248,286.836 149.501,286.836 149.501,286.09 C149.501,285.343 149.501,285.343 148.754,284.596 C148.754,283.85 148.754,283.85 148.754,283.104 C148.754,281.61 148.754,279.439 148.754,277.946 C148.754,277.2 148.754,277.2 148.754,276.453 C148.754,275.706 148.754,275.706 149.501,274.96 C149.501,274.213 150.248,274.213 150.248,273.467 C150.248,273.467 150.248,272.72 150.994,272.72 C151.741,271.973 151.741,271.227 152.487,270.548 L252.923,170.114 C258.08,164.957 266.834,164.957 271.992,170.114 C277.149,175.271 277.149,184.025 271.992,189.184 L194.969,267.021 L409.685,267.021 C417.012,267.021 422.916,273.604 422.916,280.932 Z" id="Shape" transform="translate(280.001220, 281.000000) rotate(-270.000000) translate(-280.001220, -281.000000) "></path>
        </g>
    </g>
</svg>