<?xml version="1.0" encoding="UTF-8"?>
<svg width="752pt" height="752pt" version="1.1" viewBox="0 0 752 752" xmlns="http://www.w3.org/2000/svg">
 <g fill="#ffffff">
  <path d="m346.76 196.99c3.1406 0 5.6836-2.543 5.6836-5.6836v-18.348c0-3.1367-2.543-5.6836-5.6836-5.6836-3.1367 0-5.6836 2.5469-5.6836 5.6836v18.348c0 3.1406 2.5469 5.6836 5.6836 5.6836z"/>
  <path d="m321.63 199.83c1.5703 2.7227 5.0469 3.6523 7.7695 2.0859 2.7188-1.5703 3.6523-5.0469 2.082-7.7695l-9.1016-15.941v0.003906c-1.5703-2.7305-5.0547-3.668-7.7812-2.0977-2.7266 1.5664-3.668 5.0508-2.0977 7.7773z"/>
  <path d="m293.17 207.48 15.809 9.3203c2.7031 1.5938 6.1836 0.69531 7.7773-2.0078 1.5898-2.6992 0.69141-6.1797-2.0078-7.7734l-15.809-9.3203c-1.3008-0.83594-2.8828-1.1016-4.3867-0.74609-1.5 0.35938-2.793 1.3125-3.5781 2.6445-0.78516 1.3281-0.99219 2.9219-0.57812 4.4062 0.41406 1.4883 1.4141 2.7461 2.7734 3.4766z"/>
  <path d="m288.07 237.6 18.355 0.25391h0.058594v0.003906c3.1367 0.03125 5.707-2.4883 5.7383-5.6289 0.03125-3.1367-2.4883-5.707-5.625-5.7383l-18.348-0.25391h-0.085938v-0.003906c-1.5039-0.007813-2.957 0.57812-4.0312 1.6367-1.0703 1.0586-1.6797 2.5-1.6914 4.0039-0.023438 3.1406 2.5 5.7031 5.6406 5.7266z"/>
  <path d="m309.14 247.46-16.102 8.8828v0.003906c-1.3203 0.72656-2.2969 1.9492-2.7148 3.3984-0.41797 1.4492-0.24219 3.0039 0.48438 4.3242 1.5156 2.75 4.9766 3.7461 7.7227 2.2305l16.102-8.875h0.003907c2.7461-1.5156 3.7461-4.9766 2.2305-7.7227-1.5195-2.75-4.9766-3.75-7.7266-2.2305z"/>
  <path d="m364.23 201.91c1.3125 0.74609 2.8633 0.94531 4.3203 0.54688 1.4531-0.39844 2.6914-1.3594 3.4375-2.668l9.1016-15.941c1.5703-2.7305 0.63281-6.2109-2.0977-7.7812-2.7266-1.5703-6.2109-0.62891-7.7812 2.0977l-9.0898 15.977c-0.75391 1.3125-0.95313 2.8672-0.55859 4.3242 0.39844 1.457 1.3594 2.6953 2.668 3.4453z"/>
  <path d="m376.87 214.79c1.5977 2.7031 5.0742 3.6016 7.7773 2.0078l15.809-9.3203c1.3594-0.73047 2.3594-1.9883 2.7734-3.4766 0.41406-1.4844 0.20703-3.0781-0.57812-4.4062-0.78516-1.332-2.0742-2.2852-3.5781-2.6445-1.5039-0.35547-3.0859-0.089844-4.3867 0.74609l-15.844 9.3203c-2.6875 1.6055-3.5664 5.082-1.9727 7.7734z"/>
  <path d="m381.46 232.26c0.046875 3.1055 2.5781 5.5977 5.6836 5.5977h0.085937l18.355-0.25391v-0.003907c3.1367-0.023437 5.6641-2.5859 5.6406-5.7266-0.023437-3.1367-2.5898-5.6641-5.7266-5.6406h-0.13281l-18.348 0.25391v0.003907c-3.1211 0.066406-5.6055 2.6445-5.5586 5.7695z"/>
  <path d="m384.53 247.46c-2.75-1.5156-6.207-0.51563-7.7266 2.2305-1.5156 2.75-0.51562 6.207 2.2305 7.7266l16.102 8.8828c2.75 1.5156 6.207 0.51953 7.7266-2.2305 1.5156-2.75 0.51562-6.207-2.2305-7.7227z"/>
  <path d="m467.04 460.79c17.371-14.91 15.203-54.832 13.262-90.055-0.44531-8.1172-0.87109-15.941-1.0234-23.008-0.27734-5.6992-2.7852-11.055-6.9883-14.914-4.1992-3.8555-9.7539-5.8984-15.453-5.6875-4.4102-0.015625-8.7344 1.2188-12.473 3.5586-1.6953-4.7031-4.8594-8.7422-9.0195-11.523-4.1602-2.7773-9.1016-4.1484-14.102-3.9141-5.2344-0.035156-10.359 1.5-14.707 4.4141-1.9844-4.1172-5.1094-7.582-9.0078-9.9727-3.8945-2.3906-8.3984-3.6094-12.969-3.5156-4.4336-0.015625-8.793 1.1523-12.625 3.3828l-0.11328-78.473c0.09375-6.4531-2.4258-12.668-6.9805-17.234-4.5586-4.5703-10.766-7.1055-17.219-7.0312-6.4492 0.074219-12.598 2.7539-17.047 7.4258s-6.8242 10.941-6.5859 17.391v104.64h-6.6289c-3.1484 0.03125-6.2539 0.71484-9.1211 2.0078-8.7656 4.125-15.969 10.969-20.535 19.512-11.066 20.906-12.078 45.699-2.7461 67.438 7.4062 17.93 28.945 37.488 41.809 49.168 2.9648 2.6992 6.2695 5.6836 7.7656 7.2734v19.305h-14.008c-3.1406 0-5.6836 2.543-5.6836 5.6836v75.582c0 3.1367 2.543 5.6836 5.6836 5.6836 3.1367 0 5.6836-2.5469 5.6836-5.6836v-69.91h137.57v69.91c0 3.1367 2.543 5.6836 5.6836 5.6836 3.1367 0 5.6797-2.5469 5.6797-5.6836v-75.582c0-3.1406-2.543-5.6836-5.6797-5.6836h-15.051c-0.55859-9.1523-0.15234-29.223 12.625-40.188zm-121.09 40.176v-21.027c0-3.5156-1.9805-5.3125-11.488-13.953-12.152-11.055-32.516-29.531-38.938-45.113l-0.003907 0.003906c-8.0234-18.574-7.2031-39.781 2.2266-57.684 3.4141-6.4141 8.8047-11.555 15.375-14.66 1.4062-0.60547 2.918-0.92969 4.4492-0.94922h4.9453c-1.1055 4.2617-2.6758 8.3906-4.6797 12.312-2.7539 5.3203-4.2188 11.211-4.2695 17.203-0.085937 10.156 1.8203 20.23 5.6055 29.652 1.293 2.8633 4.6602 4.1367 7.5195 2.8438 1.375-0.62109 2.4453-1.7617 2.9805-3.1719 0.53125-1.4102 0.48047-2.9766-0.13672-4.3477-3.1055-7.9297-4.6562-16.379-4.5781-24.895 0.0625-4.2148 1.1133-8.3594 3.0703-12.094 4.668-8.8555 7.1875-18.688 7.3594-28.699v-104.73c-0.23047-7.168 5.3672-13.176 12.531-13.461 7.043 0.18359 12.637 5.9883 12.551 13.035l0.20703 125.7v-0.003906c0 3.1406 2.543 5.6836 5.6836 5.6836 3.1367 0 5.6836-2.543 5.6836-5.6836v-28.289c0.78906-6.2734 6.0781-11.004 12.402-11.09 6.3203-0.085938 11.738 4.5 12.695 10.746l0.20703 30.613h0.003906c0 3.1406 2.543 5.6836 5.6836 5.6836 3.1367 0 5.6797-2.543 5.6797-5.6836v-22.73c0-5.1328 5.75-9.4727 12.559-9.4727h0.003906c5.957-0.66797 11.422 3.3633 12.539 9.2539l0.61719 30.566c0.22266 3.0391 2.6836 5.4336 5.7305 5.5664 3.1133-0.03125 5.625-2.5664 5.625-5.6797v-18.207c0.73047-5.5195 5.4141-9.6641 10.984-9.7188 5.5664-0.058594 10.332 3.9883 11.18 9.4922 0.16016 7.1875 0.58594 15.156 1.0312 23.367 1.6758 30.98 3.7891 69.559-9.3477 80.82-16.234 13.922-17.23 37.395-16.621 48.797z"/>
 </g>
</svg>
