<?xml version="1.0" encoding="utf-8"?>
<!-- Generator: Adobe Illustrator 26.0.2, SVG Export Plug-In . SVG Version: 6.00 Build 0)  -->
<svg version="1.1" id="Layer_1" xmlns="http://www.w3.org/2000/svg" xmlns:xlink="http://www.w3.org/1999/xlink" x="0px" y="0px"
	 viewBox="0 0 566.9 27.7" style="enable-background:new 0 0 566.9 27.7;" xml:space="preserve">
<style type="text/css">
	.st0{fill:#FFFFFF;}
</style>
<g id="Layer_2_00000027603142046390128910000012439094357096002744_">
	<g id="Pattern">
		<polygon class="st0" points="552.8,20.1 565.4,12.1 540.1,12.1 		"/>
		<polygon class="st0" points="538.6,0 525.9,8.1 551.2,8.1 		"/>
		<polygon class="st0" points="538.6,15.6 525.9,23.7 551.2,23.7 		"/>
		<polygon class="st0" points="552.8,20.1 565.4,12.1 540.1,12.1 		"/>
		<polygon class="st0" points="524.4,20.1 537.1,12.1 511.8,12.1 		"/>
		<polygon class="st0" points="538.6,0 525.9,8.1 551.2,8.1 		"/>
		<polygon class="st0" points="510.2,0 497.6,8.1 522.9,8.1 		"/>
		<polygon class="st0" points="510.2,15.6 497.6,23.7 522.9,23.7 		"/>
		<polygon class="st0" points="524.4,20.1 537.1,12.1 511.8,12.1 		"/>
		<polygon class="st0" points="496.1,20.1 508.7,12.1 483.4,12.1 		"/>
		<polygon class="st0" points="510.2,0 497.6,8.1 522.9,8.1 		"/>
		<polygon class="st0" points="481.9,0 469.2,8.1 494.5,8.1 		"/>
		<polygon class="st0" points="481.9,15.6 469.2,23.7 494.5,23.7 		"/>
		<polygon class="st0" points="496.1,20.1 508.7,12.1 483.4,12.1 		"/>
		<polygon class="st0" points="467.7,20.1 480.4,12.1 455.1,12.1 		"/>
		<polygon class="st0" points="481.9,0 469.2,8.1 494.5,8.1 		"/>
		<polygon class="st0" points="453.5,0 440.9,8.1 466.2,8.1 		"/>
		<polygon class="st0" points="453.5,15.6 440.9,23.7 466.2,23.7 		"/>
		<polygon class="st0" points="467.7,20.1 480.4,12.1 455.1,12.1 		"/>
		<polygon class="st0" points="439.4,20.1 452,12.1 426.7,12.1 		"/>
		<polygon class="st0" points="453.5,0 440.9,8.1 466.2,8.1 		"/>
		<polygon class="st0" points="425.2,0 412.5,8.1 437.9,8.1 		"/>
		<polygon class="st0" points="425.2,15.6 412.5,23.7 437.9,23.7 		"/>
		<polygon class="st0" points="439.4,20.1 452,12.1 426.7,12.1 		"/>
		<polygon class="st0" points="411,20.1 423.7,12.1 398.4,12.1 		"/>
		<polygon class="st0" points="425.2,0 412.5,8.1 437.9,8.1 		"/>
		<polygon class="st0" points="396.9,0 384.2,8.1 409.5,8.1 		"/>
		<polygon class="st0" points="396.9,15.6 384.2,23.7 409.5,23.7 		"/>
		<polygon class="st0" points="411,20.1 423.7,12.1 398.4,12.1 		"/>
		<polygon class="st0" points="382.7,20.1 395.3,12.1 370,12.1 		"/>
		<polygon class="st0" points="396.9,0 384.2,8.1 409.5,8.1 		"/>
		<polygon class="st0" points="368.5,0 355.9,8.1 381.2,8.1 		"/>
		<polygon class="st0" points="368.5,15.6 355.9,23.7 381.2,23.7 		"/>
		<polygon class="st0" points="382.7,20.1 395.3,12.1 370,12.1 		"/>
		<polygon class="st0" points="354.3,20.1 367,12.1 341.7,12.1 		"/>
		<polygon class="st0" points="368.5,0 355.9,8.1 381.2,8.1 		"/>
		<polygon class="st0" points="340.2,0 327.5,8.1 352.8,8.1 		"/>
		<polygon class="st0" points="340.2,15.6 327.5,23.7 352.8,23.7 		"/>
		<polygon class="st0" points="354.3,20.1 367,12.1 341.7,12.1 		"/>
		<polygon class="st0" points="326,20.1 338.6,12.1 313.3,12.1 		"/>
		<polygon class="st0" points="340.2,0 327.5,8.1 352.8,8.1 		"/>
		<polygon class="st0" points="311.8,0 299.2,8.1 324.5,8.1 		"/>
		<polygon class="st0" points="311.8,15.6 299.2,23.7 324.5,23.7 		"/>
		<polygon class="st0" points="326,20.1 338.6,12.1 313.3,12.1 		"/>
		<polygon class="st0" points="297.6,20.1 310.3,12.1 285,12.1 		"/>
		<polygon class="st0" points="311.8,0 299.2,8.1 324.5,8.1 		"/>
		<polygon class="st0" points="283.5,0 270.8,8.1 296.1,8.1 		"/>
		<polygon class="st0" points="283.5,15.6 270.8,23.7 296.1,23.7 		"/>
		<polygon class="st0" points="297.6,20.1 310.3,12.1 285,12.1 		"/>
		<polygon class="st0" points="269.3,20.1 282,12.1 256.6,12.1 		"/>
		<polygon class="st0" points="283.5,0 270.8,8.1 296.1,8.1 		"/>
		<polygon class="st0" points="255.1,0 242.5,8.1 267.8,8.1 		"/>
		<polygon class="st0" points="255.1,15.6 242.5,23.7 267.8,23.7 		"/>
		<polygon class="st0" points="269.3,20.1 282,12.1 256.6,12.1 		"/>
		<polygon class="st0" points="240.9,20.1 253.6,12.1 228.3,12.1 		"/>
		<polygon class="st0" points="255.1,0 242.5,8.1 267.8,8.1 		"/>
		<polygon class="st0" points="226.8,0 214.1,8.1 239.4,8.1 		"/>
		<polygon class="st0" points="226.8,15.6 214.1,23.7 239.4,23.7 		"/>
		<polygon class="st0" points="240.9,20.1 253.6,12.1 228.3,12.1 		"/>
		<polygon class="st0" points="212.6,20.1 225.2,12.1 199.9,12.1 		"/>
		<polygon class="st0" points="226.8,0 214.1,8.1 239.4,8.1 		"/>
		<polygon class="st0" points="198.4,0 185.8,8.1 211.1,8.1 		"/>
		<polygon class="st0" points="198.4,15.6 185.8,23.7 211.1,23.7 		"/>
		<polygon class="st0" points="212.6,20.1 225.2,12.1 199.9,12.1 		"/>
		<polygon class="st0" points="184.2,20.1 196.9,12.1 171.6,12.1 		"/>
		<polygon class="st0" points="198.4,0 185.8,8.1 211.1,8.1 		"/>
		<polygon class="st0" points="170.1,0 157.4,8.1 182.7,8.1 		"/>
		<polygon class="st0" points="170.1,15.6 157.4,23.7 182.7,23.7 		"/>
		<polygon class="st0" points="184.2,20.1 196.9,12.1 171.6,12.1 		"/>
		<polygon class="st0" points="155.9,20.1 168.6,12.1 143.2,12.1 		"/>
		<polygon class="st0" points="170.1,0 157.4,8.1 182.7,8.1 		"/>
		<polygon class="st0" points="141.7,0 129.1,8.1 154.4,8.1 		"/>
		<polygon class="st0" points="141.7,15.6 129.1,23.7 154.4,23.7 		"/>
		<polygon class="st0" points="155.9,20.1 168.6,12.1 143.2,12.1 		"/>
		<polygon class="st0" points="127.6,20.1 140.2,12.1 114.9,12.1 		"/>
		<polygon class="st0" points="141.7,0 129.1,8.1 154.4,8.1 		"/>
		<polygon class="st0" points="113.4,0 100.7,8.1 126,8.1 		"/>
		<polygon class="st0" points="113.4,15.6 100.7,23.7 126,23.7 		"/>
		<polygon class="st0" points="127.6,20.1 140.2,12.1 114.9,12.1 		"/>
		<polygon class="st0" points="99.2,20.1 111.9,12.1 86.6,12.1 		"/>
		<polygon class="st0" points="113.4,0 100.7,8.1 126,8.1 		"/>
		<polygon class="st0" points="85,0 72.4,8.1 97.7,8.1 		"/>
		<polygon class="st0" points="85,15.6 72.4,23.7 97.7,23.7 		"/>
		<polygon class="st0" points="99.2,20.1 111.9,12.1 86.6,12.1 		"/>
		<polygon class="st0" points="70.9,20.1 83.5,12.1 58.2,12.1 		"/>
		<polygon class="st0" points="85,0 72.4,8.1 97.7,8.1 		"/>
		<polygon class="st0" points="56.7,0 44,8.1 69.3,8.1 		"/>
		<polygon class="st0" points="56.7,15.6 44,23.7 69.3,23.7 		"/>
		<polygon class="st0" points="70.9,20.1 83.5,12.1 58.2,12.1 		"/>
		<polygon class="st0" points="42.5,20.1 55.2,12.1 29.9,12.1 		"/>
		<polygon class="st0" points="56.7,0 44,8.1 69.3,8.1 		"/>
		<polygon class="st0" points="28.4,0 15.7,8.1 41,8.1 		"/>
		<polygon class="st0" points="28.4,15.6 15.7,23.7 41,23.7 		"/>
		<polygon class="st0" points="42.5,20.1 55.2,12.1 29.9,12.1 		"/>
		<polygon class="st0" points="14.2,20.1 26.8,12.1 1.5,12.1 		"/>
		<polygon class="st0" points="28.4,0 15.7,8.1 41,8.1 		"/>
		<polygon class="st0" points="14.2,20.1 26.8,12.1 1.5,12.1 		"/>
		<polygon class="st0" points="0,15.6 0,23.7 12.6,23.7 		"/>
		<polygon class="st0" points="0,0 0,8.1 12.6,8.1 		"/>
		<polygon class="st0" points="554.3,23.7 566.9,23.7 566.9,15.6 		"/>
		<polygon class="st0" points="554.3,8.1 566.9,8.1 566.9,0 		"/>
	</g>
</g>
</svg>
