<svg width="31" height="690" viewBox="0 0 31 690" fill="none" xmlns="http://www.w3.org/2000/svg">
<path d="M7.01129 3.95548e-06C16.6251 21.8029 27.6239 42.6002 29.5455 68.4323C32.589 109.318 19.9187 143.028 7.29347 177.782C-3.46054 207.346 -0.867852 234.62 5.73786 264.87C12.321 294.968 22.9849 324.201 21.9703 355.927C20.7303 394.599 8.98434 404.111 2.37863 441.18C37.0145 441.18 4.43619 441.18 31 441.18C31 420.695 31 112.418 31 2.90766e-06C2.1849 4.1663e-06 29.5454 2.97119e-06 7.01129 3.95548e-06Z" fill="white"/>
<path d="M7.01129 690C16.6251 668.197 27.6239 647.4 29.5455 621.568C32.589 580.682 19.9187 546.972 7.29347 512.218C-3.46054 482.654 -0.867852 455.38 5.73786 425.13C12.321 395.032 22.9849 365.799 21.9703 334.073C20.7303 295.401 8.98434 285.889 2.37863 248.82C37.0145 248.82 4.43619 248.82 31 248.82C31 269.305 31 577.582 31 690C2.1849 690 29.5454 690 7.01129 690Z" fill="white"/>
</svg>
