<svg width="1203" height="31" viewBox="0 0 1203 31" fill="none" xmlns="http://www.w3.org/2000/svg">
<path d="M690.5 6.99448C668.681 16.5852 647.869 27.5576 622.018 29.4745C581.103 32.5108 547.368 19.8709 512.589 7.27596C483.004 -3.45222 455.71 -0.865759 425.438 5.72409C395.318 12.2914 366.064 22.9297 334.315 21.9176C295.615 20.6806 286.096 8.96277 249 2.37292C249 36.9256 249 4.42554 249 30.9255C269.5 30.9255 578 30.9255 690.5 30.9255C690.5 2.17967 690.5 29.4745 690.5 6.99448Z" fill="white"/>
<path d="M1202.5 6.99448C1180.68 16.5852 1159.87 27.5576 1134.02 29.4745C1093.1 32.5108 1059.37 19.8709 1024.59 7.27596C995.004 -3.45222 967.71 -0.865759 937.438 5.72409C907.318 12.2914 878.064 22.9297 846.315 21.9176C807.615 20.6806 798.096 8.96277 761 2.37292C761 36.9256 761 4.42554 761 30.9255C781.5 30.9255 1090 30.9255 1202.5 30.9255C1202.5 2.17967 1202.5 29.4745 1202.5 6.99448Z" fill="white"/>
<path d="M512 6.99444C533.819 16.5852 554.631 27.5576 580.482 29.4745C621.397 32.5108 655.132 19.8709 689.911 7.27594C719.496 -3.45224 746.79 -0.865777 777.062 5.72407C807.182 12.2914 836.436 22.9297 868.185 21.9176C906.885 20.6806 916.404 8.96277 953.5 2.37292C953.5 36.9256 953.5 4.42554 953.5 30.9255C933 30.9255 624.5 30.9255 512 30.9255C512 2.17963 512 29.4745 512 6.99444Z" fill="white"/>
<path d="M-6.11476e-07 6.99444C21.8187 16.5852 42.631 27.5576 68.4818 29.4745C109.397 32.5108 143.132 19.8709 177.911 7.27594C207.496 -3.45224 234.79 -0.865777 265.062 5.72407C295.182 12.2914 324.436 22.9297 356.185 21.9176C394.885 20.6806 404.404 8.96277 441.5 2.37292C441.5 36.9256 441.5 4.42554 441.5 30.9255C421 30.9255 112.5 30.9255 -2.7036e-06 30.9255C-1.90553e-07 2.17963 -2.57674e-06 29.4745 -6.11476e-07 6.99444Z" fill="white"/>
</svg>
