<svg width="1920" height="129" viewBox="0 0 1920 129" fill="none" xmlns="http://www.w3.org/2000/svg">
<mask id="mask0_3_279" style="mask-type:alpha" maskUnits="userSpaceOnUse" x="0" y="0" width="1920" height="129">
<rect width="1920" height="129" fill="white"/>
</mask>
<g mask="url(#mask0_3_279)">
<path d="M2030.96 1.19965C1907.1 -10.9396 1795.15 73.215 1711.14 66.1611C1700.07 65.2589 1692.38 63.4544 1687.32 61.0758C1682.05 58.6151 1679.62 53.7758 1679.94 49.0185C1679.94 49.0185 1679.94 49.0185 1679.94 48.9365C1679.94 47.8702 1679.94 46.7219 1679.94 45.6556C1679.94 45.4095 1679.94 45.1635 1679.94 44.9174C1679.94 43.9332 1679.83 42.8669 1679.62 41.8826C1679.62 41.5545 1679.62 41.2264 1679.52 40.8983C1679.41 39.9961 1679.2 39.0118 1678.99 38.1096C1678.99 37.6995 1678.78 37.2894 1678.67 36.8792C1678.46 36.059 1678.15 35.1568 1677.83 34.3366C1677.62 33.8444 1677.51 33.4343 1677.3 32.9422C1676.99 32.122 1676.56 31.3838 1676.14 30.6456C1675.83 30.1534 1675.62 29.6613 1675.3 29.1692C1674.88 28.431 1674.35 27.6928 1673.82 27.0366C1673.4 26.5445 1673.09 25.9703 1672.66 25.4782C1672.14 24.822 1671.5 24.1658 1670.98 23.5097C1670.45 23.0175 1669.92 22.4434 1669.4 21.9512C1668.76 21.3771 1668.13 20.7209 1667.39 20.1467C1666.76 19.5726 1666.02 19.0805 1665.39 18.5883C1664.65 18.0142 1663.92 17.44 1663.07 16.9479C1662.23 16.4558 1661.39 15.8816 1660.54 15.3895C1659.7 14.8973 1658.86 14.4052 1657.91 13.9131C1656.96 13.4209 1655.9 12.9288 1654.85 12.4367C1653.9 12.0266 1652.95 11.5344 1651.9 11.1243C1650.74 10.6322 1649.47 10.2221 1648.31 9.72995C1647.26 9.31984 1646.21 8.90972 1645.05 8.58164C1643.68 8.17153 1642.2 7.76142 1640.83 7.26928C1639.67 6.9412 1638.51 6.61311 1637.35 6.28502C1635.77 5.87491 1633.98 5.4648 1632.19 5.13671C1631.03 4.89064 1629.87 4.56256 1628.6 4.31649C1626.6 3.90638 1624.39 3.57829 1622.17 3.2502C1621.01 3.08616 1619.96 2.84009 1618.8 2.67605C1615.43 2.18392 1611.74 1.7738 1608.05 1.36369C1484.19 -10.7756 1372.24 73.3791 1288.23 66.3252C1285.49 66.0791 1282.85 65.833 1280.53 65.4229C1278.63 65.1769 1276.95 64.8488 1275.37 64.5207C1274.95 64.5207 1274.52 64.3566 1274.1 64.2746C1270.2 63.4544 1266.93 62.3881 1264.4 61.1578C1259.13 58.6971 1256.71 53.8578 1257.03 49.1005C1258.4 28.431 1244.27 7.10524 1185.03 1.28167C1061.17 -10.8576 949.222 73.2971 865.209 66.2432C850.979 65.0128 842.335 62.4701 837.697 59.0252C834.956 56.4005 833.691 52.8736 833.902 49.4286C835.272 28.7591 821.147 7.43333 761.905 1.60976C638.046 -10.5295 526.099 73.6251 442.086 66.5712C419.738 64.6847 410.989 59.3533 410.251 52.7095C410.251 53.2016 409.513 39.9961 405.719 33.5984C405.719 33.5163 405.613 33.3523 405.508 33.2703C404.981 32.368 404.348 31.3838 403.61 30.4815C403.294 29.9894 402.873 29.4973 402.451 29.0872C401.924 28.513 401.502 27.9388 400.975 27.3647C400.237 26.5445 399.394 25.7243 398.551 24.9861C398.234 24.74 398.024 24.4939 397.707 24.2479C387.166 15.0614 368.614 7.76142 337.728 4.7266C213.869 -7.65873 101.922 76.4959 17.9083 69.442C1.25321 68.0476 -7.91762 64.6847 -11.7125 60.3376C-11.7125 60.3376 -11.8179 60.1735 -11.9233 60.1735C-12.3449 59.5994 -12.7666 59.0252 -13.0828 58.4511C-13.2936 58.123 -13.399 57.7949 -13.5045 57.4668C-13.5045 57.2207 -13.7153 56.8926 -13.7153 56.5645C-17.4047 38.2736 43.945 9.15579 53.3267 15.4715C65.9761 24.0838 45.3154 41.1444 36.25 40.0781C28.4495 39.1759 26.1304 34.5826 32.7714 26.3804C22.7572 32.122 16.8542 44.0152 31.5064 46.2298C50.4806 49.1826 75.9902 28.431 61.6542 13.1749C45.5262 -3.96774 -27.1026 37.9455 -29 66.1611V129H2102.85V49.8387C2104.64 28.9231 2090.94 7.02322 2030.96 1.19965Z" fill="url(#paint0_linear_3_279)"/>
<path d="M-14 81.1611C-12.1026 52.9455 60.5262 11.0323 76.6542 28.1749C90.9902 43.431 65.4806 64.1826 46.5064 61.2298C31.8542 59.0152 37.7572 47.122 47.7714 41.3804C41.1304 49.5826 43.4495 54.1759 51.25 55.0781C60.3154 56.1444 80.9761 39.0838 68.3267 30.4715C58.945 24.1558 -2.40469 53.2736 1.28473 71.5645C1.28473 71.8926 1.49555 72.2207 1.49555 72.4668C1.60096 72.7949 1.70637 73.123 1.9172 73.4511C2.23343 74.0252 2.65508 74.5994 3.07673 75.1735C3.18214 75.1735 3.28755 75.3376 3.28755 75.3376C7.08238 79.6847 16.2532 83.0476 32.9083 84.442C116.922 91.4959 228.869 7.34127 352.728 19.7266C383.614 22.7614 402.166 30.0614 412.707 39.2479C413.024 39.4939 413.234 39.74 413.551 39.9861C414.394 40.7243 415.237 41.5445 415.975 42.3647C416.502 42.9388 416.924 43.513 417.451 44.0872C417.873 44.4973 418.294 44.9894 418.61 45.4815C419.348 46.3838 419.981 47.368 420.508 48.2703C420.613 48.3523 420.719 48.5163 420.719 48.5984C424.513 54.9961 425.251 68.2016 425.251 67.7095C425.989 74.3533 434.738 79.6847 457.086 81.5712C541.099 88.6251 653.046 4.47049 776.905 16.6098C836.147 22.4333 850.272 43.7591 848.902 64.4286C848.691 67.8736 849.956 71.4005 852.697 74.0252C857.335 77.4701 865.979 80.0128 880.209 81.2432C964.222 88.2971 1076.17 4.14241 1200.03 16.2817C1259.27 22.1052 1273.4 43.431 1272.03 64.1005C1271.71 68.8578 1274.13 73.6971 1279.4 76.1578C1281.93 77.3881 1285.2 78.4544 1289.1 79.2746C1289.52 79.3566 1289.95 79.5207 1290.37 79.5207C1291.95 79.8488 1293.63 80.1769 1295.53 80.4229C1297.85 80.833 1300.49 81.0791 1303.23 81.3252C1387.24 88.3791 1499.19 4.22443 1623.05 16.3637C1626.74 16.7738 1630.43 17.1839 1633.8 17.676C1634.96 17.8401 1636.01 18.0862 1637.17 18.2502C1639.39 18.5783 1641.6 18.9064 1643.6 19.3165C1644.87 19.5626 1646.03 19.8906 1647.19 20.1367C1648.98 20.4648 1650.77 20.8749 1652.35 21.285C1653.51 21.6131 1654.67 21.9412 1655.83 22.2693C1657.2 22.7614 1658.68 23.1715 1660.05 23.5816C1661.21 23.9097 1662.26 24.3198 1663.31 24.7299C1664.47 25.2221 1665.74 25.6322 1666.9 26.1243C1667.95 26.5344 1668.9 27.0266 1669.85 27.4367C1670.9 27.9288 1671.96 28.4209 1672.91 28.9131C1673.86 29.4052 1674.7 29.8973 1675.54 30.3895C1676.39 30.8816 1677.23 31.4558 1678.07 31.9479C1678.92 32.44 1679.65 33.0142 1680.39 33.5883C1681.02 34.0805 1681.76 34.5726 1682.39 35.1467C1683.13 35.7209 1683.76 36.3771 1684.4 36.9512C1684.92 37.4434 1685.45 38.0175 1685.98 38.5097C1686.5 39.1658 1687.14 39.822 1687.66 40.4782C1688.09 40.9703 1688.4 41.5445 1688.82 42.0366C1689.35 42.6928 1689.88 43.431 1690.3 44.1692C1690.62 44.6613 1690.83 45.1534 1691.14 45.6456C1691.56 46.3838 1691.99 47.122 1692.3 47.9422C1692.51 48.4343 1692.62 48.8444 1692.83 49.3366C1693.15 50.1568 1693.46 51.059 1693.67 51.8792C1693.78 52.2894 1693.99 52.6995 1693.99 53.1096C1694.2 54.0118 1694.41 54.9961 1694.52 55.8983C1694.62 56.2264 1694.62 56.5545 1694.62 56.8826C1694.83 57.8669 1694.94 58.9332 1694.94 59.9174C1694.94 60.1635 1694.94 60.4095 1694.94 60.6556C1694.94 61.7219 1694.94 62.8702 1694.94 63.9365C1694.94 64.0185 1694.94 64.0185 1694.94 64.0185C1694.62 68.7758 1697.05 73.6151 1702.32 76.0758C1707.38 78.4544 1715.07 80.2589 1726.14 81.1611C1810.15 88.215 1922.1 4.06038 2045.96 16.1997C2105.94 22.0232 2119.64 43.9231 2117.85 64.8387" stroke="#7FBC42" stroke-width="3"/>
</g>
<defs>
<linearGradient id="paint0_linear_3_279" x1="1059" y1="-361.5" x2="1056" y2="114" gradientUnits="userSpaceOnUse">
<stop stop-color="white" stop-opacity="0.1"/>
<stop offset="1" stop-color="white"/>
</linearGradient>
</defs>
</svg>
