<svg fill="none" height="174" viewBox="0 0 520 174" width="520" xmlns="http://www.w3.org/2000/svg"><g fill="#fff"><path d="m81.6279 134.498 3.4366-4.414c1.6621 1.932 3.7172 3.526 6.1655 4.784 2.4707 1.236 5.2221 1.853 8.2544 1.853 1.9536 0 3.6616-.247 5.1206-.741 1.483-.494 2.617-1.146 3.403-1.954.809-.809 1.393-1.651 1.752-2.527.382-.898.573-1.831.573-2.796 0-1.258-.314-2.359-.943-3.302-.607-.966-1.438-1.741-2.494-2.325-1.055-.606-2.268-1.134-3.638-1.583-1.348-.472-2.774-.91-4.279-1.314-1.5049-.405-3.021-.82-4.5483-1.247-1.5049-.427-2.9424-.966-4.3125-1.617-1.3477-.651-2.5494-1.404-3.605-2.257-1.0557-.876-1.898-1.988-2.5269-3.336-.6064-1.37-.9096-2.931-.9096-4.683 0-3.773 1.4936-6.851 4.4809-9.2314 3.0098-2.4033 6.8057-3.605 11.3877-3.605 6.7387 0 12.1627 2.1675 16.2727 6.5024l-3.436 4.212c-3.257-3.684-7.693-5.5259-13.3084-5.5259-2.7402 0-5.0088.6849-6.8056 2.0549-1.7744 1.348-2.6617 3.1-2.6617 5.256 0 1.101.3033 2.067.9097 2.898.6289.831 1.4712 1.516 2.5269 2.055 1.0556.516 2.2573.988 3.605 1.415 1.3701.427 2.8076.842 4.3121 1.246 1.528.405 3.044.843 4.549 1.314 1.505.45 2.931 1.034 4.279 1.752 1.37.697 2.583 1.516 3.638 2.46 1.056.921 1.887 2.1 2.493 3.537.629 1.438.944 3.078.944 4.919 0 1.752-.315 3.403-.944 4.953s-1.583 2.987-2.863 4.312c-1.281 1.303-3.055 2.348-5.324 3.134-2.246.763-4.862 1.145-7.8498 1.145-3.7959 0-7.1875-.651-10.1748-1.954-2.9648-1.325-5.458-3.122-7.4795-5.39zm42.5021 6.502v-46.0225h18.497c4.447 0 7.962 1.3365 10.545 4.0093 2.583 2.6502 3.875 5.9412 3.875 9.8712 0 3.909-1.303 7.199-3.908 9.872-2.583 2.65-6.087 3.976-10.512 3.976h-12.769v18.294zm5.728-23.382h12.061c2.718 0 4.931-.808 6.638-2.426 1.707-1.617 2.56-3.728 2.56-6.334 0-2.605-.853-4.716-2.56-6.334-1.707-1.617-3.92-2.425-6.638-2.425h-12.061zm34.079 23.382v-46.0225h30.154v5.1215h-24.426v14.824h23.921v5.087h-23.921v15.869h24.426v5.121zm38.561-13.308c-1.235-2.987-1.853-6.211-1.853-9.67s.618-6.682 1.853-9.669 2.909-5.503 5.02-7.547c2.111-2.0663 4.616-3.6834 7.513-4.8514 2.92-1.168 6.02-1.752 9.299-1.752 7.39 0 13.207 3.0435 17.452 9.1304l-4.75 2.695c-1.348-2.021-3.156-3.638-5.425-4.851-2.268-1.2356-4.694-1.8533-7.277-1.8533-5.076 0-9.299 1.7523-12.668 5.2563-3.369 3.481-5.054 7.962-5.054 13.442 0 3.572.775 6.795 2.325 9.67 1.55 2.852 3.672 5.076 6.368 6.671 2.695 1.572 5.705 2.358 9.029 2.358 2.56 0 4.975-.617 7.244-1.853 2.291-1.235 4.11-2.852 5.458-4.851l4.817 2.628c-4.469 6.131-10.309 9.197-17.519 9.197-3.279 0-6.379-.584-9.299-1.752-2.897-1.168-5.402-2.774-7.513-4.818-2.111-2.066-3.785-4.593-5.02-7.58zm45.972 13.308v-46.0225h5.728v46.0225zm11.035 0 18.564-46.0225h7.109l18.497 46.0225h-6.537l-4.076-10.276h-22.91l-4.077 10.276zm12.365-15.33h19.541l-9.804-24.83zm36.37 15.33v-46.0225h5.728v40.9015h21.394v5.121zm42.915 0v-46.0225h18.16c7.232 0 13.106 2.1114 17.62 6.3345 4.538 4.222 6.806 9.77 6.806 16.643 0 4.582-1.033 8.625-3.1 12.129-2.043 3.504-4.907 6.199-8.591 8.086-3.683 1.887-7.906 2.83-12.668 2.83zm9.804-8.625h8.356c2.942 0 5.525-.663 7.749-1.988 2.223-1.325 3.886-3.066 4.986-5.222 1.123-2.156 1.685-4.56 1.685-7.21 0-4.2-1.258-7.637-3.774-10.309-2.515-2.696-6.042-4.043-10.579-4.043h-8.423zm39.723 8.625v-46.0225h32.579v8.6255h-22.775v9.669h22.27v8.625h-22.27v10.478h22.775v8.625zm35.409 0 17.722-46.0225h12.297l17.722 46.0225h-11.118l-2.898-7.783h-19.709l-2.898 7.783zm16.677-16.408h14.353l-7.176-19.81zm34.905 16.408v-46.0225h9.871v37.3975h19.44v8.625z"/><path d="m65.835 82.3613c-4.2617-15.2645 4.5555-38.7484 41.294-56.3613-6.025 1.321-55.5485 7.9258-48.0539 49.0226-44.8207-10.2742-59.0751 41.9774-59.0751 41.9774s27.6272-39.629 65.835-34.6387z"/><path d="m298.301 95.1218s38.772-54.4831-26.876-62.8538-125.128 49.0495-169.628 44.2033c-44.4993-4.8462 12.043-42.7347 18.652-36.8605 6.609 5.8741-4.259 17.4757-9.105 16.7414-4.113-.5874-5.434-3.8182-1.763-9.2519-5.287 3.9651-8.518 12.0421-.734 13.5107 9.987 2.0559 23.645-12.189 16.008-22.4688-10.427-14.2449-65.5012 31.28-42.5905 46.8466 26.8765 18.3572 106.1825-43.9095 185.6355-34.6577 30.107 3.5246 36.423 28.4898 30.254 44.9375z"/></g></svg>